# Blender v2.79 (sub 0) OBJ File: ''
# www.blender.org
mtllib Killplanes.mtl
v 2500.000000 -200.000412 2500.000000
v 2500.000000 -199.999588 -2500.000000
v -1500.000000 -200.000412 2500.000000
v -1500.000000 -199.999588 -2500.000000
v 2500.000000 -230.000412 2500.000000
v 2500.000000 -229.999588 -2500.000000
v -1500.000000 -230.000412 2500.000000
v -1500.000000 -229.999588 -2500.000000
vt 0.000000 0.000000
vt 1.000000 1.000000
vt 1.000000 0.000000
vt 0.000000 0.000000
vt 1.000000 1.000000
vt 0.000000 0.000000
vt 1.000000 1.000000
vt 1.000000 0.000000
vt 0.000000 0.000000
vt 1.000000 0.000000
vt 0.000000 1.000000
vt 1.000000 0.000000
vt 0.000000 1.000000
vt 1.000000 0.000000
vt 0.000000 1.000000
vt 1.000000 0.000000
vt 0.000000 0.000000
vt 0.000000 1.000000
vt 0.000000 0.000000
vt 1.000000 1.000000
vt 1.000000 1.000000
vt 1.000000 1.000000
vn 0.0000 1.0000 0.0000
vn 0.0000 -1.0000 -0.0000
vn 1.0000 0.0000 0.0000
vn 0.0000 0.0000 -1.0000
vn 0.0000 0.0000 1.0000
vn -1.0000 0.0000 0.0000
usemtl None
s 1
f 1/1/1 2/2/1 3/3/1
f 2/4/1 4/5/1 3/3/1
f 5/6/2 7/7/2 6/8/2
f 6/9/2 7/7/2 8/10/2
f 5/11/3 2/12/3 1/1/3
f 6/13/4 4/14/4 2/4/4
f 7/15/5 1/16/5 3/17/5
f 8/18/6 3/3/6 4/19/6
f 5/11/3 6/20/3 2/12/3
f 6/13/4 8/21/4 4/14/4
f 7/15/5 5/22/5 1/16/5
f 8/18/6 7/7/6 3/3/6
