# Blender v2.79 (sub 0) OBJ File: ''
# www.blender.org
mtllib Unknown.mtl
v 0.500000 -0.500000 0.500000
v -0.500000 -0.500000 -0.500000
v -0.500000 -0.500000 -0.500000
v -0.500000 -0.500000 0.500000
v -0.500000 0.500000 0.500000
v -0.500000 0.500000 -0.500000
v 0.500000 0.500000 0.500000
v 0.500000 0.500000 -0.500000
v -0.500000 -0.500000 0.500000
v -0.500000 0.500000 0.500000
v -0.500000 -0.500000 -0.500000
v -0.500000 0.500000 -0.500000
v -0.500000 -0.500000 0.500000
v -0.500000 0.500000 0.500000
v 0.500000 -0.500000 0.500000
v 0.500000 0.500000 0.500000
v 0.500000 0.500000 0.500000
v 0.500000 -0.500000 -0.500000
v 0.500000 0.500000 -0.500000
v -0.500000 0.500000 -0.500000
v 0.500000 -0.500000 -0.500000
v 0.500000 0.500000 -0.500000
v 0.500000 -0.500000 0.500000
v 0.500000 -0.500000 -0.500000
vt 0.000000 1.000000
vt -1.000000 1.000000
vt -1.000000 0.000000
vt 1.000000 0.000000
vt 1.000000 -1.000000
vt 0.000000 -1.000000
vt 0.000000 1.000000
vt 1.000000 1.000000
vt 1.000000 0.000000
vt 0.000000 1.000000
vt -1.000000 1.000000
vt -1.000000 0.000000
vt 0.000000 1.000000
vt 1.000000 1.000000
vt 1.000000 0.000000
vt 0.000000 0.000000
vt 0.000000 0.000000
vt 0.000000 0.000000
vt 0.000000 0.000000
vt 0.000000 0.000000
vt -1.000000 0.000000
vt 0.000000 -1.000000
vt 0.000000 0.000000
vt -1.000000 -1.000000
vn 0.0000 0.0000 1.0000
vn 0.0000 -1.0000 0.0000
vn 0.0000 0.0000 -1.0000
vn 1.0000 0.0000 0.0000
vn -1.0000 0.0000 0.0000
vn 0.0000 1.0000 0.0000
usemtl None
s off
f 16/1/1 14/2/1 13/3/1
f 24/4/2 23/5/2 4/6/2
f 20/7/3 22/8/3 21/9/3
f 19/10/4 17/11/4 1/12/4
f 10/13/5 12/14/5 11/15/5
f 16/1/1 13/3/1 15/16/1
f 24/4/2 4/6/2 2/17/2
f 20/7/3 21/9/3 3/18/3
f 19/10/4 1/12/4 18/19/4
f 10/13/5 11/15/5 9/20/5
f 6/21/6 7/22/6 8/23/6
f 6/21/6 5/24/6 7/22/6
