# Blender v2.79 (sub 0) OBJ File: ''
# www.blender.org
mtllib AIRCONT.mtl
v 100.000015 59.999962 31.750010
v -97.999985 60.000031 31.750010
v 100.000015 59.999969 -31.749990
v -97.999985 60.000038 -31.749990
v 100.000015 42.749973 -49.999992
v -99.999985 42.750042 -49.999992
v 99.999985 -42.750027 -50.000008
v -100.000015 -42.749958 -50.000008
v 99.999985 -60.000031 -31.750010
v -100.000015 -59.999962 -31.750010
v 99.999985 -60.000038 31.749990
v -100.000015 -59.999969 31.749990
v 99.999985 -42.750042 49.999992
v -100.000015 -42.749973 49.999992
v 100.000015 42.749958 50.000008
v -99.999985 42.750027 50.000008
v -99.999992 -19.499962 -20.000004
v -99.999969 40.500038 -19.999994
v -99.999969 40.500031 20.000006
v -99.999992 -19.499969 19.999996
v 65.000038 40.499981 -19.999994
v 65.000015 -19.500019 -20.000004
v 65.000038 40.499973 20.000006
v 65.000015 -19.500027 19.999996
v 0.000013 42.749992 50.000008
v 0.000019 59.999996 31.750010
v 0.000019 60.000004 -31.749990
v 0.000013 42.750008 -49.999992
v -0.000013 -42.749992 -50.000008
v -0.000019 -59.999996 -31.750010
v -0.000013 -42.750008 49.999992
v -0.000019 -60.000004 31.749990
v 44.120007 -27.000008 49.999996
v 44.120007 -21.500010 58.999996
v 44.120007 -2.000008 50.000000
v 77.750000 -2.000008 50.000000
v 77.750000 -27.000008 49.999996
v 77.750000 -21.500010 58.999996
v 44.120007 -26.999992 -50.000004
v 44.120007 -21.499990 -59.000004
v 44.120007 -1.999992 -50.000000
v 77.750000 -1.999992 -50.000000
v 77.750000 -26.999992 -50.000004
v 77.750000 -21.499990 -59.000004
v 92.000000 39.500004 -28.556105
v 92.000000 39.499996 28.556107
v 92.000000 -39.499996 -28.556116
v 92.000000 -39.500004 28.556095
v 99.999969 -28.595978 17.756107
v 99.999969 28.595974 17.756119
v 99.999969 -28.595970 -17.756119
v 99.999969 28.595982 -17.756107
vt 0.000000 0.000000
vt 1.000000 0.000000
vt 1.000000 1.000000
vt 0.000000 0.000000
vt 1.000000 1.000000
vt 1.000000 0.000000
vt 1.000000 1.000000
vt 0.000000 0.000000
vt 1.000000 1.000000
vt 1.000000 0.000000
vt 1.000000 1.000000
vt 0.000000 0.000000
vt 1.000000 1.000000
vt 0.000000 0.000000
vt 1.000000 0.000000
vt 1.000000 0.000000
vt 1.000000 1.000000
vt 0.000000 0.000000
vt 1.000000 0.000000
vt 1.000000 1.000000
vt 0.000000 0.000000
vt 0.000000 0.000000
vt 1.000000 0.000000
vt 1.000000 1.000000
vt 0.000000 0.000000
vt 1.000000 1.000000
vt 1.000000 0.000000
vt 1.000000 1.000000
vt 0.000000 0.000000
vt 1.000000 1.000000
vt 1.000000 0.000000
vt 1.000000 1.000000
vt 0.000000 0.000000
vt 1.000000 0.000000
vt 1.000000 1.000000
vt 1.000000 1.000000
vt 0.000000 0.000000
vt 1.000000 0.000000
vt 1.000000 1.000000
vt 0.000000 0.000000
vt 1.000000 1.000000
vt 1.000000 1.000000
vt 0.000000 0.000000
vt 1.000000 0.000000
vt 1.000000 1.000000
vt 0.000000 0.000000
vt 1.000000 0.000000
vt 1.000000 1.000000
vt 0.000000 0.000000
vt 1.000000 0.000000
vt 1.000000 1.000000
vt 0.000000 0.000000
vt 1.000000 1.000000
vt 1.000000 0.000000
vt 1.000000 1.000000
vt 0.000000 0.000000
vt 1.000000 1.000000
vt 1.000000 0.000000
vt 1.000000 1.000000
vt 1.000000 0.000000
vt 1.000000 1.000000
vt 1.000000 1.000000
vt 1.000000 1.000000
vt 1.000000 0.000000
vt 1.000000 1.000000
vt 1.000000 1.000000
vt 1.000000 0.000000
vt 1.000000 1.000000
vt 0.000000 0.000000
vt 1.000000 1.000000
vt 1.000000 0.000000
vt 1.000000 1.000000
vt 0.000000 0.000000
vt 1.000000 1.000000
vt 1.000000 0.000000
vt 0.000000 0.000000
vt 1.000000 1.000000
vt 1.000000 0.000000
vt 1.000000 1.000000
vt 0.000000 0.000000
vt 1.000000 1.000000
vt 1.000000 0.000000
vt 0.000000 0.000000
vt 1.000000 1.000000
vt 1.000000 0.000000
vt 1.000000 0.000000
vt 0.000000 0.000000
vt 1.000000 1.000000
vt 1.000000 0.000000
vt 0.000000 0.000000
vt 1.000000 1.000000
vt 1.000000 0.000000
vt 0.000000 0.000000
vt 0.000000 0.000000
vt 0.000000 0.000000
vt 0.000000 0.000000
vt 1.000000 0.000000
vt 0.000000 0.000000
vt 0.000000 0.000000
vt 1.000000 0.000000
vt 1.000000 1.000000
vt 0.000000 0.000000
vt 1.000000 1.000000
vt 1.000000 0.000000
vt 1.000000 1.000000
vt 0.000000 0.000000
vt 1.000000 1.000000
vt 1.000000 0.000000
vt 1.000000 1.000000
vt 1.000000 0.000000
vt 0.000000 0.000000
vt 1.000000 0.000000
vt 1.000000 1.000000
vt 0.000000 0.000000
vt 1.000000 1.000000
vt 1.000000 0.000000
vt 1.000000 1.000000
vt 0.000000 0.000000
vt 1.000000 1.000000
vt 1.000000 0.000000
vt 1.000000 1.000000
vt 1.000000 0.000000
vt 0.000000 0.000000
vt 1.000000 0.000000
vn -0.6280 -0.3079 -0.7147
vn 0.0000 0.3957 -0.9184
vn -0.0000 -0.3957 -0.9184
vn 0.7315 0.2812 -0.6212
vn 0.7315 -0.2812 -0.6212
vn 0.9943 -0.0792 0.0716
vn 0.9943 0.0792 0.0716
vn 0.9398 -0.2404 -0.2428
vn -0.6326 -0.7196 -0.2863
vn -0.0000 -0.9292 -0.3696
vn 0.7407 -0.6202 -0.2584
vn -0.5774 0.5774 -0.5774
vn -0.9045 0.3015 -0.3015
vn -0.9189 -0.2452 -0.3089
vn -0.6334 0.3194 0.7048
vn -0.5923 0.7552 0.2808
vn 0.0000 0.3957 0.9184
vn -0.5774 -0.5774 -0.5774
vn -0.9045 0.3015 0.3015
vn -0.6326 -0.7196 0.2863
vn -0.5773 0.5774 0.5774
vn -0.5774 -0.5774 0.5774
vn -0.9189 -0.2452 0.3089
vn -0.5923 0.7552 -0.2808
vn 0.0000 0.9292 0.3696
vn 0.7315 0.2812 0.6212
vn 0.7315 -0.2812 0.6212
vn 0.9943 0.0792 -0.0716
vn 0.7407 -0.6202 0.2584
vn -0.0000 -0.9292 0.3696
vn -0.6334 0.3194 -0.7048
vn 0.0000 0.9292 -0.3696
vn 0.7407 0.6202 -0.2584
vn 0.7407 0.6202 0.2584
vn 0.9943 -0.0792 -0.0716
vn 0.9398 0.2404 -0.2427
vn 0.9398 0.2404 0.2428
vn 0.9398 -0.2404 0.2428
vn -0.0000 -0.3957 0.9184
vn -0.6280 -0.3079 0.7147
vn 0.2654 0.4040 0.8754
vn -0.2654 0.4040 0.8754
vn -0.5837 -0.2360 0.7769
vn -0.5454 -0.7152 0.4370
vn 0.5837 -0.2360 0.7769
vn 0.5454 -0.7152 0.4371
vn -0.2654 0.4040 -0.8754
vn 0.2654 0.4040 -0.8754
vn 0.5837 -0.2360 -0.7769
vn 0.5454 -0.7152 -0.4371
vn -0.5837 -0.2360 -0.7769
vn -0.5454 -0.7152 -0.4371
usemtl material_0
f 8/1/1 28/2/2 29/3/3
f 29/4/3 28/2/2 5/5/4
f 29/4/3 5/6/4 7/7/5
f 7/8/5 5/6/4 45/9/6
f 7/8/5 45/10/6 47/11/7
f 47/12/7 45/10/6 51/13/8
f 10/14/9 8/15/1 29/3/3
f 10/14/9 29/16/3 30/17/10
f 30/18/10 29/16/3 7/7/5
f 30/18/10 7/19/5 9/20/11
f 9/21/11 7/19/5 47/11/7
f 24/22/12 20/23/13 19/24/14
f 19/25/14 20/23/13 16/26/15
f 19/25/14 16/27/15 2/28/16
f 2/29/16 16/27/15 25/30/17
f 19/25/14 23/31/18 24/32/12
f 17/33/19 12/34/20 20/35/13
f 17/33/19 20/23/13 22/36/21
f 22/37/21 20/23/13 24/32/12
f 22/37/21 24/38/12 21/39/22
f 21/40/22 24/38/12 23/41/18
f 21/40/22 23/31/18 18/42/23
f 18/43/23 23/31/18 19/24/14
f 18/43/23 19/44/14 4/45/24
f 4/46/24 19/44/14 2/28/16
f 4/46/24 2/47/16 26/48/25
f 26/49/25 2/47/16 25/30/17
f 26/49/25 25/50/17 15/51/26
f 15/52/26 25/50/17 13/53/27
f 15/52/26 13/54/27 48/55/28
f 48/56/28 13/54/27 11/57/29
f 48/56/28 11/58/29 9/20/11
f 9/21/11 11/58/29 32/59/30
f 9/21/11 32/60/30 30/17/10
f 30/18/10 32/60/30 12/61/20
f 30/18/10 12/34/20 10/62/9
f 10/14/9 12/34/20 17/63/19
f 10/14/9 17/64/19 8/65/1
f 8/1/1 17/64/19 6/66/31
f 8/1/1 6/67/31 28/68/2
f 28/69/2 6/67/31 27/70/32
f 28/69/2 27/71/32 3/72/33
f 3/73/33 27/71/32 1/74/34
f 3/73/33 1/75/34 45/9/6
f 45/76/6 1/75/34 46/77/35
f 45/76/6 46/78/35 52/79/36
f 52/80/36 46/78/35 50/81/37
f 52/80/36 50/82/37 51/13/8
f 51/83/8 50/82/37 49/84/38
f 51/83/8 49/85/38 47/11/7
f 47/12/7 49/85/38 48/55/28
f 47/12/7 48/86/28 9/20/11
f 11/87/29 13/54/27 31/88/39
f 11/87/29 31/89/39 32/59/30
f 32/90/30 31/89/39 14/91/40
f 32/90/30 14/92/40 12/61/20
f 12/93/20 14/92/40 20/35/13
f 13/94/27 25/50/17 31/88/39
f 31/95/39 25/50/17 16/26/15
f 31/95/39 16/27/15 14/91/40
f 14/96/40 16/27/15 20/35/13
f 28/69/2 3/97/33 5/5/4
f 5/98/4 3/97/33 45/9/6
f 36/99/41 35/100/42 34/101/43
f 34/102/43 35/100/42 33/103/44
f 34/102/43 33/104/44 38/105/45
f 38/106/45 33/104/44 37/107/46
f 38/106/45 37/108/46 36/109/41
f 34/102/43 38/110/45 36/109/41
f 41/111/47 42/112/48 44/113/49
f 44/114/49 42/112/48 43/115/50
f 44/114/49 43/116/50 40/117/51
f 40/118/51 43/116/50 39/119/52
f 40/118/51 39/120/52 41/121/47
f 44/114/49 40/122/51 41/121/47
f 49/123/38 50/82/37 48/55/28
f 48/56/28 50/82/37 46/77/35
f 48/56/28 46/78/35 15/51/26
f 15/52/26 46/78/35 1/74/34
f 15/52/26 1/75/34 26/48/25
f 26/49/25 1/75/34 27/70/32
f 26/49/25 27/71/32 4/45/24
f 4/46/24 27/71/32 6/66/31
f 4/46/24 6/67/31 18/42/23
f 18/43/23 6/67/31 17/63/19
f 18/43/23 17/64/19 21/39/22
f 21/40/22 17/64/19 22/36/21
f 45/76/6 52/124/36 51/13/8
