# Blender v2.79 (sub 0) OBJ File: ''
# www.blender.org
mtllib Death.mtl
v -150.000000 118.000717 -4400.000000
v -1150.000000 118.000717 -4400.000000
v -150.000000 118.000580 -3546.666992
v -1150.000000 118.000580 -3546.666992
v -150.000000 418.000519 -3203.333008
v -1150.000000 418.000519 -3203.333008
v -150.000000 418.000397 -2500.000000
v -1150.000000 418.000397 -2500.000000
v -1430.000000 746.000854 -5060.000000
v -1430.000000 746.000854 -5340.000000
v -2280.000000 746.000854 -5060.000000
v -2280.000000 746.000854 -5340.000000
v 400.000000 -1985.998535 -8900.000000
v 400.000000 -1985.998413 -9400.000000
v -200.000000 -1985.998535 -8900.000000
v -200.000000 -1985.998413 -9400.000000
v -1500.866943 284.407471 -8899.802734
v -2900.866943 284.407471 -8899.802734
v -1500.866943 284.407166 -7126.470215
v -2900.866943 284.407166 -7126.470215
v -1500.866943 684.407043 -6333.137207
v -2900.866943 684.407043 -6333.137207
v -1500.866943 684.406921 -5589.803223
v -2900.866943 684.406921 -5589.803223
v -250.000000 699.001343 -8280.000000
v -250.000000 699.001648 -10075.000000
v -1865.000000 699.001343 -8280.000000
v -1865.000000 699.001648 -10075.000000
v -150.000000 88.000717 -4400.000000
v -1150.000000 88.000717 -4400.000000
v -150.000000 88.000580 -3546.666992
v -1150.000000 88.000580 -3546.666992
v -150.000000 388.000519 -3203.333008
v -1150.000000 388.000519 -3203.333008
v -150.000000 388.000397 -2500.000000
v -1150.000000 388.000397 -2500.000000
v -1430.000000 716.000854 -5060.000000
v -1430.000000 716.000854 -5340.000000
v -2280.000000 716.000854 -5060.000000
v -2280.000000 716.000854 -5340.000000
v 400.000000 -2015.998535 -8900.000000
v 400.000000 -2015.998413 -9400.000000
v -200.000000 -2015.998535 -8900.000000
v -200.000000 -2015.998413 -9400.000000
v -1500.866943 254.407455 -8899.802734
v -2900.866943 254.407455 -8899.802734
v -1500.866943 254.407166 -7126.470215
v -2900.866943 254.407166 -7126.470215
v -1500.866943 654.407043 -6333.137207
v -2900.866943 654.407043 -6333.137207
v -1500.866943 654.406921 -5589.803223
v -2900.866943 654.406921 -5589.803223
v -250.000000 669.001343 -8280.000000
v -250.000000 669.001648 -10075.000000
v -1865.000000 669.001343 -8280.000000
v -1865.000000 669.001648 -10075.000000
vt 0.000000 0.000000
vt 1.000000 0.000000
vt 1.000000 1.000000
vt 0.000000 0.000000
vt 1.000000 1.000000
vt 0.000000 0.000000
vt 1.000000 0.000000
vt 0.000000 0.000000
vt 1.000000 1.000000
vt 0.000000 0.000000
vt 1.000000 0.000000
vt 0.000000 0.000000
vt 1.000000 1.000000
vt 0.000000 0.000000
vt 1.000000 0.000000
vt 1.000000 1.000000
vt 0.000000 0.000000
vt 1.000000 1.000000
vt 0.000000 0.000000
vt 1.000000 0.000000
vt 1.000000 1.000000
vt 0.000000 0.000000
vt 1.000000 1.000000
vt 0.000000 0.000000
vt 1.000000 0.000000
vt 1.000000 1.000000
vt 0.000000 0.000000
vt 1.000000 1.000000
vt 0.000000 0.000000
vt 1.000000 0.000000
vt 0.000000 0.000000
vt 1.000000 1.000000
vt 0.000000 0.000000
vt 1.000000 0.000000
vt 0.000000 0.000000
vt 1.000000 1.000000
vt 0.000000 0.000000
vt 1.000000 0.000000
vt 1.000000 1.000000
vt 0.000000 0.000000
vt 1.000000 1.000000
vt 0.000000 0.000000
vt 1.000000 0.000000
vt 1.000000 1.000000
vt 0.000000 0.000000
vt 1.000000 0.000000
vt 0.000000 0.000000
vt 1.000000 1.000000
vt 0.000000 0.000000
vt 1.000000 0.000000
vt 0.000000 0.000000
vt 1.000000 1.000000
vt 0.000000 0.000000
vt 1.000000 0.000000
vt 0.000000 0.000000
vt 1.000000 0.000000
vt 1.000000 1.000000
vt 0.000000 0.000000
vt 1.000000 0.000000
vt 0.000000 0.000000
vt 1.000000 0.000000
vt 1.000000 1.000000
vt 0.000000 0.000000
vt 1.000000 0.000000
vt 0.000000 0.000000
vt 1.000000 0.000000
vt 1.000000 1.000000
vt 0.000000 0.000000
vt 1.000000 0.000000
vt 0.000000 0.000000
vt 1.000000 1.000000
vt 0.000000 0.000000
vt 1.000000 0.000000
vt 0.000000 0.000000
vt 1.000000 1.000000
vt 0.000000 0.000000
vt 1.000000 0.000000
vt 0.000000 0.000000
vt 1.000000 0.000000
vt 1.000000 1.000000
vt 0.000000 0.000000
vt 1.000000 0.000000
vt 1.000000 0.000000
vt 0.000000 1.000000
vt 1.000000 0.000000
vt 0.000000 1.000000
vt 1.000000 0.000000
vt 0.000000 1.000000
vt 1.000000 0.000000
vt 0.000000 1.000000
vt 1.000000 0.000000
vt 0.000000 1.000000
vt 0.000000 1.000000
vt 1.000000 0.000000
vt 0.000000 1.000000
vt 0.000000 0.000000
vt 1.000000 1.000000
vt 0.000000 1.000000
vt 0.000000 1.000000
vt 0.000000 0.000000
vt 1.000000 0.000000
vt 0.000000 1.000000
vt 0.000000 1.000000
vt 0.000000 0.000000
vt 1.000000 0.000000
vt 0.000000 1.000000
vt 0.000000 1.000000
vt 1.000000 0.000000
vt 0.000000 1.000000
vt 0.000000 1.000000
vt 0.000000 0.000000
vt 0.000000 1.000000
vt 0.000000 0.000000
vt 1.000000 0.000000
vt 0.000000 1.000000
vt 0.000000 0.000000
vt 1.000000 0.000000
vt 0.000000 1.000000
vt 0.000000 1.000000
vt 0.000000 0.000000
vt 1.000000 0.000000
vt 0.000000 1.000000
vt 1.000000 0.000000
vt 0.000000 1.000000
vt 1.000000 0.000000
vt 0.000000 1.000000
vt 0.000000 1.000000
vt 0.000000 0.000000
vt 1.000000 0.000000
vt 0.000000 1.000000
vt 0.000000 0.000000
vt 1.000000 0.000000
vt 0.000000 1.000000
vt 0.000000 1.000000
vt 0.000000 0.000000
vt 1.000000 0.000000
vt 0.000000 1.000000
vt 1.000000 1.000000
vt 0.000000 1.000000
vt 1.000000 1.000000
vt 1.000000 1.000000
vt 1.000000 1.000000
vt 1.000000 1.000000
vt 1.000000 1.000000
vt 1.000000 1.000000
vt 1.000000 0.000000
vt 1.000000 1.000000
vt 1.000000 1.000000
vt 1.000000 1.000000
vt 1.000000 1.000000
vt 1.000000 1.000000
vt 1.000000 1.000000
vt 1.000000 1.000000
vt 1.000000 1.000000
vt 1.000000 1.000000
vt 1.000000 1.000000
vt 1.000000 1.000000
vt 1.000000 0.000000
vn -0.5774 -0.5773 0.5773
vn -0.7954 -0.5675 0.2130
vn 0.5774 -0.5774 0.5773
vn 0.7954 -0.5675 0.2130
vn -0.6359 -0.7225 0.2712
vn 0.6359 -0.7225 0.2712
vn -0.5774 -0.5774 -0.5774
vn 0.5774 -0.5774 -0.5774
vn -0.5774 -0.5774 0.5774
vn 0.5774 -0.5774 0.5774
vn -0.5774 -0.5774 0.5773
vn -0.7631 -0.6288 0.1495
vn 0.7631 -0.6288 0.1495
vn -0.6585 -0.7321 0.1741
vn 0.6585 -0.7321 0.1741
vn -0.5774 -0.5774 -0.5773
vn -0.5774 0.5774 0.5774
vn 0.5774 0.5773 0.5773
vn -0.6359 0.7225 -0.2712
vn 0.6359 0.7225 -0.2712
vn -0.7954 0.5675 -0.2130
vn 0.7954 0.5675 -0.2130
vn -0.5774 0.5774 -0.5774
vn 0.5774 0.5774 -0.5773
vn -0.5773 0.5774 0.5774
vn 0.5773 0.5774 -0.5774
vn 0.5774 0.5774 0.5774
vn 0.5774 0.5774 -0.5774
vn -0.5774 0.5774 0.5773
vn 0.5774 0.5773 0.5774
vn -0.6585 0.7321 -0.1741
vn 0.6585 0.7321 -0.1741
vn -0.7631 0.6288 -0.1495
vn 0.7631 0.6288 -0.1495
vn -0.5774 0.5774 -0.5773
usemtl None
s 1
f 1/1/1 3/2/2 2/3/3
f 2/4/3 3/2/2 4/5/4
f 3/6/2 5/7/5 4/5/4
f 4/8/4 5/7/5 6/9/6
f 5/10/5 7/11/7 6/9/6
f 6/12/6 7/11/7 8/13/8
f 9/14/7 11/15/8 10/16/9
f 10/17/9 11/15/8 12/18/10
f 13/19/7 15/20/8 14/21/9
f 14/22/9 15/20/8 16/23/3
f 17/24/11 19/25/12 18/26/3
f 18/27/3 19/25/12 20/28/13
f 19/29/12 21/30/14 20/28/13
f 20/31/13 21/30/14 22/32/15
f 21/33/14 23/34/16 22/32/15
f 22/35/15 23/34/16 24/36/8
f 25/37/7 27/38/8 26/39/9
f 26/40/9 27/38/8 28/41/10
f 29/42/17 30/43/18 31/44/19
f 30/45/18 32/46/20 31/44/19
f 31/47/19 32/46/20 33/48/21
f 32/49/20 34/50/22 33/48/21
f 33/51/21 34/50/22 35/52/23
f 34/53/22 36/54/24 35/52/23
f 37/55/23 38/56/25 39/57/26
f 38/58/25 40/59/27 39/57/26
f 41/60/23 42/61/17 43/62/28
f 42/63/17 44/64/27 43/62/28
f 45/65/29 46/66/30 47/67/31
f 46/68/30 48/69/32 47/67/31
f 47/70/31 48/69/32 49/71/33
f 48/72/32 50/73/34 49/71/33
f 49/74/33 50/73/34 51/75/35
f 50/76/34 52/77/24 51/75/35
f 53/78/23 54/79/17 55/80/28
f 54/81/17 56/82/27 55/80/28
f 16/83/3 42/84/17 14/22/9
f 8/85/8 34/86/22 6/12/6
f 20/87/13 46/88/30 18/27/3
f 14/89/9 41/90/23 13/19/7
f 1/91/1 31/92/19 3/6/2
f 19/25/12 49/93/33 21/33/14
f 13/94/7 43/95/28 15/96/8
f 4/8/4 34/97/22 32/98/20
f 27/38/8 56/99/27 28/100/10
f 28/101/10 54/102/17 26/40/9
f 23/34/16 52/103/24 24/104/8
f 4/105/4 30/106/18 2/4/3
f 3/2/2 33/107/21 5/10/5
f 26/108/9 53/109/23 25/37/7
f 21/30/14 51/110/35 23/111/16
f 11/15/8 40/112/27 12/113/10
f 25/114/7 55/115/28 27/116/8
f 12/117/10 38/118/25 10/17/9
f 7/11/7 36/119/24 8/120/8
f 18/121/3 45/122/29 17/24/11
f 24/123/8 50/124/34 22/35/15
f 10/125/9 37/126/23 9/14/7
f 5/7/5 35/127/23 7/128/7
f 9/129/7 39/130/26 11/131/8
f 17/132/11 47/133/31 19/29/12
f 15/20/8 44/134/27 16/135/3
f 2/136/3 29/137/17 1/1/1
f 20/31/13 50/138/34 48/139/32
f 16/83/3 44/140/27 42/84/17
f 8/85/8 36/141/24 34/86/22
f 20/87/13 48/142/32 46/88/30
f 14/89/9 42/143/17 41/90/23
f 1/91/1 29/144/17 31/92/19
f 19/25/12 47/67/31 49/93/33
f 13/94/7 41/145/23 43/95/28
f 4/8/4 6/146/6 34/97/22
f 27/38/8 55/80/28 56/99/27
f 28/101/10 56/147/27 54/102/17
f 23/34/16 51/75/35 52/103/24
f 4/105/4 32/148/20 30/106/18
f 3/2/2 31/44/19 33/107/21
f 26/108/9 54/149/17 53/109/23
f 21/30/14 49/71/33 51/110/35
f 11/15/8 39/57/26 40/112/27
f 25/114/7 53/150/23 55/115/28
f 12/117/10 40/151/27 38/118/25
f 7/11/7 35/52/23 36/119/24
f 18/121/3 46/152/30 45/122/29
f 24/123/8 52/153/24 50/124/34
f 10/125/9 38/154/25 37/126/23
f 5/7/5 33/48/21 35/127/23
f 9/129/7 37/155/23 39/130/26
f 17/132/11 45/156/29 47/133/31
f 15/20/8 43/62/28 44/134/27
f 2/136/3 30/157/18 29/137/17
f 20/31/13 22/158/15 50/138/34
