# Blender v2.79 (sub 0) OBJ File: ''
# www.blender.org
mtllib TORCHCUP.mtl
v 0.000000 7.764493 0.000001
v 17.756105 0.000002 -10.251270
v 26.769508 29.807352 -15.455377
v 26.769508 29.807352 -15.455377
v 0.000568 0.000125 -20.502522
v -0.000001 29.807356 -30.910759
v -0.000001 29.807356 -30.910759
v -17.755228 0.000002 -10.251264
v -26.769508 29.807352 -15.455376
v -26.769508 29.807352 -15.455376
v -17.755226 -0.000002 10.251209
v -26.769508 29.807348 15.455393
v -26.769508 29.807348 15.455393
v 0.000442 -0.000003 20.502436
v 0.000006 29.807344 30.910776
v 0.000006 29.807344 30.910776
v 17.756109 -0.000002 10.251201
v 26.769514 29.807348 15.455382
v 26.769514 29.807348 15.455382
vt 0.500000 1.000000
vt 0.000000 1.000000
vt 0.500000 0.265625
vt 0.996094 1.000000
vt 0.003906 1.000000
vt 0.828125 0.007812
vt 0.195312 0.007812
vt 0.996094 1.000000
vt 0.003906 1.000000
vt 0.828125 0.007812
vt 0.195312 0.007812
vt 0.996094 1.000000
vt 0.003906 1.000000
vt 0.828125 0.007812
vt 0.195312 0.007812
vt 0.000000 1.000000
vt 0.500000 1.000000
vt 1.000000 1.000000
vt 0.000000 1.000000
vt 0.500000 1.000000
vt 0.996094 1.000000
vt 0.003906 1.000000
vt 0.828125 0.007812
vt 0.195312 0.007812
vt 0.996094 1.000000
vt 0.003906 1.000000
vt 0.828125 0.007812
vt 0.195312 0.007812
vt 0.996094 1.000000
vt 0.003906 1.000000
vt 0.828125 0.007812
vt 0.195312 0.007812
vn -0.5028 0.8142 -0.2903
vn -0.5028 0.8142 0.2903
vn 0.0000 1.0000 0.0000
vn -0.0000 -0.3297 -0.9441
vn 0.8176 -0.3297 -0.4721
vn 0.8176 -0.3297 -0.4720
vn 0.8176 -0.3297 0.4721
vn 0.8176 -0.3297 0.4720
vn -0.8176 -0.3297 -0.4720
vn 0.5028 0.8142 0.2903
vn 0.0000 0.8142 0.5806
vn -0.0000 0.8142 -0.5806
vn 0.5028 0.8142 -0.2903
vn -0.8176 -0.3297 0.4720
vn -0.0000 -0.3297 0.9441
usemtl material_0
s 1
f 18/1/1 3/2/2 1/3/3
f 6/4/4 4/5/5 5/6/4
f 5/6/4 4/5/5 2/7/6
f 4/8/5 19/9/7 2/10/6
f 2/10/6 19/9/7 17/11/8
f 9/12/9 6/13/4 8/14/9
f 8/14/9 6/13/4 5/15/4
f 10/16/10 1/3/3 7/17/11
f 7/17/11 1/3/3 3/18/2
f 15/19/12 18/1/1 1/3/3
f 15/19/12 1/3/3 13/20/13
f 13/20/13 1/3/3 10/16/10
f 12/21/14 9/22/9 11/23/14
f 11/23/14 9/22/9 8/24/9
f 19/25/7 16/26/15 17/27/8
f 17/27/8 16/26/15 14/28/15
f 16/29/15 12/30/14 14/31/15
f 14/31/15 12/30/14 11/32/14
