# Blender v2.79 (sub 0) OBJ File: ''
# www.blender.org
mtllib CLEAR_SW.mtl
v 41.223507 30.000002 -17.075331
v 29.194572 95.000008 -12.092783
v 17.075335 30.000008 -41.223503
v 12.092790 95.000015 -29.194569
v -17.075338 30.000008 -41.223503
v -12.092801 95.000015 -29.194557
v -41.223507 30.000002 -17.075327
v -29.194584 95.000008 -12.092778
v -41.223507 29.999998 17.075342
v -29.194572 95.000008 12.092814
v -17.075335 29.999992 41.223511
v -12.092793 95.000000 29.194599
v 17.075338 29.999992 41.223511
v 12.092798 95.000000 29.194588
v 41.223507 29.999998 17.075338
v 29.194584 95.000008 12.092809
v -8.102995 96.494820 34.770405
v 8.102997 96.494820 34.770405
v -6.539997 109.184166 27.504969
v 6.540001 109.184166 27.504969
v -34.770390 96.494827 -8.102979
v -34.770390 96.494827 8.103013
v -27.504951 109.184174 -6.539979
v -27.504951 109.184174 6.540020
v 8.102992 96.494835 -34.770374
v -8.103000 96.494835 -34.770374
v 6.539994 109.184181 -27.504934
v -6.540004 109.184181 -27.504934
v 34.770390 96.494827 8.103009
v 34.770390 96.494827 -8.102983
v 27.504951 109.184174 6.540015
v 27.504951 109.184174 -6.539984
v -12.092793 95.000000 29.194597
v 12.092798 95.000000 29.194588
v -9.252583 111.207954 22.548458
v 9.252588 111.207954 22.548456
v -29.194582 95.000008 -12.092778
v -29.194572 95.000008 12.092814
v -22.548441 111.207954 -9.252563
v -22.548439 111.207954 9.252607
v 12.092791 95.000015 -29.194569
v -12.092801 95.000015 -29.194555
v 9.252581 111.207954 -22.548424
v -9.252590 111.207954 -22.548422
v 29.194582 95.000008 12.092809
v 29.194572 95.000008 -12.092783
v 22.548441 111.207954 9.252601
v 22.548439 111.207954 -9.252570
v -2.422446 83.110710 31.336674
v 2.422454 83.110710 31.336674
v -31.336660 83.110718 -2.422433
v -31.336660 83.110718 2.422466
v 2.422448 83.110725 -31.336647
v -2.422451 83.110725 -31.336647
v 31.336660 83.110718 2.422458
v 31.336660 83.110718 -2.422441
v 0.000002 115.961960 0.000021
v -56.648163 28.397943 -5.960660
v -56.648163 28.397940 5.960681
v -41.220524 29.997719 -5.138498
v -41.220524 29.997719 5.138520
v -35.563004 81.057602 0.000016
v -42.973053 47.356762 0.000011
v -5.960662 28.397932 56.648167
v 5.960678 28.397932 56.648167
v 5.960667 28.397951 -56.648159
v -5.960673 28.397951 -56.648159
v 56.648163 28.397940 5.960665
v 56.648163 28.397943 -5.960675
v -0.000001 81.057610 -35.562992
v -0.000001 47.356770 -42.973045
v 35.563004 81.057602 0.000007
v 42.973053 47.356762 0.000002
v 0.000004 81.057594 35.563015
v 0.000005 47.356754 42.973061
v -5.138501 29.997711 41.220528
v 5.138516 29.997711 41.220528
v 41.220524 29.997719 5.138504
v 41.220524 29.997719 -5.138513
v 5.138505 29.997726 -41.220520
v -5.138513 29.997726 -41.220520
v 45.345856 20.000004 -18.782867
v 18.782866 20.000008 -45.345852
v -18.782871 20.000008 -45.345852
v -45.345856 20.000004 -18.782862
v -45.345856 19.999996 18.782875
v -18.782866 19.999992 45.345860
v 18.782871 19.999992 45.345860
v 45.345856 19.999996 18.782869
v 41.223507 30.000002 -17.075331
v 17.075333 30.000008 -41.223503
v -17.075336 30.000008 -41.223503
v -41.223507 30.000002 -17.075327
v -41.223507 29.999998 17.075342
v -17.075333 29.999992 41.223511
v 17.075336 29.999992 41.223511
v 41.223507 29.999998 17.075338
v 74.445862 20.000002 -10.518406
v 74.445862 19.999998 10.518408
v 70.323509 27.001001 -9.562184
v 70.323509 27.000998 9.562191
v -74.445862 20.000002 -10.518402
v -74.445862 19.999998 10.518412
v -70.323509 27.001001 -9.562181
v -70.323509 27.000998 9.562194
v -10.518405 19.999989 74.445862
v 10.518409 19.999989 74.445862
v -9.562186 26.999989 70.323517
v 9.562189 26.999989 70.323517
v 10.518405 20.000011 -74.445862
v -10.518409 20.000011 -74.445862
v 9.562186 27.000011 -70.323502
v -9.562189 27.000011 -70.323502
vt 0.000000 0.000000
vt 1.000000 0.000000
vt 1.000000 1.000000
vt 1.000000 0.000000
vt 1.000000 1.000000
vt 0.000000 0.000000
vt 1.000000 1.000000
vt 1.000000 0.000000
vt 1.000000 1.000000
vt 0.000000 0.000000
vt 1.000000 0.000000
vt 1.000000 1.000000
vt 0.000000 0.000000
vt 1.000000 1.000000
vt 0.000000 0.000000
vt 1.000000 0.000000
vt 1.000000 1.000000
vt 0.000000 0.000000
vt 1.000000 1.000000
vt 0.000000 0.000000
vt 1.000000 0.000000
vt 1.000000 1.000000
vt 0.000000 0.000000
vt 1.000000 1.000000
vt 1.000000 0.000000
vt 1.000000 1.000000
vt 0.000000 0.000000
vt 1.000000 1.000000
vt 1.000000 0.000000
vt 1.000000 1.000000
vt 0.000000 0.000000
vt 1.000000 1.000000
vt 1.000000 0.000000
vt 0.000000 0.000000
vt 1.000000 1.000000
vt 0.000000 0.000000
vt 1.000000 1.000000
vt 0.000000 0.000000
vt 1.000000 1.000000
vt 0.000000 0.000000
vt 1.000000 0.000000
vt 1.000000 1.000000
vt 0.000000 0.000000
vt 1.000000 1.000000
vt 0.000000 0.000000
vt 1.000000 0.000000
vt 1.000000 1.000000
vt 0.000000 0.000000
vt 1.000000 0.000000
vt 1.000000 1.000000
vt 0.000000 0.000000
vt 1.000000 0.000000
vt 1.000000 1.000000
vt 0.000000 0.000000
vt 1.000000 1.000000
vt 1.000000 0.000000
vt 1.000000 1.000000
vt 0.000000 0.000000
vt 1.000000 1.000000
vt 1.000000 0.000000
vt 1.000000 1.000000
vt 0.000000 0.000000
vt 1.000000 1.000000
vt 1.000000 1.000000
vt 1.000000 0.000000
vt 1.000000 1.000000
vt 1.000000 0.000000
vt 1.000000 1.000000
vt 1.000000 1.000000
vt 1.000000 0.000000
vt 1.000000 1.000000
vt 0.000000 0.000000
vt 1.000000 0.000000
vt 1.000000 1.000000
vt 0.000000 0.000000
vt 1.000000 0.000000
vt 1.000000 1.000000
vt 1.000000 1.000000
vt 1.000000 0.000000
vt 1.000000 1.000000
vt 1.000000 1.000000
vt 1.000000 0.000000
vt 1.000000 1.000000
vt 0.000000 0.000000
vt 0.000000 0.000000
vt 0.000000 0.000000
vt 1.000000 1.000000
vt 1.000000 0.000000
vt 1.000000 0.000000
vt 1.000000 1.000000
vt 0.000000 0.000000
vt 0.000000 0.000000
vt 1.000000 1.000000
vt 1.000000 1.000000
vt 0.000000 0.000000
vt 0.000000 0.000000
vt 1.000000 0.000000
vt 1.000000 1.000000
vt 1.000000 0.000000
vt 1.000000 1.000000
vt 0.000000 0.000000
vt 1.000000 1.000000
vt 0.000000 0.000000
vt 0.000000 0.000000
vt 1.000000 1.000000
vt 0.000000 0.000000
vt 1.000000 0.000000
vt 1.000000 1.000000
vt 1.000000 0.000000
vt 1.000000 1.000000
vt 0.000000 0.000000
vt 1.000000 0.000000
vt 1.000000 1.000000
vt 0.000000 0.000000
vt 0.000000 0.000000
vt 1.000000 0.000000
vt 1.000000 1.000000
vt 1.000000 0.000000
vt 1.000000 1.000000
vt 1.000000 0.000000
vt 0.000000 0.000000
vt 1.000000 0.000000
vt 1.000000 1.000000
vt 1.000000 0.000000
vt 1.000000 1.000000
vt 1.000000 0.000000
vt 0.000000 0.000000
vt 1.000000 1.000000
vt 1.000000 0.000000
vt 1.000000 1.000000
vt 1.000000 0.000000
vt 0.000000 0.000000
vt 1.000000 1.000000
vt 1.000000 0.000000
vt 1.000000 1.000000
vt 0.000000 0.000000
vt 1.000000 0.000000
vt 1.000000 1.000000
vt 0.000000 0.000000
vt 0.000000 0.000000
vt 1.000000 1.000000
vt 0.000000 0.000000
vt 1.000000 1.000000
vt 0.000000 0.000000
vt 1.000000 0.000000
vt 1.000000 1.000000
vt 0.000000 0.000000
vt 1.000000 1.000000
vt 1.000000 0.000000
vt 1.000000 1.000000
vt 0.000000 0.000000
vt 1.000000 1.000000
vt 1.000000 0.000000
vt 1.000000 1.000000
vt 0.000000 0.000000
vt 1.000000 1.000000
vt 1.000000 0.000000
vt 1.000000 1.000000
vt 0.000000 0.000000
vt 1.000000 1.000000
vt 1.000000 0.000000
vt 0.000000 0.000000
vt 1.000000 0.000000
vt 1.000000 1.000000
vt 0.000000 0.000000
vt 1.000000 1.000000
vt 1.000000 0.000000
vt 1.000000 1.000000
vt 0.000000 0.000000
vt 1.000000 1.000000
vt 1.000000 0.000000
vt 1.000000 1.000000
vt 0.000000 0.000000
vt 1.000000 1.000000
vt 1.000000 0.000000
vt 1.000000 1.000000
vt 0.000000 0.000000
vt 1.000000 0.000000
vt 0.000000 0.000000
vt 1.000000 0.000000
vt 1.000000 1.000000
vt 0.000000 0.000000
vt 1.000000 1.000000
vt 1.000000 0.000000
vt 1.000000 1.000000
vt 0.000000 0.000000
vt 1.000000 1.000000
vt 1.000000 0.000000
vt 1.000000 1.000000
vt 0.000000 0.000000
vt 1.000000 1.000000
vt 1.000000 0.000000
vt 1.000000 1.000000
vt 0.000000 0.000000
vt 1.000000 0.000000
vt 0.000000 0.000000
vt 1.000000 0.000000
vt 0.000000 0.000000
vt 1.000000 1.000000
vt 1.000000 0.000000
vt 1.000000 1.000000
vt 0.000000 0.000000
vt 1.000000 1.000000
vt 1.000000 0.000000
vt 1.000000 1.000000
vt 0.000000 0.000000
vt 1.000000 1.000000
vt 1.000000 0.000000
vt 1.000000 1.000000
vt 0.000000 0.000000
vt 1.000000 0.000000
vt 1.000000 0.000000
vt 1.000000 0.000000
vt 1.000000 0.000000
vt 1.000000 0.000000
vt 0.000000 0.000000
vt 1.000000 0.000000
vt 1.000000 1.000000
vt 0.000000 0.000000
vt 1.000000 1.000000
vt 1.000000 0.000000
vt 1.000000 1.000000
vt 0.000000 0.000000
vt 1.000000 1.000000
vt 1.000000 0.000000
vt 1.000000 1.000000
vt 0.000000 0.000000
vt 1.000000 1.000000
vt 1.000000 0.000000
vt 1.000000 1.000000
vt 0.000000 0.000000
vt 1.000000 1.000000
vt 1.000000 0.000000
vt 1.000000 1.000000
vt 0.000000 0.000000
vt 1.000000 1.000000
vt 1.000000 0.000000
vt 1.000000 1.000000
vt 0.000000 0.000000
vt 1.000000 1.000000
vt 1.000000 0.000000
vt 1.000000 1.000000
vt 0.000000 0.000000
vt 1.000000 1.000000
vt 1.000000 0.000000
vt 1.000000 1.000000
vt 1.000000 1.000000
vn -0.4904 0.1479 0.8589
vn -0.3764 0.8054 0.4579
vn -0.7874 0.1466 0.5988
vn 0.0000 -0.0799 0.9968
vn -0.8633 -0.4083 0.2965
vn -0.9568 0.2702 0.1070
vn 0.8589 0.1479 -0.4904
vn 0.6584 0.6867 0.3080
vn 0.8589 0.1479 0.4904
vn 0.4579 0.8054 0.3764
vn -0.4904 0.1479 -0.8589
vn 0.3080 0.6867 -0.6584
vn 0.4904 0.1479 -0.8589
vn 0.3764 0.8054 -0.4579
vn -0.7874 0.1466 -0.5988
vn -0.5988 0.1466 -0.7874
vn -0.4579 0.8054 -0.3764
vn -0.8589 0.1479 -0.4904
vn -0.6584 0.6867 -0.3080
vn -0.8589 0.1479 0.4904
vn -0.6584 0.6867 0.3080
vn -0.4579 0.8054 0.3764
vn -0.9968 -0.0799 0.0000
vn -0.5988 0.1466 0.7874
vn -0.2965 -0.4083 0.8633
vn -0.1070 0.2702 0.9568
vn 0.5988 0.1466 -0.7874
vn 0.9968 -0.0799 -0.0000
vn 0.5988 0.1466 0.7874
vn 0.7874 0.1466 0.5988
vn 0.3764 0.8054 0.4579
vn 0.4904 0.1479 0.8589
vn 0.3080 0.6867 0.6584
vn -0.3080 0.6867 0.6584
vn 0.0000 1.0000 -0.0000
vn -0.3764 0.8054 -0.4579
vn 0.0000 -0.0799 -0.9968
vn 0.7874 0.1466 -0.5988
vn 0.4579 0.8054 -0.3764
vn 0.6584 0.6867 -0.3080
vn 0.8633 -0.4083 0.2965
vn -0.3080 0.6867 -0.6584
vn -0.6280 0.6063 -0.4878
vn -0.6280 0.6063 0.4878
vn -0.9374 0.3482 -0.0000
vn -0.1070 0.2702 -0.9568
vn -0.2965 -0.4083 -0.8633
vn 0.4878 0.6063 -0.6280
vn -0.4878 0.6063 -0.6280
vn 0.0000 0.3482 -0.9374
vn 0.9568 0.2702 -0.1070
vn 0.8633 -0.4083 -0.2965
vn 0.9374 0.3482 0.0000
vn 0.6280 0.6063 -0.4878
vn 0.1070 0.2702 -0.9568
vn 0.2965 -0.4083 -0.8633
vn -0.4878 0.6063 0.6280
vn -0.0000 0.3482 0.9374
vn 0.9568 0.2702 0.1070
vn -0.9568 0.2702 -0.1070
vn -0.8633 -0.4083 -0.2965
vn 0.6280 0.6063 0.4878
vn 0.1070 0.2702 0.9568
vn 0.2965 -0.4083 0.8633
vn 0.4878 0.6063 0.6280
vn -0.7276 0.4917 0.4783
vn -0.4433 0.3254 0.8352
vn -0.4442 0.6463 0.6205
vn -0.8352 0.3254 0.4433
vn -0.6205 0.6463 0.4442
vn -0.4783 0.4917 0.7276
vn -0.4467 0.7413 0.5009
vn 0.4783 0.4917 0.7276
vn 0.4467 0.7413 0.5009
vn 0.6205 0.6463 0.4442
vn -0.4783 0.4917 -0.7276
vn -0.8352 0.3254 -0.4433
vn -0.6205 0.6463 -0.4442
vn -0.4433 0.3254 -0.8352
vn -0.4442 0.6463 -0.6205
vn -0.7276 0.4917 -0.4783
vn -0.5009 0.7413 -0.4467
vn -0.5009 0.7413 0.4467
vn 0.7276 0.4917 -0.4783
vn 0.4433 0.3254 -0.8352
vn 0.4442 0.6463 -0.6205
vn 0.8352 0.3254 -0.4433
vn 0.6205 0.6463 -0.4442
vn 0.4783 0.4917 -0.7276
vn 0.4467 0.7413 -0.5009
vn -0.4467 0.7413 -0.5009
vn 0.8352 0.3254 0.4433
vn 0.4433 0.3254 0.8352
vn 0.4442 0.6463 0.6205
vn 0.7276 0.4917 0.4783
vn 0.5009 0.7413 0.4467
vn 0.5009 0.7413 -0.4467
vn -0.3752 0.1964 -0.9059
vn -0.9059 0.1964 -0.3752
vn -0.9059 0.1964 0.3752
vn -0.3752 0.1964 0.9059
vn 0.3752 0.1964 0.9059
vn 0.9059 0.1964 0.3752
vn 0.9059 0.1964 -0.3752
vn 0.3752 0.1964 -0.9059
usemtl material_0
f 17/1/1 35/2/2 33/3/3
f 17/1/1 33/4/3 74/5/4
f 74/6/4 33/4/3 49/7/5
f 74/6/4 49/8/5 76/9/6
f 30/10/7 31/11/8 29/12/9
f 29/13/9 31/11/8 47/14/10
f 26/15/11 27/16/12 25/17/13
f 25/18/13 27/16/12 43/19/14
f 42/20/15 37/21/16 39/22/17
f 39/23/17 37/21/16 21/24/18
f 39/23/17 21/25/18 23/26/19
f 23/27/19 21/25/18 22/28/20
f 23/27/19 22/29/20 24/30/21
f 24/31/21 22/29/20 40/32/22
f 24/31/21 40/33/22 23/26/19
f 23/27/19 40/33/22 39/22/17
f 22/34/20 21/25/18 62/35/23
f 62/36/23 21/25/18 37/37/16
f 40/38/22 22/29/20 38/39/24
f 38/40/24 22/29/20 62/35/23
f 38/40/24 62/41/23 52/42/25
f 52/43/25 62/41/23 61/44/26
f 46/45/27 30/46/7 72/47/28
f 72/48/28 30/46/7 29/12/9
f 72/48/28 29/49/9 45/50/29
f 45/51/29 29/49/9 47/14/10
f 45/51/29 47/52/10 34/53/30
f 34/54/30 47/52/10 36/55/31
f 34/54/30 36/56/31 18/57/32
f 18/58/32 36/56/31 20/59/33
f 18/58/32 20/60/33 19/61/34
f 19/62/34 20/60/33 36/55/31
f 38/40/24 33/4/3 35/63/2
f 38/40/24 35/2/2 40/32/22
f 40/38/22 35/2/2 57/64/35
f 40/38/22 57/65/35 39/22/17
f 39/23/17 57/65/35 44/66/36
f 39/23/17 44/67/36 42/68/15
f 42/20/15 44/67/36 26/69/11
f 42/20/15 26/70/11 70/71/37
f 70/72/37 26/70/11 25/17/13
f 70/72/37 25/73/13 41/74/38
f 41/75/38 25/73/13 43/19/14
f 41/75/38 43/76/14 46/77/27
f 46/45/27 43/76/14 48/78/39
f 46/45/27 48/79/39 30/80/7
f 30/10/7 48/79/39 32/81/40
f 30/10/7 32/82/40 31/83/8
f 31/84/8 32/82/40 48/78/39
f 31/84/8 48/79/39 47/14/10
f 47/85/10 48/79/39 57/64/35
f 47/85/10 57/65/35 36/55/31
f 36/86/31 57/65/35 35/63/2
f 36/86/31 35/2/2 19/61/34
f 19/62/34 35/2/2 17/87/1
f 19/62/34 17/88/1 18/57/32
f 18/58/32 17/88/1 74/5/4
f 18/58/32 74/89/4 34/53/30
f 34/54/30 74/89/4 50/90/41
f 57/91/35 48/79/39 43/19/14
f 57/91/35 43/76/14 44/66/36
f 44/92/36 43/76/14 27/93/12
f 44/92/36 27/16/12 28/94/42
f 28/95/42 27/16/12 26/69/11
f 28/95/42 26/70/11 44/66/36
f 58/96/43 59/97/44 63/98/45
f 58/96/43 63/99/45 60/100/46
f 60/101/46 63/99/45 62/35/23
f 60/101/46 62/41/23 51/102/47
f 51/103/47 62/41/23 37/37/16
f 62/36/23 63/99/45 61/44/26
f 61/104/26 63/99/45 59/105/44
f 66/106/48 67/107/49 71/108/50
f 66/106/48 71/109/50 80/110/51
f 80/111/51 71/109/50 70/71/37
f 80/111/51 70/112/37 53/113/52
f 53/114/52 70/112/37 41/74/38
f 73/115/53 69/116/54 79/117/55
f 73/115/53 79/118/55 72/47/28
f 72/48/28 79/118/55 56/119/56
f 72/48/28 56/120/56 46/77/27
f 76/121/6 64/122/57 75/123/58
f 76/121/6 75/124/58 74/5/4
f 74/6/4 75/124/58 77/125/59
f 74/6/4 77/126/59 50/90/41
f 71/127/50 67/107/49 81/128/60
f 71/127/50 81/129/60 70/71/37
f 70/72/37 81/129/60 54/130/61
f 70/72/37 54/131/61 42/68/15
f 68/132/62 69/116/54 73/133/53
f 68/132/62 73/134/53 78/135/63
f 78/136/63 73/134/53 72/47/28
f 78/136/63 72/137/28 55/138/64
f 55/139/64 72/137/28 45/50/29
f 77/140/59 75/124/58 65/141/65
f 65/142/65 75/124/58 64/143/57
f 103/144/66 86/145/67 94/146/68
f 94/147/68 86/145/67 87/148/69
f 94/147/68 87/149/69 95/150/70
f 95/151/70 87/149/69 106/152/71
f 95/151/70 106/153/71 108/154/72
f 108/155/72 106/153/71 107/156/73
f 108/155/72 107/157/73 109/158/74
f 109/159/74 107/157/73 96/160/75
f 109/159/74 96/161/75 95/150/70
f 111/162/76 84/163/77 92/164/78
f 92/165/78 84/163/77 85/166/79
f 92/165/78 85/167/79 93/168/80
f 93/169/80 85/167/79 102/170/81
f 93/169/80 102/171/81 104/172/82
f 104/173/82 102/171/81 103/174/66
f 104/173/82 103/175/66 105/176/83
f 105/177/83 103/175/66 94/146/68
f 105/177/83 94/178/68 93/168/80
f 98/179/84 82/180/85 90/181/86
f 90/182/86 82/180/85 83/183/87
f 90/182/86 83/184/87 91/185/88
f 91/186/88 83/184/87 110/187/89
f 91/186/88 110/188/89 112/189/90
f 112/190/90 110/188/89 111/191/76
f 112/190/90 111/192/76 113/193/91
f 113/194/91 111/192/76 92/164/78
f 113/194/91 92/195/78 91/185/88
f 107/196/73 88/197/92 96/160/75
f 96/198/75 88/197/92 89/199/93
f 96/198/75 89/200/93 97/201/94
f 97/202/94 89/200/93 99/203/95
f 97/202/94 99/204/95 101/205/96
f 101/206/96 99/204/95 98/207/84
f 101/206/96 98/208/84 100/209/97
f 100/210/97 98/208/84 90/181/86
f 100/210/97 90/211/86 97/201/94
f 97/202/94 101/212/96 100/209/97
f 93/169/80 104/213/82 105/176/83
f 91/186/88 112/214/90 113/193/91
f 95/151/70 108/215/72 109/158/74
f 6/216/98 7/217/99 8/218/99
f 8/219/99 7/217/99 9/220/100
f 8/219/99 9/221/100 10/222/100
f 10/223/100 9/221/100 11/224/101
f 10/223/100 11/225/101 12/226/101
f 12/227/101 11/225/101 13/228/102
f 12/227/101 13/229/102 14/230/102
f 14/231/102 13/229/102 15/232/103
f 14/231/102 15/233/103 16/234/103
f 16/235/103 15/233/103 1/236/104
f 16/235/103 1/237/104 2/238/104
f 2/239/104 1/237/104 3/240/105
f 2/239/104 3/241/105 4/242/105
f 4/243/105 3/241/105 5/244/98
f 4/243/105 5/245/98 6/246/98
f 6/216/98 5/245/98 7/247/99
