mtllib TJUMPDAI.mtl
v 14.500000 -30.648321 48.263611
v -14.500000 -3.737652 8.516710
v 14.500000 -3.737652 8.516710
v -14.500000 -30.648321 48.263611
v 17.500000 -4.975924 -0.490086
v -17.500000 -9.902275 50.000000
v 17.500000 -9.902275 50.000000
v -17.500000 -4.975924 -0.490086
v -14.500000 -3.737652 8.516710
v 14.500000 -3.737652 8.516710
v -14.500000 -30.648321 48.263611
v -16.750000 -2.909591 9.077350
v -16.750000 -29.820261 48.824249
v -16.750000 -4.979742 7.675753
v -16.750000 -31.890411 47.422649
v 16.750000 -31.890411 47.422649
v 16.750000 -2.909591 9.077350
v 16.750000 -4.979742 7.675753
v 16.750000 -29.820261 48.824249
v 14.500000 -30.648321 48.263611
v 16.500000 -33.000000 49.000000
v -16.500000 -29.000000 49.000000
v 16.500000 -29.000000 49.000000
v -16.500000 -33.000000 49.000000
v -16.500000 -29.000000 49.000000
v 16.500000 -29.000000 45.000000
v 16.500000 -29.000000 49.000000
v -16.500000 -29.000000 45.000000
v 14.000000 -34.000000 49.500000
v 17.000000 -8.000000 46.500000
v 14.000000 -8.000000 49.500000
v 17.000000 -34.000000 46.500000
v 17.000000 -34.000000 49.500000
v 14.000000 -8.000000 49.500000
v 17.000000 -8.000000 49.500000
v 14.000000 -34.000000 49.500000
v 17.000000 -8.000000 49.500000
v 17.000000 -8.000000 46.500000
v 17.000000 -34.000000 49.500000
v -17.000000 -34.000000 49.500000
v -17.000000 -8.000000 46.500000
v -17.000000 -8.000000 49.500000
v -17.000000 -34.000000 46.500000
v -14.000000 -34.000000 49.500000
v -17.000000 -8.000000 49.500000
v -14.000000 -8.000000 49.500000
v -17.000000 -34.000000 49.500000
v -17.000000 -8.000000 46.500000
v -14.000000 -34.000000 49.500000
v -14.000000 -8.000000 49.500000
v -17.500000 -9.902275 50.000000
v -17.500000 0.000000 0.000000
v -17.500000 -4.900860 50.000000
v -17.500000 -4.975924 -0.490086
v 17.500000 -9.902275 50.000000
v -17.500000 -4.900860 50.000000
v 17.500000 -4.900860 50.000000
v -17.500000 -9.902275 50.000000
v 17.500000 -4.975924 -0.490086
v 17.500000 -4.900860 50.000000
v 17.500000 0.000000 0.000000
v 17.500000 -9.902275 50.000000
v 15.499999 -33.000000 48.750000
v 0.000000 -25.000000 48.750000
v 0.000000 -20.000000 48.750000
v 15.499999 -28.000000 48.750000
v 15.499999 -33.000000 48.750000
v -15.499999 -33.000000 48.750000
v -15.499999 -28.000000 48.750000
v -15.499999 -24.000000 48.750000
v 0.000000 -11.000000 48.750000
v 0.000000 -16.000000 48.750000
v -15.499999 -19.000000 48.750000
v 15.499999 -24.000000 48.750000
v 15.499999 -19.000000 48.750000
v -17.500000 -4.900860 50.000000
v 17.500000 0.000000 0.000000
v 17.500000 -4.900860 50.000000
v -17.500000 0.000000 0.000000
vn -0.0000 0.8281 0.5606
vn -0.0000 -0.9953 -0.0971
vn -0.5449 0.6943 0.4701
vn 0.4061 0.7567 0.5123
vn -1.0000 -0.0000 -0.0000
vn 0.5449 0.6943 0.4701
vn 1.0000 -0.0000 -0.0000
vn -0.4061 0.7567 0.5123
vn -0.0000 -0.0000 1.0000
vn -0.0000 1.0000 -0.0000
vn -0.7071 -0.0000 -0.7071
vn 0.7071 -0.0000 -0.7071
vn -0.0000 0.9952 0.0975
vt 1.000000 0.001953
vt 0.000000 1.000000
vt 0.000000 0.001953
vt 1.000000 1.000000
vt 5.000000 0.003906
vt 5.000000 1.000000
vt 0.000000 0.003906
vt 1.000000 0.003906
vt 3.000000 0.003906
vt 3.000000 1.000000
usemtl material_0
f 2/1/1 1/2/1 3/3/1
f 1/2/1 2/1/1 4/4/1
f 6/2/2 5/1/2 7/4/2
f 5/1/2 6/2/2 8/3/2
usemtl material_3
f 12/5/3 11/2/4 9/6/4
f 11/2/4 12/5/3 13/7/3
f 14/2/5 13/5/3 12/7/3
f 13/5/3 14/2/5 15/6/5
f 17/5/6 16/2/7 18/6/7
f 16/2/7 17/5/6 19/7/6
f 10/2/8 19/5/6 17/7/6
f 19/5/6 10/2/8 20/6/8
f 22/7/9 21/6/9 23/5/9
f 21/6/9 22/7/9 24/2/9
f 26/2/10 25/5/10 27/7/10
f 25/5/10 26/2/10 28/6/10
f 30/5/11 29/2/11 31/6/11
f 29/2/11 30/5/11 32/7/11
f 34/2/9 33/5/9 35/7/9
f 33/5/9 34/2/9 36/6/9
f 37/5/7 32/2/7 38/6/7
f 32/2/7 37/5/7 39/7/7
f 41/6/5 40/7/5 42/5/5
f 40/7/5 41/6/5 43/2/5
f 45/7/9 44/6/9 46/2/9
f 44/6/9 45/7/9 47/5/9
f 49/6/12 48/7/12 50/2/12
f 48/7/12 49/6/12 43/5/12
f 52/7/5 51/6/5 53/5/5
f 51/6/5 52/7/5 54/2/5
f 56/7/9 55/6/9 57/5/9
f 55/6/9 56/7/9 58/2/9
f 60/7/7 59/6/7 61/5/7
f 59/6/7 60/7/7 62/2/7
usemtl material_1
f 64/8/9 63/7/9 65/4/9
f 66/2/9 65/4/9 67/7/9
f 65/2/9 68/8/9 64/7/9
f 68/8/9 65/2/9 69/4/9
f 71/2/9 70/8/9 72/7/9
f 70/8/9 71/2/9 73/4/9
f 71/4/9 74/7/9 75/2/9
f 74/7/9 71/4/9 72/8/9
usemtl material_2
f 77/2/13 76/9/13 78/10/13
f 76/9/13 77/2/13 79/7/13
