mtllib Killplanes.mtl
v -6745.000000 -7519.997559 -16247.750977
v -14942.500000 -7519.997559 -16247.750977
v -14942.500000 -7189.998047 -12737.000977
v -6745.000000 -7189.998047 -12737.000977
v -6745.000000 -7269.997070 -17897.751953
v -14942.500000 -7269.997070 -17897.751953
v -14942.500000 -7269.997070 -19266.501953
v -6745.000000 -7269.997070 -19266.501953
v -3500.000000 -699.999695 -1990.000122
v -3500.000000 -700.000549 3455.000000
v 3350.000000 -699.999695 -1990.000122
v 3350.000000 -700.000549 3455.000000
v -1475.000000 -6649.997559 -14657.750977
v -8590.000000 -6649.997559 -14657.750977
v -8590.000000 -6649.997559 -14219.000977
v -1475.000000 -6649.997559 -14219.000977
v -1475.000000 -7029.997559 -15707.750977
v -8590.000000 -7029.997559 -15707.750977
v -1475.000000 -7029.997070 -18986.501953
v -8590.000000 -7029.997070 -18986.501953
v -8812.500000 -6899.997559 -14217.750977
v -8812.500000 -6899.998535 -9199.000977
v -1475.000000 -6899.998535 -9199.000977
v -1475.000000 -6899.997559 -14217.750977
v -14950.000000 -6899.997559 -14217.750977
v -14950.000000 -6899.998535 -9199.000977
v -8812.500000 -6899.997559 -14796.500977
v -1475.000000 -6899.997559 -14796.500977
v -3500.000000 -399.999695 -1872.700317
v -3500.000000 -399.999786 -1398.000122
v 3350.000000 -399.999695 -1872.700317
v 3350.000000 -399.999786 -1398.000122
v -3500.000000 -1509.999634 -2502.400635
v -3500.000000 -399.999695 -1803.000122
v 3350.000000 -1509.999634 -2502.400635
v 3350.000000 -399.999695 -1803.000122
v -14950.000000 -6199.998047 -13251.750977
v -14950.000000 -5349.998047 -12740.000977
v -1475.000000 -6199.998047 -13251.750977
v -1475.000000 -5349.998047 -12740.000977
v -1800.000000 -1199.998535 -8630.000000
v -1800.000000 -1200.000122 852.999817
v -791.000000 -1404.000122 852.999756
v -791.000000 -1403.998535 -8630.000000
v -2800.000000 -699.998596 -8630.000000
v -1174.000000 -1199.998535 -8630.000000
v -1174.000000 -1200.000122 852.999817
v -1062.000000 -1399.998535 -8630.000000
v -1062.000000 -1399.999634 -2141.000244
v 3350.000000 -1399.999634 -2141.000244
v 3350.000000 -1399.998535 -8630.000000
v -3000.000000 -699.998596 -8630.000000
v -3000.000000 -700.000122 846.999878
v -2800.000000 -700.000122 846.999878
v -3600.000000 -1699.998535 -8630.000000
v -3600.000000 -1700.000122 846.999695
v -4025.000000 -2399.998535 -8630.000000
v -4025.000000 -2400.000000 -53.000393
v -600.000000 -2400.000000 -53.000393
v -600.000000 -2399.998535 -8630.000000
v -5435.000000 -3099.998535 -8630.000977
v -5435.000000 -3100.000000 -53.000504
v -1970.000000 -3100.000000 -53.000504
v -1970.000000 -3099.998535 -8630.000977
v -5394.000000 -3099.999023 -6401.500488
v -6101.500000 -3539.999023 -6401.500488
v -6101.500000 -3540.000000 -53.000576
v -5394.000000 -3100.000000 -53.000504
v -12819.000000 -3539.999023 -6401.500488
v -12819.000000 -3540.000000 -53.000576
v -11750.000000 -5599.998535 -7700.000977
v -11750.000000 -3539.999023 -6193.000488
v -1475.000000 -5599.998535 -7700.000977
v -1475.000000 -3539.999023 -6193.000488
v -11750.000000 -5399.998047 -11400.000977
v -11750.000000 -5399.999023 -7293.000977
v -1475.000000 -5399.998047 -11400.000977
v -1475.000000 -5399.999023 -7293.000977
v -14950.000000 -5349.998047 -12796.500977
v -14950.000000 -5349.998047 -11073.000977
v -1475.000000 -5349.998047 -12796.500977
v -1475.000000 -5349.998047 -11073.000977
v -6745.000000 -7549.997559 -16247.750977
v -14942.500000 -7549.997559 -16247.750977
v -14942.500000 -7219.998047 -12737.000977
v -6745.000000 -7219.998047 -12737.000977
v -6745.000000 -7299.997070 -17897.751953
v -14942.500000 -7299.997070 -17897.751953
v -14942.500000 -7299.997070 -19266.501953
v -6745.000000 -7299.997070 -19266.501953
v -3500.000000 -729.999695 -1990.000122
v -3500.000000 -730.000549 3455.000000
v 3350.000000 -729.999695 -1990.000122
v 3350.000000 -730.000549 3455.000000
v -1475.000000 -6679.997559 -14657.750977
v -8590.000000 -6679.997559 -14657.750977
v -8590.000000 -6679.997559 -14219.000977
v -1475.000000 -6679.997559 -14219.000977
v -1475.000000 -7059.997559 -15707.750977
v -8590.000000 -7059.997559 -15707.750977
v -1475.000000 -7059.997070 -18986.501953
v -8590.000000 -7059.997070 -18986.501953
v -8812.500000 -6929.997559 -14217.750977
v -8812.500000 -6929.998535 -9199.000977
v -1475.000000 -6929.998535 -9199.000977
v -1475.000000 -6929.997559 -14217.750977
v -14950.000000 -6929.997559 -14217.750977
v -14950.000000 -6929.998535 -9199.000977
v -8812.500000 -6929.997559 -14796.500977
v -1475.000000 -6929.997559 -14796.500977
v -3500.000000 -429.999695 -1872.700317
v -3500.000000 -429.999786 -1398.000122
v 3350.000000 -429.999695 -1872.700317
v 3350.000000 -429.999786 -1398.000122
v -3500.000000 -1539.999634 -2502.400635
v -3500.000000 -429.999695 -1803.000122
v 3350.000000 -1539.999634 -2502.400635
v 3350.000000 -429.999695 -1803.000122
v -14950.000000 -6229.998047 -13251.750977
v -14950.000000 -5379.998047 -12740.000977
v -1475.000000 -6229.998047 -13251.750977
v -1475.000000 -5379.998047 -12740.000977
v -1800.000000 -1229.998535 -8630.000000
v -1800.000000 -1230.000122 852.999817
v -791.000000 -1434.000122 852.999756
v -791.000000 -1433.998535 -8630.000000
v -2800.000000 -729.998596 -8630.000000
v -1174.000000 -1229.998535 -8630.000000
v -1174.000000 -1230.000122 852.999817
v -1062.000000 -1429.998535 -8630.000000
v -1062.000000 -1429.999634 -2141.000244
v 3350.000000 -1429.999634 -2141.000244
v 3350.000000 -1429.998535 -8630.000000
v -3000.000000 -729.998596 -8630.000000
v -3000.000000 -730.000122 846.999878
v -2800.000000 -730.000122 846.999878
v -3600.000000 -1729.998535 -8630.000000
v -3600.000000 -1730.000122 846.999695
v -4025.000000 -2429.998535 -8630.000000
v -4025.000000 -2430.000000 -53.000393
v -600.000000 -2430.000000 -53.000393
v -600.000000 -2429.998535 -8630.000000
v -5435.000000 -3129.998535 -8630.000977
v -5435.000000 -3130.000000 -53.000507
v -1970.000000 -3130.000000 -53.000507
v -1970.000000 -3129.998535 -8630.000977
v -5394.000000 -3129.999023 -6401.500488
v -6101.500000 -3569.999023 -6401.500488
v -6101.500000 -3570.000000 -53.000576
v -5394.000000 -3130.000000 -53.000507
v -12819.000000 -3569.999023 -6401.500488
v -12819.000000 -3570.000000 -53.000576
v -11750.000000 -5629.998535 -7700.000977
v -11750.000000 -3569.999023 -6193.000488
v -1475.000000 -5629.998535 -7700.000977
v -1475.000000 -3569.999023 -6193.000488
v -11750.000000 -5429.998047 -11400.000977
v -11750.000000 -5429.999023 -7293.000977
v -1475.000000 -5429.998047 -11400.000977
v -1475.000000 -5429.999023 -7293.000977
v -14950.000000 -5379.998047 -12796.500977
v -14950.000000 -5379.998047 -11073.000977
v -1475.000000 -5379.998047 -12796.500977
v -1475.000000 -5379.998047 -11073.000977
v -6745.000000 -7519.997559 -16247.750977
v -14942.500000 -7519.997559 -16247.750977
v -14942.500000 -7189.998047 -12737.000977
v -6745.000000 -7189.998047 -12737.000977
v -6745.000000 -7269.997070 -17897.751953
v -14942.500000 -7269.997070 -17897.751953
v -14942.500000 -7269.997070 -19266.501953
v -6745.000000 -7269.997070 -19266.501953
v -3500.000000 -699.999695 -1990.000122
v -3500.000000 -700.000549 3455.000000
v 3350.000000 -699.999695 -1990.000122
v 3350.000000 -700.000549 3455.000000
v -1475.000000 -6649.997559 -14657.750977
v -8590.000000 -6649.997559 -14657.750977
v -8590.000000 -6649.997559 -14219.000977
v -1475.000000 -6649.997559 -14219.000977
v -1475.000000 -7029.997559 -15707.750977
v -8590.000000 -7029.997559 -15707.750977
v -1475.000000 -7029.997070 -18986.501953
v -8590.000000 -7029.997070 -18986.501953
v -8812.500000 -6899.997559 -14217.750977
v -8812.500000 -6899.998535 -9199.000977
v -1475.000000 -6899.998535 -9199.000977
v -1475.000000 -6899.997559 -14217.750977
v -14950.000000 -6899.997559 -14217.750977
v -14950.000000 -6899.998535 -9199.000977
v -8812.500000 -6899.997559 -14796.500977
v -1475.000000 -6899.997559 -14796.500977
v -3500.000000 -399.999695 -1872.700317
v -3500.000000 -399.999786 -1398.000122
v 3350.000000 -399.999695 -1872.700317
v 3350.000000 -399.999786 -1398.000122
v -3500.000000 -1509.999634 -2502.400635
v -3500.000000 -399.999695 -1803.000122
v 3350.000000 -1509.999634 -2502.400635
v 3350.000000 -399.999695 -1803.000122
v -14950.000000 -6199.998047 -13251.750977
v -14950.000000 -5349.998047 -12740.000977
v -1475.000000 -6199.998047 -13251.750977
v -1475.000000 -5349.998047 -12740.000977
v -1800.000000 -1199.998535 -8630.000000
v -1800.000000 -1200.000122 852.999817
v -791.000000 -1404.000122 852.999756
v -791.000000 -1403.998535 -8630.000000
v -2800.000000 -699.998596 -8630.000000
v -1174.000000 -1199.998535 -8630.000000
v -1174.000000 -1200.000122 852.999817
v -1062.000000 -1399.998535 -8630.000000
v -1062.000000 -1399.999634 -2141.000244
v 3350.000000 -1399.999634 -2141.000244
v 3350.000000 -1399.998535 -8630.000000
v -3000.000000 -699.998596 -8630.000000
v -3000.000000 -700.000122 846.999878
v -2800.000000 -700.000122 846.999878
v -3600.000000 -1699.998535 -8630.000000
v -3600.000000 -1700.000122 846.999695
v -4025.000000 -2399.998535 -8630.000000
v -4025.000000 -2400.000000 -53.000393
v -600.000000 -2400.000000 -53.000393
v -600.000000 -2399.998535 -8630.000000
v -5435.000000 -3099.998535 -8630.000977
v -5435.000000 -3100.000000 -53.000504
v -1970.000000 -3100.000000 -53.000504
v -1970.000000 -3099.998535 -8630.000977
v -5394.000000 -3099.999023 -6401.500488
v -6101.500000 -3539.999023 -6401.500488
v -6101.500000 -3540.000000 -53.000576
v -5394.000000 -3100.000000 -53.000504
v -12819.000000 -3539.999023 -6401.500488
v -12819.000000 -3540.000000 -53.000576
v -11750.000000 -5599.998535 -7700.000977
v -11750.000000 -3539.999023 -6193.000488
v -1475.000000 -5599.998535 -7700.000977
v -1475.000000 -3539.999023 -6193.000488
v -11750.000000 -5399.998047 -11400.000977
v -11750.000000 -5399.999023 -7293.000977
v -1475.000000 -5399.998047 -11400.000977
v -1475.000000 -5399.999023 -7293.000977
v -14950.000000 -5349.998047 -12796.500977
v -14950.000000 -5349.998047 -11073.000977
v -1475.000000 -5349.998047 -12796.500977
v -1475.000000 -5349.998047 -11073.000977
v -6745.000000 -7549.997559 -16247.750977
v -14942.500000 -7549.997559 -16247.750977
v -14942.500000 -7219.998047 -12737.000977
v -6745.000000 -7219.998047 -12737.000977
v -6745.000000 -7299.997070 -17897.751953
v -14942.500000 -7299.997070 -17897.751953
v -14942.500000 -7299.997070 -19266.501953
v -6745.000000 -7299.997070 -19266.501953
v -3500.000000 -729.999695 -1990.000122
v -3500.000000 -730.000549 3455.000000
v 3350.000000 -729.999695 -1990.000122
v 3350.000000 -730.000549 3455.000000
v -1475.000000 -6679.997559 -14657.750977
v -8590.000000 -6679.997559 -14657.750977
v -8590.000000 -6679.997559 -14219.000977
v -1475.000000 -6679.997559 -14219.000977
v -1475.000000 -7059.997559 -15707.750977
v -8590.000000 -7059.997559 -15707.750977
v -1475.000000 -7059.997070 -18986.501953
v -8590.000000 -7059.997070 -18986.501953
v -8812.500000 -6929.997559 -14217.750977
v -8812.500000 -6929.998535 -9199.000977
v -1475.000000 -6929.998535 -9199.000977
v -1475.000000 -6929.997559 -14217.750977
v -14950.000000 -6929.997559 -14217.750977
v -14950.000000 -6929.998535 -9199.000977
v -8812.500000 -6929.997559 -14796.500977
v -1475.000000 -6929.997559 -14796.500977
v -3500.000000 -429.999695 -1872.700317
v -3500.000000 -429.999786 -1398.000122
v 3350.000000 -429.999695 -1872.700317
v 3350.000000 -429.999786 -1398.000122
v -3500.000000 -1539.999634 -2502.400635
v -3500.000000 -429.999695 -1803.000122
v 3350.000000 -1539.999634 -2502.400635
v 3350.000000 -429.999695 -1803.000122
v -14950.000000 -6229.998047 -13251.750977
v -14950.000000 -5379.998047 -12740.000977
v -1475.000000 -6229.998047 -13251.750977
v -1475.000000 -5379.998047 -12740.000977
v -1800.000000 -1229.998535 -8630.000000
v -1800.000000 -1230.000122 852.999817
v -791.000000 -1434.000122 852.999756
v -791.000000 -1433.998535 -8630.000000
v -2800.000000 -729.998596 -8630.000000
v -1174.000000 -1229.998535 -8630.000000
v -1174.000000 -1230.000122 852.999817
v -1062.000000 -1429.998535 -8630.000000
v -1062.000000 -1429.999634 -2141.000244
v 3350.000000 -1429.999634 -2141.000244
v 3350.000000 -1429.998535 -8630.000000
v -3000.000000 -729.998596 -8630.000000
v -3000.000000 -730.000122 846.999878
v -2800.000000 -730.000122 846.999878
v -3600.000000 -1729.998535 -8630.000000
v -3600.000000 -1730.000122 846.999695
v -4025.000000 -2429.998535 -8630.000000
v -4025.000000 -2430.000000 -53.000393
v -600.000000 -2430.000000 -53.000393
v -600.000000 -2429.998535 -8630.000000
v -5435.000000 -3129.998535 -8630.000977
v -5435.000000 -3130.000000 -53.000507
v -1970.000000 -3130.000000 -53.000507
v -1970.000000 -3129.998535 -8630.000977
v -5394.000000 -3129.999023 -6401.500488
v -6101.500000 -3569.999023 -6401.500488
v -6101.500000 -3570.000000 -53.000576
v -5394.000000 -3130.000000 -53.000507
v -12819.000000 -3569.999023 -6401.500488
v -12819.000000 -3570.000000 -53.000576
v -11750.000000 -5629.998535 -7700.000977
v -11750.000000 -3569.999023 -6193.000488
v -1475.000000 -5629.998535 -7700.000977
v -1475.000000 -3569.999023 -6193.000488
v -11750.000000 -5429.998047 -11400.000977
v -11750.000000 -5429.999023 -7293.000977
v -1475.000000 -5429.998047 -11400.000977
v -1475.000000 -5429.999023 -7293.000977
v -14950.000000 -5379.998047 -12796.500977
v -14950.000000 -5379.998047 -11073.000977
v -1475.000000 -5379.998047 -12796.500977
v -1475.000000 -5379.998047 -11073.000977
vt 0.000000 0.000000
vt 1.000000 1.000000
vt 1.000000 0.000000
vn -0.000000 -1.000000 -0.000000
vn -0.000000 1.000000 0.000000
vn 0.000000 -0.000000 1.000000
vn 1.000000 0.000000 -0.000000
vn -0.000000 -0.000000 -1.000000
vn -1.000000 -0.000000 0.000000
vn 0.000000 -0.940315 0.340305
vn 0.000000 0.940315 -0.340305
vn 0.857493 -0.514496 -0.000000
vn -0.857493 0.514496 0.000000
vn 0.000000 -0.515792 0.856714
vn 0.000000 0.515792 -0.856714
vn 0.000000 -0.995611 0.093584
vn 0.000000 -0.988715 -0.149806
vn 0.000000 0.995611 -0.093584
vn 0.000000 0.988715 0.149806
vn 0.528110 -0.849176 -0.000000
vn -0.528110 0.849176 0.000000
vn -0.447214 -0.894427 -0.000000
vn -0.470110 -0.882608 -0.000000
vn 0.447214 0.894427 0.000000
vn 0.470110 0.882608 0.000000
vn -0.006000 0.000000 0.999982
vn 0.000000 -0.590429 0.807089
vn 0.000000 0.590429 -0.807089
vn 0.000000 -0.533093 0.846057
vn 0.000000 0.533093 -0.846057
usemtl None
f 308/1/1 307/2/1 310/3/1
f 309/1/1 308/2/1 310/3/1
f 226/1/2 228/3/2 225/2/2
f 227/1/2 228/3/2 226/2/2
f 144/2/3 63/1/3 62/2/3
f 63/1/4 146/3/4 64/3/4
f 146/3/5 61/2/5 64/3/5
f 143/2/6 62/1/6 61/2/6
f 144/2/3 145/1/3 63/1/3
f 63/1/4 145/1/4 146/3/4
f 146/3/5 143/2/5 61/2/5
f 143/2/6 144/1/6 62/1/6

f 266/1/1 265/2/1 263/3/1
f 264/1/1 266/2/1 263/3/1
f 264/1/7 263/2/7 259/3/7
f 260/1/7 264/2/7 259/3/7
f 260/1/1 259/2/1 262/3/1
f 261/1/1 260/2/1 262/3/1
f 184/1/2 181/3/2 183/2/2
f 182/1/2 181/3/2 184/2/2
f 182/1/8 177/3/8 181/2/8
f 178/1/8 177/3/8 182/2/8
f 178/1/2 180/3/2 177/2/2
f 179/1/2 180/3/2 178/2/2
f 97/1/3 16/3/3 15/1/3
f 101/2/5 20/1/5 19/2/5
f 18/2/6 96/1/6 14/1/6
f 102/2/6 18/1/6 20/2/6
f 99/3/4 19/2/4 17/3/4
f 95/3/4 17/2/4 13/3/4
f 98/3/4 13/2/4 16/3/4
f 96/2/6 15/1/6 14/2/6
f 97/1/3 98/3/3 16/3/3
f 101/2/5 102/1/5 20/1/5
f 18/2/6 100/2/6 96/1/6
f 102/2/6 100/1/6 18/1/6
f 99/3/4 101/2/4 19/2/4
f 95/3/4 99/2/4 17/2/4
f 98/3/4 95/2/4 13/2/4
f 96/2/6 97/1/6 15/1/6

f 322/1/1 321/2/1 323/3/1
f 324/1/1 322/2/1 323/3/1
f 240/1/2 241/3/2 239/2/2
f 242/1/2 241/3/2 240/2/2
f 158/2/3 78/1/3 76/2/3
f 160/1/4 77/3/4 78/1/4
f 157/2/6 76/1/6 75/2/6
f 159/3/5 75/2/5 77/3/5
f 158/2/3 160/1/3 78/1/3
f 160/1/4 159/3/4 77/3/4
f 157/2/6 158/1/6 76/1/6
f 159/3/5 157/2/5 75/2/5

f 256/1/1 255/2/1 257/3/1
f 258/1/1 256/2/1 257/3/1
f 174/1/2 175/3/2 173/2/2
f 176/1/2 175/3/2 174/2/2
f 94/1/4 11/3/4 12/1/4
f 92/2/3 12/1/3 10/2/3
f 93/3/5 9/2/5 11/3/5
f 91/2/6 10/1/6 9/2/6
f 94/1/4 93/3/4 11/3/4
f 92/2/3 94/1/3 12/1/3
f 93/3/5 91/2/5 9/2/5
f 91/2/6 92/1/6 10/1/6

f 302/1/9 301/2/9 298/3/9
f 299/1/9 302/2/9 298/3/9
f 299/1/1 298/2/1 291/3/1
f 300/1/1 299/2/1 291/3/1
f 220/1/10 216/3/10 219/2/10
f 217/1/10 216/3/10 220/2/10
f 217/1/2 209/3/2 216/2/2
f 218/1/2 209/3/2 217/2/2
f 127/3/5 52/2/5 45/3/5
f 134/3/5 55/2/5 52/3/5
f 135/2/3 54/1/3 53/2/3
f 137/2/6 56/1/6 55/2/6
f 56/2/3 135/1/3 53/1/3
f 127/3/5 134/2/5 52/2/5
f 134/3/5 137/2/5 55/2/5
f 135/2/3 136/1/3 54/1/3
f 137/2/6 138/1/6 56/1/6
f 56/2/3 138/2/3 135/1/3

f 295/1/1 294/2/1 297/3/1
f 296/1/1 295/2/1 297/3/1
f 213/1/2 215/3/2 212/2/2
f 214/1/2 215/3/2 213/2/2
f 130/2/6 49/1/6 48/2/6
f 131/2/3 50/1/3 49/2/3
f 132/1/4 51/3/4 50/1/4
f 133/3/5 48/2/5 51/3/5
f 130/2/6 131/1/6 49/1/6
f 131/2/3 132/1/3 50/1/3
f 132/1/4 133/3/4 51/3/4
f 133/3/5 130/2/5 48/2/5

f 304/1/1 303/2/1 306/3/1
f 305/1/1 304/2/1 306/3/1
f 222/1/2 224/3/2 221/2/2
f 223/1/2 224/3/2 222/2/2
f 59/1/4 142/3/4 60/3/4
f 139/2/6 58/1/6 57/2/6
f 140/2/3 59/1/3 58/2/3
f 142/3/5 57/2/5 60/3/5
f 59/1/4 141/1/4 142/3/4
f 139/2/6 140/1/6 58/1/6
f 140/2/3 141/1/3 59/1/3
f 142/3/5 139/2/5 57/2/5

f 284/1/11 283/2/11 285/3/11
f 286/1/11 284/2/11 285/3/11
f 202/1/12 203/3/12 201/2/12
f 204/1/12 203/3/12 202/2/12
f 120/2/3 40/1/3 38/2/3
f 121/3/5 37/2/5 39/3/5
f 37/2/6 120/1/6 38/1/6
f 122/1/4 39/3/4 40/1/4
f 120/2/3 122/1/3 40/1/3
f 121/3/5 119/2/5 37/2/5
f 37/2/6 119/2/6 120/1/6
f 122/1/4 121/3/4 39/3/4

f 276/1/1 275/2/1 277/3/1
f 278/1/1 276/2/1 277/3/1
f 194/1/2 195/3/2 193/2/2
f 196/1/2 195/3/2 194/2/2
f 113/3/5 29/2/5 31/3/5
f 112/2/3 32/1/3 30/2/3
f 111/2/6 30/1/6 29/2/6
f 114/1/4 31/3/4 32/1/4
f 113/3/5 111/2/5 29/2/5
f 112/2/3 114/1/3 32/1/3
f 111/2/6 112/1/6 30/1/6
f 114/1/4 113/3/4 31/3/4

f 250/1/13 249/2/13 248/3/13
f 247/1/13 250/2/13 248/3/13
f 247/1/14 248/2/14 252/3/14
f 251/1/14 247/2/14 252/3/14
f 251/1/1 252/2/1 254/3/1
f 253/1/1 254/2/1 252/3/1
f 168/1/15 166/3/15 167/2/15
f 165/1/15 166/3/15 168/2/15
f 165/1/16 170/3/16 166/2/16
f 169/1/16 170/3/16 165/2/16
f 169/1/2 172/3/2 170/2/2
f 171/1/2 170/3/2 172/2/2
f 90/2/5 7/1/5 8/2/5
f 88/3/6 2/2/6 6/3/6
f 87/1/4 8/3/4 5/1/4
f 85/2/3 4/1/3 3/2/3
f 1/2/4 87/1/4 5/1/4
f 89/1/6 6/3/6 7/1/6
f 86/2/4 1/1/4 4/2/4
f 2/3/6 85/2/6 3/2/6
f 90/2/5 89/1/5 7/1/5
f 88/3/6 84/2/6 2/2/6
f 87/1/4 90/3/4 8/3/4
f 85/2/3 86/1/3 4/1/3
f 1/2/4 83/2/4 87/1/4
f 89/1/6 88/3/6 6/3/6
f 86/2/4 83/1/4 1/1/4
f 2/3/6 84/3/6 85/2/6

f 312/1/17 311/2/17 314/3/17
f 312/1/17 314/2/17 313/3/17
f 315/1/1 312/2/1 313/3/1
f 315/1/1 313/2/1 316/3/1
f 230/1/18 232/3/18 229/2/18
f 230/1/18 231/3/18 232/2/18
f 233/1/2 231/3/2 230/2/2
f 233/1/2 234/3/2 231/2/2
f 67/3/3 150/2/3 68/2/3
f 150/3/4 65/2/4 68/3/4
f 152/3/3 67/2/3 70/3/3
f 148/2/5 69/1/5 66/2/5
f 151/1/6 70/3/6 69/1/6
f 147/2/5 66/1/5 65/2/5
f 67/3/3 149/3/3 150/2/3
f 150/3/4 147/2/4 65/2/4
f 152/3/3 149/2/3 67/2/3
f 148/2/5 151/1/5 69/1/5
f 151/1/6 152/3/6 70/3/6
f 147/2/5 148/1/5 66/1/5

f 287/1/19 300/2/19 291/3/19
f 292/1/20 290/2/20 289/3/20
f 292/1/20 289/2/20 293/3/20
f 287/1/1 292/2/1 293/3/1
f 287/1/1 293/2/1 288/3/1
f 300/1/19 287/2/19 288/3/19
f 205/1/21 209/3/21 218/2/21
f 210/1/22 207/3/22 208/2/22
f 210/1/22 211/3/22 207/2/22
f 205/1/2 211/3/2 210/2/2
f 205/1/2 206/3/2 211/2/2
f 218/1/21 206/3/21 205/2/21
f 128/2/5 41/1/5 46/2/5
f 124/3/3 47/2/3 42/3/3
f 136/1/23 42/3/23 54/1/23
f 44/2/5 128/1/5 46/1/5
f 41/1/5 127/3/5 45/3/5
f 125/3/4 44/2/4 43/3/4
f 129/3/3 43/2/3 47/3/3
f 128/2/5 123/1/5 41/1/5
f 124/3/3 129/2/3 47/2/3
f 136/1/23 124/3/23 42/3/23
f 44/2/5 126/2/5 128/1/5
f 41/1/5 123/1/5 127/3/5
f 125/3/4 126/2/4 44/2/4
f 129/3/3 125/2/3 43/2/3

f 326/1/1 325/2/1 327/3/1
f 328/1/1 326/2/1 327/3/1
f 244/1/2 245/3/2 243/2/2
f 246/1/2 245/3/2 244/2/2
f 163/3/5 79/2/5 81/3/5
f 161/2/6 80/1/6 79/2/6
f 164/1/4 81/3/4 82/1/4
f 162/2/3 82/1/3 80/2/3
f 163/3/5 161/2/5 79/2/5
f 161/2/6 162/1/6 80/1/6
f 164/1/4 163/3/4 81/3/4
f 162/2/3 164/1/3 82/1/3

f 318/1/24 317/2/24 319/3/24
f 320/1/24 318/2/24 319/3/24
f 236/1/25 237/3/25 235/2/25
f 238/1/25 237/3/25 236/2/25
f 71/2/6 154/1/6 72/1/6
f 156/1/4 73/3/4 74/1/4
f 154/2/3 74/1/3 72/2/3
f 155/3/5 71/2/5 73/3/5
f 71/2/6 153/2/6 154/1/6
f 156/1/4 155/3/4 73/3/4
f 154/2/3 156/1/3 74/1/3
f 155/3/5 153/2/5 71/2/5

f 280/1/26 279/2/26 281/3/26
f 282/1/26 280/2/26 281/3/26
f 198/1/27 199/3/27 197/2/27
f 200/1/27 199/3/27 198/2/27
f 116/2/3 36/1/3 34/2/3
f 118/1/4 35/3/4 36/1/4
f 117/3/5 33/2/5 35/3/5
f 33/2/6 116/1/6 34/1/6
f 116/2/3 118/1/3 36/1/3
f 118/1/4 117/3/4 35/3/4
f 117/3/5 115/2/5 33/2/5
f 33/2/6 115/2/6 116/1/6

f 267/1/1 273/2/1 274/3/1
f 270/1/1 267/2/1 274/3/1
f 270/1/1 269/2/1 268/3/1
f 267/1/1 270/2/1 268/3/1
f 267/1/1 268/2/1 272/3/1
f 271/1/1 267/2/1 272/3/1
f 185/1/2 192/3/2 191/2/2
f 188/1/2 192/3/2 185/2/2
f 188/1/2 186/3/2 187/2/2
f 185/1/2 186/3/2 188/2/2
f 185/1/2 190/3/2 186/2/2
f 189/1/2 190/3/2 185/2/2
f 103/2/5 25/1/5 21/2/5
f 106/1/4 28/3/4 24/1/4
f 104/3/3 23/2/3 22/3/3
f 107/1/6 26/3/6 25/1/6
f 108/3/3 22/2/3 26/3/3
f 105/2/4 24/1/4 23/2/4
f 109/2/6 21/1/6 27/2/6
f 110/3/5 27/2/5 28/3/5
f 103/2/5 107/1/5 25/1/5
f 106/1/4 110/3/4 28/3/4
f 104/3/3 105/2/3 23/2/3
f 107/1/6 108/3/6 26/3/6
f 108/3/3 104/2/3 22/2/3
f 105/2/4 106/1/4 24/1/4
f 109/2/6 103/1/6 21/1/6
f 110/3/5 109/2/5 27/2/5
