# Blender v2.79 (sub 0) OBJ File: ''
# www.blender.org
mtllib SHELTH.mtl
v 9.500000 9.649998 5.049985
v 6.500000 9.649998 5.049985
v 9.500000 5.549998 5.049984
v 6.500000 5.549998 5.049984
v 16.500000 3.249999 4.165069
v 18.250000 3.249999 3.665067
v 16.500000 9.500000 4.165071
v 14.750000 3.249999 3.665067
v 14.750000 9.250000 3.665069
v 14.000000 3.250001 2.000005
v 14.000000 8.500002 2.000006
v 19.000000 3.250001 2.000005
v 19.000000 8.500001 2.000006
v 18.250000 9.250000 3.665069
v -14.000000 39.500000 2.000016
v -14.000000 44.750000 2.000018
v -14.750000 44.750000 3.665082
v -14.750000 38.750000 3.665079
v -16.500000 44.750000 4.165081
v -16.500000 38.500000 4.165079
v -18.250000 38.750000 3.665079
v -18.250000 44.750000 3.665082
v -19.000000 39.500000 2.000016
v -19.000000 44.750000 2.000017
v 26.500000 44.750000 -4.999985
v 26.500000 3.250002 -4.999999
v -26.500000 44.750000 -4.999985
v -26.500000 3.250002 -4.999999
v -33.000000 44.000000 -3.699982
v -33.000000 44.000000 3.800018
v -30.000004 46.250000 -3.699980
v -30.000000 46.250000 3.800020
v -33.000000 36.000000 -3.699984
v -33.000000 36.000000 3.800016
v -30.000000 33.750000 3.800014
v -30.000004 33.750000 -3.699986
v -33.000000 12.000002 -3.699992
v -33.000000 11.999998 3.800008
v -30.000004 14.250002 -3.699992
v -30.000000 14.249998 3.800008
v -33.000000 4.000000 -3.699994
v -33.000000 3.999998 3.800006
v -30.000000 1.749998 3.800004
v -30.000004 1.750002 -3.699996
v -33.000000 27.999998 -3.699986
v -33.000000 27.999998 3.800014
v -30.000004 30.249998 -3.699986
v -30.000000 30.249998 3.800014
v -33.000000 19.999998 -3.699990
v -33.000000 19.999998 3.800010
v -30.000000 17.749998 3.800010
v -30.000004 17.749998 -3.699990
v 32.999996 4.000000 -3.699994
v 32.999996 3.999998 3.800005
v 29.999989 1.750002 -3.699996
v 29.999996 1.749998 3.800004
v 32.999996 12.000001 -3.699994
v 32.999996 11.999999 3.800006
v 29.999996 14.249999 3.800006
v 29.999992 14.250001 -3.699994
v 32.999996 36.000000 -3.699990
v 32.999996 36.000000 3.800010
v 29.999992 33.750000 -3.699991
v 29.999996 33.750000 3.800009
v 32.999996 44.000000 -3.699990
v 32.999996 44.000000 3.800010
v 30.000000 46.250000 3.800012
v 29.999992 46.250000 -3.699988
v 32.999996 19.999998 -3.699994
v 32.999996 19.999998 3.800006
v 29.999992 17.749998 -3.699992
v 29.999996 17.749998 3.800008
v 32.999996 27.999998 -3.699991
v 32.999996 27.999998 3.800009
v 29.999996 30.249998 3.800010
v 29.999992 30.249998 -3.699990
v 30.000000 -0.000002 5.000000
v 30.000000 48.000000 5.000016
v 26.500000 3.249998 5.000000
v 26.500000 44.750000 5.000014
v -30.000000 48.000000 5.000016
v -30.000000 -0.000002 5.000000
v -26.500000 44.750000 5.000014
v -26.500000 3.249998 5.000000
v 30.000000 0.000002 -5.000000
v 30.000000 48.000000 -4.999984
v -30.000000 48.000000 -4.999984
v -30.000000 0.000002 -5.000000
v -26.500000 38.125000 5.000012
v -26.500000 9.874998 5.000002
v -20.375000 9.874998 5.000002
v -20.375000 38.125000 5.000012
v -12.750000 9.874998 5.000002
v -12.750000 38.125000 5.000012
v 12.750000 9.874998 5.000002
v 12.750000 38.125000 5.000012
v 20.375000 9.874998 5.000002
v 20.375000 38.125000 5.000012
v 26.500002 9.874998 5.000002
v 26.500002 38.125000 5.000012
v -20.375000 3.249998 5.000000
v 20.375000 44.750000 5.000014
v 20.375000 40.125000 2.000012
v 20.375000 44.750000 2.000014
v 12.750000 40.125000 2.000012
v 12.750000 44.750000 2.000014
v 12.750000 44.750000 5.000014
v -12.750000 44.750000 5.000014
v -12.750000 40.125000 2.000012
v -12.750000 44.750000 2.000014
v -20.375000 40.125000 2.000012
v -20.375000 44.750000 2.000014
v 12.750000 7.875000 2.000002
v 12.750000 3.250000 2.000000
v 20.375000 7.875000 2.000002
v 20.375000 3.250000 2.000000
v -20.375000 7.875000 2.000002
v -20.375000 3.250000 2.000000
v -12.750000 7.875000 2.000002
v -12.750000 3.250000 2.000000
v 20.375000 3.249998 5.000000
v -12.750000 3.249998 5.000000
v 12.750000 3.249998 5.000000
v -20.375000 44.750000 5.000014
v 9.000000 18.250000 5.050002
v 9.000000 29.750000 5.050007
v -9.000000 18.250000 5.050002
v -9.000000 29.750000 5.050007
v -6.500000 42.449982 5.049996
v -9.500000 42.449982 5.049996
v -6.500000 38.349979 5.049994
v -9.500000 38.349979 5.049994
v 9.500000 42.449982 5.049996
v 6.500000 42.449982 5.049996
v 9.500000 38.349979 5.049994
v 6.500000 38.349979 5.049994
v -16.500000 3.249999 4.165069
v -14.750000 3.249999 3.665067
v -16.500000 9.500000 4.165071
v -18.250000 3.249999 3.665067
v -18.250000 9.250000 3.665069
v -19.000000 3.250001 2.000005
v -19.000000 8.500002 2.000006
v -14.000000 3.250001 2.000005
v -14.000000 8.500001 2.000006
v -14.750000 9.250000 3.665069
v -6.500000 9.649998 5.049985
v -9.500000 9.649998 5.049985
v -6.500000 5.549998 5.049984
v -9.500000 5.549998 5.049984
v 19.000000 39.500000 2.000016
v 19.000000 44.750000 2.000018
v 18.250000 44.750000 3.665082
v 18.250000 38.750000 3.665079
v 16.500000 44.750000 4.165081
v 16.500000 38.500000 4.165079
v 14.750000 38.750000 3.665079
v 14.750000 44.750000 3.665082
v 14.000000 39.500000 2.000016
v 14.000000 44.750000 2.000017
vt 2.000000 0.003906
vt 0.000000 0.003906
vt 2.000000 2.000000
vt 0.000000 2.000000
vt 4.707031 0.343750
vt 4.707031 4.660156
vt 5.000000 0.003906
vt 5.000000 5.000000
vt 0.292969 4.660156
vt 0.292969 0.343750
vt 0.000000 5.000000
vt 0.000000 0.003906
vt 1.957031 0.988281
vt 0.761719 0.988281
vt 1.957031 0.503906
vt 0.750000 0.503906
vt 0.031250 0.503906
vt 0.031250 0.003906
vt 0.500000 0.503906
vt 0.500000 0.003906
vt 1.550781 0.988281
vt 0.355469 0.988281
vt 1.550781 0.503906
vt 0.343750 0.503906
vt 1.707031 0.988281
vt 0.292969 0.988281
vt 2.000000 0.503906
vt 0.000000 0.503906
vt 1.957031 0.988281
vt 0.761719 0.988281
vt 1.957031 0.503906
vt 0.750000 0.503906
vt 0.500000 0.503906
vt 0.500000 0.003906
vt 0.031250 0.503906
vt 0.031250 0.003906
vt 1.207031 0.988281
vt 0.011719 0.988281
vt 1.207031 0.503906
vt 0.000000 0.503906
vt 1.707031 0.988281
vt 0.292969 0.988281
vt 2.000000 0.503906
vt 0.000000 0.503906
vt 1.957031 0.988281
vt 0.761719 0.988281
vt 1.957031 0.503906
vt 0.750000 0.503906
vt 0.500000 0.003906
vt 0.500000 0.503906
vt 0.031250 0.003906
vt 0.031250 0.503906
vt 1.207031 0.988281
vt 0.011719 0.988281
vt 1.207031 0.503906
vt 0.000000 0.503906
vt 1.707031 0.988281
vt 0.292969 0.988281
vt 2.000000 0.503906
vt 0.000000 0.503906
vt 1.957031 0.988281
vt 0.761719 0.988281
vt 1.957031 0.503906
vt 0.750000 0.503906
vt 0.031250 0.003906
vt 0.031250 0.503906
vt 0.500000 0.003906
vt 0.500000 0.503906
vt 1.957031 0.988281
vt 0.761719 0.988281
vt 1.957031 0.503906
vt 0.750000 0.503906
vt 1.707031 0.988281
vt 0.292969 0.988281
vt 2.000000 0.503906
vt 0.000000 0.503906
vt 1.550781 0.988281
vt 0.355469 0.988281
vt 1.550781 0.503906
vt 0.343750 0.503906
vt 0.500000 0.503906
vt 0.500000 0.003906
vt 0.031250 0.503906
vt 0.031250 0.003906
vt 1.957031 0.988281
vt 0.761719 0.988281
vt 1.957031 0.503906
vt 0.750000 0.503906
vt 1.707031 0.988281
vt 0.292969 0.988281
vt 2.000000 0.503906
vt 0.000000 0.503906
vt 1.957031 0.988281
vt 0.761719 0.988281
vt 1.957031 0.503906
vt 0.750000 0.503906
vt 0.031250 0.503906
vt 0.031250 0.003906
vt 0.500000 0.503906
vt 0.500000 0.003906
vt 1.957031 0.988281
vt 0.761719 0.988281
vt 1.957031 0.503906
vt 0.750000 0.503906
vt 1.707031 0.988281
vt 0.292969 0.988281
vt 2.000000 0.503906
vt 0.000000 0.503906
vt 0.292969 0.988281
vt 0.000000 0.503906
vt 1.707031 0.988281
vt 2.000000 0.503906
vt 0.292969 0.988281
vt 0.000000 0.503906
vt 1.707031 0.988281
vt 2.000000 0.503906
vt 0.292969 0.988281
vt 0.000000 0.503906
vt 1.707031 0.988281
vt 2.000000 0.503906
vt 1.707031 0.988281
vt 0.292969 0.988281
vt 2.000000 0.503906
vt 0.000000 0.503906
vt 1.707031 0.988281
vt 0.292969 0.988281
vt 2.000000 0.503906
vt 0.000000 0.503906
vt 1.707031 0.988281
vt 0.292969 0.988281
vt 2.000000 0.503906
vt 0.000000 0.503906
vt 0.292969 4.660156
vt 4.707031 4.660156
vt 0.000000 5.000000
vt 5.000000 5.000000
vt 0.000000 0.003906
vt 5.000000 0.003906
vt 0.292969 0.343750
vt 4.707031 0.343750
vt 0.000000 0.003906
vt 0.000000 1.000000
vt 6.000000 0.003906
vt 6.000000 1.000000
vt 0.000000 0.003906
vt 0.000000 1.000000
vt 6.000000 0.003906
vt 6.000000 1.000000
vt 0.500000 1.000000
vt 1.000000 1.000000
vt 0.500000 0.503906
vt 1.000000 0.503906
vt 0.500000 1.000000
vt 1.000000 1.000000
vt 0.500000 0.503906
vt 1.000000 0.503906
vt 0.500000 1.000000
vt 1.000000 1.000000
vt 0.500000 0.503906
vt 1.000000 0.503906
vt 0.500000 1.000000
vt 1.000000 1.000000
vt 0.500000 0.503906
vt 1.000000 0.503906
vt 0.250000 1.000000
vt 0.125000 1.000000
vt 0.250000 0.003906
vt 0.375000 1.000000
vt 0.367188 0.035156
vt 0.500000 1.000000
vt 0.500000 0.128906
vt 0.000000 1.000000
vt 0.000000 0.128906
vt 0.132812 0.035156
vt 0.000000 0.128906
vt 0.000000 1.000000
vt 0.125000 1.000000
vt 0.117188 0.035156
vt 0.250000 1.000000
vt 0.250000 0.003906
vt 0.382812 0.035156
vt 0.375000 1.000000
vt 0.500000 0.128906
vt 0.500000 1.000000
vt 0.250000 1.000000
vt 0.125000 1.000000
vt 0.250000 0.003906
vt 0.375000 1.000000
vt 0.367188 0.035156
vt 0.500000 1.000000
vt 0.500000 0.128906
vt 0.000000 1.000000
vt 0.000000 0.128906
vt 0.132812 0.035156
vt 0.000000 0.128906
vt 0.000000 1.000000
vt 0.125000 1.000000
vt 0.117188 0.035156
vt 0.250000 1.000000
vt 0.250000 0.003906
vt 0.382812 0.035156
vt 0.375000 1.000000
vt 0.500000 0.128906
vt 0.500000 1.000000
vt 1.000000 0.003906
vt 1.000000 0.753906
vt 0.000000 0.003906
vt 0.000000 0.753906
vt 0.000000 0.840821
vt 0.000000 0.163086
vt 0.115234 0.163086
vt 0.115234 0.840821
vt 0.259766 0.163086
vt 0.259766 0.840821
vt 0.740234 0.163086
vt 0.740234 0.840821
vt 0.884766 0.163086
vt 0.884766 0.840821
vt 1.000000 0.163086
vt 1.000000 0.840821
vt 0.000000 0.002930
vt 0.115234 0.002930
vt 1.000000 1.000977
vt 0.884766 1.000977
vt 0.884766 0.905273
vt 0.884766 1.000977
vt 0.740234 0.905273
vt 0.740234 1.000977
vt 0.740234 1.000977
vt 0.259766 1.000977
vt 0.259766 0.905273
vt 0.259766 1.000977
vt 0.115234 0.905273
vt 0.115234 1.000977
vt 0.740234 0.098633
vt 0.740234 0.002930
vt 0.884766 0.098633
vt 0.884766 0.002930
vt 0.115234 0.098633
vt 0.115234 0.002930
vt 0.259766 0.098633
vt 0.259766 0.002930
vt 0.884766 0.002930
vt 1.000000 0.002930
vt 0.259766 0.002930
vt 0.740234 0.002930
vt 0.115234 1.000977
vt 0.000000 1.000977
vt 0.115234 0.028320
vt 0.115234 0.002930
vt 0.259766 0.028320
vt 0.259766 0.002930
vt 0.115234 0.028320
vt 0.259766 0.028320
vt 0.259766 0.002930
vt 0.259766 0.028320
vt 0.115234 0.002930
vt 0.115234 0.028320
vt 0.259766 0.002930
vt 0.259766 0.028320
vt 0.115234 0.002930
vt 0.115234 0.028320
vt 0.259766 0.028320
vt 0.115234 0.002930
vt 0.115234 0.028320
vt 0.115234 0.002930
vt 0.259766 0.002930
vt 0.259766 0.028320
vt 0.115234 0.002930
vt 0.259766 0.002930
vt 0.259766 0.028320
vt 0.259766 0.028320
vt 0.115234 0.002930
vt 0.115234 0.028320
vt 0.259766 0.028320
vt 0.115234 0.002930
vt 0.115234 0.028320
vt 0.115234 0.002930
vt 0.259766 0.002930
vt 0.259766 0.028320
vt 0.259766 0.028320
vt 0.115234 0.002930
vt 0.115234 0.028320
vt 0.115234 0.002930
vt 0.259766 0.002930
vt 0.259766 0.028320
vn -0.0000 0.0000 -1.0000
vn 0.7071 0.0000 -0.7071
vn -0.7071 0.0000 -0.7071
vn -0.7025 0.3513 -0.6189
vn -0.7025 0.3513 0.6189
vn -0.5167 0.6889 -0.5084
vn -0.5167 0.6889 0.5084
vn -0.7025 -0.3513 -0.6189
vn -0.7025 -0.3513 0.6189
vn -0.5167 -0.6889 0.5084
vn -0.5167 -0.6889 -0.5084
vn 0.7025 -0.3513 -0.6189
vn 0.7025 -0.3513 0.6189
vn 0.5167 -0.6889 -0.5084
vn 0.5167 -0.6889 0.5084
vn 0.7025 0.3513 -0.6189
vn 0.7025 0.3513 0.6189
vn 0.5167 0.6889 0.5084
vn 0.5167 0.6889 -0.5084
vn -0.0000 -0.0000 1.0000
vn -0.7071 -0.0000 0.7071
vn 0.7071 -0.0000 0.7071
vn 0.6541 -0.0000 0.7564
vn -0.6541 -0.0000 0.7564
vn -0.5880 -0.0000 0.8089
vn -0.9118 0.0000 0.4107
vn 0.9118 -0.0000 0.4107
vn 0.5880 -0.0000 0.8089
vn 0.1689 -0.2246 0.9597
vn 0.1689 0.2246 0.9597
vn -0.1689 -0.2246 0.9597
vn -0.1689 0.2246 0.9597
vn 0.5774 0.5774 0.5774
vn -0.5774 -0.5774 0.5774
vn -0.6147 0.3722 0.6954
vn 0.6147 0.3722 0.6954
vn 0.5774 -0.5774 0.5774
vn 0.6147 -0.3722 0.6954
vn 0.5774 0.5773 0.5774
vn -0.6147 -0.3722 0.6954
vn -0.5774 0.5774 0.5774
vn -0.5774 0.5773 0.5774
usemtl material_0
s 1
f 25/1/1 26/2/1 27/3/1
f 27/3/1 26/2/1 28/4/1
f 26/5/1 25/6/1 85/7/2
f 85/7/2 25/6/1 86/8/2
f 27/9/1 28/10/1 87/11/3
f 87/11/3 28/10/1 88/12/3
f 29/13/4 30/14/5 31/15/6
f 31/15/6 30/14/5 32/16/7
f 33/17/8 34/18/9 29/19/4
f 29/19/4 34/18/9 30/20/5
f 34/21/9 33/22/8 35/23/10
f 35/23/10 33/22/8 36/24/11
f 30/25/5 34/26/9 32/27/7
f 32/27/7 34/26/9 35/28/10
f 37/29/4 38/30/5 39/31/6
f 39/31/6 38/30/5 40/32/7
f 41/33/8 42/34/9 37/35/4
f 37/35/4 42/34/9 38/36/5
f 42/37/9 41/38/8 43/39/10
f 43/39/10 41/38/8 44/40/11
f 38/41/5 42/42/9 40/43/7
f 40/43/7 42/42/9 43/44/10
f 45/45/4 46/46/5 47/47/6
f 47/47/6 46/46/5 48/48/7
f 49/49/8 50/50/9 45/51/4
f 45/51/4 50/50/9 46/52/5
f 50/53/9 49/54/8 51/55/10
f 51/55/10 49/54/8 52/56/11
f 46/57/5 50/58/9 48/59/7
f 48/59/7 50/58/9 51/60/10
f 53/61/12 54/62/13 55/63/14
f 55/63/14 54/62/13 56/64/15
f 57/65/16 58/66/17 53/67/12
f 53/67/12 58/66/17 54/68/13
f 58/69/17 57/70/16 59/71/18
f 59/71/18 57/70/16 60/72/19
f 54/73/13 58/74/17 56/75/15
f 56/75/15 58/74/17 59/76/18
f 61/77/12 62/78/13 63/79/14
f 63/79/14 62/78/13 64/80/15
f 65/81/16 66/82/17 61/83/12
f 61/83/12 66/82/17 62/84/13
f 66/85/17 65/86/16 67/87/18
f 67/87/18 65/86/16 68/88/19
f 62/89/13 66/90/17 64/91/15
f 64/91/15 66/90/17 67/92/18
f 69/93/12 70/94/13 71/95/14
f 71/95/14 70/94/13 72/96/15
f 73/97/16 74/98/17 69/99/12
f 69/99/12 74/98/17 70/100/13
f 74/101/17 73/102/16 75/103/18
f 75/103/18 73/102/16 76/104/19
f 70/105/13 74/106/17 72/107/15
f 72/107/15 74/106/17 75/108/18
f 61/109/12 63/110/14 65/111/16
f 65/111/16 63/110/14 68/112/19
f 69/113/12 71/114/14 73/115/16
f 73/115/16 71/114/14 76/116/19
f 53/117/12 55/118/14 57/119/16
f 57/119/16 55/118/14 60/120/19
f 33/121/8 29/122/4 36/123/11
f 36/123/11 29/122/4 31/124/6
f 49/125/8 45/126/4 52/127/11
f 52/127/11 45/126/4 47/128/6
f 41/129/8 37/130/4 44/131/11
f 44/131/11 37/130/4 39/132/6
f 28/10/1 26/5/1 88/12/3
f 88/12/3 26/5/1 85/7/2
f 83/133/20 80/134/20 81/135/21
f 81/135/21 80/134/20 78/136/22
f 82/137/21 77/138/22 84/139/20
f 84/139/20 77/138/22 79/140/20
f 25/6/1 27/9/1 86/8/2
f 86/8/2 27/9/1 87/11/3
f 81/141/21 87/142/3 82/143/21
f 82/143/21 87/142/3 88/144/3
f 86/145/2 78/146/22 85/147/2
f 85/147/2 78/146/22 77/148/22
usemtl material_7
f 1/149/20 2/150/20 3/151/20
f 3/151/20 2/150/20 4/152/20
f 129/153/20 130/154/20 131/155/20
f 131/155/20 130/154/20 132/156/20
f 133/157/20 134/158/20 135/159/20
f 135/159/20 134/158/20 136/160/20
f 147/161/20 148/162/20 149/163/20
f 149/163/20 148/162/20 150/164/20
f 5/165/20 6/166/23 7/167/20
f 5/165/20 7/167/20 8/168/24
f 8/168/24 7/167/20 9/169/25
f 8/168/24 9/169/25 10/170/26
f 10/170/26 9/169/25 11/171/26
f 12/172/27 13/173/27 14/174/28
f 12/172/27 14/174/28 6/166/23
f 6/166/23 14/174/28 7/167/20
f 15/175/27 16/176/27 17/177/23
f 15/175/27 17/177/23 18/178/28
f 18/178/28 17/177/23 19/179/20
f 20/180/20 18/178/28 19/179/20
f 20/180/20 19/179/20 21/181/25
f 21/181/25 19/179/20 22/182/24
f 21/181/25 22/182/24 23/183/26
f 23/183/26 22/182/24 24/184/26
f 137/185/20 138/186/23 139/187/20
f 137/185/20 139/187/20 140/188/24
f 140/188/24 139/187/20 141/189/25
f 140/188/24 141/189/25 142/190/26
f 142/190/26 141/189/25 143/191/26
f 144/192/27 145/193/27 146/194/28
f 144/192/27 146/194/28 138/186/23
f 138/186/23 146/194/28 139/187/20
f 151/195/27 152/196/27 153/197/23
f 151/195/27 153/197/23 154/198/28
f 154/198/28 153/197/23 155/199/20
f 156/200/20 154/198/28 155/199/20
f 156/200/20 155/199/20 157/201/25
f 157/201/25 155/199/20 158/202/24
f 157/201/25 158/202/24 159/203/26
f 159/203/26 158/202/24 160/204/26
usemtl material_2
f 77/138/22 78/136/22 79/140/20
f 79/140/20 78/136/22 80/134/20
f 81/135/21 82/137/21 83/133/20
f 83/133/20 82/137/21 84/139/20
usemtl material_6
f 125/205/20 126/206/20 127/207/20
f 127/207/20 126/206/20 128/208/20
usemtl material_5
f 89/209/20 90/210/20 91/211/29
f 89/209/20 91/211/29 92/212/30
f 92/212/30 91/211/29 93/213/31
f 92/212/30 93/213/31 94/214/32
f 94/214/32 93/213/31 95/215/29
f 94/214/32 95/215/29 96/216/30
f 96/216/30 95/215/29 97/217/31
f 96/216/30 97/217/31 98/218/32
f 98/218/32 97/217/31 99/219/20
f 98/218/32 99/219/20 100/220/20
f 90/210/20 84/221/20 91/211/29
f 91/211/29 84/221/20 101/222/33
f 100/220/20 80/223/20 98/218/32
f 98/218/32 80/223/20 102/224/34
f 103/225/35 104/226/34 105/227/36
f 103/225/35 105/227/36 98/218/32
f 98/218/32 105/227/36 96/216/30
f 104/226/34 106/228/37 105/227/36
f 96/216/30 107/229/37 94/214/32
f 94/214/32 107/229/37 108/230/34
f 109/231/35 110/232/34 111/233/36
f 109/231/35 111/233/36 94/214/32
f 94/214/32 111/233/36 92/212/30
f 110/232/34 112/234/37 111/233/36
f 113/235/38 114/236/39 115/237/40
f 113/235/38 115/237/40 95/215/29
f 95/215/29 115/237/40 97/217/31
f 114/236/39 116/238/41 115/237/40
f 117/239/38 118/240/39 119/241/40
f 117/239/38 119/241/40 91/211/29
f 91/211/29 119/241/40 93/213/31
f 118/240/39 120/242/42 119/241/40
f 97/217/31 121/243/41 99/219/20
f 99/219/20 121/243/41 79/244/20
f 93/213/31 122/245/41 95/215/29
f 95/215/29 122/245/41 123/246/33
f 92/212/30 124/247/37 89/209/20
f 89/209/20 124/247/37 83/248/20
f 114/249/39 123/250/33 116/251/41
f 116/251/41 123/250/33 121/252/41
f 118/253/39 101/222/33 120/254/42
f 120/254/42 101/222/33 122/245/41
f 124/255/37 112/256/37 108/257/34
f 108/257/34 112/256/37 110/258/34
f 107/259/37 106/260/37 102/261/34
f 102/261/34 106/260/37 104/262/34
f 122/245/41 93/263/31 120/264/42
f 120/264/42 93/263/31 119/265/40
f 117/266/38 91/267/29 118/253/39
f 118/253/39 91/267/29 101/268/33
f 113/269/38 95/270/29 114/249/39
f 114/249/39 95/270/29 123/271/33
f 121/252/41 97/272/31 116/273/41
f 116/273/41 97/272/31 115/274/40
f 107/259/37 96/275/30 106/276/37
f 106/276/37 96/275/30 105/277/36
f 103/278/35 98/279/32 104/262/34
f 104/262/34 98/279/32 102/280/34
f 124/255/37 92/281/30 112/282/37
f 112/282/37 92/281/30 111/283/36
f 109/284/35 94/285/32 110/258/34
f 110/258/34 94/285/32 108/286/34
