# Blender v2.79 (sub 0) OBJ File: ''
# www.blender.org
mtllib LEFT.mtl
v -1.595089 0.000001 -5.647393
v 5.647529 -0.000000 1.595226
v 16.931637 0.001003 -26.661976
v 16.837704 0.001000 -6.259940
v 19.795155 55.068752 -12.552403
v 12.552534 55.068752 -19.795021
v 18.298717 57.881313 -18.298588
v -1.595096 0.000001 -5.647395
v 5.647525 -0.000000 1.595224
v 4.648269 0.000001 -4.648141
v 5.600955 65.563217 1.641803
v -1.641670 65.563217 -5.600811
v 2.502880 69.925858 -2.502745
v 19.198551 15.807978 -11.955804
v 11.955931 15.807979 -19.198423
v 18.099842 14.823581 -18.099716
v 26.500385 37.498150 -19.257635
v 19.257763 37.498150 -26.500256
v 25.401691 37.498150 -25.401569
v 24.032831 26.095222 -16.790081
v 16.790207 26.095224 -24.032701
v 22.835518 25.045189 -22.835394
v 16.792671 46.841297 -24.035162
v 24.035294 46.841297 -16.792542
v 22.836342 48.805420 -22.836216
v 5.849885 61.850063 -13.092367
v 13.092506 61.850060 -5.849753
v 10.795250 65.995453 -10.795117
v 15.760389 52.115555 -11.284073
v 11.284208 52.115559 -15.760259
v 19.795155 55.068752 -12.552403
v 12.552534 55.068752 -19.795021
v -1.595096 0.000001 -5.647395
v 5.647525 -0.000000 1.595224
v 0.021729 -0.000001 4.454583
v -4.454455 0.000000 -0.021601
v 3.671546 60.948708 0.804777
v -0.804642 60.948708 -3.671409
v 5.600955 65.563217 1.641803
v -1.641670 65.563217 -5.600811
v 14.766012 17.073633 -10.289700
v 10.289824 17.073633 -14.765885
v 19.198551 15.807978 -11.955804
v 11.955931 15.807979 -19.198423
v 22.067844 37.498150 -17.591532
v 17.591656 37.498150 -22.067717
v 26.500385 37.498150 -19.257635
v 19.257763 37.498150 -26.500256
v 2.238128 4.565345 2.238184
v -2.238060 4.565346 -2.237997
v 1.433452 60.948708 -1.433315
v 19.797520 27.285891 -15.321195
v 15.321320 27.285892 -19.797394
v 24.032831 26.095222 -16.790081
v 16.790207 26.095224 -24.032701
v 19.998867 44.806854 -15.522544
v 15.522674 44.806854 -19.998737
v 16.792671 46.841297 -24.035162
v 24.035294 46.841297 -16.792542
v 10.307644 58.066204 -5.831326
v 5.831463 58.066204 -10.307509
v 5.849885 61.850063 -13.092367
v 13.092506 61.850060 -5.849753
v 3.935401 64.429794 5.561937
v -2.848705 70.961456 2.848845
v -15.374388 64.267181 9.020258
v -8.739347 54.590576 2.105777
v -2.105632 54.590591 8.739486
v -9.020109 64.267181 15.374532
v 3.671546 60.948708 0.804777
v -0.804642 60.948708 -3.671409
v 5.600955 65.563217 1.641803
v -1.641670 65.563217 -5.600811
v 2.502880 69.925858 -2.502745
v -5.561797 64.429794 -3.935263
v -16.847725 63.280155 16.847864
v -8.030088 51.285683 8.030227
v 1.433452 60.948708 -1.433315
v -12.368229 63.773666 16.676886
v -16.676744 63.773666 12.368373
v -9.848217 68.505081 9.848356
v -8.879696 52.938129 4.573028
v -4.572886 52.938137 8.879834
v -2.661922 55.117207 2.662060
v 3.935401 64.429794 5.561937
v -15.374388 64.267181 9.020258
v -8.739347 54.590576 2.105777
v -2.105632 54.590591 8.739486
v -9.020109 64.267181 15.374532
v -5.561797 64.429794 -3.935263
v -16.847725 63.280155 16.847864
v -8.030088 51.285683 8.030227
v -12.368229 63.773666 16.676886
v -16.676744 63.773666 12.368373
v -8.879696 52.938129 4.573028
v -4.572886 52.938137 8.879834
vt 0.480469 1.000000
vt 1.000000 0.003906
vt 0.187500 0.828125
vt 0.199219 0.195312
vt 0.007812 0.019531
vt 0.992188 0.019531
vt 0.992188 1.000000
vt 0.007812 1.000000
vt 0.992188 1.984375
vt 0.007812 1.984375
vt 0.992188 0.019531
vt 0.992188 1.984375
vt 0.007812 0.019531
vt 0.007812 1.984375
vt 0.992188 0.019531
vt 0.992188 1.984375
vt 0.007812 0.019531
vt 0.007812 1.984375
vt 0.992188 1.984375
vt 0.007812 1.984375
vt 0.007812 1.000000
vt 0.992188 1.000000
vt 0.007812 0.019531
vt 0.992188 0.019531
vt 0.992188 1.984375
vt 0.007812 1.984375
vt 0.007812 1.000000
vt 0.992188 1.000000
vt 0.007812 0.019531
vt 0.992188 0.019531
vt 0.007812 0.019531
vt 0.992188 0.019531
vt 0.992188 1.000000
vt 0.007812 1.000000
vt 0.992188 1.984375
vt 0.007812 1.984375
vt 0.992188 1.984375
vt 0.007812 1.984375
vt 0.007812 1.000000
vt 0.992188 1.000000
vt 0.007812 0.019531
vt 0.992188 0.019531
vt 0.992188 1.984375
vt 0.007812 1.984375
vt 0.007812 1.000000
vt 0.992188 1.000000
vt 0.007812 0.019531
vt 0.992188 0.019531
vt 0.500000 0.335938
vt 0.996094 0.335938
vt 0.500000 0.671875
vt 0.003906 0.503906
vt 0.003906 0.671875
vt 0.996094 0.671875
vt 0.500000 1.000000
vt 0.996094 1.000000
vt 0.500000 0.671875
vt 0.996094 0.671875
vt 0.500000 0.335938
vt 0.996094 0.335938
vt 0.500000 0.007812
vt 0.996094 0.007812
vt 0.839844 0.671875
vt 0.996094 1.000000
vt 0.996094 0.671875
vt 0.839844 0.335938
vt 0.996094 0.335938
vt 0.996094 0.007812
vt 0.500000 0.007812
vt 0.003906 0.007812
vt 0.500000 0.335938
vt 0.003906 0.335938
vt 0.500000 0.671875
vt 0.003906 0.671875
vt 0.500000 1.000000
vt 0.003906 1.000000
vt 0.003906 0.007812
vt 0.003906 0.335938
vt 0.003906 0.671875
vt 0.003906 1.000000
vt 0.003906 0.007812
vt 0.003906 0.335938
vt 0.003906 0.671875
vt 0.003906 1.000000
vt 0.996094 1.000000
vt 0.996094 0.671875
vt 0.996094 0.335938
vt 0.996094 0.007812
vt 0.003906 0.335938
vt 0.003906 0.007812
vt 0.003906 0.335938
vt 0.500000 0.335938
vt 0.500000 0.007812
vt 0.996094 0.335938
vt 0.996094 0.007812
vt 0.003906 0.671875
vt 0.003906 1.000000
vt 0.500000 1.000000
vt 0.500000 0.671875
vt 0.996094 1.000000
vt 0.996094 0.671875
vt 0.875000 -0.144531
vt 0.996094 -0.292969
vt 0.710938 -0.492188
vt 0.316406 -0.300781
vt 0.359375 -0.492188
vt 0.160156 -0.394531
vt 0.003906 -0.492188
vt 0.996094 -0.492188
vt 0.996094 -0.292969
vt 0.875000 -0.144531
vt 0.003906 0.089844
vt 0.003906 0.296875
vt 0.265625 0.296875
vt 0.003906 0.089844
vt 0.003906 0.007812
vt 0.492188 0.007812
vt 0.789062 0.089844
vt 0.316406 -0.300781
vt 0.160156 -0.394531
vt 0.871094 0.050781
vt 0.976562 0.007812
vt 0.265625 0.296875
vt 0.003906 0.296875
vt 0.789062 0.089844
vt 0.871094 0.050781
vt 0.507812 0.007812
vt 0.351562 0.078125
vt 0.656250 0.074219
vt 0.195312 0.148438
vt 0.800781 0.140625
vt 0.015625 0.988281
vt 0.980469 0.988281
vt 0.507812 0.007812
vt 0.351562 0.078125
vt 0.656250 0.074219
vt 0.195312 0.148438
vt 0.800781 0.140625
vt 0.015625 0.988281
vt 0.980469 0.988281
vn -0.0001 1.0000 -0.0000
vn -0.0000 1.0000 0.0000
vn 0.5331 -0.6556 -0.5347
vn 0.0557 -0.5948 -0.8019
vn 0.1202 -0.3553 -0.9270
vn 0.6449 -0.4154 -0.6416
vn 0.1727 0.0327 -0.9844
vn 0.7047 0.0165 -0.7094
vn 0.1128 -0.7006 -0.7046
vn 0.4324 -0.7812 -0.4502
vn 0.6977 -0.7103 -0.0935
vn 0.8125 -0.5805 -0.0537
vn -0.0510 0.5537 -0.8311
vn 0.5029 0.6982 -0.5096
vn 0.6244 0.4573 -0.6332
vn 0.0772 0.3648 -0.9279
vn 0.9862 0.0120 -0.1649
vn 0.9265 -0.3548 -0.1251
vn 0.9272 0.3696 -0.0604
vn 0.8365 0.5450 0.0572
vn 0.2296 0.9467 -0.2258
vn 0.6365 0.7185 0.2804
vn 0.7115 0.6661 0.2238
vn 0.3264 0.8863 -0.3285
vn -0.2899 0.7166 -0.6344
vn -0.2120 0.6627 -0.7183
vn -0.6685 -0.7303 -0.1406
vn -0.8100 -0.5865 0.0002
vn 0.1355 -0.7263 0.6739
vn -0.2076 -0.9559 0.2076
vn 0.2353 -0.7832 0.5755
vn 0.0043 -0.5926 0.8055
vn -0.9133 0.1789 -0.3659
vn -0.8699 0.2827 -0.4041
vn -0.9216 0.3663 0.1279
vn -0.8103 0.5857 0.0190
vn -0.1296 0.3688 0.9204
vn -0.0241 0.5996 0.7999
vn 0.3697 0.1792 0.9117
vn 0.4154 0.2800 0.8655
vn -0.8044 0.5930 0.0367
vn -0.8353 0.2578 -0.4855
vn -0.8317 0.5101 0.2190
vn -0.0446 0.5903 0.8060
vn -0.2190 0.5101 0.8317
vn 0.4838 0.2429 0.8408
vn 0.3819 -0.2013 0.9020
vn 0.4598 -0.2783 0.8433
vn -0.1006 -0.4142 0.9046
vn -0.9020 -0.4189 0.1045
vn -0.8978 -0.2008 -0.3920
vn -0.8481 -0.2676 -0.4573
vn 0.3528 -0.0097 0.9356
vn -0.1368 -0.0299 0.9902
vn -0.9898 -0.0343 0.1381
vn -0.9349 -0.0130 -0.3546
vn -0.5778 -0.7841 -0.2267
vn 0.5629 -0.3788 0.7346
vn 0.5069 -0.3635 0.7816
vn -0.7423 -0.3686 -0.5596
vn -0.7755 -0.3678 -0.5132
vn 0.8377 0.2298 0.4954
vn 0.8213 0.3656 0.4380
vn -0.0366 0.9987 0.0366
vn 0.2128 0.7789 0.5900
vn -0.2095 0.9551 0.2095
vn -0.0129 0.8241 0.5663
vn -0.3301 0.8844 0.3301
vn 0.0959 0.9908 -0.0959
vn -0.4380 0.3656 -0.8213
vn -0.4954 0.2298 -0.8377
vn 0.7921 -0.6098 -0.0258
vn 0.0258 -0.6098 -0.7921
vn 0.5017 -0.7047 -0.5017
vn 0.4050 -0.8197 -0.4050
vn 0.6485 -0.7591 -0.0562
vn -0.5900 0.7789 -0.2128
vn -0.5663 0.8241 0.0129
vn 0.4933 -0.8570 -0.1487
vn 0.3186 -0.8927 -0.3186
vn 0.0562 -0.7591 -0.6485
vn 0.1487 -0.8570 -0.4933
vn -0.4719 0.7447 0.4719
vn -0.5511 0.6265 0.5511
vn -0.6138 -0.4966 0.6138
vn 0.1049 -0.9889 -0.1049
vn 0.0468 -0.9978 -0.0468
usemtl material_4
s 1
f 4/1/1 3/2/1 2/3/2
f 2/3/2 3/2/1 1/4/2
usemtl material_3
f 16/5/3 15/6/4 21/7/5
f 16/5/3 21/7/5 22/8/6
f 22/8/6 21/7/5 18/9/7
f 22/8/6 18/9/7 19/10/8
f 8/11/9 15/12/4 10/13/10
f 10/13/10 15/12/4 16/14/3
f 10/15/10 16/16/3 9/17/11
f 9/17/11 16/16/3 14/18/12
f 6/19/13 7/20/14 25/21/15
f 6/19/13 25/21/15 23/22/16
f 23/22/16 25/21/15 19/23/8
f 23/22/16 19/23/8 18/24/7
f 19/25/8 17/26/17 20/27/18
f 19/25/8 20/27/18 22/28/6
f 22/28/6 20/27/18 14/29/12
f 22/28/6 14/29/12 16/30/3
f 17/31/17 19/32/8 25/33/15
f 17/31/17 25/33/15 24/34/19
f 24/34/19 25/33/15 7/35/14
f 24/34/19 7/35/14 5/36/20
f 13/37/21 11/38/22 27/39/23
f 13/37/21 27/39/23 28/40/24
f 28/40/24 27/39/23 5/41/20
f 28/40/24 5/41/20 7/42/14
f 12/43/25 13/44/21 28/45/24
f 12/43/25 28/45/24 26/46/26
f 26/46/26 28/45/24 7/47/14
f 26/46/26 7/47/14 6/48/13
usemtl material_2
f 61/49/27 30/50/28 60/51/29
f 61/49/27 60/51/29 51/52/30
f 51/52/30 60/51/29 37/53/31
f 30/50/28 29/54/32 60/51/29
f 55/55/33 44/56/34 53/57/35
f 53/57/35 44/56/34 42/58/36
f 53/57/35 42/58/36 52/59/37
f 52/59/37 42/58/36 41/60/38
f 52/59/37 41/60/38 54/61/39
f 54/61/39 41/60/38 43/62/40
f 50/63/41 33/64/42 36/65/43
f 50/63/41 36/65/43 49/66/44
f 49/66/44 36/65/43 35/67/45
f 49/66/44 35/67/45 34/68/46
f 59/69/47 31/70/48 56/71/49
f 56/71/49 31/70/48 29/72/32
f 56/71/49 29/72/32 57/73/50
f 57/73/50 29/72/32 30/74/28
f 57/73/50 30/74/28 58/75/51
f 58/75/51 30/74/28 32/76/52
f 34/68/46 43/77/40 49/66/44
f 49/66/44 43/77/40 41/78/38
f 49/66/44 41/78/38 50/63/41
f 50/63/41 41/78/38 42/79/36
f 50/63/41 42/79/36 33/64/42
f 33/64/42 42/79/36 44/80/34
f 54/61/39 47/81/53 52/59/37
f 52/59/37 47/81/53 45/82/54
f 52/59/37 45/82/54 53/57/35
f 53/57/35 45/82/54 46/83/55
f 53/57/35 46/83/55 55/55/33
f 55/55/33 46/83/55 48/84/56
f 58/75/51 48/85/56 57/73/50
f 57/73/50 48/85/56 46/86/55
f 57/73/50 46/86/55 56/71/49
f 56/71/49 46/86/55 45/87/54
f 56/71/49 45/87/54 59/69/47
f 59/69/47 45/87/54 47/88/53
f 51/52/30 38/89/57 61/49/27
f 39/90/58 37/91/31 60/92/29
f 39/90/58 60/92/29 63/93/59
f 63/93/59 60/92/29 29/94/32
f 63/93/59 29/94/32 31/95/48
f 38/96/57 40/97/60 62/98/61
f 38/96/57 62/98/61 61/99/27
f 61/99/27 62/98/61 32/100/52
f 61/99/27 32/100/52 30/101/28
usemtl material_1
f 64/102/62 72/103/63 65/104/64
f 64/102/62 65/104/64 69/105/65
f 69/105/65 65/104/64 81/106/66
f 69/105/65 81/106/66 79/107/67
f 79/107/67 81/106/66 76/108/68
f 72/103/63 74/109/69 65/104/64
f 65/104/64 74/109/69 73/110/70
f 65/104/64 73/110/70 75/111/71
f 70/112/72 72/113/63 64/114/62
f 71/115/73 78/116/74 84/117/75
f 84/117/75 78/116/74 70/112/72
f 84/117/75 70/112/72 68/118/76
f 68/118/76 70/112/72 64/114/62
f 65/104/64 75/111/71 66/119/77
f 65/104/64 66/119/77 81/106/66
f 81/106/66 66/119/77 80/120/78
f 81/106/66 80/120/78 76/108/68
f 68/118/76 83/121/79 84/117/75
f 84/117/75 83/121/79 77/122/80
f 75/123/71 73/124/70 71/115/73
f 75/123/71 71/115/73 67/125/81
f 67/125/81 71/115/73 84/117/75
f 67/125/81 84/117/75 82/126/82
f 82/126/82 84/117/75 77/122/80
usemtl material_0
f 92/127/83 96/128/83 95/129/83
f 95/129/83 96/128/83 88/130/84
f 95/129/83 88/130/84 87/131/84
f 87/131/84 88/130/84 85/132/85
f 87/131/84 85/132/85 90/133/85
f 91/134/86 94/135/86 93/136/86
f 93/136/86 94/135/86 86/137/87
f 93/136/86 86/137/87 89/138/87
f 89/138/87 86/137/87 90/139/85
f 89/138/87 90/139/85 85/140/85
