# Blender v2.79 (sub 0) OBJ File: ''
# www.blender.org
mtllib RIGHT.mtl
v -5.561797 64.429794 3.935283
v -1.641670 65.563217 5.600832
v -2.848705 70.961456 -2.848822
v -15.374388 64.267181 -9.020237
v -9.848216 68.505081 -9.848334
v -16.676744 63.773674 -12.368353
v -16.847725 63.280163 -16.847845
v 2.502879 69.925858 2.502768
v 5.600955 65.563217 -1.641781
v 3.935402 64.429794 -5.561916
v 3.671547 60.948708 -0.804757
v 1.433452 60.948708 1.433335
v -0.804642 60.948708 3.671428
v -2.661922 55.117207 -2.662042
v -2.105632 54.590591 -8.739469
v -9.020108 64.267181 -15.374511
v -12.368228 63.773674 -16.676867
v -8.879695 52.938129 -4.573010
v -8.030088 51.285683 -8.030210
v -8.739347 54.590576 -2.105759
v -4.572886 52.938137 -8.879818
v -1.641670 65.563217 5.600832
v 2.502879 69.925858 2.502768
v 5.600955 65.563217 -1.641781
v 24.032831 26.095219 16.790091
v 19.198551 15.807974 11.955811
v 16.790205 26.095217 24.032709
v 11.955930 15.807973 19.198427
v 5.647525 0.000000 -1.595224
v -1.595097 -0.000001 5.647395
v 16.792669 46.841290 24.035177
v 12.552533 55.068745 19.795040
v 24.035294 46.841290 16.792559
v 19.795155 55.068745 12.552422
v 13.092506 61.850060 5.849774
v 19.257761 37.498142 26.500269
v 26.500383 37.498142 19.257648
v 5.849884 61.850056 13.092388
v 4.648269 -0.000001 4.648141
v 18.099842 14.823575 18.099720
v 18.298717 57.881306 18.298607
v 22.836340 48.805412 22.836233
v 25.401690 37.498142 25.401583
v 22.835516 25.045181 22.835403
v 10.795249 65.995453 10.795139
v -1.641670 65.563217 5.600832
v 5.600955 65.563217 -1.641781
v 3.671547 60.948708 -0.804757
v 1.433452 60.948708 1.433335
v -0.804642 60.948708 3.671428
v 15.760388 52.115555 11.284091
v 11.284207 52.115551 15.760277
v 5.831462 58.066204 10.307528
v 10.307644 58.066204 5.831347
v 24.032831 26.095219 16.790091
v 19.198551 15.807974 11.955811
v 19.797520 27.285887 15.321205
v 14.766011 17.073629 10.289706
v 15.321319 27.285885 19.797401
v 10.289823 17.073629 14.765892
v 16.790205 26.095217 24.032709
v 11.955930 15.807973 19.198427
v 2.238128 4.565346 -2.238182
v 5.647525 0.000000 -1.595224
v 0.021729 0.000001 -4.454583
v -2.238060 4.565345 2.237999
v -4.454455 -0.000000 0.021600
v -1.595097 -0.000001 5.647395
v 16.792669 46.841290 24.035177
v 12.552533 55.068745 19.795040
v 15.522673 44.806847 19.998753
v 19.998867 44.806847 15.522559
v 24.035294 46.841290 16.792559
v 19.795155 55.068745 12.552422
v 13.092506 61.850060 5.849774
v 19.257761 37.498142 26.500269
v 17.591654 37.498142 22.067728
v 22.067844 37.498142 17.591545
v 26.500383 37.498142 19.257648
v 5.849884 61.850056 13.092388
v -8.030088 51.285683 -8.030210
v -8.879695 52.938129 -4.573010
v -4.572886 52.938137 -8.879818
v -8.739347 54.590576 -2.105759
v -2.105632 54.590591 -8.739469
v -5.561797 64.429794 3.935283
v 3.935402 64.429794 -5.561916
v -16.847725 63.280163 -16.847845
v -12.368228 63.773674 -16.676867
v -16.676744 63.773674 -12.368353
v -9.020108 64.267181 -15.374511
v -15.374388 64.267181 -9.020237
v 5.647529 0.000000 -1.595226
v -1.595089 -0.000001 5.647393
v 16.837704 0.000998 6.259941
v 16.931635 0.000995 26.661976
vt 0.875000 -0.144531
vt 0.996094 -0.292969
vt 0.710938 -0.492188
vt 0.316406 -0.300781
vt 0.359375 -0.492188
vt 0.160156 -0.394531
vt 0.003906 -0.492188
vt 0.996094 -0.492188
vt 0.996094 -0.292969
vt 0.875000 -0.144531
vt 0.265625 -0.296875
vt 0.003906 -0.296875
vt 0.003906 -0.089844
vt 0.003906 -0.007812
vt 0.003906 -0.089844
vt 0.492188 -0.007812
vt 0.789062 -0.089844
vt 0.316406 -0.300781
vt 0.160156 -0.394531
vt 0.871094 -0.050781
vt 0.976562 -0.007812
vt 0.789062 -0.089844
vt 0.265625 -0.296875
vt 0.003906 -0.296875
vt 0.871094 -0.050781
vt 0.007812 0.019531
vt 0.007812 1.984375
vt 0.992188 0.019531
vt 0.992188 1.984375
vt 0.007812 0.019531
vt 0.007812 1.984375
vt 0.992188 0.019531
vt 0.992188 1.984375
vt 0.007812 1.984375
vt 0.992188 1.984375
vt 0.992188 1.000000
vt 0.007812 1.000000
vt 0.992188 0.019531
vt 0.007812 0.019531
vt 0.007812 1.984375
vt 0.992188 1.984375
vt 0.992188 1.000000
vt 0.007812 1.000000
vt 0.992188 0.019531
vt 0.007812 0.019531
vt 0.007812 1.984375
vt 0.992188 1.984375
vt 0.992188 1.000000
vt 0.007812 1.000000
vt 0.992188 0.019531
vt 0.007812 0.019531
vt 0.007812 1.984375
vt 0.992188 1.984375
vt 0.992188 1.000000
vt 0.007812 1.000000
vt 0.992188 0.019531
vt 0.007812 0.019531
vt 0.007812 1.984375
vt 0.992188 1.984375
vt 0.992188 1.000000
vt 0.007812 1.000000
vt 0.992188 0.019531
vt 0.007812 0.019531
vt 0.007812 1.984375
vt 0.992188 1.984375
vt 0.992188 1.000000
vt 0.007812 1.000000
vt 0.992188 0.019531
vt 0.007812 0.019531
vt 0.996094 0.671875
vt 0.996094 0.335938
vt 0.500000 0.335938
vt 0.500000 0.671875
vt 0.003906 0.503906
vt 0.003906 0.671875
vt 0.500000 0.007812
vt 0.996094 0.007812
vt 0.500000 0.335938
vt 0.996094 0.335938
vt 0.500000 0.671875
vt 0.996094 0.671875
vt 0.500000 1.000000
vt 0.996094 1.000000
vt 0.839844 0.335938
vt 0.996094 0.007812
vt 0.996094 0.335938
vt 0.839844 0.671875
vt 0.996094 0.671875
vt 0.996094 1.000000
vt 0.500000 1.000000
vt 0.003906 1.000000
vt 0.500000 0.671875
vt 0.003906 0.671875
vt 0.500000 0.335938
vt 0.003906 0.335938
vt 0.500000 0.007812
vt 0.003906 0.007812
vt 0.996094 0.007812
vt 0.996094 0.335938
vt 0.500000 0.335938
vt 0.500000 0.007812
vt 0.003906 0.335938
vt 0.003906 0.007812
vt 0.003906 1.000000
vt 0.003906 0.671875
vt 0.003906 0.335938
vt 0.003906 0.007812
vt 0.003906 1.000000
vt 0.003906 0.671875
vt 0.003906 0.335938
vt 0.003906 0.007812
vt 0.996094 0.007812
vt 0.996094 0.335938
vt 0.996094 0.671875
vt 0.996094 1.000000
vt 0.003906 0.335938
vt 0.003906 1.000000
vt 0.003906 0.671875
vt 0.500000 0.671875
vt 0.500000 1.000000
vt 0.996094 0.671875
vt 0.996094 1.000000
vt 0.507812 0.007812
vt 0.656250 0.074219
vt 0.351562 0.078125
vt 0.800781 0.140625
vt 0.195312 0.148438
vt 0.980469 0.988281
vt 0.015625 0.988281
vt 0.507812 0.007812
vt 0.656250 0.074219
vt 0.351562 0.078125
vt 0.800781 0.140625
vt 0.195312 0.148438
vt 0.980469 0.988281
vt 0.015625 0.988281
vt 0.187500 0.828125
vt 0.199219 0.195312
vt 0.480469 1.000000
vt 1.000000 0.003906
vn -0.4954 0.2298 0.8377
vn -0.4380 0.3656 0.8213
vn -0.0366 0.9987 -0.0366
vn -0.5900 0.7789 0.2128
vn -0.2095 0.9551 -0.2095
vn -0.5663 0.8241 -0.0129
vn -0.3301 0.8844 -0.3301
vn 0.0959 0.9908 0.0959
vn 0.8213 0.3656 -0.4380
vn 0.8377 0.2298 -0.4954
vn 0.7921 -0.6098 0.0258
vn 0.5017 -0.7047 0.5017
vn 0.0258 -0.6098 0.7921
vn 0.4050 -0.8197 0.4050
vn 0.6485 -0.7591 0.0562
vn 0.2128 0.7789 -0.5900
vn -0.0129 0.8241 -0.5663
vn 0.1487 -0.8570 0.4933
vn 0.3186 -0.8927 0.3186
vn 0.0562 -0.7591 0.6485
vn 0.4933 -0.8570 0.1487
vn 0.4502 -0.7812 0.4324
vn 0.5347 -0.6556 0.5331
vn 0.0935 -0.7103 0.6977
vn 0.0537 -0.5805 0.8125
vn 0.7046 -0.7006 0.1128
vn 0.8019 -0.5948 0.0557
vn 0.5096 0.6982 0.5029
vn -0.0572 0.5450 0.8365
vn 0.0604 0.3696 0.9272
vn 0.6332 0.4573 0.6244
vn 0.1649 0.0120 0.9862
vn 0.7094 0.0165 0.7047
vn 0.8311 0.5537 -0.0510
vn 0.9279 0.3648 0.0772
vn 0.9844 0.0327 0.1727
vn 0.1251 -0.3548 0.9265
vn 0.6416 -0.4154 0.6449
vn 0.9270 -0.3553 0.1202
vn 0.6344 0.7166 -0.2898
vn 0.2258 0.9467 0.2296
vn 0.3285 0.8863 0.3264
vn 0.7183 0.6627 -0.2120
vn -0.2804 0.7185 0.6365
vn -0.2238 0.6661 0.7115
vn -0.0002 -0.5865 -0.8100
vn -0.8055 -0.5926 0.0043
vn -0.6739 -0.7263 0.1355
vn 0.1406 -0.7303 -0.6685
vn -0.2076 -0.9559 -0.2076
vn 0.2267 -0.7841 -0.5778
vn 0.3659 0.1789 -0.9133
vn 0.4041 0.2827 -0.8699
vn -0.1279 0.3664 -0.9216
vn -0.0190 0.5857 -0.8103
vn -0.9204 0.3688 -0.1296
vn -0.7999 0.5996 -0.0241
vn -0.9117 0.1792 0.3697
vn -0.8655 0.2800 0.4154
vn -0.0367 0.5930 -0.8044
vn 0.4855 0.2578 -0.8353
vn -0.2190 0.5101 -0.8317
vn -0.8060 0.5903 -0.0446
vn -0.8317 0.5101 -0.2190
vn -0.8408 0.2429 0.4838
vn -0.9020 -0.2013 0.3819
vn -0.8433 -0.2783 0.4598
vn -0.9046 -0.4142 -0.1006
vn -0.1045 -0.4189 -0.9020
vn 0.3920 -0.2008 -0.8978
vn 0.4573 -0.2676 -0.8481
vn 0.5132 -0.3678 -0.7755
vn 0.5596 -0.3686 -0.7423
vn -0.9356 -0.0097 0.3528
vn -0.9902 -0.0299 -0.1368
vn -0.1381 -0.0343 -0.9898
vn 0.3546 -0.0130 -0.9349
vn -0.5755 -0.7832 0.2353
vn -0.7346 -0.3788 0.5629
vn -0.7816 -0.3635 0.5069
vn -0.4719 0.7447 -0.4719
vn -0.5511 0.6265 -0.5511
vn -0.6138 -0.4966 -0.6138
vn 0.1049 -0.9889 0.1049
vn 0.0468 -0.9978 0.0468
vn -0.0001 1.0000 -0.0001
vn -0.0001 1.0000 -0.0000
usemtl material_1
s 1
f 1/1/1 2/2/2 3/3/3
f 1/1/1 3/3/3 4/4/4
f 4/4/4 3/3/3 5/5/5
f 4/4/4 5/5/5 6/6/6
f 6/6/6 5/5/5 7/7/7
f 2/2/2 8/8/8 3/3/3
f 3/3/3 8/8/8 9/9/9
f 3/3/3 9/9/9 10/10/10
f 10/11/10 9/12/9 11/13/11
f 12/14/12 13/15/13 14/16/14
f 12/14/12 14/16/14 11/13/11
f 11/13/11 14/16/14 15/17/15
f 11/13/11 15/17/15 10/11/10
f 3/3/3 10/10/10 16/18/16
f 3/3/3 16/18/16 5/5/5
f 5/5/5 16/18/16 17/19/17
f 5/5/5 17/19/17 7/7/7
f 18/20/18 19/21/19 14/16/14
f 18/20/18 14/16/14 20/22/20
f 20/22/20 14/16/14 13/15/13
f 20/22/20 13/15/13 1/23/1
f 1/23/1 13/15/13 2/24/2
f 15/17/15 14/16/14 21/25/21
f 21/25/21 14/16/14 19/21/19
usemtl material_3
f 39/26/22 40/27/23 30/28/24
f 30/28/24 40/27/23 28/29/25
f 29/30/26 26/31/27 39/32/22
f 39/32/22 26/31/27 40/33/23
f 41/34/28 32/35/29 31/36/30
f 41/34/28 31/36/30 42/37/31
f 42/37/31 31/36/30 36/38/32
f 42/37/31 36/38/32 43/39/33
f 34/40/34 41/41/28 42/42/31
f 34/40/34 42/42/31 33/43/35
f 33/43/35 42/42/31 43/44/33
f 33/43/35 43/44/33 37/45/36
f 43/46/33 36/47/32 27/48/37
f 43/46/33 27/48/37 44/49/38
f 44/49/38 27/48/37 28/50/25
f 44/49/38 28/50/25 40/51/23
f 37/52/36 43/53/33 44/54/38
f 37/52/36 44/54/38 25/55/39
f 25/55/39 44/54/38 40/56/23
f 25/55/39 40/56/23 26/57/27
f 24/58/40 23/59/41 45/60/42
f 24/58/40 45/60/42 35/61/43
f 35/61/43 45/60/42 41/62/28
f 35/61/43 41/62/28 34/63/34
f 23/64/41 22/65/44 38/66/45
f 23/64/41 38/66/45 45/67/42
f 45/67/42 38/66/45 32/68/29
f 45/67/42 32/68/29 41/69/28
usemtl material_2
f 51/70/46 52/71/47 53/72/48
f 51/70/46 53/72/48 54/73/49
f 54/73/49 53/72/48 49/74/50
f 54/73/49 49/74/50 48/75/51
f 55/76/52 56/77/53 57/78/54
f 57/78/54 56/77/53 58/79/55
f 57/78/54 58/79/55 59/80/56
f 59/80/56 58/79/55 60/81/57
f 59/80/56 60/81/57 61/82/58
f 61/82/58 60/81/57 62/83/59
f 63/84/60 64/85/61 65/86/62
f 63/84/60 65/86/62 66/87/63
f 66/87/63 65/86/62 67/88/64
f 66/87/63 67/88/64 68/89/65
f 69/90/66 70/91/67 71/92/68
f 71/92/68 70/91/67 52/93/47
f 71/92/68 52/93/47 72/94/69
f 72/94/69 52/93/47 51/95/46
f 72/94/69 51/95/46 73/96/70
f 73/96/70 51/95/46 74/97/71
f 74/98/71 51/99/46 54/100/49
f 74/98/71 54/100/49 75/101/72
f 75/101/72 54/100/49 48/102/51
f 75/101/72 48/102/51 47/103/73
f 68/89/65 62/104/59 66/87/63
f 66/87/63 62/104/59 60/105/57
f 66/87/63 60/105/57 63/84/60
f 63/84/60 60/105/57 58/106/55
f 63/84/60 58/106/55 64/85/61
f 64/85/61 58/106/55 56/107/53
f 61/82/58 76/108/74 59/80/56
f 59/80/56 76/108/74 77/109/75
f 59/80/56 77/109/75 57/78/54
f 57/78/54 77/109/75 78/110/76
f 57/78/54 78/110/76 55/76/52
f 55/76/52 78/110/76 79/111/77
f 73/96/70 79/112/77 72/94/69
f 72/94/69 79/112/77 78/113/76
f 72/94/69 78/113/76 71/92/68
f 71/92/68 78/113/76 77/114/75
f 71/92/68 77/114/75 69/90/66
f 69/90/66 77/114/75 76/115/74
f 53/72/48 50/116/78 49/74/50
f 46/117/79 50/118/78 53/119/48
f 46/117/79 53/119/48 80/120/80
f 80/120/80 53/119/48 52/121/47
f 80/120/80 52/121/47 70/122/67
usemtl material_0
f 81/123/81 82/124/81 83/125/81
f 83/125/81 82/124/81 84/126/82
f 83/125/81 84/126/82 85/127/82
f 85/127/82 84/126/82 86/128/83
f 85/127/82 86/128/83 87/129/83
f 88/130/84 89/131/84 90/132/84
f 90/132/84 89/131/84 91/133/85
f 90/132/84 91/133/85 92/134/85
f 92/134/85 91/133/85 87/135/83
f 92/134/85 87/135/83 86/136/83
usemtl material_4
f 93/137/86 94/138/87 95/139/87
f 95/139/87 94/138/87 96/140/87
