# Blender v2.79 (sub 0) OBJ File: ''
# www.blender.org
mtllib Plant3.mtl
v 1.830321 4.766984 -1.637151 0.694118 0.694118 0.694118
v -0.596894 5.106378 0.573581 0.694118 0.694118 0.694118
v -3.537473 5.566691 -1.923526 0.694118 0.694118 0.694118
v -3.681351 4.913733 3.571270 0.694118 0.694118 0.694118
v 1.612011 6.412677 3.529388 0.694118 0.694118 0.694118
v 2.669867 6.871309 -6.486253 0.694118 0.694118 0.694118
v 4.546371 5.169123 -3.462455 0.694118 0.694118 0.694118
v 1.927601 4.764194 -1.667642 0.694118 0.694118 0.694118
v 7.082970 5.325038 -0.484941 0.694118 0.694118 0.694118
v 8.057651 5.550732 -5.970907 0.694118 0.694118 0.694118
v 5.522850 7.356472 3.702888 0.694118 0.694118 0.694118
v 3.742036 6.641294 1.400347 0.694118 0.694118 0.694118
v 2.918142 7.970352 6.148171 0.694118 0.694118 0.694118
v 8.004812 7.403160 6.768937 0.694118 0.694118 0.694118
v 8.374065 8.589688 1.776661 0.694118 0.694118 0.694118
v 1.128983 8.317756 4.405529 0.694118 0.694118 0.694118
v 3.317353 10.038146 8.417157 0.694118 0.694118 0.694118
v 3.691023 9.631001 4.837275 0.694118 0.694118 0.694118
v 7.365942 10.732862 5.307603 0.694118 0.694118 0.694118
v 3.987198 11.138107 1.524520 0.694118 0.694118 0.694118
v 1.704815 7.816829 -0.699489 0.694118 0.694118 0.694118
v 3.778400 6.614956 1.362239 0.694118 0.694118 0.694118
v 4.219385 9.274187 -3.063636 0.694118 0.694118 0.694118
v -1.059446 8.966796 -3.533290 0.694118 0.694118 0.694118
v -1.146461 8.277663 1.725874 0.694118 0.694118 0.694118
v -5.004088 9.668868 5.498963 0.694118 0.694118 0.694118
v -2.132458 9.852661 2.031285 0.694118 0.694118 0.694118
v 1.127344 8.361348 4.412325 0.694118 0.694118 0.694118
v -1.288316 9.184454 7.976148 0.694118 0.694118 0.694118
v -1.777061 8.586283 4.897213 0.694118 0.694118 0.694118
v -1.630159 10.764857 3.527120 0.694118 0.694118 0.694118
v 2.251490 13.225301 3.700012 0.694118 0.694118 0.694118
v 2.179048 12.319885 8.104406 0.694118 0.694118 0.694118
v -2.289795 12.498499 7.632062 0.694118 0.694118 0.694118
v -0.034646 11.936578 5.498136 0.694118 0.694118 0.694118
v -2.484540 13.152722 0.509276 0.694118 0.694118 0.694118
v -1.951009 14.952911 4.459364 0.694118 0.694118 0.694118
v -6.442237 15.143350 4.583049 0.694118 0.694118 0.694118
v -4.105206 14.328280 2.214032 0.694118 0.694118 0.694118
v -6.112227 15.572554 0.128493 0.694118 0.694118 0.694118
v -2.486993 13.160803 0.503459 0.694118 0.694118 0.694118
v 0.900417 15.197358 2.212714 0.694118 0.694118 0.694118
v -0.384804 14.273883 -0.511381 0.694118 0.694118 0.694118
v 2.589776 15.111823 -1.996514 0.694118 0.694118 0.694118
v -1.718642 15.231151 -3.228116 0.694118 0.694118 0.694118
v -5.205920 12.948919 2.747135 0.694118 0.694118 0.694118
v -2.552922 11.880459 1.364273 0.694118 0.694118 0.694118
v -1.602518 10.779543 3.475134 0.694118 0.694118 0.694118
v 0.178902 12.691787 0.004560 0.694118 0.694118 0.694118
v -4.019031 12.894476 -1.585557 0.694118 0.694118 0.694118
v -5.175060 17.297230 0.900000 0.694118 0.694118 0.694118
v -2.723456 17.411299 -1.121765 0.694118 0.694118 0.694118
v -4.676401 19.689554 -2.913801 0.694118 0.694118 0.694118
v -0.277454 19.122652 -2.151168 0.694118 0.694118 0.694118
v -1.366280 15.350751 -0.138094 0.694118 0.694118 0.694118
v 0.006108 18.356802 2.927131 0.694118 0.694118 0.694118
v 4.131317 19.496489 0.966530 0.694118 0.694118 0.694118
v 1.280573 17.500467 0.172290 0.694118 0.694118 0.694118
v 1.910788 18.396717 -2.810570 0.694118 0.694118 0.694118
v -1.237249 15.488084 -0.148313 0.694118 0.694118 0.694118
v -1.017318 19.124403 -3.814411 0.694118 0.694118 0.694118
v -1.033028 16.497694 -0.314013 0.694118 0.694118 0.694118
v -0.106014 20.047058 2.084487 0.694118 0.694118 0.694118
v 0.009060 18.839659 -0.824100 0.694118 0.694118 0.694118
v 1.931064 21.521702 -1.528416 0.694118 0.694118 0.694118
v -0.207015 -0.122438 0.150099 1.000000 1.000000 1.000000
v 0.015720 -0.071609 -0.103682 1.000000 1.000000 1.000000
v 1.711213 4.745540 -1.694517 1.000000 1.000000 1.000000
v 1.911753 4.791709 -1.901840 1.000000 1.000000 1.000000
v 3.708504 6.618939 1.407368 1.000000 1.000000 1.000000
v 3.894549 6.642483 1.179232 1.000000 1.000000 1.000000
v 1.082915 8.475762 4.308443 1.000000 1.000000 1.000000
v -1.763279 10.755417 3.544726 1.000000 1.000000 1.000000
v -1.557317 10.779054 3.359363 1.000000 1.000000 1.000000
v -2.618386 13.175490 0.506223 1.000000 1.000000 1.000000
v -2.429710 13.196629 0.362113 1.000000 1.000000 1.000000
v -0.737336 17.159143 -0.508257 1.000000 1.000000 1.000000
v -2.392985 13.176442 0.560194 1.000000 1.000000 1.000000
v -1.476843 10.763896 3.628564 1.000000 1.000000 1.000000
v 0.896104 8.396608 4.483437 1.000000 1.000000 1.000000
v 1.145304 8.385049 4.570107 1.000000 1.000000 1.000000
v 3.993025 6.682683 1.488695 1.000000 1.000000 1.000000
v 2.032530 4.756874 -1.581675 1.000000 1.000000 1.000000
v 0.125968 -0.126237 0.240172 1.000000 1.000000 1.000000
vt 1.003922 0.000000
vt 1.003922 0.262745
vt 0.000000 0.000000
vt 0.262745 0.262745
vt 1.003922 0.396078
vt 0.396078 0.396078
vt 1.003922 0.533333
vt 0.537255 0.537255
vt 1.003922 0.670588
vt 0.670588 0.670588
vt 1.003922 0.784314
vt 0.784314 0.784314
vt 1.003922 1.000000
vt 1.223529 0.784314
vt 1.337255 0.670588
vt 1.474510 0.533333
vt 1.607843 0.400000
vt 1.745098 0.262745
vt 2.007843 0.000000
vt 0.015502 0.982948
vt 0.007843 0.023529
vt 0.439216 0.435294
vt 0.976018 0.018602
vt 0.982219 0.990699
vn -0.774346 0.462813 0.431440
vn -0.870693 0.491623 0.013550
vn -0.754936 0.049776 -0.653859
vn -0.630207 0.614917 -0.473983
vn -0.638905 -0.768426 0.035524
vn -0.552141 0.744163 -0.375927
vn -0.662038 -0.657796 0.359142
vn -0.629902 -0.188513 -0.753410
vn -0.908414 -0.160161 0.386151
vn -0.395825 -0.745567 -0.536088
vn -0.996918 -0.073305 0.027253
vn -0.567278 -0.261055 -0.781030
vn -0.866054 0.459243 0.197455
vn -0.195044 0.566576 0.800562
vn -0.276894 0.298044 0.913480
vn -0.233894 -0.772271 0.590625
vn 0.041871 -0.859645 0.509140
vn -0.285470 -0.421979 0.860469
vn -0.232704 0.418409 0.877926
vn -0.217505 0.942412 -0.253945
vn -0.001099 0.988220 -0.152928
vn -0.050264 0.993316 -0.103854
vn 0.093326 0.992920 0.073122
vn -0.111118 0.992492 -0.050569
vn 0.167425 0.899869 0.402661
vn 0.014496 0.970611 0.240120
vn 0.029084 0.973418 0.227119
vn -0.102542 0.994079 0.035310
vn 0.048402 0.975158 0.216102
vn -0.321482 0.938597 0.125004
vn -0.215613 0.967254 -0.133641
vn -0.151250 0.987182 -0.050691
vn 0.058687 0.981201 -0.183782
vn -0.076418 0.995972 0.046693
vn -0.380535 0.854091 0.354534
vn -0.466536 0.879543 0.093234
vn -0.389538 0.914792 0.106693
vn -0.339610 0.929899 -0.141179
vn -0.299509 0.945952 0.124210
vn 0.291238 0.942595 0.163274
vn 0.160772 0.914457 0.371349
vn 0.127506 0.932401 0.338145
vn -0.058809 0.876492 0.477737
vn 0.089877 0.950316 0.297952
vn 0.327311 0.943083 0.058687
vn 0.208686 0.974700 0.079867
vn 0.254769 0.895779 0.364208
vn 0.093631 0.990387 0.101505
vn 0.168157 0.962310 -0.213630
vn -0.354930 0.901242 -0.248421
vn -0.271950 0.952452 -0.137181
vn -0.444349 0.892697 0.074831
vn -0.163579 0.986480 -0.006104
vn -0.035524 0.956511 -0.289438
vn 0.386853 0.888913 -0.245216
vn 0.322550 0.930357 -0.174291
vn 0.100070 0.929624 -0.354625
vn 0.241676 0.965789 -0.093844
vn 0.487686 0.871517 0.050600
vn -0.152562 0.906247 0.394238
vn -0.386029 0.902615 0.190313
vn -0.309244 0.938658 0.152409
vn -0.405408 0.906705 -0.116092
vn -0.216651 0.969665 0.113102
vn 0.439161 0.884121 0.159398
vn 0.233222 0.901273 0.365032
vn 0.198889 0.929106 0.311716
vn -0.065859 0.909513 0.410382
vn 0.170019 0.954802 0.243690
vn 0.280007 0.557512 0.781487
vn 0.230354 0.624348 0.746361
vn 0.435896 0.698111 0.567980
vn 0.173223 0.696341 0.696463
vn -0.016083 0.532151 0.846461
vn -0.472335 0.755791 -0.453444
vn -0.534867 0.828944 -0.163488
vn -0.569018 0.804254 -0.171361
vn -0.607410 0.786981 0.108127
vn -0.592090 0.775628 -0.218543
vn -0.779321 0.539415 0.318827
vn -0.904904 0.418958 0.074892
vn -0.864742 0.499252 0.053987
vn -0.860836 0.456984 -0.223762
vn -0.808435 0.587695 0.031861
usemtl Mesh_0414.rip
s 1
f 66/1/1 68/2/2 67/3/3
f 67/3/3 68/2/2 69/4/4
f 68/2/2 70/5/5 69/4/4
f 69/4/4 70/5/5 71/6/6
f 70/5/5 80/7/7 71/6/6
f 71/6/6 80/7/7 72/8/8
f 80/7/7 73/9/9 72/8/8
f 72/8/8 73/9/9 74/10/10
f 73/9/9 75/11/11 74/10/10
f 74/10/10 75/11/11 76/12/12
f 75/11/11 77/13/13 76/12/12
f 77/13/13 75/11/11 78/14/14
f 75/11/11 73/9/9 78/14/14
f 78/14/14 73/9/9 79/15/15
f 73/9/9 80/7/7 79/15/15
f 79/15/15 80/7/7 81/16/16
f 80/7/7 70/5/5 81/16/16
f 81/16/16 70/5/5 82/17/17
f 70/5/5 68/2/2 82/17/17
f 82/17/17 68/2/2 83/18/18
f 68/2/2 66/1/1 83/18/18
f 83/18/18 66/1/1 84/19/19
usemtl Mesh_0415.rip
f 5/20/20 1/21/21 2/22/22
f 1/21/21 3/23/23 2/22/22
f 3/23/23 4/24/24 2/22/22
f 2/22/22 4/24/24 5/20/20
f 6/20/25 8/21/26 7/22/27
f 8/21/26 9/23/28 7/22/27
f 9/23/28 10/24/29 7/22/27
f 7/22/27 10/24/29 6/20/25
f 15/20/30 12/21/31 11/22/32
f 12/21/31 13/23/33 11/22/32
f 13/23/33 14/24/34 11/22/32
f 11/22/32 14/24/34 15/20/30
f 20/20/35 16/21/36 18/22/37
f 16/21/36 17/23/38 18/22/37
f 17/23/38 19/24/39 18/22/37
f 18/22/37 19/24/39 20/20/35
f 25/20/40 22/21/41 21/22/42
f 22/21/41 23/23/43 21/22/42
f 23/23/43 24/24/44 21/22/42
f 21/22/42 24/24/44 25/20/40
f 26/24/45 30/22/46 27/23/47
f 27/23/47 30/22/46 28/21/48
f 30/22/46 29/20/49 28/21/48
f 30/22/46 26/24/45 29/20/49
f 31/21/50 35/22/51 32/20/52
f 32/20/52 35/22/51 33/24/53
f 35/22/51 34/23/54 33/24/53
f 35/22/51 31/21/50 34/23/54
f 36/21/55 39/22/56 37/20/57
f 37/20/57 39/22/56 38/24/58
f 39/22/56 40/23/59 38/24/58
f 39/22/56 36/21/55 40/23/59
f 45/20/60 41/21/61 43/22/62
f 41/21/61 42/23/63 43/22/62
f 42/23/63 44/24/64 43/22/62
f 43/22/62 44/24/64 45/20/60
f 46/20/65 48/21/66 47/22/67
f 48/21/66 49/23/68 47/22/67
f 49/23/68 50/24/69 47/22/67
f 47/22/67 50/24/69 46/20/65
f 55/21/70 52/22/71 51/20/72
f 51/20/72 52/22/71 53/24/73
f 52/22/71 54/23/74 53/24/73
f 52/22/71 55/21/70 54/23/74
f 56/23/75 57/24/76 58/22/77
f 57/24/76 59/20/78 58/22/77
f 59/20/78 60/21/79 58/22/77
f 58/22/77 60/21/79 56/23/75
f 61/20/80 62/21/81 64/22/82
f 62/21/81 63/23/83 64/22/82
f 63/23/83 65/24/84 64/22/82
f 64/22/82 65/24/84 61/20/80

