mtllib Pond.mtl
v 33.999989 0.000004 58.889717 0.415686 0.423529 0.576471
v -33.999989 0.000004 58.889725 0.415686 0.423529 0.576471
v 0 0.000004 -0.000007 0.882353 0.882353 0.909804
v -68.000008 0.000004 0.000004 0.415686 0.423529 0.501961
v -34.000019 0.000004 -58.889736 0.47451 0.47451 0.576471
v -34.000019 0.000004 -58.889736 0.47451 0.47451 0.576471
v -34.000019 0.000004 -58.889736 0.47451 0.47451 0.576471
v -34.000019 0.000004 -58.889736 0.47451 0.47451 0.576471
v 33.999996 0.000004 -58.889744 0.54902 0.556863 0.576471
v 0 0.000004 -0.000007 0.882353 0.882353 0.909804
v 68.000008 0.000004 -0.000018 0.509804 0.517647 0.576471
v 33.999989 0.000004 58.889717 0.415686 0.423529 0.576471
vt 2.133333 2.003922
vt 0.878431 2.003922
vt 1.505883 1
vt 0.25098 1
vt 0.878431 0
vt 2.133333 0
vt 2.760784 1
vn 0.000000 -1.000000 0.000000
vn 0.000000 -1.000000 0.000153
vn 0.000000 -0.316202 0.948668
vn 0.000000 0.000000 1.000000
vn 0.000000 0.316202 0.948668
vn 0.000000 1.000000 0.000000
vn 0.000000 0.999969 0.000000
usemtl Mesh_0520.rip
f 1/1/1 2/2/1 3/3/1
f 2/2/1 4/4/2 3/3/1
f 3/3/1 4/4/2 5/5/3
f 4/4/2 6/5/4 5/5/3
f 5/5/3 6/5/4 7/5/4
f 6/5/4 8/5/5 7/5/4
f 7/5/4 8/5/5 9/6/6
f 8/5/5 10/3/7 9/6/6
f 9/6/6 10/3/7 11/7/6
f 10/3/7 12/1/6 11/7/6
