mtllib Pot.mtl
v -5.321348 19.242554 -3.034814 0.341176 0.286275 0.266667
v -3.1119 19.242554 -5.324237 0.341176 0.286275 0.266667
v 0 19.242554 0 0.686275 0.619608 0.360784
v 0 19.242554 -6.06963 0.341176 0.286275 0.266667
v 3.1119 19.242554 -5.324237 0.341176 0.286275 0.266667
v 3.1119 19.242554 -5.324237 0.341176 0.286275 0.266667
v 3.1119 19.242554 -5.324237 0.341176 0.286275 0.266667
v 3.1119 19.242554 -5.324237 0.341176 0.286275 0.266667
v 3.1119 19.242554 -5.324237 0.341176 0.286275 0.266667
v 5.321348 19.242554 -3.034815 0.341176 0.286275 0.266667
v 0 19.242554 0 0.686275 0.619608 0.360784
v 6.223801 19.242554 0 0.341176 0.286275 0.266667
v 5.321349 19.242554 3.034815 0.341176 0.286275 0.266667
v 5.321349 19.242554 3.034815 0.341176 0.286275 0.266667
v 5.321349 19.242554 3.034815 0.341176 0.286275 0.266667
v 5.321349 19.242554 3.034815 0.341176 0.286275 0.266667
v 5.321349 19.242554 3.034815 0.341176 0.286275 0.266667
v 3.111902 19.242554 5.324237 0.341176 0.286275 0.266667
v 0 19.242554 0 0.686275 0.619608 0.360784
v 0.000001 19.242554 6.069631 0.341176 0.286275 0.266667
v -3.1119 19.242554 5.324238 0.341176 0.286275 0.266667
v -3.1119 19.242554 5.324238 0.341176 0.286275 0.266667
v -3.1119 19.242554 5.324238 0.341176 0.286275 0.266667
v -3.1119 19.242554 5.324238 0.341176 0.286275 0.266667
v -3.1119 19.242554 5.324238 0.341176 0.286275 0.266667
v -5.321348 19.242554 3.034816 0.341176 0.286275 0.266667
v 0 19.242554 0 0.686275 0.619608 0.360784
v -6.223801 19.242554 0.000001 0.341176 0.286275 0.266667
v -5.321348 19.242554 -3.034814 0.341176 0.286275 0.266667
v 2.829002 19.967104 4.840216 0.227451 0.333333 0.333333
v 4.550001 15.300359 7.880833 1 1 1
v 0 19.967104 5.517845 0.227451 0.333333 0.333333
v 0.000001 15.300359 8.984147 0.733333 0.784314 0.788235
v -2.829002 19.967104 4.840217 0.227451 0.333333 0.333333
v -4.549999 15.300359 7.880835 0.466667 0.572549 0.580392
v -4.549999 15.300359 7.880835 0.466667 0.572549 0.580392
v 5.658001 19.967104 0 1 1 1
v 5.658001 19.967104 0 1 1 1
v 8.413197 18.214901 0 1 1 1
v 4.837589 19.967104 -2.758922 1 1 1
v 7.193281 18.214901 -4.102399 1 1 1
v 2.829 19.967104 -4.840216 1 1 1
v 4.206598 18.214901 -7.197192 1 1 1
v 4.206598 18.214901 -7.197192 1 1 1
v -2.829002 19.967104 4.840217 1 1 1
v -2.829002 19.967104 4.840217 1 1 1
v -4.206596 18.214901 7.197193 1 1 1
v 0 19.967104 5.517845 1 1 1
v 0.000002 18.214901 8.204798 1 1 1
v 2.829002 19.967104 4.840216 1 1 1
v 4.2066 18.214901 7.197191 1 1 1
v 4.2066 18.214901 7.197191 1 1 1
v 2.9625 0 -5.131201 0.552941 0.694118 0.694118
v 2.9625 0 -5.131201 0.552941 0.694118 0.694118
v 3.831499 2.135333 -6.636352 0.227451 0.333333 0.333333
v -0.000001 0 -5.849566 0.552941 0.694118 0.694118
v -0.000001 2.135333 -7.565438 0.227451 0.333333 0.333333
v -2.962502 0 -5.1312 0.552941 0.694118 0.694118
v -3.831501 2.135333 -6.636351 0.227451 0.333333 0.333333
v -3.831501 2.135333 -6.636351 0.227451 0.333333 0.333333
v -2.962502 0 -5.1312 0.552941 0.694118 0.694118
v -2.962502 0 -5.1312 0.552941 0.694118 0.694118
v -3.831501 2.135333 -6.636351 0.227451 0.333333 0.333333
v -5.065875 0 -2.924783 0.552941 0.694118 0.694118
v -6.551862 2.135333 -3.782718 0.227451 0.333333 0.333333
v -5.924999 0 0.000001 0.552941 0.694118 0.694118
v -7.662998 2.135333 0.000001 0.227451 0.333333 0.333333
v -7.662998 2.135333 0.000001 0.227451 0.333333 0.333333
v -5.924999 0 0.000001 0.552941 0.694118 0.694118
v -5.924999 0 0.000001 0.552941 0.694118 0.694118
v -7.662998 2.135333 0.000001 0.227451 0.333333 0.333333
v -5.065875 0 2.924785 0.552941 0.694118 0.694118
v -6.55186 2.135333 3.782721 0.227451 0.333333 0.333333
v -2.962502 0 5.131202 0.552941 0.694118 0.694118
v -3.831497 2.135333 6.636353 0.227451 0.333333 0.333333
v -3.831497 2.135333 6.636353 0.227451 0.333333 0.333333
v -4.549999 15.300359 -7.880833 0.466667 0.572549 0.580392
v -4.549999 15.300359 -7.880833 0.466667 0.572549 0.580392
v -3.831501 2.135333 -6.636351 0.466667 0.572549 0.580392
v 0 15.300359 -8.984146 0.345098 0.45098 0.454902
v -0.000001 2.135333 -7.565438 0.345098 0.45098 0.454902
v 4.549999 15.300359 -7.880834 0.227451 0.333333 0.333333
v 3.831499 2.135333 -6.636352 0.227451 0.333333 0.333333
v 3.831499 2.135333 -6.636352 0.227451 0.333333 0.333333
v -4.549999 15.300359 7.880835 0.227451 0.333333 0.333333
v -4.549999 15.300359 7.880835 0.227451 0.333333 0.333333
v -3.831497 2.135333 6.636353 0.227451 0.333333 0.333333
v -7.780496 15.300359 4.492074 0.345098 0.45098 0.454902
v -6.55186 2.135333 3.782721 0.345098 0.45098 0.454902
v -9.099998 15.300359 0.000001 0.466667 0.572549 0.580392
v -7.662998 2.135333 0.000001 0.466667 0.572549 0.580392
v -7.662998 2.135333 0.000001 0.466667 0.572549 0.580392
v 9.1 15.300359 0 1 1 1
v 9.1 15.300359 0 1 1 1
v 5.658001 19.967104 0 0.227451 0.333333 0.333333
v 7.780498 15.300359 -4.492074 0.733333 0.784314 0.788235
v 4.837589 19.967104 -2.758922 0.227451 0.333333 0.333333
v 4.549999 15.300359 -7.880834 0.466667 0.572549 0.580392
v 2.829 19.967104 -4.840216 0.227451 0.333333 0.333333
v 2.829 19.967104 -4.840216 0.227451 0.333333 0.333333
v 8.413197 18.214901 0 1 1 1
v 8.413197 18.214901 0 1 1 1
v 5.658001 19.967104 0 1 1 1
v 7.193282 18.214901 4.102398 1 1 1
v 4.83759 19.967104 2.758922 1 1 1
v 4.2066 18.214901 7.197191 1 1 1
v 2.829002 19.967104 4.840216 1 1 1
v 2.829002 19.967104 4.840216 1 1 1
v -9.099998 15.300359 0.000001 0.466667 0.572549 0.580392
v -9.099998 15.300359 0.000001 0.466667 0.572549 0.580392
v -5.658001 19.967104 0.000001 0.227451 0.333333 0.333333
v -7.780496 15.300359 4.492074 0.466667 0.572549 0.580392
v -4.83759 19.967104 2.758923 0.227451 0.333333 0.333333
v -4.549999 15.300359 7.880835 0.466667 0.572549 0.580392
v -2.829002 19.967104 4.840217 0.227451 0.333333 0.333333
v -2.829002 19.967104 4.840217 0.227451 0.333333 0.333333
v -4.206596 18.214901 7.197193 1 1 1
v -4.206596 18.214901 7.197193 1 1 1
v -2.829002 19.967104 4.840217 1 1 1
v -7.19328 18.214901 4.102401 1 1 1
v -4.83759 19.967104 2.758923 1 1 1
v -8.413197 18.214901 0.000001 1 1 1
v -5.658001 19.967104 0.000001 1 1 1
v -5.658001 19.967104 0.000001 1 1 1
v -8.413197 18.214901 0.000001 1 1 1
v -8.413197 18.214901 0.000001 1 1 1
v -5.658001 19.967104 0.000001 1 1 1
v -7.193282 18.214901 -4.102398 1 1 1
v -4.83759 19.967104 -2.758921 1 1 1
v -4.2066 18.214901 -7.197191 1 1 1
v -2.829002 19.967104 -4.840216 1 1 1
v -2.829002 19.967104 -4.840216 1 1 1
v 4.549999 15.300359 -7.880834 0.466667 0.572549 0.580392
v 4.549999 15.300359 -7.880834 0.466667 0.572549 0.580392
v 2.829 19.967104 -4.840216 0.227451 0.333333 0.333333
v 0 15.300359 -8.984146 0.466667 0.572549 0.580392
v -0.000001 19.967104 -5.517844 0.227451 0.333333 0.333333
v -4.549999 15.300359 -7.880833 0.466667 0.572549 0.580392
v -2.829002 19.967104 -4.840216 0.227451 0.333333 0.333333
v -2.829002 19.967104 -4.840216 0.227451 0.333333 0.333333
v -4.2066 18.214901 -7.197191 1 1 1
v -4.2066 18.214901 -7.197191 1 1 1
v -2.829002 19.967104 -4.840216 1 1 1
v -0.000001 18.214901 -8.204798 1 1 1
v -0.000001 19.967104 -5.517844 1 1 1
v 4.206598 18.214901 -7.197192 1 1 1
v 2.829 19.967104 -4.840216 1 1 1
v 2.829 19.967104 -4.840216 1 1 1
v 9.1 15.300359 0 1 1 1
v 9.1 15.300359 0 1 1 1
v 6.551861 2.135333 -3.782719 0.345098 0.45098 0.454902
v 7.662998 2.135333 0 0.466667 0.572549 0.580392
v 5.065874 0 -2.924783 0.552941 0.694118 0.694118
v 5.924999 0 0 0.552941 0.694118 0.694118
v 5.924999 0 0 0.552941 0.694118 0.694118
v -4.549999 15.300359 7.880835 0.227451 0.333333 0.333333
v -4.549999 15.300359 7.880835 0.227451 0.333333 0.333333
v -4.549999 15.300359 7.880835 0.227451 0.333333 0.333333
v 0.000002 2.135333 7.565439 0.345098 0.45098 0.454902
v -3.831497 2.135333 6.636353 0.227451 0.333333 0.333333
v 0 0 5.849567 0.552941 0.694118 0.694118
v -2.962502 0 5.131202 0.552941 0.694118 0.694118
v -2.962502 0 5.131202 0.552941 0.694118 0.694118
v 2.962502 0 5.1312 0.552941 0.694118 0.694118
v 2.962502 0 5.1312 0.552941 0.694118 0.694118
v 2.962502 0 5.1312 0.552941 0.694118 0.694118
v 0.000002 2.135333 7.565439 0.345098 0.45098 0.454902
v 3.831501 2.135333 6.636351 0.466667 0.572549 0.580392
v 0.000001 15.300359 8.984147 0.611765 0.666667 0.666667
v 4.550001 15.300359 7.880833 1 1 1
v 4.550001 15.300359 7.880833 1 1 1
v 2.9625 0 -5.131201 0.552941 0.694118 0.694118
v 2.9625 0 -5.131201 0.552941 0.694118 0.694118
v 2.9625 0 -5.131201 0.552941 0.694118 0.694118
v 6.551861 2.135333 -3.782719 0.345098 0.45098 0.454902
v 3.831499 2.135333 -6.636352 0.227451 0.333333 0.333333
v 7.780498 15.300359 -4.492074 0.611765 0.666667 0.666667
v 4.549999 15.300359 -7.880834 0.227451 0.333333 0.333333
v 4.549999 15.300359 -7.880834 0.227451 0.333333 0.333333
v 5.924999 0 0 0.552941 0.694118 0.694118
v 5.924999 0 0 0.552941 0.694118 0.694118
v 5.924999 0 0 0.552941 0.694118 0.694118
v 6.551862 2.135333 3.782719 0.466667 0.572549 0.580392
v 7.662998 2.135333 0 0.466667 0.572549 0.580392
v 7.780499 15.300359 4.492073 1 1 1
v 9.1 15.300359 0 1 1 1
v 4.83759 19.967104 2.758922 0.227451 0.333333 0.333333
v 5.658001 19.967104 0 0.227451 0.333333 0.333333
v 5.658001 19.967104 0 0.227451 0.333333 0.333333
v -7.662998 2.135333 0.000001 0.466667 0.572549 0.580392
v -7.662998 2.135333 0.000001 0.466667 0.572549 0.580392
v -7.662998 2.135333 0.000001 0.466667 0.572549 0.580392
v -7.780496 15.300359 -4.492072 0.466667 0.572549 0.580392
v -9.099998 15.300359 0.000001 0.466667 0.572549 0.580392
v -4.83759 19.967104 -2.758921 0.227451 0.333333 0.333333
v -5.658001 19.967104 0.000001 0.227451 0.333333 0.333333
v -5.658001 19.967104 0.000001 0.227451 0.333333 0.333333
v 2.829002 19.967104 4.840216 0.227451 0.333333 0.333333
v 2.829002 19.967104 4.840216 0.227451 0.333333 0.333333
v 2.829002 19.967104 4.840216 0.227451 0.333333 0.333333
v 7.780499 15.300359 4.492073 1 1 1
v 4.550001 15.300359 7.880833 1 1 1
v 6.551862 2.135333 3.782719 0.466667 0.572549 0.580392
v 3.831501 2.135333 6.636351 0.466667 0.572549 0.580392
v 5.065875 0 2.924783 0.552941 0.694118 0.694118
v 2.962502 0 5.1312 0.552941 0.694118 0.694118
v 2.962502 0 5.1312 0.552941 0.694118 0.694118
v -2.829002 19.967104 -4.840216 0.227451 0.333333 0.333333
v -2.829002 19.967104 -4.840216 0.227451 0.333333 0.333333
v -2.829002 19.967104 -4.840216 0.227451 0.333333 0.333333
v -7.780496 15.300359 -4.492072 0.466667 0.572549 0.580392
v -4.549999 15.300359 -7.880833 0.466667 0.572549 0.580392
v -6.551862 2.135333 -3.782718 0.466667 0.572549 0.580392
v -3.831501 2.135333 -6.636351 0.466667 0.572549 0.580392
v 6.551861 2.135333 -3.782719 0.345098 0.45098 0.454902
v 9.1 15.300359 0 1 1 1
v 7.780498 15.300359 -4.492074 0.611765 0.666667 0.666667
v 0.000002 2.135333 7.565439 0.345098 0.45098 0.454902
v -4.549999 15.300359 7.880835 0.227451 0.333333 0.333333
v 0.000001 15.300359 8.984147 0.611765 0.666667 0.666667
v 0.000002 2.135333 7.565439 0.345098 0.45098 0.454902
v 2.962502 0 5.1312 0.552941 0.694118 0.694118
v 0 0 5.849567 0.552941 0.694118 0.694118
v 6.551861 2.135333 -3.782719 0.345098 0.45098 0.454902
v 2.9625 0 -5.131201 0.552941 0.694118 0.694118
v 5.065874 0 -2.924783 0.552941 0.694118 0.694118
v 6.551862 2.135333 3.782719 0.466667 0.572549 0.580392
v 5.924999 0 0 0.552941 0.694118 0.694118
v 5.065875 0 2.924783 0.552941 0.694118 0.694118
v -7.780496 15.300359 -4.492072 0.466667 0.572549 0.580392
v -7.662998 2.135333 0.000001 0.466667 0.572549 0.580392
v -6.551862 2.135333 -3.782718 0.466667 0.572549 0.580392
v 7.780499 15.300359 4.492073 1 1 1
v 2.829002 19.967104 4.840216 0.227451 0.333333 0.333333
v 4.83759 19.967104 2.758922 0.227451 0.333333 0.333333
v -7.780496 15.300359 -4.492072 0.466667 0.572549 0.580392
v -2.829002 19.967104 -4.840216 0.227451 0.333333 0.333333
v -4.83759 19.967104 -2.758921 0.227451 0.333333 0.333333
vt 0.415686 0.666667
vt 0.658824 0.407843
vt 1.003922 1
vt 1.003922 0.32549
vt 1.34902 0.407843
vt 1.592157 0.666667
vt 1.690196 1
vt 1.592157 1.337255
vt 1.34902 1.596078
vt 1.003922 1.678431
vt 0.658824 1.596078
vt 0.415686 1.337255
vt 0.317647 1
vt 1 1
vt 1 0.635294
vt 0.788235 1
vt 0.788235 0.635294
vt 0.576471 1
vt 0.576471 0.635294
vt 0.576471 0.101961
vt 0.576471 0.003922
vt 0.788235 0.101961
vt 0.788235 0.003922
vt 1 0.101961
vt 1 0.003922
vn 0.000000 -1.000000 0.000000
vn 0.000000 -0.999969 0.000000
vn 0.000000 -0.376537 0.926389
vn 0.000000 0.000000 1.000000
vn 0.000000 -0.381481 0.924345
vn 0.000000 -0.392712 0.919645
vn 0.000000 -0.387707 0.921751
vn -0.189062 -0.584033 -0.789361
vn -0.190466 -0.584887 -0.788385
vn -0.000549 -0.595843 -0.803095
vn -0.000275 -0.595935 -0.803003
vn 0.189825 -0.585040 -0.788446
vn 0.121708 -0.371960 0.920225
vn 0.285104 0.448317 0.847163
vn 0.529923 0.833247 -0.157567
vn 0.468276 0.839900 -0.274300
vn 0.468978 0.839900 -0.273049
vn 0.399152 0.831996 -0.385205
vn 0.184423 0.384411 0.904538
vn -0.053560 0.343028 0.937773
vn -0.129704 0.830378 0.541856
vn 0.000000 0.837611 0.546220
vn 0.129704 0.830531 0.541612
vn 0.042756 0.273904 0.960784
vn -0.070315 0.233039 0.969909
vn -0.185705 0.615467 0.765923
vn 0.000000 0.626362 0.779504
vn 0.185705 0.615467 0.765923
vn 0.060091 0.199133 0.978118
vn 0.229530 0.247627 0.941252
vn 0.570452 0.615467 0.543809
vn 0.675069 0.626362 0.389752
vn 0.756127 0.615436 0.222388
vn 0.283853 0.231025 0.930601
vn 0.000000 0.000000 0.999969
vn 0.408521 0.332499 0.850002
vn 0.756249 0.615528 -0.221778
vn 0.675069 0.626362 -0.389752
vn 0.570452 0.615467 -0.543809
vn 0.299020 0.322611 0.898038
vn 0.077670 0.034516 0.996368
vn 0.234352 0.104129 0.966521
vn 0.000000 0.107120 0.994232
vn -0.234352 0.104129 0.966521
vn -0.079714 0.035432 0.996185
vn 0.468490 0.067782 0.880856
vn 0.719840 0.104129 -0.686239
vn 0.861019 0.107120 -0.497116
vn 0.954222 0.104129 -0.280282
vn 0.492843 0.053774 0.868435
vn -0.295022 -0.217597 0.930357
vn -0.782128 -0.578417 0.231635
vn -0.698660 -0.590167 0.404401
vn -0.697134 -0.591510 0.405072
vn -0.587939 -0.581195 0.562578
vn -0.233100 -0.232551 0.944212
vn 0.195563 0.307505 0.931211
vn 0.529923 0.833247 0.157567
vn 0.468978 0.839900 0.273049
vn 0.468276 0.839900 0.274300
vn 0.399152 0.831996 0.385205
vn 0.171941 0.358440 0.917570
vn 0.350749 -0.258705 0.899991
vn 0.782220 -0.578509 -0.231117
vn 0.698660 -0.590167 -0.404401
vn 0.697134 -0.591510 -0.405072
vn 0.587939 -0.581195 -0.562578
vn 0.392499 -0.391552 0.832209
vn -0.138585 0.288888 0.947264
vn -0.399121 0.831935 0.385449
vn -0.468978 0.839900 0.273049
vn -0.468276 0.839900 0.274300
vn -0.529923 0.833247 0.157567
vn -0.248512 0.390790 0.886258
vn -0.219062 0.344462 0.912870
vn -0.529923 0.833247 -0.157567
vn -0.468978 0.839900 -0.273049
vn -0.468276 0.839900 -0.274300
vn -0.399152 0.831996 -0.385205
vn -0.242927 0.506394 0.827357
vn -0.061983 -0.189428 0.979919
vn -0.189825 -0.585040 0.788446
vn 0.000275 -0.595935 0.803003
vn 0.000549 -0.595843 0.803095
vn 0.190466 -0.584887 0.788385
vn 0.070803 -0.218787 0.973174
vn -0.064394 0.412366 0.908719
vn -0.129704 0.830531 -0.541612
vn 0.000000 0.837611 -0.546220
vn 0.129704 0.830531 -0.541612
vn 0.089145 0.570879 0.816157
vn -0.084597 0.009217 0.996368
vn -0.883023 0.391064 0.259377
vn -0.896725 0.355632 0.263405
vn -0.756188 0.615467 0.222114
vn -0.337443 0.274636 0.900357
vn 0.023438 0.010407 0.999664
vn 0.216895 0.391125 -0.894406
vn 0.220222 0.355632 -0.908292
vn 0.185705 0.615467 -0.765923
vn 0.152989 0.507035 0.848201
vn -0.083407 0.276467 0.957366
vn -0.227332 0.263039 -0.937590
vn -0.220222 0.355632 -0.908292
vn -0.234413 0.104160 -0.966521
vn -0.212409 0.094394 0.972594
vn -0.161046 0.173742 0.971526
vn -0.698233 0.263009 0.665792
vn -0.676473 0.355632 0.644887
vn -0.719840 0.104129 0.686239
vn -0.255135 0.036897 0.966186
vn -0.265572 0.216163 0.939512
vn -0.925718 0.263039 -0.271676
vn -0.896725 0.355632 -0.263405
vn -0.931669 -0.238929 -0.273659
vn -0.932157 -0.236274 -0.274239
vn -0.782556 -0.577899 -0.231483
vn -0.423414 -0.312296 0.850398
vn 0.100589 0.010956 0.994842
vn 0.922056 -0.276345 0.270974
vn 0.932157 -0.236274 0.274239
vn 0.782556 -0.577899 0.231483
vn 0.346660 -0.255684 0.902432
vn -0.156560 -0.154973 0.975402
vn -0.712485 -0.176916 -0.679006
vn -0.703024 -0.237739 -0.670217
vn -0.675527 0.358989 -0.644002
vn -0.676473 0.355632 -0.644887
vn -0.570544 0.615558 -0.543596
vn -0.378521 0.408399 0.830592
vn 0.121097 -0.119877 0.985351
vn 0.712302 -0.176885 0.679189
vn 0.703024 -0.237739 0.670217
vn 0.719840 0.104129 0.686239
vn -0.954222 0.104129 0.280282
vn 0.234352 0.104129 -0.966521
vn -0.185705 0.615467 -0.765923
vn -0.570452 0.615467 0.543809
vn -0.756188 0.615467 -0.222114
vn 0.954222 0.104129 0.280282
vn -0.586230 -0.579821 -0.565752
vn 0.586230 -0.579821 0.565752
usemtl Mesh_0486.rip
f 30/14/8 31/15/9 32/16/10
f 31/15/9 33/17/11 32/16/10
f 32/16/10 33/17/11 34/18/12
f 33/17/11 35/19/13 34/18/12
f 34/18/12 35/19/13 36/19/4
f 35/19/13 37/20/4 36/19/4
f 36/19/4 37/20/4 38/20/14
f 37/20/4 39/21/15 38/20/14
f 38/20/14 39/21/15 40/22/16
f 39/21/15 41/23/17 40/22/16
f 40/22/16 41/23/17 42/24/18
f 41/23/17 43/25/19 42/24/18
f 42/24/18 43/25/19 44/25/4
f 43/25/19 45/20/4 44/25/4
f 44/25/4 45/20/4 46/20/20
f 45/20/4 47/21/21 46/20/20
f 46/20/20 47/21/21 48/22/22
f 47/21/21 49/23/22 48/22/22
f 48/22/22 49/23/22 50/24/23
f 49/23/22 51/25/24 50/24/23
f 50/24/23 51/25/24 52/25/4
f 51/25/24 53/21/4 52/25/4
f 52/25/4 53/21/4 54/21/25
f 53/21/4 55/20/26 54/21/25
f 54/21/25 55/20/26 56/23/27
f 55/20/26 57/22/27 56/23/27
f 56/23/27 57/22/27 58/25/28
f 57/22/27 59/24/29 58/25/28
f 58/25/28 59/24/29 60/24/4
f 59/24/29 61/21/4 60/24/4
f 60/24/4 61/21/4 62/21/30
f 61/21/4 63/20/31 62/21/30
f 62/21/30 63/20/31 64/23/32
f 63/20/31 65/22/32 64/23/32
f 64/23/32 65/22/32 66/25/33
f 65/22/32 67/24/34 66/25/33
f 66/25/33 67/24/34 68/24/35
f 67/24/34 69/21/35 68/24/35
f 68/24/35 69/21/35 70/21/36
f 69/21/35 71/20/37 70/21/36
f 70/21/36 71/20/37 72/23/38
f 71/20/37 73/22/38 72/23/38
f 72/23/38 73/22/38 74/25/39
f 73/22/38 75/24/40 74/25/39
f 74/25/39 75/24/40 76/24/4
f 75/24/40 77/15/4 76/24/4
f 76/24/4 77/15/4 78/15/41
f 77/15/4 79/24/42 78/15/41
f 78/15/41 79/24/42 80/17/43
f 79/24/42 81/22/43 80/17/43
f 80/17/43 81/22/43 82/19/44
f 81/22/43 83/20/45 82/19/44
f 82/19/44 83/20/45 84/20/4
f 83/20/45 85/15/4 84/20/4
f 84/20/4 85/15/4 86/15/46
f 85/15/4 87/24/47 86/15/46
f 86/15/46 87/24/47 88/17/48
f 87/24/47 89/22/48 88/17/48
f 88/17/48 89/22/48 90/19/49
f 89/22/48 91/20/50 90/19/49
f 90/19/49 91/20/50 92/20/4
f 91/20/50 93/19/4 92/20/4
f 92/20/4 93/19/4 94/19/51
f 93/19/4 95/18/52 94/19/51
f 94/19/51 95/18/52 96/17/53
f 95/18/52 97/16/54 96/17/53
f 96/17/53 97/16/54 98/15/55
f 97/16/54 99/14/56 98/15/55
f 98/15/55 99/14/56 100/14/4
f 99/14/56 101/25/4 100/14/4
f 100/14/4 101/25/4 102/25/57
f 101/25/4 103/24/58 102/25/57
f 102/25/57 103/24/58 104/23/59
f 103/24/58 105/22/60 104/23/59
f 104/23/59 105/22/60 106/21/61
f 105/22/60 107/20/62 106/21/61
f 106/21/61 107/20/62 108/20/4
f 107/20/62 109/19/4 108/20/4
f 108/20/4 109/19/4 110/19/63
f 109/19/4 111/18/64 110/19/63
f 110/19/63 111/18/64 112/17/65
f 111/18/64 113/16/66 112/17/65
f 112/17/65 113/16/66 114/15/67
f 113/16/66 115/14/68 114/15/67
f 114/15/67 115/14/68 116/14/35
f 115/14/68 117/25/35 116/14/35
f 116/14/35 117/25/35 118/25/69
f 117/25/35 119/24/70 118/25/69
f 118/25/69 119/24/70 120/23/71
f 119/24/70 121/22/72 120/23/71
f 120/23/71 121/22/72 122/21/73
f 121/22/72 123/20/74 122/21/73
f 122/21/73 123/20/74 124/20/4
f 123/20/74 125/25/4 124/20/4
f 124/20/4 125/25/4 126/25/75
f 125/25/4 127/24/76 126/25/75
f 126/25/75 127/24/76 128/23/77
f 127/24/76 129/22/78 128/23/77
f 128/23/77 129/22/78 130/21/79
f 129/22/78 131/20/80 130/21/79
f 130/21/79 131/20/80 132/20/35
f 131/20/80 133/19/35 132/20/35
f 132/20/35 133/19/35 134/19/81
f 133/19/35 135/18/82 134/19/81
f 134/19/81 135/18/82 136/17/83
f 135/18/82 137/16/84 136/17/83
f 136/17/83 137/16/84 138/15/85
f 137/16/84 139/14/86 138/15/85
f 138/15/85 139/14/86 140/14/4
f 139/14/86 141/25/4 140/14/4
f 140/14/4 141/25/4 142/25/87
f 141/25/4 143/24/88 142/25/87
f 142/25/87 143/24/88 144/23/89
f 143/24/88 145/22/89 144/23/89
f 144/23/89 145/22/89 146/21/90
f 145/22/89 147/20/91 146/21/90
f 146/21/90 147/20/91 148/20/4
f 147/20/91 149/19/4 148/20/4
f 148/20/4 149/19/4 150/19/92
f 149/19/4 151/22/93 150/19/92
f 150/19/92 151/22/93 152/20/94
f 151/22/93 153/23/95 152/20/94
f 152/20/94 153/23/95 154/21/96
f 153/23/95 155/21/35 154/21/96
f 154/21/96 155/21/35 156/19/35
f 155/21/35 157/19/4 156/19/35
f 156/19/35 157/19/4 158/19/97
f 157/19/4 159/22/98 158/19/97
f 158/19/97 159/22/98 160/20/99
f 159/22/98 161/23/100 160/20/99
f 160/20/99 161/23/100 162/21/101
f 161/23/100 163/21/4 162/21/101
f 162/21/101 163/21/4 164/25/4
f 163/21/4 165/25/4 164/25/4
f 164/25/4 165/25/4 166/25/102
f 165/25/4 167/22/103 166/25/102
f 166/25/102 167/22/103 168/24/104
f 167/22/103 169/17/105 168/24/104
f 168/24/104 169/17/105 170/15/106
f 169/17/105 171/15/35 170/15/106
f 170/15/106 171/15/35 172/25/35
f 171/15/35 173/25/4 172/25/35
f 172/25/35 173/25/4 174/25/107
f 173/25/4 175/22/108 174/25/107
f 174/25/107 175/22/108 176/24/109
f 175/22/108 177/17/110 176/24/109
f 176/24/109 177/17/110 178/15/111
f 177/17/110 179/15/4 178/15/111
f 178/15/111 179/15/4 180/25/4
f 179/15/4 181/25/4 180/25/4
f 180/25/4 181/25/4 182/25/112
f 181/25/4 183/22/113 182/25/112
f 182/25/112 183/22/113 184/24/114
f 183/22/113 185/17/115 184/24/114
f 184/24/114 185/17/115 186/15/116
f 185/17/115 187/16/117 186/15/116
f 186/15/116 187/16/117 188/14/118
f 187/16/117 189/14/4 188/14/118
f 188/14/118 189/14/4 190/24/4
f 189/14/4 191/24/4 190/24/4
f 190/24/4 191/24/4 192/24/119
f 191/24/4 193/17/120 192/24/119
f 192/24/119 193/17/120 194/15/121
f 193/17/120 195/16/122 194/15/121
f 194/15/121 195/16/122 196/14/123
f 195/16/122 197/14/4 196/14/123
f 196/14/123 197/14/4 198/18/4
f 197/14/4 199/18/4 198/18/4
f 198/18/4 199/18/4 200/18/124
f 199/18/4 201/17/125 200/18/124
f 200/18/124 201/17/125 202/19/126
f 201/17/125 203/22/127 202/19/126
f 202/19/126 203/22/127 204/20/128
f 203/22/127 205/23/129 204/20/128
f 204/20/128 205/23/129 206/21/130
f 205/23/129 207/21/4 206/21/130
f 206/21/130 207/21/4 208/18/4
f 207/21/4 209/18/4 208/18/4
f 208/18/4 209/18/4 210/18/131
f 209/18/4 211/17/132 210/18/131
f 210/18/131 211/17/132 212/19/133
f 211/17/132 213/22/134 212/19/133
f 212/19/133 213/22/134 214/20/134
f 215/22/135 216/19/135 217/17/135
f 218/22/136 219/19/136 220/17/136
f 221/22/137 222/25/137 223/23/137
f 224/22/138 225/25/138 226/23/138
f 227/22/139 228/25/139 229/23/139
f 230/17/140 231/24/140 232/22/140
f 233/17/141 234/18/141 235/16/141
f 236/17/142 237/18/142 238/16/142
usemtl Mesh_0488.rip
f 1/1/1 2/2/1 3/3/2
f 2/2/1 4/4/1 3/3/2
f 3/3/2 4/4/1 5/5/3
f 4/4/1 6/5/4 5/5/3
f 5/5/3 6/5/4 7/5/4
f 6/5/4 8/5/4 7/5/4
f 7/5/4 8/5/4 9/5/5
f 8/5/4 10/6/2 9/5/5
f 9/5/5 10/6/2 11/3/1
f 10/6/2 12/7/1 11/3/1
f 11/3/1 12/7/1 13/8/6
f 12/7/1 14/8/4 13/8/6
f 13/8/6 14/8/4 15/8/4
f 14/8/4 16/8/4 15/8/4
f 15/8/4 16/8/4 17/8/7
f 16/8/4 18/9/1 17/8/7
f 17/8/7 18/9/1 19/3/1
f 18/9/1 20/10/1 19/3/1
f 19/3/1 20/10/1 21/11/3
f 20/10/1 22/11/4 21/11/3
f 21/11/3 22/11/4 23/11/4
f 22/11/4 24/11/4 23/11/4
f 23/11/4 24/11/4 25/11/5
f 24/11/4 26/12/2 25/11/5
f 25/11/5 26/12/2 27/3/1
f 26/12/2 28/13/1 27/3/1
f 27/3/1 28/13/1 29/1/1
