# Blender v2.79 (sub 0) OBJ File: ''
# www.blender.org
mtllib Sasa.mtl
v -0.570784 -2.272753 0.533042 0.705882 0.705882 0.705882
v 1.025555 1.248113 0.883425 0.466667 0.466667 0.466667
v 1.189381 1.199865 -0.551924 0.705882 0.705882 0.705882
v 2.444510 9.188219 0.490798 0.705882 0.705882 0.705882
v 1.527538 18.486261 -0.760363 0.705882 0.705882 0.705882
v 0.821815 9.188219 -2.141738 0.705882 0.705882 0.705882
v -0.166522 1.248113 -1.050511 0.466667 0.466667 0.466667
v 2.393026 9.139970 -1.293850 0.133333 0.133333 0.133333
v 0.017390 -1.713016 0.350383 0.266667 0.266667 0.266667
v 0.983773 0.783446 -1.214431 0.466667 0.466667 0.466667
v -0.101122 0.604099 -2.037412 0.133333 0.133333 0.133333
v 1.251075 6.610771 -3.427525 0.705882 0.705882 0.705882
v -0.210037 6.431423 -4.231833 0.705882 0.705882 0.705882
v -0.207123 13.718965 -4.173131 0.705882 0.705882 0.705882
v -1.584325 6.610771 -3.286797 0.705882 0.705882 0.705882
v -1.099192 0.783446 -1.111048 0.466667 0.466667 0.466667
v -0.502950 -1.805519 0.001623 0.705882 0.705882 0.705882
v 1.046137 0.836405 0.980802 0.466667 0.466667 0.466667
v 3.311426 6.989058 1.327027 0.705882 0.705882 0.705882
v 4.181275 6.809711 -0.018938 0.705882 0.705882 0.705882
v 4.199720 14.474315 -0.019018 0.705882 0.705882 0.705882
v 3.299644 6.989058 -1.357214 0.705882 0.705882 0.705882
v 1.917550 0.657058 -0.009001 0.133333 0.133333 0.133333
v 1.037481 0.836405 -0.991117 0.466667 0.466667 0.466667
v -0.844561 0.697142 0.754768 0.466667 0.466667 0.466667
v 0.095386 0.517795 1.587108 0.133333 0.133333 0.133333
v -1.070665 5.994302 2.856321 0.705882 0.705882 0.705882
v 0.185191 12.488024 3.488923 0.705882 0.705882 0.705882
v 1.375848 5.994302 2.740795 0.705882 0.705882 0.705882
v -0.015091 -1.562271 -0.752473 0.705882 0.705882 0.705882
v 0.952717 0.697142 0.669899 0.466667 0.466667 0.466667
v 0.193899 5.814955 3.673332 0.705882 0.705882 0.705882
v -0.467981 0.503943 -1.141228 0.466667 0.466667 0.466667
v -2.120524 3.228289 -3.060318 0.705882 0.705882 0.705882
v -3.129952 2.815494 -3.179215 0.705882 0.705882 0.705882
v -3.529788 7.201112 -3.585344 0.705882 0.705882 0.705882
v 0.330085 -0.903742 0.335280 1.000000 1.000000 1.000000
v -1.357157 0.091146 -1.378517 0.133333 0.133333 0.133333
v -1.133781 0.503943 -0.485745 0.466667 0.466667 0.466667
v -3.026833 3.228289 -2.168053 0.705882 0.705882 0.705882
v -0.304607 -0.599246 -0.269114 1.000000 1.000000 1.000000
v 0.474952 0.610427 1.042971 0.466667 0.466667 0.466667
v 1.338677 0.108634 1.182693 0.133333 0.133333 0.133333
v 2.044373 2.165975 2.654700 0.705882 0.705882 0.705882
v 3.019828 1.664183 2.667955 0.705882 0.705882 0.705882
v 3.318961 4.959900 2.932234 0.705882 0.705882 0.705882
v 2.886441 2.165975 1.701572 0.705882 0.705882 0.705882
v 1.093559 0.610427 0.342776 0.466667 0.466667 0.466667
v -3.093407 14.002828 -0.139928 0.705882 0.705882 0.705882
v -2.890075 6.852586 1.132289 0.705882 0.705882 0.705882
v -1.140346 0.871777 0.876267 0.466667 0.466667 0.466667
v -1.984616 0.761214 -0.089773 0.133333 0.133333 0.133333
v 0.216047 -1.735144 0.009773 0.266667 0.266667 0.266667
v -1.056576 0.871777 -0.975643 0.466667 0.466667 0.466667
v -3.719214 6.742023 -0.168236 0.705882 0.705882 0.705882
v -2.776044 6.852586 -1.388592 0.705882 0.705882 0.705882
v 1.546237 9.987046 1.733544 0.705882 0.705882 0.705882
v 0.000000 9.987046 2.627468 0.133333 0.133333 0.133333
v 1.135909 1.398160 0.750225 0.466667 0.466667 0.466667
v 0.000000 -2.442135 -0.233093 0.705882 0.705882 0.705882
v 0.000000 19.941753 1.107796 0.705882 0.705882 0.705882
v -1.546237 9.987046 1.733544 0.705882 0.705882 0.705882
v 0.000000 1.398160 1.644150 0.266667 0.266667 0.266667
v -1.135909 1.398160 0.750225 0.466667 0.466667 0.466667
v -2.424265 9.541168 0.555389 0.705882 0.705882 0.705882
v -2.546727 9.505421 -1.226092 0.133333 0.133333 0.133333
v -1.064000 1.307426 0.764375 0.466667 0.466667 0.466667
v -1.366861 1.271679 -0.648562 1.000000 1.000000 1.000000
v 0.450846 -2.352335 0.241183 0.705882 0.705882 0.705882
v -0.065208 1.307426 -1.276109 1.000000 1.000000 1.000000
v -1.527566 19.154854 -0.727225 0.705882 0.705882 0.705882
v -1.064677 9.541168 -2.222184 0.705882 0.705882 0.705882
v -3.351593 6.448763 3.242114 0.705882 0.705882 0.705882
v -2.062046 2.829002 2.879438 0.705882 0.705882 0.705882
v -0.477141 0.409277 1.111516 0.466667 0.466667 0.466667
v 0.305760 -0.817127 -0.295772 1.000000 1.000000 1.000000
v -1.126744 0.409277 0.439978 0.466667 0.466667 0.466667
v -3.074075 2.416207 2.973661 0.705882 0.705882 0.705882
v -2.946307 2.829002 1.965317 0.705882 0.705882 0.705882
v -1.371843 -0.003520 1.327032 0.133333 0.133333 0.133333
v 2.070986 3.306605 -2.568967 0.705882 0.705882 0.705882
v 0.558717 0.229481 -1.079025 0.466667 0.466667 0.466667
v 1.505447 -0.065258 -1.263876 0.133333 0.133333 0.133333
v -0.258685 -0.967125 0.217175 0.705882 0.705882 0.705882
v 3.081876 7.455146 -2.587343 0.705882 0.705882 0.705882
v 3.126221 3.011866 -2.624572 0.705882 0.705882 0.705882
v 2.888747 3.306605 -1.594903 0.705882 0.705882 0.705882
v 1.159467 0.229481 -0.363450 0.466667 0.466667 0.466667
vt 0.462745 -0.141177
vt 0.325490 0.086274
vt 0.454902 0.086274
vt 0.325490 0.509804
vt 0.450980 0.509804
vt 0.450980 1.000000
vt 0.568627 0.509804
vt 0.568627 0.086274
vn -0.731407 0.511582 0.450850
vn -0.948027 0.295389 -0.118107
vn -0.797632 0.339244 0.498642
vn -0.999176 0.035493 0.019562
vn -0.848537 0.040956 0.527482
vn -0.846278 -0.108127 0.521622
vn -0.473220 0.047548 0.879635
vn -0.331675 0.282998 0.899930
vn 0.034486 0.718070 0.695090
vn -0.585253 0.452254 0.672964
vn 0.049776 0.532579 0.844874
vn -0.500076 0.156621 0.851680
vn 0.053377 0.184240 0.981414
vn 0.049562 -0.008057 0.998718
vn 0.573290 0.172308 0.800989
vn 0.643269 0.440168 0.626423
vn -0.713157 0.700980 0.003113
vn -0.636982 0.431227 -0.638936
vn -0.854213 0.519761 0.011017
vn -0.814905 0.153722 -0.558794
vn -0.982665 0.185095 0.008667
vn -0.999969 0.002380 0.004364
vn -0.812586 0.168584 0.557909
vn -0.644734 0.419874 0.638722
vn -0.031312 0.747703 -0.663289
vn 0.637837 0.453200 -0.622669
vn -0.047639 0.552507 -0.832118
vn 0.560411 0.147710 -0.814905
vn -0.051149 0.182958 -0.981780
vn -0.047121 -0.027650 -0.998505
vn -0.626209 0.164434 -0.762078
vn -0.688803 0.441664 -0.574816
vn 0.268166 0.924039 0.272378
vn -0.420179 0.453200 0.786126
vn 0.425336 0.802759 0.417890
vn -0.224921 0.249153 0.941954
vn 0.633656 0.439222 0.636799
vn 0.695700 0.128849 0.706656
vn 0.940550 0.269906 -0.206091
vn 0.801660 0.448592 -0.395032
vn -0.230232 0.951628 -0.203406
vn 0.409864 0.491531 -0.768334
vn -0.351268 0.889889 -0.290994
vn 0.186071 0.304331 -0.934202
vn -0.637440 0.534288 -0.555132
vn -0.743980 0.120212 -0.657277
vn -0.895444 0.332286 0.296121
vn -0.724204 0.489395 0.485763
vn 0.995270 -0.085940 0.045015
vn 0.834773 0.102603 -0.540910
vn 0.993408 0.107242 0.040437
vn 0.684896 0.373394 -0.625660
vn 0.885433 0.463607 0.032441
vn 0.749016 0.661641 0.033876
vn 0.612598 0.385662 0.689871
vn 0.778130 0.087436 0.621967
vn 0.000000 -0.150884 -0.988525
vn -0.500504 0.000397 -0.865719
vn -0.003540 -0.012146 -0.999908
vn -0.594806 0.226814 -0.771172
vn -0.005493 0.271920 -0.962279
vn 0.000000 0.439161 -0.898404
vn 0.600482 0.239021 -0.763054
vn 0.507126 -0.010681 -0.861782
vn 0.892026 -0.116764 0.436628
vn 0.996948 0.035218 -0.069216
vn 0.899441 0.027375 0.436171
vn 0.943449 0.265145 -0.198859
vn 0.853938 0.318369 0.411573
vn 0.784173 0.487564 0.383831
vn 0.411023 0.277352 0.868374
vn 0.550584 0.023591 0.834437
vn 0.715476 0.095309 -0.692099
vn -0.198248 0.271035 -0.941923
vn 0.642750 0.437391 -0.628895
vn -0.394482 0.474075 -0.787133
vn 0.399792 0.823542 -0.402387
vn 0.236579 0.944273 -0.228828
vn 0.763573 0.478439 0.433607
vn 0.939970 0.248268 0.233985
vn -0.765801 -0.013001 0.642903
vn 0.105411 0.193426 0.975402
vn -0.726096 0.305856 0.615772
vn 0.296548 0.468490 0.832179
vn -0.503159 0.746269 0.435743
vn -0.279214 0.931150 0.234413
vn -0.758385 0.474563 -0.446730
vn -0.944517 0.172948 -0.279153
usemtl Mesh_0310.rip
s 1
f 1/1/1 2/2/2 3/3/3
f 2/2/2 4/4/4 3/3/3
f 3/3/3 4/4/4 8/5/5
f 4/4/4 5/6/6 8/5/5
f 8/5/5 5/6/6 6/7/7
f 1/1/1 3/3/3 7/8/8
f 3/3/3 8/5/5 7/8/8
f 7/8/8 8/5/5 6/7/7
f 9/1/9 10/2/10 11/3/11
f 10/2/10 12/4/12 11/3/11
f 11/3/11 12/4/12 13/5/13
f 12/4/12 14/6/14 13/5/13
f 13/5/13 14/6/14 15/7/15
f 9/1/9 11/3/11 16/8/16
f 11/3/11 13/5/13 16/8/16
f 16/8/16 13/5/13 15/7/15
f 17/1/17 18/2/18 23/3/19
f 18/2/18 19/4/20 23/3/19
f 23/3/19 19/4/20 20/5/21
f 19/4/20 21/6/22 20/5/21
f 20/5/21 21/6/22 22/7/23
f 17/1/17 23/3/19 24/8/24
f 23/3/19 20/5/21 24/8/24
f 24/8/24 20/5/21 22/7/23
f 30/1/25 25/2/26 26/3/27
f 25/2/26 27/4/28 26/3/27
f 26/3/27 27/4/28 32/5/29
f 27/4/28 28/6/30 32/5/29
f 32/5/29 28/6/30 29/7/31
f 30/1/25 26/3/27 31/8/32
f 26/3/27 32/5/29 31/8/32
f 31/8/32 32/5/29 29/7/31
f 37/1/33 33/2/34 38/3/35
f 33/2/34 34/4/36 38/3/35
f 38/3/35 34/4/36 35/5/37
f 34/4/36 36/6/38 35/5/37
f 35/5/37 36/6/38 40/7/39
f 37/1/33 38/3/35 39/8/40
f 38/3/35 35/5/37 39/8/40
f 39/8/40 35/5/37 40/7/39
f 41/1/41 42/2/42 43/3/43
f 42/2/42 44/4/44 43/3/43
f 43/3/43 44/4/44 45/5/45
f 44/4/44 46/6/46 45/5/45
f 45/5/45 46/6/46 47/7/47
f 41/1/41 43/3/43 48/8/48
f 43/3/43 45/5/45 48/8/48
f 48/8/48 45/5/45 47/7/47
f 49/6/49 50/7/50 55/5/51
f 50/7/50 51/8/52 55/5/51
f 55/5/51 51/8/52 52/3/53
f 51/8/52 53/1/54 52/3/53
f 52/3/53 53/1/54 54/2/55
f 49/6/49 55/5/51 56/4/56
f 55/5/51 52/3/53 56/4/56
f 56/4/56 52/3/53 54/2/55
f 61/6/57 57/7/58 58/5/59
f 57/7/58 59/8/60 58/5/59
f 58/5/59 59/8/60 63/3/61
f 59/8/60 60/1/62 63/3/61
f 63/3/61 60/1/62 64/2/63
f 61/6/57 58/5/59 62/4/64
f 58/5/59 63/3/61 62/4/64
f 62/4/64 63/3/61 64/2/63
f 71/6/65 65/7/66 66/5/67
f 65/7/66 67/8/68 66/5/67
f 66/5/67 67/8/68 68/3/69
f 67/8/68 69/1/70 68/3/69
f 68/3/69 69/1/70 70/2/71
f 71/6/65 66/5/67 72/4/72
f 66/5/67 68/3/69 72/4/72
f 72/4/72 68/3/69 70/2/71
f 73/6/73 74/7/74 78/5/75
f 74/7/74 75/8/76 78/5/75
f 78/5/75 75/8/76 80/3/77
f 75/8/76 76/1/78 80/3/77
f 80/3/77 76/1/78 77/2/79
f 73/6/73 78/5/75 79/4/80
f 78/5/75 80/3/77 79/4/80
f 79/4/80 80/3/77 77/2/79
f 85/6/81 81/7/82 86/5/83
f 81/7/82 82/8/84 86/5/83
f 86/5/83 82/8/84 83/3/85
f 82/8/84 84/1/86 83/3/85
f 83/3/85 84/1/86 88/2/87
f 85/6/81 86/5/83 87/4/88
f 86/5/83 83/3/85 87/4/88
f 87/4/88 83/3/85 88/2/87

