# Blender v2.79 (sub 0) OBJ File: ''
# www.blender.org
mtllib Stake.mtl
v 2.500000 15.000000 0.000000 0.400000 0.419608 0.192157
v 2.500000 0.000000 0.000000 0.400000 0.419608 0.192157
v 1.250001 15.000000 2.165063 1.000000 1.000000 1.000000
v 1.250001 0.000000 2.165063 0.894118 0.913725 0.674510
v -1.250000 15.000000 2.165064 1.000000 1.000000 1.000000
v -1.250000 0.000000 2.165064 0.894118 0.913725 0.674510
v -2.500000 15.000000 0.000000 0.400000 0.419608 0.192157
v -2.500000 0.000000 0.000000 0.400000 0.419608 0.192157
v -2.500000 0.000000 0.000000 0.400000 0.419608 0.192157
v -2.500000 15.000000 0.000000 0.400000 0.419608 0.192157
v -2.500000 15.000000 0.000000 0.400000 0.419608 0.192157
v -2.500000 0.000000 0.000000 0.400000 0.419608 0.192157
v -1.250000 15.000000 -2.165063 0.552941 0.600000 0.313726
v -1.250000 0.000000 -2.165063 0.713726 0.733333 0.474510
v 1.250000 15.000000 -2.165064 0.552941 0.600000 0.313726
v 1.250000 0.000000 -2.165064 0.713726 0.733333 0.474510
v 2.500000 15.000000 0.000000 0.400000 0.419608 0.192157
v 2.500000 0.000000 0.000000 0.400000 0.419608 0.192157
v 0.000000 17.000000 0.000000 1.000000 1.000000 1.000000
v 2.500000 15.000000 0.000000 0.400000 0.419608 0.192157
v 1.250001 15.000000 2.165063 1.000000 1.000000 1.000000
v 0.000000 17.000000 0.000000 1.000000 1.000000 1.000000
v 1.250000 15.000000 -2.165064 0.552941 0.600000 0.313726
v 2.500000 15.000000 0.000000 0.400000 0.419608 0.192157
v 0.000000 17.000000 0.000000 1.000000 1.000000 1.000000
v -1.250000 15.000000 -2.165063 0.552941 0.600000 0.313726
v 1.250000 15.000000 -2.165064 0.552941 0.600000 0.313726
v 0.000000 17.000000 0.000000 1.000000 1.000000 1.000000
v 1.250001 15.000000 2.165063 1.000000 1.000000 1.000000
v -1.250000 15.000000 2.165064 1.000000 1.000000 1.000000
v 0.000000 17.000000 0.000000 1.000000 1.000000 1.000000
v -2.500000 15.000000 0.000000 0.400000 0.419608 0.192157
v -1.250000 15.000000 -2.165063 0.552941 0.600000 0.313726
v 0.000000 17.000000 0.000000 1.000000 1.000000 1.000000
v -1.250000 15.000000 2.165064 1.000000 1.000000 1.000000
v -2.500000 15.000000 0.000000 0.400000 0.419608 0.192157
vt 0.000000 1.000000
vt 0.000000 0.000000
vt 0.333333 1.000000
vt 0.333333 0.000000
vt 0.670588 1.000000
vt 0.670588 0.000000
vt 1.003922 1.000000
vt 1.003922 0.000000
vt 0.047059 0.541176
vt 0.305882 0.545098
vt 0.180392 0.290196
vn -0.866024 0.000000 -0.499985
vn -0.499985 0.000000 -0.866024
vn 0.499985 0.000000 -0.866024
vn 0.866024 0.000000 -0.499985
vn 0.499985 0.000000 0.866024
vn 0.000000 0.000000 1.000000
vn 0.327311 0.000000 0.944884
vn 0.866024 0.000000 0.499985
vn -0.499985 0.000000 0.866024
vn -0.866024 0.000000 0.499985
vn -0.587634 -0.734550 -0.339274
vn -0.587634 -0.734550 0.339274
vn 0.000000 -0.734550 0.678549
vn 0.000000 -0.734550 -0.678549
vn 0.587634 -0.734550 0.339274
vn 0.587634 -0.734550 -0.339274
usemtl Mesh_0408.rip
s 1
f 1/1/1 2/2/1 3/3/2
f 2/2/1 4/4/2 3/3/2
f 3/3/2 4/4/2 5/5/3
f 4/4/2 6/6/3 5/5/3
f 5/5/3 6/6/3 7/7/4
f 6/6/3 8/8/5 7/7/4
f 7/7/4 8/8/5 9/8/6
f 8/8/5 10/1/6 9/8/6
f 9/8/6 10/1/6 11/1/7
f 10/1/6 12/2/8 11/1/7
f 11/1/7 12/2/8 13/3/5
f 12/2/8 14/4/5 13/3/5
f 13/3/5 14/4/5 15/5/9
f 14/4/5 16/6/9 15/5/9
f 15/5/9 16/6/9 17/7/10
f 16/6/9 18/8/10 17/7/10
usemtl Mesh_0407.rip
f 19/9/11 20/10/11 21/11/11
f 22/9/12 23/10/12 24/11/12
f 25/9/13 26/10/13 27/11/13
f 28/9/14 29/10/14 30/11/14
f 31/9/15 32/10/15 33/11/15
f 34/9/16 35/10/16 36/11/16

