mtllib Tree.mtl
v 9.505548 94.130615 -2.461378 1 1 1
v 8.80162 92.937813 -1.933532 1 1 1
v 16.167305 84.324478 8.505694 1 1 1
v -7.901747 92.797585 -22.515476 1 1 1
v -13.982718 83.248413 -33.854389 1 1 1
v 1.22657 96.030342 -11.958455 0.4 0.521569 0.521569
v -0.264215 95.050827 -11.067955 0.337255 0.47451 0.486275
v -1.371597 96.030342 -12.40554 0.337255 0.47451 0.486275
v 0.101363 93.339592 -12.408305 0.337255 0.47451 0.486275
v -0.172258 95.219467 -23.646049 1 1 1
v 1.151166 94.306419 -12.283719 0.337255 0.47451 0.486275
v -0.702122 93.430023 -13.117312 0.337255 0.47451 0.486275
v 0.101364 92.479187 -12.408305 0.4 0.521569 0.521569
v 1.128004 93.430023 -12.101243 1 1 1
v -0.334259 92.479187 -11.803755 0.337255 0.47451 0.486275
v -0.747421 93.390785 -10.778744 0.337255 0.47451 0.486275
v -0.939016 94.219238 -11.343248 0.337255 0.47451 0.486275
v -1.318805 93.339592 -12.408305 0.337255 0.47451 0.486275
v -0.843573 94.219238 -13.434337 0.337255 0.47451 0.486275
v 0.520787 95.916573 -14.258434 0.337255 0.47451 0.486275
v 1.299805 96.82795 -12.6874 0.337255 0.47451 0.486275
v 0.726975 93.018738 -10.971383 0.337255 0.47451 0.486275
v -5.145319 87.738968 -3.507783 1 1 1
v 0.520787 92.371696 -12.224274 0.4 0.521569 0.521569
v -0.573329 93.824852 -12.163158 1 1 1
v 0.496088 93.22464 -13.058011 0.337255 0.47451 0.486275
v -0.046501 93.004044 -12.003105 0.337255 0.47451 0.486275
v 7.722039 87.633965 -13.629274 1 1 1
v 0.891238 93.878639 -11.360376 0.337255 0.47451 0.486275
v -0.766917 94.949089 -13.467767 0.337255 0.47451 0.486275
v 0.692777 96.110703 -13.705905 0.337255 0.47451 0.486275
v -2.019277 114.865189 -37.456413 1 1 1
v -1.494722 97.416847 -12.222372 0.337255 0.47451 0.486275
v -29.330122 111.477913 -18.579727 1 1 1
v 0.041803 94.884346 -13.775689 0.337255 0.47451 0.486275
v -1.204529 93.965599 -12.323753 0.337255 0.47451 0.486275
v -0.274919 95.638542 -11.478772 0.337255 0.47451 0.486275
v 0.239139 95.109222 -11.737525 0.337255 0.47451 0.486275
v -0.888691 96.563141 -11.860155 0.337255 0.47451 0.486275
v 7.720878 103.30043 16.568653 1 1 1
v 1.159082 96.563141 -12.401412 1 1 1
v -1.772344 95.595589 -12.308676 0.337255 0.47451 0.486275
v -9.540892 110.094681 10.211795 1 1 1
v -0.992096 94.67688 -11.342045 0.337255 0.47451 0.486275
v 0.238588 95.595589 -11.51109 0.337255 0.47451 0.486275
v 1.021545 94.364738 -11.414331 1 1 1
v 26.791933 96.356094 -27.165895 1 1 1
v 0.630635 92.657379 -12.545765 0.337255 0.47451 0.486275
v -0.128156 94.364738 -13.471609 0.337255 0.47451 0.486275
v 7.038305 98.209908 -42.266201 1 1 1
v 1.609415 93.763496 -12.392591 1 1 1
v 0.64139 91.92485 -12.999015 0.337255 0.47451 0.486275
v -0.491366 93.763496 -12.851758 0.337255 0.47451 0.486275
v -1.30447 95.212601 -11.094922 0.337255 0.47451 0.486275
v 6.22625 87.967857 14.446856 1 1 1
v -0.2243 94.011124 -11.640344 0.337255 0.47451 0.486275
v 0.985584 95.212601 -11.66118 0.4 0.521569 0.521569
v -3.022073 80.296631 -28.12466 1 1 1
v -0.201118 91.552933 -12.516786 0.337255 0.47451 0.486275
v -1.440595 92.645851 -13.080969 1 1 1
v 0.762453 92.645851 -13.479146 1 1 1
v -14.17767 79.699753 -2.125682 1 1 1
v 0.008837 92.052788 -12.211095 0.4 0.521569 0.521569
v 0.045968 93.229759 -10.717266 1 1 1
v -1.389865 93.229759 -12.736959 1 1 1
v 10.190971 79.855568 -23.528969 1 1 1
v -0.18704 93.559357 -13.743014 1 1 1
v 1.314865 93.559357 -12.362825 1 1 1
v -0.139399 92.282372 -12.287586 0.4 0.521569 0.521569
v -1.407222 93.503471 -11.850545 0.337255 0.47451 0.486275
v -1.462 94.482544 -13.156211 0.337255 0.47451 0.486275
v -22.33176 112.64431 3.380342 1 1 1
v -0.181582 94.482544 -11.397144 0.337255 0.47451 0.486275
v -1.120076 96.538246 -11.56999 0.337255 0.47451 0.486275
v -9.982573 124.65786 -6.448221 1 1 1
v -1.423231 96.90641 -12.624523 0.337255 0.47451 0.486275
v 0.340923 98.029861 -11.868165 0.337255 0.47451 0.486275
v 0.407923 96.425873 -11.511455 0.337255 0.47451 0.486275
v -1.154763 96.817596 -12.207503 0.337255 0.47451 0.486275
v 4.051062 127.628937 -2.129942 1 1 1
v 1.091302 96.817596 -13.079721 0.337255 0.47451 0.486275
v 1.834158 96.151001 -12.61608 0.337255 0.47451 0.486275
v 0.486756 98.390839 -11.894004 0.337255 0.47451 0.486275
v 25.149702 117.422234 -15.133499 1 1 1
v 1.010624 96.07 -13.752593 0.337255 0.47451 0.486275
v 27.174931 104.079628 -0.223287 1 1 1
v -0.722168 95.908188 -11.354946 0.337255 0.47451 0.486275
v 0.289681 94.228897 -12.242024 0.337255 0.47451 0.486275
v 0.27591 95.908188 -13.587593 1 1 1
v -0.721759 93.944366 -13.420073 0.337255 0.47451 0.486275
v -27.834393 106.530937 -5.831775 1 1 1
v -1.047319 92.679466 -11.991445 0.337255 0.47451 0.486275
v -0.130431 93.944366 -10.848516 1 1 1
v 1.418111 95.138046 -11.825997 0.337255 0.47451 0.486275
v 19.870333 107.157555 -35.750408 1 1 1
v 0.807786 93.609497 -13.264365 0.337255 0.47451 0.486275
v -0.711082 95.138046 -13.631021 0.337255 0.47451 0.486275
v -12.900702 104.610733 -38.554096 1 1 1
v 0.650265 94.435707 -13.717535 0.337255 0.47451 0.486275
v -1.006057 92.750961 -13.728785 0.337255 0.47451 0.486275
v -2.035117 94.435707 -12.430878 0.337255 0.47451 0.486275
v -0.208602 93.175041 -11.481935 0.337255 0.47451 0.486275
v -11.646599 97.532532 16.125713 1 1 1
v -1.233589 94.86982 -12.174088 1 1 1
v 1.005563 94.86982 -11.246396 0.337255 0.47451 0.486275
v 0.042591 93.812653 -10.280828 1 1 1
v -1.384532 93.812653 -12.598064 0.337255 0.47451 0.486275
v -0.510259 92.404068 -11.538424 0.337255 0.47451 0.486275
v -20.862339 89.201263 0.995866 1 1 1
v -0.201848 92.829887 -11.884035 0.337255 0.47451 0.486275
v 0.052461 94.292274 -10.348198 0.337255 0.47451 0.486275
v 17.43779 83.899971 -6.302026 1 1 1
v 0.891979 94.43293 -12.776135 0.337255 0.47451 0.486275
v -0.607634 96.189911 -14.290577 0.337255 0.47451 0.486275
v -13.021929 122.339294 -16.998249 1 1 1
v -1.746344 95.82811 -12.860334 0.337255 0.47451 0.486275
v -1.271075 96.933914 -11.890555 0.337255 0.47451 0.486275
v 0.303664 93.585518 -13.585714 1 1 1
v -28.094719 98.158905 -21.899073 1 1 1
v -0.38912 92.14122 -12.471655 0.337255 0.47451 0.486275
v -0.519606 93.585518 -11.166261 0.337255 0.47451 0.486275
v -2.163995 91.785828 17.28294 1 1 1
v 0.066109 91.41375 -11.706305 0.4 0.521569 0.521569
v 1.396278 93.460602 -11.630247 1 1 1
v -1.260041 93.460602 -11.834594 1 1 1
v -17.696701 86.929428 -24.034584 1 1 1
v -0.15294 92.021301 -13.419577 0.337255 0.47451 0.486275
v -0.712004 90.512093 -12.164145 0.4 0.521569 0.521569
v -1.698823 92.021301 -11.207665 0.4 0.521569 0.521569
v -2.310769 108.82029 12.309336 1 1 1
v 0.463812 103.810745 -3.542458 1 1 1
v -1.484811 103.810745 -3.877772 1 1 1
v -0.654275 103.076103 -2.874583 1 1 1
v -1.741782 95.219467 -23.609655 1 1 1
v -0.959609 94.494347 -23.739489 1 1 1
v -2.053816 91.658867 -38.648109 1 1 1
v -0.941536 94.306419 -12.235195 1 1 1
v 4.713576 89.231056 -22.359783 1 1 1
v 10.238885 80.932304 -33.853519 1 1 1
v 5.483556 89.944176 -22.129488 1 1 1
v 4.110964 89.944176 -22.891539 1 1 1
v 7.438713 89.176872 -7.209739 1 1 1
v 14.23939 79.44091 -1.315713 1 1 1
v 6.415338 89.176872 -6.019178 1 1 1
v 6.725208 88.493172 -6.787936 1 1 1
v 0.617081 93.390785 -12.36616 1 1 1
v -26.968206 99.500999 -12.031067 1 1 1
v -11.563854 98.457458 -11.291276 1 1 1
v -11.492272 98.457458 -12.85959 1 1 1
v -11.848696 97.797722 -12.090067 1 1 1
v -0.720134 96.827957 -14.033625 0.337255 0.47451 0.486275
v 1.795785 102.706772 -18.82975 0.4 0.521569 0.521569
v 7.288258 118.739403 -38.522202 1 1 1
v 2.380049 103.390305 -17.651476 1 1 1
v 0.686032 103.390305 -18.123959 1 1 1
v 8.135394 94.130615 -1.358832 1 1 1
v -0.367514 94.861191 -11.458008 0.4 0.521569 0.521569
v 0.520788 93.27079 -12.224274 0.4 0.521569 0.521569
v 1.852138 94.225967 -12.380066 0.337255 0.47451 0.486275
v -9.37525 75.622086 1.884206 1 1 1
v -4.854118 88.828835 -2.739234 1 1 1
v -5.965906 88.828835 -3.461946 1 1 1
v -6.800762 92.797585 -23.254539 1 1 1
v 0.682875 93.263451 -12.502686 0.337255 0.47451 0.486275
v -7.347795 91.604424 -22.879854 1 1 1
v -0.046503 91.672562 -12.003106 0.4 0.521569 0.521569
v -1.140527 92.641846 -12.097532 0.337255 0.47451 0.486275
v 10.555542 76.508652 -14.532426 1 1 1
v 7.018734 86.978012 -14.11132 1 1 1
v 7.342879 87.633965 -14.899951 1 1 1
v 1.980821 75.07843 -7.84778 0.4 0.521569 0.521569
v 1.956547 96.711723 -12.83443 0.337255 0.47451 0.486275
v 0.89736 95.398605 -14.408247 0.666667 0.8 0.8
v 0.980312 73.60598 -9.484994 0.666667 0.8 0.8
v 2.304821 46.254829 -2.730538 0.4 0.521569 0.521569
v 1.142851 44.827118 -4.758115 0.666667 0.8 0.8
v -1.181074 44.827118 -4.758115 0.666667 0.8 0.8
v -1.020712 73.60598 -9.484994 0.666667 0.8 0.8
v -2.02122 75.07843 -7.84778 0.4 0.521569 0.521569
v -2.343041 46.254829 -2.730538 0.4 0.521569 0.521569
v -3.23882 16.680431 -0.43407 0.4 0.521569 0.521569
v 0.472148 97.79493 -11.223278 1 1 1
v 0.980312 76.756699 -6.549118 1 1 1
v -1.181074 47.598438 -0.974903 1 1 1
v -1.020712 76.756699 -6.549118 1 1 1
v 1.142857 47.598438 -0.974903 1 1 1
v 0.035537 97.678993 -13.69813 1 1 1
v -1.389636 97.764771 -11.674053 1 1 1
v -2.056332 96.671478 -12.873926 0.337255 0.47451 0.486275
v -0.93771 95.358406 -14.455673 0.666667 0.8 0.8
v -1.629015 17.821871 1.955714 1 1 1
v -2.478361 -0.000219 -4.141713 0.247059 0.376471 0.376471
v -4.94255 -0.000213 -0.034251 0.247059 0.376471 0.376471
v -1.629015 15.454921 -3.068016 0.666667 0.8 0.8
v 2.450021 -0.000219 -4.141713 0.247059 0.376471 0.376471
v 1.590593 15.454921 -3.068016 0.666667 0.8 0.8
v 3.200397 16.680431 -0.43407 0.4 0.521569 0.521569
v 4.914214 -0.000213 -0.034251 0.247059 0.376471 0.376471
v -2.478361 -0.000214 3.893966 0.247059 0.376471 0.376471
v 2.450021 -0.000214 3.893966 0.247059 0.376471 0.376471
v 1.590593 17.821871 1.955714 1 1 1
vt 0.317647 1
vt 0.317647 0.745098
vt 0.192157 0.733333
vt 0.317647 0.003922
vt 0.117647 0.639216
vt 0.003922 0.003922
vt 0.098039 0.337255
vt 0.156863 0.003922
vt 0.196078 0.345098
vt 0.156863 1
vt 0.003922 1
vt 3.341177 0.023529
vt 2.67451 0.027451
vt 2.67451 2.32549
vt 2 2.32549
vt 2.67451 4.662745
vt 2.003922 4.662745
vt 2.670588 6.992157
vt 2.003922 6.992157
vt 3.341177 6.988235
vt 3.341177 4.662745
vt 3.337255 2.321569
vt 4 0.027451
vt 4 6.992157
vt 4 4.662745
vt 4 2.329412
vt 0.015686 4.658824
vt 0.666667 4.662745
vt 0.015686 2.329412
vt 0.666667 2.321569
vt 0.670588 0.023529
vt 1.329412 0.023529
vt 2 0.027451
vt 1.333333 2.321569
vt 1.329412 4.662745
vt 1.333333 6.992157
vt 0.666667 6.992157
vt 0.015686 6.992157
vt 0.309804 0.003922
vt 0.003922 0.333333
vt 0.015686 0.027451
vt 0.501961 0.011765
vt 0.878431 0.792157
vt 0.137255 0.803922
vt 0.003922 0.016324
vt 1 0.984498
vt 1 0.016324
vt 0.003922 0.984498
vn 0.503952 -0.750328 -0.427778
vn 0.546892 -0.586932 -0.596973
vn -0.199225 -0.939360 -0.279061
vn -0.353465 -0.828547 -0.434217
vn -0.729148 -0.581256 0.361156
vn -0.628346 -0.651906 0.424451
vn -0.672201 -0.483352 0.560778
vn 0.170080 -0.943083 0.285714
vn 0.306528 -0.837489 0.452315
vn 0.794305 -0.480758 -0.371319
vn 0.663137 -0.518693 0.539598
vn -0.091159 -0.859706 0.502548
vn -0.162877 -0.708701 0.686422
vn -0.807642 -0.510758 0.294595
vn -0.825587 -0.422254 0.374279
vn -0.680776 -0.732383 -0.010865
vn 0.002014 -0.998383 0.056795
vn 0.028901 -0.994140 -0.104007
vn 0.679464 -0.732536 -0.040742
vn 0.679769 -0.720450 -0.137059
vn -0.718009 -0.687521 -0.108341
vn -0.209113 -0.901791 0.378155
vn -0.109684 -0.958770 0.262093
vn 0.470748 -0.687033 0.553453
vn 0.518448 -0.712455 0.472823
vn 0.170660 -0.640187 -0.748985
vn -0.443373 -0.812250 -0.378948
vn -0.340403 -0.908383 -0.242744
vn -0.713065 -0.641407 0.282998
vn -0.637349 -0.685202 0.352489
vn -0.272683 -0.691794 0.668599
vn -0.240455 -0.970580 -0.011689
vn -0.390637 -0.919218 -0.049165
vn -0.209082 -0.692434 -0.690481
vn -0.297281 -0.652455 -0.697073
vn -0.478774 -0.422803 -0.769402
vn 0.201910 -0.684988 -0.699973
vn 0.424177 -0.559160 -0.712272
vn 0.891140 -0.403150 -0.208014
vn 0.906034 -0.339854 -0.252113
vn 0.780358 -0.594684 0.193274
vn 0.408918 -0.696554 -0.589526
vn -0.060060 -0.864711 -0.498642
vn -0.546739 -0.380261 -0.745933
vn -0.625111 -0.443648 -0.642140
vn -0.648030 -0.596942 -0.472915
vn -0.813562 -0.537309 0.222236
vn -0.507736 -0.746025 0.430799
vn -0.269539 -0.365642 0.890835
vn -0.148564 -0.477187 0.866115
vn -0.487503 -0.027253 0.872677
vn -0.997925 -0.063265 -0.009064
vn -0.999146 -0.017396 -0.037019
vn -0.487075 -0.132389 -0.863247
vn -0.999146 -0.011597 -0.039369
vn -0.486679 -0.181463 -0.854488
vn -0.908719 -0.403851 0.105289
vn -0.311289 -0.728843 -0.609821
vn -0.467025 -0.048799 0.882870
vn -0.518509 0.159581 0.840022
vn -0.516648 0.083438 0.852107
vn 0.484512 -0.030000 0.874264
vn 0.435591 -0.049867 0.898740
vn 0.517685 0.160710 0.840297
vn 0.515641 0.082553 0.852779
vn 0.999023 -0.007447 -0.043428
vn 0.999084 -0.017273 -0.038514
vn 0.997803 -0.065340 -0.010468
vn 0.478378 -0.104404 -0.871883
vn -0.478133 -0.103641 -0.872127
vn 0.487716 -0.132542 -0.862850
vn 0.483657 -0.178076 -0.856929
vn 0.566424 -0.725883 -0.390179
vn 0.910245 -0.336924 0.240638
vn -0.525163 -0.668020 -0.527177
vn -0.660054 -0.594531 -0.459151
vn 0.443861 -0.677908 -0.585986
vn -0.966857 -0.218909 -0.131260
vn -0.546434 -0.823847 0.150487
vn -0.549333 -0.812250 0.195990
vn -0.277596 -0.686087 -0.672445
vn -0.358287 -0.254555 0.898221
vn 0.068819 -0.963012 0.260475
vn -0.751946 -0.553026 0.358776
vn 0.831019 -0.553026 -0.059603
vn -0.204138 -0.832698 0.514664
vn -0.806665 -0.582965 0.097049
vn 0.520829 -0.582965 0.623585
vn 0.106906 -0.992462 -0.059725
vn 0.462874 -0.560839 0.686392
vn -0.342021 -0.560839 -0.753929
vn 0.043825 -0.978668 -0.200568
vn 0.869655 -0.486129 0.085665
vn -0.826106 -0.486129 -0.284951
vn -0.052644 -0.975616 -0.212989
vn -0.737480 -0.674825 0.026002
vn 0.664632 -0.674825 -0.320658
vn 0.102908 -0.815485 0.569506
vn -0.689261 -0.522752 0.501572
vn 0.821223 -0.522752 0.228584
vn 0.471694 -0.815485 -0.335337
vn 0.746879 -0.531175 0.399945
vn -0.132359 -0.531175 -0.836818
vn -0.427137 -0.775536 0.464797
vn -0.850856 -0.408368 -0.330454
vn 0.401013 -0.408368 0.819971
vn -0.480728 -0.803980 0.349925
vn -0.759148 -0.535630 -0.369793
vn 0.118564 -0.535630 0.836055
vn -0.562395 -0.316385 0.763909
vn -0.234779 -0.245308 0.940580
vn -0.933622 -0.322611 0.155736
vn 0.281991 -0.085177 0.955596
vn 0.344493 -0.306955 0.887173
vn 0.344523 -0.306955 0.887143
vn -0.441328 -0.210700 0.872219
vn 0.914335 -0.210700 0.345775
vn 0.667196 -0.701804 0.249580
vn 0.498917 -0.459944 0.734489
vn 0.248085 -0.158818 0.955626
vn 0.599261 -0.702322 -0.384167
vn 0.289590 -0.948332 0.129460
vn -0.171239 -0.538865 0.824763
vn 0.500381 -0.538865 -0.677633
vn -0.438581 -0.893002 0.100833
vn -0.462905 -0.608631 -0.644368
vn -0.134922 -0.608631 0.781854
vn 0.270028 -0.908628 -0.318522
vn 0.759453 -0.580157 0.294259
vn -0.414624 -0.580157 -0.701041
vn -0.170965 -0.918363 -0.356822
vn 0.592486 -0.578722 -0.560350
vn -0.807947 -0.578722 0.110630
vn -0.055208 -0.989532 0.133305
vn -0.055208 -0.989532 0.133274
vn -0.786035 -0.571551 -0.235420
vn 0.722251 -0.571551 0.389416
vn 0.113071 -0.991119 -0.069613
vn 0.456954 -0.685446 0.566851
vn -0.300546 -0.685446 -0.663167
vn -0.395337 -0.898923 -0.188757
vn -0.498581 -0.585040 0.639607
vn 0.022370 -0.497757 -0.867000
vn -0.904538 -0.405347 -0.132176
vn -0.907224 -0.404065 -0.116642
vn -0.672262 -0.384625 -0.632527
vn -0.751030 -0.222388 0.621662
vn -0.190649 -0.979492 -0.064852
vn -0.190649 -0.979492 -0.064882
vn 0.118564 -0.641469 -0.757897
vn -0.368297 -0.641469 0.672903
vn -0.000977 -0.999908 0.012757
vn 0.835139 -0.545366 0.071230
vn -0.836207 -0.545366 -0.057314
vn 0.139622 -0.985351 0.097568
vn 0.522141 -0.651357 -0.550493
vn -0.337504 -0.651357 0.679525
vn -0.056490 -0.935820 0.347850
vn 0.662679 -0.594012 0.456008
vn 0.002136 -0.982391 0.186682
vn -0.670583 -0.737541 0.079287
vn -0.267006 -0.837642 0.476455
vn -0.752464 -0.657949 -0.029603
vn -0.528153 -0.715140 -0.457778
vn 0.093173 -0.591388 -0.800958
vn -0.111942 -0.993683 -0.002930
vn -0.187536 -0.723441 0.664388
vn -0.652455 -0.385784 -0.652242
vn 0.165777 -0.786859 -0.594378
vn -0.233009 -0.959777 0.156438
vn -0.636525 -0.593066 0.492996
vn 0.472549 -0.490707 -0.732017
vn 0.884487 -0.402570 0.235755
vn 0.295572 -0.935697 -0.192541
vn 0.727165 -0.485702 -0.485061
vn -0.907651 -0.317637 0.274300
vn -0.677267 -0.404309 -0.614643
vn -0.047792 -0.790674 0.610340
vn 0.994690 -0.101413 -0.016755
vn 0.477920 -0.117435 -0.870510
vn 0.492538 -0.083346 0.866268
vn -0.494491 -0.087558 0.864742
vn -0.994201 -0.106326 -0.014801
vn -0.478286 -0.118259 -0.870174
usemtl Mesh_0481.rip
f 187/42/178 172/43/57 182/44/58
f 187/42/178 173/43/59 172/44/57
f 187/42/178 190/43/63 173/44/59
f 187/42/178 182/43/58 188/44/73
f 187/42/178 189/43/74 190/44/63
f 187/42/178 188/43/73 189/44/74
f 193/45/179 191/46/69 199/47/180
f 191/46/69 193/45/179 181/48/68
f 192/45/181 181/46/68 193/47/179
f 181/46/68 192/45/181 194/48/62
f 195/45/182 194/46/62 192/47/181
f 194/46/62 195/45/182 196/48/51
f 198/45/183 196/46/51 195/47/182
f 196/46/51 198/45/183 197/48/52
f 200/45/184 197/46/52 198/47/183
f 197/46/52 200/45/184 201/48/70
f 199/45/180 201/46/70 200/47/184
f 201/46/70 199/45/180 191/48/69
usemtl Mesh_0482.rip
f 196/12/51 197/13/52 175/14/53
f 197/13/52 186/15/54 175/14/53
f 175/14/53 186/15/54 171/16/55
f 186/15/54 183/17/56 171/16/55
f 171/16/55 183/17/56 172/18/57
f 183/17/56 182/19/58 172/18/57
f 172/18/57 173/20/59 171/16/55
f 173/20/59 174/21/60 171/16/55
f 171/16/55 174/21/60 175/14/53
f 174/21/60 176/22/61 175/14/53
f 175/14/53 176/22/61 196/12/51
f 176/22/61 194/23/62 196/12/51
f 173/20/59 190/24/63 174/21/60
f 190/24/63 178/25/64 174/21/60
f 174/21/60 178/25/64 176/22/61
f 178/25/64 177/26/65 176/22/61
f 176/22/61 177/26/65 194/23/62
f 178/27/64 179/28/66 177/29/65
f 179/28/66 180/30/67 177/29/65
f 177/29/65 180/30/67 181/31/68
f 180/30/67 191/32/69 181/31/68
f 186/15/54 201/33/70 184/34/71
f 201/33/70 191/32/69 184/34/71
f 184/34/71 191/32/69 180/30/67
f 182/19/58 185/35/72 188/36/73
f 185/35/72 179/28/66 188/36/73
f 188/36/73 179/28/66 189/37/74
f 179/28/66 178/27/64 189/37/74
f 189/37/74 178/27/64 190/38/63
f 183/17/56 184/34/71 185/35/72
f 184/34/71 180/30/67 185/35/72
f 185/35/72 180/30/67 179/28/66
f 201/33/70 186/15/54 197/13/52
f 177/29/65 181/31/68 194/41/62
f 185/35/72 182/19/58 183/17/56
f 184/34/71 183/17/56 186/15/54
usemtl Mesh_0484.rip
f 159/1/1 1/2/2 2/3/3
f 1/2/2 3/4/4 2/3/3
f 2/3/3 3/4/4 156/5/5
f 167/1/6 4/2/7 165/3/8
f 4/2/7 5/4/9 165/3/8
f 165/3/8 5/4/9 163/5/10
f 6/6/11 133/7/12 7/8/13
f 133/7/12 132/9/14 7/8/13
f 7/8/13 132/9/14 8/4/15
f 137/6/16 135/7/17 9/8/18
f 135/7/17 10/9/19 9/8/18
f 9/8/18 10/9/19 11/4/20
f 12/6/21 138/7/22 13/8/23
f 138/7/22 140/9/24 13/8/23
f 13/8/23 140/9/24 14/4/25
f 146/6/26 145/7/27 15/8/28
f 145/7/27 144/9/29 15/8/28
f 15/8/28 144/9/29 16/4/30
f 17/6/31 150/7/32 18/8/33
f 150/7/32 149/9/34 18/8/33
f 18/8/33 149/9/34 19/4/35
f 151/1/36 152/3/37 20/10/38
f 152/3/37 154/5/39 20/10/38
f 20/10/38 154/5/39 21/11/40
f 22/1/41 23/3/42 24/10/43
f 23/3/42 162/5/44 24/10/43
f 24/10/43 162/5/44 25/11/45
f 26/1/46 169/3/47 27/10/48
f 169/3/47 28/5/49 27/10/48
f 27/10/48 28/5/49 29/11/50
f 30/10/75 32/4/76 31/11/77
f 32/4/76 30/10/75 33/1/78
f 36/10/79 34/4/80 35/11/81
f 34/4/80 36/10/79 37/1/82
f 38/10/83 40/4/83 39/11/84
f 40/4/83 38/10/83 41/1/85
f 44/10/86 43/4/86 42/11/87
f 43/4/86 44/10/86 45/1/88
f 48/10/89 47/4/89 46/11/90
f 47/4/89 48/10/89 49/1/91
f 52/10/92 50/4/92 51/11/93
f 50/4/92 52/10/92 53/1/94
f 56/10/95 55/4/95 54/11/96
f 55/4/95 56/10/95 57/1/97
f 58/4/98 59/10/98 60/1/99
f 61/11/100 59/10/98 58/4/98
f 62/4/101 63/10/101 64/1/102
f 65/11/103 63/10/101 62/4/101
f 66/4/104 69/10/104 67/1/105
f 68/11/106 69/10/104 66/4/104
f 70/8/107 72/11/107 71/39/108
f 72/11/107 70/8/107 73/6/109
f 74/8/110 75/11/111 76/39/112
f 75/11/111 74/8/110 77/6/113
f 78/8/114 80/11/115 79/39/116
f 80/11/115 78/8/114 81/6/117
f 82/8/118 84/11/119 83/39/120
f 84/11/119 82/8/118 85/6/121
f 88/8/122 86/11/122 87/39/123
f 86/11/122 88/8/122 89/6/124
f 92/8/125 91/11/125 90/39/126
f 91/11/125 92/8/125 93/6/127
f 96/8/128 95/11/128 94/39/129
f 95/11/128 96/8/128 97/6/130
f 100/8/131 98/11/131 99/39/132
f 98/11/131 100/8/131 101/6/133
f 102/8/134 103/11/135 104/39/136
f 103/11/135 102/8/134 105/6/137
f 109/11/138 108/8/138 106/6/139
f 107/39/140 108/8/138 109/11/138
f 110/8/141 112/11/141 111/39/142
f 112/11/141 110/8/141 113/6/143
f 116/8/144 115/11/145 114/39/146
f 115/11/145 116/8/144 117/6/147
f 120/8/148 119/11/149 118/39/150
f 119/11/149 120/8/148 121/6/151
f 122/11/152 123/8/152 124/6/153
f 125/39/154 123/8/152 122/11/152
f 128/8/155 126/11/155 127/39/156
f 126/11/155 128/8/155 129/6/157
f 130/11/158 133/7/12 131/40/159
f 133/7/12 130/11/158 132/9/14
f 133/7/12 6/6/11 131/40/159
f 136/11/160 135/7/17 134/40/161
f 135/7/17 136/11/160 10/9/19
f 135/7/17 137/6/16 134/40/161
f 139/11/162 138/7/22 141/40/163
f 138/7/22 139/11/162 140/9/24
f 138/7/22 12/6/21 141/40/163
f 143/11/164 145/7/27 142/40/165
f 145/7/27 143/11/164 144/9/29
f 145/7/27 146/6/26 142/40/165
f 147/11/166 150/7/32 148/40/167
f 150/7/32 147/11/166 149/9/34
f 150/7/32 17/6/31 148/40/167
f 152/3/37 151/1/36 155/2/168
f 152/3/37 153/4/169 154/5/39
f 153/4/169 152/3/37 155/2/168
f 156/5/5 158/10/170 2/3/3
f 158/10/170 156/5/5 157/11/171
f 2/3/3 158/10/170 159/1/1
f 160/4/172 23/3/42 161/2/173
f 23/3/42 160/4/172 162/5/44
f 23/3/42 22/1/41 161/2/173
f 163/5/10 166/10/174 165/3/8
f 166/10/174 163/5/10 164/11/175
f 165/3/8 166/10/174 167/1/6
f 168/4/176 169/3/47 170/2/177
f 169/3/47 168/4/176 28/5/49
f 169/3/47 26/1/46 170/2/177
