# Blender v2.79 (sub 0) OBJ File: 'Unknown.obj'
# www.blender.org
mtllib Knudai.mtl
o Cube
v 7.500000 0.000000 -7.500000
v 7.500000 0.000000 7.500000
v -7.500001 0.000000 7.499999
v -7.499997 0.000000 -7.500003
v 7.500004 15.000000 -7.499996
v 7.499995 15.000000 7.500004
v -7.500003 15.000000 7.499997
v -7.500000 15.000000 -7.500000
vt 0.000000 -3.014464
vt -1.000000 -2.014463
vt 0.000000 -2.014464
vt -1.000000 -0.000621
vt -0.000000 -1.000621
vt 0.000000 -0.000621
vt -1.000000 -3.014464
vt -1.000000 -1.000621
vt -1.004000 0.991536
vt -2.004000 -0.008464
vt -1.004000 -0.008464
vt -0.000000 0.991536
vt -1.000000 -0.008464
vt 0.000000 -0.008464
vt 0.000000 -0.008464
vt 1.000000 0.991536
vt 1.000000 -0.008464
vt 0.000000 -2.002621
vt -1.000000 -1.002621
vt 0.000000 -1.002621
vt -2.004000 0.991536
vt -1.000000 0.991536
vt 0.000000 0.991536
vt -1.000000 -2.002621
vn 0.0000 -1.0000 0.0000
vn 0.0000 1.0000 0.0000
vn 1.0000 -0.0000 0.0000
vn -0.0000 -0.0000 1.0000
vn -1.0000 -0.0000 -0.0000
vn 0.0000 0.0000 -1.0000
usemtl Material
s off
f 2/1/1 4/2/1 1/3/1
f 8/4/2 6/5/2 5/6/2
f 2/1/1 3/7/1 4/2/1
f 8/4/2 7/8/2 6/5/2
usemtl Material_Side.png
f 5/9/3 2/10/3 1/11/3
f 6/12/4 3/13/4 2/14/4
f 3/15/5 8/16/5 4/17/5
f 1/18/6 8/19/6 5/20/6
f 5/9/3 6/21/3 2/10/3
f 6/12/4 7/22/4 3/13/4
f 3/15/5 7/23/5 8/16/5
f 1/18/6 4/24/6 8/19/6
