# Blender v2.79 (sub 0) OBJ File: ''
# www.blender.org
mtllib Knudai.mtl
v -7.500000 0.000000 -2.750000
v -6.800000 5.400002 -2.749998
v -9.250000 0.000000 -2.749999
v -5.550000 5.400002 -2.749998
v 2.749999 0.000002 -7.500000
v 2.750000 5.400002 -6.799999
v 2.749999 0.000004 -9.250000
v 2.750000 5.400002 -5.549999
v -2.750000 -0.000002 7.500000
v -2.750000 5.399998 6.800002
v -2.750000 -0.000004 9.250000
v -2.750000 5.399998 5.550002
v 7.500000 -0.000000 2.750000
v 6.800000 5.400000 2.750002
v 9.250000 -0.000000 2.750000
v 5.550000 5.400000 2.750002
v -6.800000 5.400000 2.750002
v -5.550000 5.400000 2.750002
v -9.250000 -0.000000 2.750001
v -7.500000 -0.000000 2.750000
v -2.750000 5.400002 -6.799998
v -2.750000 5.400002 -5.549998
v -2.750001 0.000004 -9.250000
v -2.750001 0.000002 -7.500000
v 2.750000 5.399998 6.800002
v 2.750000 5.399998 5.550002
v 2.750000 -0.000004 9.250000
v 2.750000 -0.000002 7.500000
v 6.800000 5.400002 -2.749998
v 5.550000 5.400002 -2.749998
v 9.250000 0.000000 -2.750000
v 7.500000 0.000000 -2.750000
v -7.500000 -0.000002 7.500000
v 5.550001 5.399998 5.550003
v 7.500000 -0.000002 7.500000
v -5.550001 5.399998 5.550003
v 5.550001 5.400002 -5.549999
v 7.500000 0.000002 -7.500000
v -5.550001 5.400002 -5.549999
v -7.500000 0.000002 -7.500000
v -2.000000 13.400002 -5.549995
v -2.500000 15.000002 -7.249991
v -2.000000 13.400002 -6.774991
v -5.550003 15.000000 -2.499995
v -5.550000 13.400000 -1.999996
v -6.775000 13.400000 -1.999995
v -7.250000 15.000000 -2.499995
v 2.000000 13.399998 5.550015
v 2.500000 14.999998 7.250009
v 2.000000 13.399998 6.775007
v 2.000000 13.400002 -6.774991
v 2.500000 15.000002 -7.249991
v 2.500000 15.000002 -5.549997
v 5.550003 15.000000 2.500004
v 5.550000 13.400000 2.000004
v 6.775000 13.400000 2.000004
v 7.250000 15.000000 2.500004
v 5.550000 13.400000 -1.999996
v 7.250000 15.000000 -2.499995
v 6.775000 13.400000 -1.999995
v 5.550003 15.000000 -2.499995
v -5.550000 13.400000 2.000004
v -7.250000 15.000000 2.500004
v -6.775000 13.400000 2.000004
v -5.550003 15.000000 2.500004
v -2.000000 13.399998 6.775007
v -2.500000 14.999998 7.250009
v -2.500000 14.999998 5.550010
v -5.550003 15.000002 -5.549997
v -7.250000 15.000002 -7.249991
v -2.500000 15.000002 -5.549997
v -5.550003 14.999998 5.550010
v -7.250000 14.999998 7.250009
v 5.550003 14.999998 5.550010
v 7.250000 14.999998 7.250009
v 2.500000 14.999998 5.550010
v 5.550003 15.000002 -5.549997
v 7.250000 15.000002 -7.249991
v -6.775000 13.400002 -6.774991
v 6.775000 13.400002 -6.774991
v 6.775000 13.399998 6.775007
v -6.775000 13.399998 6.775007
v -5.550000 13.400002 -5.549995
v 5.550000 13.399998 5.550015
v 5.550000 13.400002 -5.549995
v 2.000000 13.400002 -5.549995
v -5.550000 13.399998 5.550015
v -2.000000 13.399998 5.550015
v 2.718750 5.400002 -5.299999
v 5.300001 11.300000 -2.718746
v 5.300001 5.400002 -2.718748
v 2.718750 11.300002 -5.299997
v 5.300001 5.399998 5.300003
v 2.718750 11.299998 5.300005
v 5.300001 11.299998 5.300005
v 2.718750 5.399998 5.300003
v 5.300001 5.400002 -5.299999
v 5.300001 11.300002 -5.299997
v -5.300001 5.400002 -5.299999
v -2.718750 11.300002 -5.299997
v -5.300001 11.300002 -5.299997
v -2.718750 5.400002 -5.299999
v -5.300001 5.399998 5.300003
v -5.300001 11.300000 2.718754
v -5.300001 11.299998 5.300005
v -5.300001 5.400000 2.718752
v 5.300001 5.400000 2.718752
v 5.300001 11.300000 2.718754
v -2.718750 5.399998 5.300003
v -2.718750 11.299998 5.300005
v -5.300001 5.400002 -2.718748
v -5.300001 11.300000 -2.718746
v 6.050001 11.299998 6.050008
v -6.050001 11.300002 -6.049993
v -6.050001 11.299998 6.050008
v 6.050001 11.300002 -6.049993
v -4.500000 5.249998 4.500002
v -4.500000 11.250002 -4.499996
v -4.500000 11.249998 4.500004
v -4.500000 5.250002 -4.499998
v 4.500000 5.249998 4.500002
v 4.500000 11.249998 4.500004
v 4.500000 5.250002 -4.499998
v 4.500000 11.250002 -4.499996
vt 2.007843 0.000000
vt 0.000000 0.000000
vt 0.000000 0.580392
vt 2.007843 0.580392
vt 2.007843 0.000000
vt 0.000000 0.000000
vt 0.000000 0.580392
vt 2.007843 0.580392
vt 2.007843 0.000000
vt 0.000000 0.000000
vt 0.000000 0.580392
vt 2.007843 0.580392
vt 2.007843 0.000000
vt 0.000000 0.000000
vt 0.000000 0.580392
vt 2.007843 0.580392
vt 1.694118 0.000000
vt 2.007843 0.000000
vt 2.007843 0.266667
vt 0.282353 0.266667
vt 0.000000 0.000000
vt 0.282353 0.000000
vt 0.000000 0.266667
vt 1.694118 0.000000
vt 2.007843 0.000000
vt 2.007843 0.266667
vt 0.000000 0.000000
vt 0.282353 0.266667
vt 0.000000 0.266667
vt 0.282353 0.266667
vt 0.000000 0.000000
vt 0.282353 0.000000
vt 0.000000 0.266667
vt 1.694118 0.000000
vt 2.007843 0.000000
vt 2.007843 0.266667
vt 1.694118 0.266667
vt 1.694118 0.000000
vt 2.007843 0.000000
vt 2.007843 0.266667
vt 1.694118 0.266667
vt 0.000000 0.000000
vt 0.282353 0.266667
vt 0.000000 0.266667
vt 2.007843 0.580392
vt 1.003922 0.580392
vt 2.007843 0.250980
vt 1.003922 0.250980
vt 0.000000 0.580392
vt 0.000000 0.250980
vt 2.007843 0.580392
vt 1.003922 0.580392
vt 2.007843 0.250980
vt 1.003922 0.250980
vt 0.000000 0.580392
vt 0.000000 0.250980
vt 2.007843 0.580392
vt 1.003922 0.580392
vt 2.007843 0.250980
vt 1.003922 0.250980
vt 0.000000 0.580392
vt 0.000000 0.250980
vt 2.007843 0.580392
vt 1.003922 0.580392
vt 2.007843 0.250980
vt 1.003922 0.250980
vt 0.000000 0.580392
vt 0.000000 0.250980
vt 0.000000 0.000000
vt 1.003922 0.000000
vt 0.000000 0.266667
vt 1.003922 0.266667
vt 2.007843 0.000000
vt 2.007843 0.266667
vt 0.000000 0.000000
vt 1.003922 0.000000
vt 0.000000 0.266667
vt 1.003922 0.266667
vt 2.007843 0.000000
vt 2.007843 0.266667
vt 0.000000 0.000000
vt 1.003922 0.000000
vt 0.000000 0.266667
vt 1.003922 0.266667
vt 2.007843 0.000000
vt 2.007843 0.266667
vt 0.000000 0.000000
vt 1.003922 0.000000
vt 0.000000 0.266667
vt 1.003922 0.266667
vt 2.007843 0.000000
vt 2.007843 0.266667
vt 1.003922 0.000000
vt 1.003922 0.266667
vt 1.694118 0.266667
vt 1.003922 0.000000
vt 1.003922 0.266667
vt 1.694118 0.266667
vt 1.003922 0.266667
vt 1.003922 0.000000
vt 0.282353 0.000000
vt 1.003922 0.266667
vt 1.003922 0.000000
vt 0.282353 0.000000
vt 1.003922 0.266667
vt 1.003922 0.564706
vt 0.000000 0.564706
vt 0.000000 0.266667
vt 0.000000 0.596078
vt 1.003922 0.596078
vt 1.003922 0.988235
vt 0.000000 0.988235
vt 0.000000 0.596078
vt 1.003922 0.596078
vt 1.003922 0.988235
vt 0.000000 0.988235
vt 0.000000 0.596078
vt 1.003922 0.596078
vt 1.003922 0.988235
vt 0.000000 0.988235
vt 0.000000 0.596078
vt 1.003922 0.596078
vt 1.003922 0.988235
vt 0.000000 0.988235
vt 0.000000 0.596078
vt 1.003922 0.596078
vt 1.003922 0.988235
vt 0.000000 0.988235
vt 0.000000 0.596078
vt 1.003922 0.596078
vt 1.003922 0.988235
vt 0.000000 0.988235
vt 1.003922 0.266667
vt 1.003922 0.564706
vt 0.000000 0.564706
vt 0.000000 0.266667
vt 0.000000 0.596078
vt 1.003922 0.596078
vt 1.003922 0.988235
vt 0.000000 0.988235
vt 1.003922 0.266667
vt 1.003922 0.564706
vt 0.000000 0.564706
vt 0.000000 0.266667
vt 0.000000 0.596078
vt 1.003922 0.596078
vt 1.003922 0.988235
vt 0.000000 0.988235
vt 1.003922 0.266667
vt 1.003922 0.564706
vt 0.000000 0.564706
vt 0.000000 0.266667
vt 1.003922 0.000000
vt 0.756863 0.000000
vt 0.756863 0.807843
vt 1.003922 0.807843
vt 1.003922 0.000000
vt 0.756863 0.000000
vt 0.756863 0.807843
vt 1.003922 0.807843
vt 1.003922 0.000000
vt 0.756863 0.000000
vt 0.756863 0.807843
vt 1.003922 0.807843
vt 1.003922 0.000000
vt 0.756863 0.000000
vt 0.756863 0.807843
vt 1.003922 0.807843
vt 0.000000 0.000000
vt 0.756863 0.807843
vt 0.000000 0.807843
vt 0.000000 0.996078
vt 0.756863 0.996078
vt 0.756863 0.000000
vt 1.003922 0.807843
vt 1.003922 0.000000
vt 0.000000 0.000000
vt 0.756863 0.807843
vt 0.000000 0.807843
vt 0.000000 0.996078
vt 0.756863 0.996078
vt 0.756863 0.000000
vt 1.003922 0.807843
vt 1.003922 0.000000
vt 0.000000 0.000000
vt 0.756863 0.807843
vt 0.000000 0.807843
vt 0.000000 0.996078
vt 0.756863 0.996078
vt 0.756863 0.000000
vt 1.003922 0.807843
vt 1.003922 0.000000
vt 0.000000 0.000000
vt 0.756863 0.807843
vt 0.000000 0.807843
vt 0.000000 0.996078
vt 0.756863 0.996078
vt 0.756863 0.000000
vt 1.003922 0.807843
vt 1.003922 0.000000
vt 2.007843 0.000000
vt 2.007843 0.392157
vt 0.000000 0.392157
vt 0.000000 0.000000
vt 2.007843 0.000000
vt 2.007843 0.392157
vt 0.000000 0.392157
vt 0.000000 0.000000
vt 2.007843 0.000000
vt 2.007843 0.392157
vt 0.000000 0.392157
vt 0.000000 0.000000
vt 2.007843 0.000000
vt 2.007843 0.392157
vt 0.000000 0.392157
vt 0.000000 0.000000
vt 1.694118 0.062745
vt 1.694118 0.941176
vt 0.313726 0.941176
vt 0.313726 0.062745
vt 1.694118 0.062745
vt 1.694118 0.941176
vt 0.313726 0.941176
vt 0.313726 0.062745
vt 1.694118 0.062745
vt 1.694118 0.941176
vt 0.313726 0.941176
vt 0.313726 0.062745
vt 1.694118 0.062745
vt 1.694118 0.941176
vt 0.313726 0.941176
vt 0.313726 0.062745
vt 1.003922 0.000000
vt 1.003922 1.001961
vt 0.000000 1.001961
vt 0.000000 0.000000
vt 1.003922 0.000000
vt 1.003922 1.001961
vt 0.000000 1.001961
vt 1.003922 1.001961
vt 0.000000 1.001961
vt 0.000000 0.000000
vn 0.0000 0.3396 0.9406
vn 0.9406 0.3396 0.0000
vn 0.0000 0.3396 -0.9406
vn -0.9406 0.3396 0.0000
vn 0.9545 0.2983 0.0000
vn 0.0000 0.2983 0.9545
vn -0.9545 0.2983 0.0000
vn 0.0000 0.2983 -0.9545
vn 0.0000 1.0000 0.0000
vn 0.0000 -0.2846 -0.9586
vn -0.9586 -0.2846 -0.0000
vn 0.9586 -0.2846 -0.0000
vn 0.0000 -0.2846 0.9586
vn 1.0000 0.0000 0.0000
vn 0.0000 0.0000 1.0000
vn -1.0000 0.0000 0.0000
vn 0.0000 -0.0000 -1.0000
vn -0.7071 -0.0000 0.7071
vn 0.7071 0.0000 -0.7071
vn 0.7071 -0.0000 0.7071
vn -0.7071 0.0000 -0.7071
vn -0.9107 0.4132 0.0000
vn 0.0000 0.4132 -0.9107
vn 0.0000 0.4132 0.9107
vn 0.9107 0.4132 0.0000
vn -0.9453 -0.3263 -0.0000
vn 0.0000 -0.3263 0.9453
vn 0.9453 -0.3263 -0.0000
vn 0.0000 -0.3263 -0.9453
vn 0.0000 -1.0000 -0.0000
usemtl Mesh_0170.rip
s 1
f 33/1/1 35/2/1 34/3/1
f 34/3/1 36/4/1 33/1/1
f 35/5/2 38/6/2 37/7/2
f 37/7/2 34/8/2 35/5/2
f 38/9/3 40/10/3 39/11/3
f 39/11/3 37/12/3 38/9/3
f 40/13/4 33/14/4 36/15/4
f 36/15/4 39/16/4 40/13/4
f 41/17/5 43/18/5 42/19/5
f 44/20/6 46/21/6 45/22/6
f 46/21/6 44/20/6 47/23/6
f 48/24/7 50/25/7 49/26/7
f 51/27/7 53/28/7 52/29/7
f 54/30/8 56/31/8 55/32/8
f 56/31/8 54/30/8 57/33/8
f 58/34/6 60/35/6 59/36/6
f 58/34/6 59/36/6 61/37/6
f 62/38/8 64/39/8 63/40/8
f 62/38/8 63/40/8 65/41/8
f 66/42/5 68/43/5 67/44/5
f 44/45/9 69/46/9 47/47/9
f 47/47/9 69/46/9 70/48/9
f 69/46/9 71/49/9 70/48/9
f 70/48/9 71/49/9 42/50/9
f 68/51/9 72/52/9 67/53/9
f 67/53/9 72/52/9 73/54/9
f 72/52/9 65/55/9 73/54/9
f 73/54/9 65/55/9 63/56/9
f 54/57/9 74/58/9 57/59/9
f 57/59/9 74/58/9 75/60/9
f 74/58/9 76/61/9 75/60/9
f 75/60/9 76/61/9 49/62/9
f 53/63/9 77/64/9 52/65/9
f 52/65/9 77/64/9 78/66/9
f 77/64/9 61/67/9 78/66/9
f 78/66/9 61/67/9 59/68/9
f 43/69/10 79/70/10 42/71/10
f 42/71/10 79/70/10 70/72/10
f 79/70/11 46/73/11 70/72/11
f 70/72/11 46/73/11 47/74/11
f 60/75/12 80/76/12 59/77/12
f 59/77/12 80/76/12 78/78/12
f 80/76/10 51/79/10 78/78/10
f 78/78/10 51/79/10 52/80/10
f 50/81/13 81/82/13 49/83/13
f 49/83/13 81/82/13 75/84/13
f 81/82/12 56/85/12 75/84/12
f 75/84/12 56/85/12 57/86/12
f 64/87/11 82/88/11 63/89/11
f 63/89/11 82/88/11 73/90/11
f 82/88/13 66/91/13 73/90/13
f 73/90/13 66/91/13 67/92/13
f 45/22/14 83/93/14 44/20/14
f 44/20/14 83/93/14 69/94/14
f 83/93/15 41/17/15 69/94/15
f 69/94/15 41/17/15 71/95/15
f 41/17/5 42/19/5 71/95/5
f 55/32/16 84/96/16 54/30/16
f 54/30/16 84/96/16 74/97/16
f 84/96/17 48/24/17 74/97/17
f 74/97/17 48/24/17 76/98/17
f 48/24/7 49/26/7 76/98/7
f 61/37/16 77/99/16 58/34/16
f 58/34/16 77/99/16 85/100/16
f 77/99/15 53/28/15 85/100/15
f 85/100/15 53/28/15 86/101/15
f 53/28/7 51/27/7 86/101/7
f 65/41/14 72/102/14 62/38/14
f 62/38/14 72/102/14 87/103/14
f 72/102/17 68/43/17 87/103/17
f 87/103/17 68/43/17 88/104/17
f 68/43/5 66/42/5 88/104/5
f 89/105/18 91/106/18 90/107/18
f 90/107/18 92/108/18 89/105/18
f 93/109/15 95/110/15 94/111/15
f 94/111/15 96/112/15 93/109/15
f 97/113/14 98/114/14 90/115/14
f 90/115/14 91/116/14 97/113/14
f 99/117/17 101/118/17 100/119/17
f 100/119/17 102/120/17 99/117/17
f 103/121/16 105/122/16 104/123/16
f 104/123/16 106/124/16 103/121/16
f 98/125/17 97/126/17 89/127/17
f 89/127/17 92/128/17 98/125/17
f 95/129/14 93/130/14 107/131/14
f 107/131/14 108/132/14 95/129/14
f 109/133/19 106/134/19 104/135/19
f 104/135/19 110/136/19 109/133/19
f 105/137/15 103/138/15 109/139/15
f 109/139/15 110/140/15 105/137/15
f 111/141/20 102/142/20 100/143/20
f 100/143/20 112/144/20 111/141/20
f 101/145/16 99/146/16 111/147/16
f 111/147/16 112/148/16 101/145/16
f 107/149/21 96/150/21 94/151/21
f 94/151/21 108/152/21 107/149/21
usemtl Mesh_0168.rip
f 1/153/17 3/154/17 2/155/17
f 2/155/17 4/156/17 1/153/17
f 5/157/14 7/158/14 6/159/14
f 6/159/14 8/160/14 5/157/14
f 9/161/16 11/162/16 10/163/16
f 10/163/16 12/164/16 9/161/16
f 13/165/15 15/166/15 14/167/15
f 14/167/15 16/168/15 13/165/15
f 3/169/22 17/170/22 2/171/22
f 2/171/9 17/170/9 4/172/9
f 17/170/9 18/173/9 4/172/9
f 3/169/22 19/174/22 17/170/22
f 17/170/15 19/174/15 18/175/15
f 19/174/15 20/176/15 18/175/15
f 7/177/23 21/178/23 6/179/23
f 6/179/9 21/178/9 8/180/9
f 21/178/9 22/181/9 8/180/9
f 7/177/23 23/182/23 21/178/23
f 21/178/16 23/182/16 22/183/16
f 23/182/16 24/184/16 22/183/16
f 11/185/24 25/186/24 10/187/24
f 10/187/9 25/186/9 12/188/9
f 25/186/9 26/189/9 12/188/9
f 11/185/24 27/190/24 25/186/24
f 25/186/14 27/190/14 26/191/14
f 27/190/14 28/192/14 26/191/14
f 15/193/25 29/194/25 14/195/25
f 14/195/9 29/194/9 16/196/9
f 29/194/9 30/197/9 16/196/9
f 15/193/25 31/198/25 29/194/25
f 29/194/17 31/198/17 30/199/17
f 31/198/17 32/200/17 30/199/17
usemtl Mesh_0172.rip
f 115/201/26 82/202/26 79/203/26
f 79/203/26 114/204/26 115/201/26
f 113/205/27 81/206/27 82/207/27
f 82/207/27 115/208/27 113/205/27
f 116/209/28 80/210/28 81/211/28
f 81/211/28 113/212/28 116/209/28
f 114/213/29 79/214/29 80/215/29
f 80/215/29 116/216/29 114/213/29
f 117/217/16 119/218/16 118/219/16
f 118/219/16 120/220/16 117/217/16
f 121/221/15 122/222/15 119/223/15
f 119/223/15 117/224/15 121/221/15
f 123/225/14 124/226/14 122/227/14
f 122/227/14 121/228/14 123/225/14
f 120/229/17 118/230/17 124/231/17
f 124/231/17 123/232/17 120/229/17
usemtl Mesh_0174.rip
f 39/233/9 36/234/9 34/235/9
f 34/235/9 37/236/9 39/233/9
f 113/237/30 115/238/30 114/239/30
f 114/239/30 116/216/30 113/237/30
f 82/88/9 81/240/9 80/241/9
f 80/241/9 79/242/9 82/88/9
