# Blender v2.79 (sub 0) OBJ File: ''
# www.blender.org
mtllib SOLIDBOX.mtl
v -10.000000 -0.000004 10.000000
v -10.000000 19.999996 10.000003
v -10.000000 -0.000000 -10.000000
v -10.000000 20.000000 -9.999997
v 10.000000 -0.000000 -10.000000
v 10.000000 -0.000004 10.000000
v 10.000000 20.000000 -9.999997
v 10.000000 19.999996 10.000003
v -10.000000 -0.000000 -10.000000
v -10.000000 20.000000 -9.999997
v 10.000000 -0.000000 -10.000000
v 10.000000 20.000000 -9.999997
v -10.000000 -0.000004 10.000000
v -10.000000 20.000000 -9.999997
v -10.000000 19.999996 10.000003
v -10.000000 19.999996 10.000003
v 10.000000 -0.000004 10.000000
v 10.000000 19.999996 10.000003
v 10.000000 20.000000 -9.999997
v 10.000000 19.999996 10.000003
vt 1.000000 0.003906
vt 0.000000 1.000000
vt 0.000000 0.003906
vt 1.000000 1.000000
vt 1.000000 1.000000
vt 0.000000 1.000000
vt 1.000000 0.003906
vt 0.000000 0.003906
vt 1.000000 0.003906
vt 0.000000 1.000000
vt 0.000000 0.003906
vt 1.000000 1.000000
vt 1.000000 0.003906
vt 0.000000 1.000000
vt 0.000000 0.003906
vt 1.000000 1.000000
vt 0.000000 0.003906
vt 1.000000 1.000000
vt 0.000000 1.000000
vt 1.000000 0.003906
vn -1.0000 0.0000 0.0000
vn 1.0000 0.0000 0.0000
vn 0.0000 -0.0000 1.0000
vn 0.0000 0.0000 -1.0000
vn 0.0000 1.0000 0.0000
usemtl None
s 1
f 13/1/1 14/2/1 3/3/1
f 15/4/1 14/2/1 13/1/1
f 7/5/2 8/6/2 5/7/2
f 5/7/2 8/6/2 6/8/2
usemtl None_1.png
f 17/9/3 16/10/3 1/11/3
f 18/12/3 16/10/3 17/9/3
f 9/13/4 12/14/4 11/15/4
f 10/16/4 12/14/4 9/13/4
usemtl None_3.png
f 2/17/5 19/18/5 4/19/5
f 20/20/5 19/18/5 2/17/5
