# Blender v2.79 (sub 0) OBJ File: ''
# www.blender.org
mtllib TriggerCylinder.mtl
o Cylinder
v 0.000000 -1.000000 -1.000000
v 0.000000 1.000000 -1.000000
v 0.195090 -1.000000 -0.980785
v 0.195090 1.000000 -0.980785
v 0.382683 -1.000000 -0.923880
v 0.382683 1.000000 -0.923880
v 0.555570 -1.000000 -0.831470
v 0.555570 1.000000 -0.831470
v 0.707107 -1.000000 -0.707107
v 0.707107 1.000000 -0.707107
v 0.831470 -1.000000 -0.555570
v 0.831470 1.000000 -0.555570
v 0.923880 -1.000000 -0.382683
v 0.923880 1.000000 -0.382683
v 0.980785 -1.000000 -0.195090
v 0.980785 1.000000 -0.195090
v 1.000000 -1.000000 -0.000000
v 1.000000 1.000000 -0.000000
v 0.980785 -1.000000 0.195090
v 0.980785 1.000000 0.195090
v 0.923880 -1.000000 0.382683
v 0.923880 1.000000 0.382683
v 0.831470 -1.000000 0.555570
v 0.831470 1.000000 0.555570
v 0.707107 -1.000000 0.707107
v 0.707107 1.000000 0.707107
v 0.555570 -1.000000 0.831470
v 0.555570 1.000000 0.831470
v 0.382683 -1.000000 0.923880
v 0.382683 1.000000 0.923880
v 0.195090 -1.000000 0.980785
v 0.195090 1.000000 0.980785
v -0.000000 -1.000000 1.000000
v -0.000000 1.000000 1.000000
v -0.195091 -1.000000 0.980785
v -0.195091 1.000000 0.980785
v -0.382684 -1.000000 0.923879
v -0.382684 1.000000 0.923879
v -0.555571 -1.000000 0.831469
v -0.555571 1.000000 0.831469
v -0.707107 -1.000000 0.707106
v -0.707107 1.000000 0.707106
v -0.831470 -1.000000 0.555570
v -0.831470 1.000000 0.555570
v -0.923880 -1.000000 0.382683
v -0.923880 1.000000 0.382683
v -0.980785 -1.000000 0.195089
v -0.980785 1.000000 0.195089
v -1.000000 -1.000000 -0.000001
v -1.000000 1.000000 -0.000001
v -0.980785 -1.000000 -0.195091
v -0.980785 1.000000 -0.195091
v -0.923879 -1.000000 -0.382684
v -0.923879 1.000000 -0.382684
v -0.831469 -1.000000 -0.555571
v -0.831469 1.000000 -0.555571
v -0.707106 -1.000000 -0.707108
v -0.707106 1.000000 -0.707108
v -0.555569 -1.000000 -0.831470
v -0.555569 1.000000 -0.831470
v -0.382682 -1.000000 -0.923880
v -0.382682 1.000000 -0.923880
v -0.195089 -1.000000 -0.980786
v -0.195089 1.000000 -0.980786
vt 0.038060 0.691342
vt 0.308658 0.038060
vt 0.961940 0.308658
vt 0.990393 0.600891
vt 0.597545 0.012953
vt 0.009607 0.405801
vt 0.691342 0.961940
vt 0.597545 0.990393
vt 0.500000 1.000000
vt 0.402456 0.990393
vt 0.308659 0.961940
vt 0.222215 0.915735
vt 0.146447 0.853554
vt 0.084266 0.777786
vt 0.009607 0.597546
vt 0.000000 0.500000
vt 0.009607 0.402455
vt 0.038060 0.308659
vt 0.084265 0.222215
vt 0.146446 0.146447
vt 0.222215 0.084265
vt 0.402455 0.009607
vt 0.500000 0.000000
vt 0.597545 0.009607
vt 0.691342 0.038060
vt 0.777785 0.084265
vt 0.853553 0.146447
vt 0.915735 0.222215
vt 0.990393 0.402455
vt 1.000000 0.500000
vt 0.990393 0.597545
vt 0.961940 0.691342
vt 0.915735 0.777785
vt 0.853553 0.853553
vt 0.777785 0.915735
vt 0.402456 0.993738
vt 0.500000 1.003345
vt 0.597545 0.993738
vt 0.691342 0.965285
vt 0.777785 0.919080
vt 0.853553 0.856899
vt 0.915735 0.781131
vt 0.961940 0.694687
vt 1.000000 0.503346
vt 0.990393 0.405800
vt 0.961940 0.312004
vt 0.915735 0.225560
vt 0.853553 0.149792
vt 0.777785 0.087611
vt 0.691342 0.041406
vt 0.500000 0.003346
vt 0.402455 0.012953
vt 0.308658 0.041406
vt 0.222215 0.087611
vt 0.146446 0.149792
vt 0.084265 0.225561
vt 0.038060 0.312004
vt 0.000000 0.503346
vt 0.009607 0.600891
vt 0.038060 0.694688
vt 0.084266 0.781131
vt 0.146447 0.856899
vt 0.222215 0.919081
vt 0.308659 0.965286
vt 3.026497 0.991348
vt 2.900410 -0.006973
vt 3.026497 -0.006973
vt 2.900410 0.991348
vt 2.774490 -0.006973
vt 2.774490 0.991348
vt 2.648657 -0.006973
vt 2.648657 0.991348
vt 2.522817 -0.006973
vt 2.522817 0.991348
vt 2.396879 -0.006973
vt 2.396879 0.991348
vt 2.270763 -0.006973
vt 2.270763 0.991348
vt 2.144418 -0.006973
vt 2.144418 0.991348
vt 2.017826 -0.006973
vt 2.017826 0.991348
vt 1.891006 -0.006973
vt 1.891006 0.991348
vt 1.764015 -0.006973
vt 1.764015 0.991348
vt 1.636423 -0.006973
vt 1.637443 0.991348
vt 1.509858 -0.006973
vt 1.509858 0.991348
vt 1.382886 -0.006973
vt 1.382886 0.991348
vt 1.256096 -0.006973
vt 1.256096 0.991348
vt 1.129537 -0.006973
vt 1.129537 0.991348
vt 1.003226 -0.006973
vt 1.003226 0.991348
vt 0.877138 -0.006973
vt 0.877138 0.991348
vt 0.751218 -0.006973
vt 0.751218 0.991348
vt 0.625385 -0.006973
vt 0.625385 0.991348
vt 0.499546 -0.006973
vt 0.499546 0.991348
vt 0.373607 -0.006973
vt 0.373607 0.991348
vt 0.247491 -0.006973
vt 0.247491 0.991348
vt 0.121146 -0.006973
vt 0.121146 0.991348
vt -0.005446 -0.006973
vt -0.005446 0.991348
vt -0.132266 -0.006973
vt 3.914277 0.991348
vt 3.787285 -0.006973
vt 3.914277 -0.006973
vt 3.787285 0.991348
vt 3.660714 -0.006973
vt 3.659694 0.991348
vt 3.533129 -0.006973
vt 3.533129 0.991348
vt 3.406157 -0.006973
vt 3.406157 0.991348
vt 3.279366 -0.006973
vt 3.279366 0.991348
vt 3.152808 -0.006973
vt 3.152808 0.991348
vt -0.132266 0.991348
vn 0.0000 1.0000 0.0000
vn 0.0000 -1.0000 0.0000
vn 0.0980 0.0000 -0.9952
vn 0.2903 0.0000 -0.9569
vn 0.4714 0.0000 -0.8819
vn 0.6344 0.0000 -0.7730
vn 0.7730 0.0000 -0.6344
vn 0.8819 0.0000 -0.4714
vn 0.9569 0.0000 -0.2903
vn 0.9952 0.0000 -0.0980
vn 0.9952 0.0000 0.0980
vn 0.9569 0.0000 0.2903
vn 0.8819 0.0000 0.4714
vn 0.7730 0.0000 0.6344
vn 0.6344 0.0000 0.7730
vn 0.4714 0.0000 0.8819
vn 0.2903 0.0000 0.9569
vn 0.0980 0.0000 0.9952
vn -0.0980 0.0000 0.9952
vn -0.2903 0.0000 0.9569
vn -0.4714 0.0000 0.8819
vn -0.6344 0.0000 0.7730
vn -0.7730 0.0000 0.6344
vn -0.8819 0.0000 0.4714
vn -0.9569 0.0000 0.2903
vn -0.9952 0.0000 0.0980
vn -0.9952 0.0000 -0.0980
vn -0.9569 0.0000 -0.2903
vn -0.8819 0.0000 -0.4714
vn -0.7730 0.0000 -0.6344
vn -0.6344 0.0000 -0.7730
vn -0.4714 0.0000 -0.8819
vn -0.2903 0.0000 -0.9569
vn -0.0980 0.0000 -0.9952
usemtl None
s off
f 54/1/1 38/2/1 22/3/1
f 15/4/2 31/5/2 47/6/2
f 6/7/1 4/8/1 2/9/1
f 2/9/1 64/10/1 6/7/1
f 64/10/1 62/11/1 6/7/1
f 62/11/1 60/12/1 58/13/1
f 58/13/1 56/14/1 54/1/1
f 54/1/1 52/15/1 50/16/1
f 50/16/1 48/17/1 54/1/1
f 48/17/1 46/18/1 54/1/1
f 46/18/1 44/19/1 38/2/1
f 44/19/1 42/20/1 38/2/1
f 42/20/1 40/21/1 38/2/1
f 38/2/1 36/22/1 34/23/1
f 34/23/1 32/24/1 30/25/1
f 30/25/1 28/26/1 26/27/1
f 26/27/1 24/28/1 22/3/1
f 22/3/1 20/29/1 18/30/1
f 18/30/1 16/31/1 22/3/1
f 16/31/1 14/32/1 22/3/1
f 14/32/1 12/33/1 10/34/1
f 10/34/1 8/35/1 6/7/1
f 62/11/1 58/13/1 6/7/1
f 58/13/1 54/1/1 6/7/1
f 38/2/1 34/23/1 22/3/1
f 34/23/1 30/25/1 22/3/1
f 30/25/1 26/27/1 22/3/1
f 14/32/1 10/34/1 22/3/1
f 10/34/1 6/7/1 22/3/1
f 54/1/1 46/18/1 38/2/1
f 6/7/1 54/1/1 22/3/1
f 63/36/2 1/37/2 3/38/2
f 3/38/2 5/39/2 7/40/2
f 7/40/2 9/41/2 11/42/2
f 11/42/2 13/43/2 7/40/2
f 13/43/2 15/4/2 7/40/2
f 15/4/2 17/44/2 19/45/2
f 19/45/2 21/46/2 15/4/2
f 21/46/2 23/47/2 15/4/2
f 23/47/2 25/48/2 31/5/2
f 25/48/2 27/49/2 31/5/2
f 27/49/2 29/50/2 31/5/2
f 31/5/2 33/51/2 35/52/2
f 35/52/2 37/53/2 39/54/2
f 39/54/2 41/55/2 43/56/2
f 43/56/2 45/57/2 47/6/2
f 47/6/2 49/58/2 51/59/2
f 51/59/2 53/60/2 55/61/2
f 55/61/2 57/62/2 63/36/2
f 57/62/2 59/63/2 63/36/2
f 59/63/2 61/64/2 63/36/2
f 63/36/2 3/38/2 7/40/2
f 31/5/2 35/52/2 47/6/2
f 35/52/2 39/54/2 47/6/2
f 39/54/2 43/56/2 47/6/2
f 47/6/2 51/59/2 63/36/2
f 51/59/2 55/61/2 63/36/2
f 63/36/2 7/40/2 15/4/2
f 15/4/2 23/47/2 31/5/2
f 63/36/2 15/4/2 47/6/2
usemtl None_Trigger.png
f 2/65/3 3/66/3 1/67/3
f 4/68/4 5/69/4 3/66/4
f 6/70/5 7/71/5 5/69/5
f 8/72/6 9/73/6 7/71/6
f 10/74/7 11/75/7 9/73/7
f 12/76/8 13/77/8 11/75/8
f 14/78/9 15/79/9 13/77/9
f 16/80/10 17/81/10 15/79/10
f 18/82/11 19/83/11 17/81/11
f 20/84/12 21/85/12 19/83/12
f 22/86/13 23/87/13 21/85/13
f 24/88/14 25/89/14 23/87/14
f 26/90/15 27/91/15 25/89/15
f 28/92/16 29/93/16 27/91/16
f 30/94/17 31/95/17 29/93/17
f 32/96/18 33/97/18 31/95/18
f 34/98/19 35/99/19 33/97/19
f 36/100/20 37/101/20 35/99/20
f 38/102/21 39/103/21 37/101/21
f 40/104/22 41/105/22 39/103/22
f 42/106/23 43/107/23 41/105/23
f 44/108/24 45/109/24 43/107/24
f 46/110/25 47/111/25 45/109/25
f 48/112/26 49/113/26 47/111/26
f 50/114/27 51/115/27 49/113/27
f 52/116/28 53/117/28 51/118/28
f 54/119/29 55/120/29 53/117/29
f 56/121/30 57/122/30 55/120/30
f 58/123/31 59/124/31 57/122/31
f 60/125/32 61/126/32 59/124/32
f 62/127/33 63/128/33 61/126/33
f 64/129/34 1/67/34 63/128/34
f 2/65/3 4/68/3 3/66/3
f 4/68/4 6/70/4 5/69/4
f 6/70/5 8/72/5 7/71/5
f 8/72/6 10/74/6 9/73/6
f 10/74/7 12/76/7 11/75/7
f 12/76/8 14/78/8 13/77/8
f 14/78/9 16/80/9 15/79/9
f 16/80/10 18/82/10 17/81/10
f 18/82/11 20/84/11 19/83/11
f 20/84/12 22/86/12 21/85/12
f 22/86/13 24/88/13 23/87/13
f 24/88/14 26/90/14 25/89/14
f 26/90/15 28/92/15 27/91/15
f 28/92/16 30/94/16 29/93/16
f 30/94/17 32/96/17 31/95/17
f 32/96/18 34/98/18 33/97/18
f 34/98/19 36/100/19 35/99/19
f 36/100/20 38/102/20 37/101/20
f 38/102/21 40/104/21 39/103/21
f 40/104/22 42/106/22 41/105/22
f 42/106/23 44/108/23 43/107/23
f 44/108/24 46/110/24 45/109/24
f 46/110/25 48/112/25 47/111/25
f 48/112/26 50/114/26 49/113/26
f 50/114/27 52/130/27 51/115/27
f 52/116/28 54/119/28 53/117/28
f 54/119/29 56/121/29 55/120/29
f 56/121/30 58/123/30 57/122/30
f 58/123/31 60/125/31 59/124/31
f 60/125/32 62/127/32 61/126/32
f 62/127/33 64/129/33 63/128/33
f 64/129/34 2/65/34 1/67/34
