# Blender v2.79 (sub 0) OBJ File: ''
# www.blender.org
mtllib Killplanes.mtl
v -1097.000000 -607.999573 -2501.000000
v -1097.000000 -607.999756 -1501.000122
v -97.000000 -607.999573 -2501.000000
v -97.000000 -607.999756 -1501.000122
v -626.000000 -965.999512 -2899.000244
v -626.000000 -965.999695 -1899.000122
v 3200.000000 -965.999512 -2899.000244
v 3200.000000 -965.999695 -1899.000122
v 3136.000000 1432.000488 -2899.999756
v 3136.000000 1432.000366 -1899.999756
v 4136.000000 1432.000488 -2899.999756
v 4136.000000 1432.000366 -1899.999756
v -503.000000 -491.438995 -502.000092
v -503.000000 -491.439178 497.999908
v 497.000000 -491.438995 -502.000092
v 497.000000 -491.439178 497.999908
v -1097.000000 -637.999573 -2501.000000
v -1097.000000 -637.999756 -1501.000122
v -97.000000 -637.999573 -2501.000000
v -97.000000 -637.999756 -1501.000122
v -626.000000 -995.999512 -2899.000244
v -626.000000 -995.999695 -1899.000122
v 3200.000000 -995.999512 -2899.000244
v 3200.000000 -995.999695 -1899.000122
v 3136.000000 1402.000488 -2899.999756
v 3136.000000 1402.000366 -1899.999756
v 4136.000000 1402.000488 -2899.999756
v 4136.000000 1402.000366 -1899.999756
v -503.000000 -521.439026 -502.000092
v -503.000000 -521.439148 497.999908
v 497.000000 -521.439026 -502.000092
v 497.000000 -521.439148 497.999908
vt 0.000000 0.000000
vt 1.000000 1.000000
vt 1.000000 0.000000
vt 0.000000 0.000000
vt 1.000000 1.000000
vt 0.000000 0.000000
vt 1.000000 1.000000
vt 1.000000 0.000000
vt 0.000000 0.000000
vt 1.000000 1.000000
vt 0.000000 0.000000
vt 1.000000 1.000000
vt 1.000000 0.000000
vt 0.000000 0.000000
vt 1.000000 1.000000
vt 0.000000 0.000000
vt 1.000000 1.000000
vt 1.000000 0.000000
vt 0.000000 0.000000
vt 1.000000 1.000000
vt 0.000000 0.000000
vt 1.000000 1.000000
vt 1.000000 0.000000
vt 0.000000 0.000000
vt 1.000000 0.000000
vt 0.000000 0.000000
vt 1.000000 1.000000
vt 1.000000 0.000000
vt 0.000000 0.000000
vt 1.000000 0.000000
vt 0.000000 0.000000
vt 1.000000 1.000000
vt 1.000000 0.000000
vt 0.000000 0.000000
vt 1.000000 0.000000
vt 0.000000 0.000000
vt 1.000000 1.000000
vt 1.000000 0.000000
vt 0.000000 0.000000
vt 1.000000 0.000000
vt 0.000000 1.000000
vt 0.000000 0.000000
vt 0.000000 1.000000
vt 1.000000 0.000000
vt 0.000000 0.000000
vt 0.000000 1.000000
vt 1.000000 0.000000
vt 0.000000 1.000000
vt 1.000000 0.000000
vt 0.000000 1.000000
vt 0.000000 0.000000
vt 0.000000 1.000000
vt 1.000000 0.000000
vt 0.000000 0.000000
vt 0.000000 1.000000
vt 1.000000 0.000000
vt 0.000000 0.000000
vt 0.000000 1.000000
vt 1.000000 0.000000
vt 0.000000 1.000000
vt 0.000000 0.000000
vt 0.000000 1.000000
vt 1.000000 0.000000
vt 0.000000 1.000000
vt 1.000000 0.000000
vt 0.000000 1.000000
vt 1.000000 0.000000
vt 0.000000 1.000000
vt 1.000000 0.000000
vt 0.000000 1.000000
vt 0.000000 0.000000
vt 0.000000 1.000000
vt 1.000000 0.000000
vt 0.000000 0.000000
vt 0.000000 1.000000
vt 1.000000 0.000000
vt 1.000000 1.000000
vt 1.000000 1.000000
vt 1.000000 1.000000
vt 1.000000 1.000000
vt 1.000000 1.000000
vt 1.000000 1.000000
vt 1.000000 1.000000
vt 1.000000 1.000000
vt 1.000000 1.000000
vt 1.000000 1.000000
vt 1.000000 1.000000
vt 1.000000 1.000000
vn 0.0000 1.0000 0.0000
vn 0.0000 -1.0000 -0.0000
vn -1.0000 0.0000 0.0000
vn 0.0000 0.0000 1.0000
vn 0.0000 0.0000 -1.0000
vn 1.0000 0.0000 0.0000
usemtl Death
f 4/1/1 3/2/1 2/3/1
f 3/4/1 1/5/1 2/3/1
f 8/6/1 7/7/1 6/8/1
f 7/9/1 5/10/1 6/8/1
f 12/11/1 11/12/1 10/13/1
f 11/14/1 9/15/1 10/13/1
f 16/16/1 15/17/1 14/18/1
f 15/19/1 13/20/1 14/18/1
f 20/21/2 18/22/2 19/23/2
f 19/24/2 18/22/2 17/25/2
f 24/26/2 22/27/2 23/28/2
f 23/29/2 22/27/2 21/30/2
f 28/31/2 26/32/2 27/33/2
f 27/34/2 26/32/2 25/35/2
f 32/36/2 30/37/2 31/38/2
f 31/39/2 30/37/2 29/40/2
f 25/41/3 10/13/3 9/42/3
f 26/43/4 12/44/4 10/45/4
f 19/46/5 1/47/5 3/4/5
f 27/48/5 9/49/5 11/14/5
f 29/50/3 14/18/3 13/51/3
f 30/52/4 16/53/4 14/54/4
f 22/55/4 8/56/4 6/57/4
f 28/58/6 11/59/6 12/11/6
f 21/60/3 6/8/3 5/61/3
f 23/62/5 5/63/5 7/9/5
f 32/64/6 15/65/6 16/16/6
f 31/66/5 13/67/5 15/19/5
f 20/68/6 3/69/6 4/1/6
f 17/70/3 2/3/3 1/71/3
f 18/72/4 4/73/4 2/74/4
f 24/75/6 7/76/6 8/6/6
f 25/41/3 26/32/3 10/13/3
f 26/43/4 28/77/4 12/44/4
f 19/46/5 17/78/5 1/47/5
f 27/48/5 25/79/5 9/49/5
f 29/50/3 30/37/3 14/18/3
f 30/52/4 32/80/4 16/53/4
f 22/55/4 24/81/4 8/56/4
f 28/58/6 27/82/6 11/59/6
f 21/60/3 22/27/3 6/8/3
f 23/62/5 21/83/5 5/63/5
f 32/64/6 31/84/6 15/65/6
f 31/66/5 29/85/5 13/67/5
f 20/68/6 19/86/6 3/69/6
f 17/70/3 18/22/3 2/3/3
f 18/72/4 20/87/4 4/73/4
f 24/75/6 23/88/6 7/76/6
