# Blender v2.79 (sub 0) OBJ File: ''
# www.blender.org
mtllib FIG_SHOUKO.mtl
v -62.999992 0.051683 -56.000011
v -62.999992 0.051683 -56.000011
v -62.999992 0.051680 -38.000011
v -9.000004 0.051666 50.699986
v 9.000000 0.051666 50.699986
v 63.000000 0.051680 -38.000000
v 63.000000 0.051683 -56.000000
v 63.000000 0.051683 -56.000000
v -15.999994 0.051681 -43.000004
v -15.999994 0.051681 -43.000004
v 16.000000 0.051681 -43.000000
v 16.000000 0.051681 -43.000000
v -34.999989 0.051686 -75.000008
v -34.999989 0.051686 -75.000008
v 35.000000 0.051686 -75.000000
v 35.000000 0.051686 -75.000000
v -12.000002 0.051673 7.999997
v 12.000000 0.051673 8.000000
v 40.000000 17.051687 -80.000000
v 40.000000 17.051687 -80.000000
v 40.000000 17.051687 -80.000000
v 4.000000 23.051687 -78.000000
v 4.000000 23.051687 -78.000000
v 4.000000 23.051687 -78.000000
v -3.999988 23.051687 -78.000000
v -3.999988 23.051687 -78.000000
v -3.999988 23.051687 -78.000000
v -39.999989 17.051687 -80.000008
v -39.999989 17.051687 -80.000008
v -39.999989 17.051687 -80.000008
v 68.075859 21.051680 -37.863918
v 68.075859 21.051680 -37.863918
v 68.111862 21.051683 -55.863884
v 68.111862 21.051683 -55.863884
v 68.111862 21.051683 -55.863884
v 17.000000 22.051672 13.000004
v 17.000000 22.051672 13.000004
v -14.000004 22.051666 50.699989
v 14.000000 22.051666 50.699989
v -67.923851 21.051680 -38.135929
v -67.923851 21.051680 -38.135929
v -17.000002 22.051672 13.000001
v -17.000002 22.051672 13.000001
v -67.887856 21.051683 -56.135895
v -67.887856 21.051683 -56.135895
v -67.887856 21.051683 -56.135895
v -0.000008 13.051658 100.000000
v -0.000008 13.051658 100.000000
v -0.000008 13.051658 100.000000
v -3.999988 23.051691 -109.000000
v -3.999988 23.051691 -109.000000
v -3.999988 23.051691 -109.000000
v 4.000000 23.051691 -109.000000
v 4.000000 23.051691 -109.000000
v 4.000000 23.051691 -109.000000
v -4.000004 33.051666 50.699989
v 4.000000 33.051666 50.699989
v -4.000002 31.051672 13.000002
v 4.000000 31.051672 13.000005
v 21.000000 23.051682 -42.999996
v 21.000000 23.051682 -42.999996
v 21.000000 23.051682 -42.999996
v -20.999994 23.051682 -43.000000
v -20.999994 23.051682 -43.000000
v -20.999994 23.051682 -43.000000
v -8.000013 20.051662 72.700012
v 8.000000 20.051662 72.700012
v -3.999988 0.051686 -73.000000
v -3.999988 0.051686 -73.000000
v -3.999988 0.051686 -73.000000
v 4.000000 0.051686 -73.000000
v 4.000000 0.051686 -73.000000
v 4.000000 0.051686 -73.000000
v -0.000008 0.051662 75.000000
v -0.000008 0.051662 75.000000
vt 0.000000 0.000000
vt 1.000000 0.000000
vt 1.000000 1.000000
vt 0.000000 0.000000
vt 1.000000 1.000000
vt 1.000000 0.000000
vt 1.000000 1.000000
vt 0.000000 0.000000
vt 1.000000 1.000000
vt 0.000000 0.000000
vt 1.000000 0.000000
vt 1.000000 1.000000
vt 0.000000 0.000000
vt 1.000000 1.000000
vt 0.000000 0.000000
vt 1.000000 0.000000
vt 1.000000 1.000000
vt 0.000000 0.000000
vt 1.000000 1.000000
vt 0.000000 0.000000
vt 1.000000 0.000000
vt 1.000000 1.000000
vt 0.000000 0.000000
vt 1.000000 1.000000
vt 0.000000 0.000000
vt 1.000000 0.000000
vt 1.000000 1.000000
vt 0.000000 0.000000
vt 1.000000 0.000000
vt 1.000000 1.000000
vt 0.000000 0.000000
vt 1.000000 0.000000
vt 1.000000 1.000000
vt 0.000000 0.000000
vt 1.000000 0.000000
vt 1.000000 1.000000
vt 0.000000 0.000000
vt 1.000000 0.000000
vt 0.000000 0.000000
vt 1.000000 0.000000
vt 1.000000 1.000000
vt 0.000000 0.000000
vt 1.000000 1.000000
vt 1.000000 1.000000
vt 1.000000 1.000000
vt 1.000000 1.000000
vt 0.000000 0.000000
vt 1.000000 1.000000
vt 0.000000 0.000000
vt 1.000000 0.000000
vt 1.000000 1.000000
vt 1.000000 0.000000
vt 1.000000 1.000000
vt 0.000000 0.000000
vt 1.000000 0.000000
vt 1.000000 0.000000
vt 1.000000 0.000000
vt 0.000000 0.000000
vt 1.000000 0.000000
vt 1.000000 1.000000
vt 0.000000 0.000000
vt 1.000000 1.000000
vt 0.000000 0.000000
vt 1.000000 0.000000
vt 1.000000 1.000000
vt 0.000000 0.000000
vt 1.000000 1.000000
vt 0.000000 0.000000
vt 1.000000 0.000000
vt 1.000000 1.000000
vt 0.000000 0.000000
vt 1.000000 1.000000
vt 0.000000 0.000000
vt 1.000000 0.000000
vt 1.000000 1.000000
vt 0.000000 0.000000
vt 1.000000 1.000000
vt 0.000000 0.000000
vt 1.000000 0.000000
vt 1.000000 1.000000
vt 0.000000 0.000000
vt 1.000000 1.000000
vt 0.000000 0.000000
vt 1.000000 0.000000
vt 1.000000 1.000000
vt 0.000000 0.000000
vt 1.000000 1.000000
vt 0.000000 0.000000
vt 1.000000 0.000000
vt 1.000000 1.000000
vt 0.000000 0.000000
vt 1.000000 1.000000
vt 0.000000 0.000000
vt 1.000000 0.000000
vt 1.000000 1.000000
vt 0.000000 0.000000
vt 1.000000 1.000000
vt 0.000000 0.000000
vt 1.000000 0.000000
vt 1.000000 1.000000
vt 0.000000 0.000000
vt 1.000000 0.000000
vt 1.000000 1.000000
vt 1.000000 0.000000
vt 1.000000 1.000000
vt 1.000000 0.000000
vt 0.000000 0.000000
vt 1.000000 0.000000
vt 0.000000 0.000000
vt 0.000000 0.000000
vt 1.000000 0.000000
vt 0.000000 0.000000
vt 1.000000 1.000000
vt 1.000000 0.000000
vt 0.000000 0.000000
vt 0.000000 0.000000
vt 1.000000 0.000000
vt 1.000000 0.000000
vn -0.1386 0.9900 -0.0245
vn 0.1385 0.9901 -0.0244
vn -0.0534 0.9982 -0.0260
vn 0.0534 0.9982 -0.0260
vn 0.0000 1.0000 0.0000
vn 0.0000 -0.8427 -0.5384
vn 0.8745 -0.2506 0.4153
vn 0.9477 0.2636 0.1799
vn 0.9511 -0.2505 0.1805
vn -0.9477 0.2636 0.1799
vn -0.8756 -0.2472 0.4150
vn -0.9511 -0.2505 0.1805
vn -1.0000 0.0000 0.0000
vn 1.0000 0.0000 0.0000
vn -0.4408 0.8971 0.0286
vn -0.3247 0.9452 -0.0353
vn 0.4407 0.8972 0.0286
vn 0.3797 0.9036 0.1982
vn 0.3247 0.9452 -0.0353
vn -0.3797 0.9036 0.1982
vn -0.7319 0.5339 0.4234
vn 0.0000 0.9687 0.2484
vn 0.7319 0.5338 0.4234
vn -0.0426 0.9991 -0.0001
vn -0.0415 0.9991 0.0103
vn 0.0413 0.9991 0.0104
vn 0.0424 0.9991 0.0001
vn -0.1597 0.9841 -0.0776
vn 0.1597 0.9841 -0.0776
vn 0.8598 -0.1541 0.4869
vn -0.0787 -0.2325 -0.9694
vn 0.0787 -0.2325 -0.9694
vn -0.8598 -0.1541 0.4869
vn 0.9718 -0.2357 0.0009
vn 0.8873 -0.2579 0.3824
vn 0.9718 -0.2356 0.0009
vn -0.2632 0.0635 -0.9626
vn -0.2632 0.0634 -0.9627
vn -0.8900 -0.2501 0.3813
vn -0.9738 -0.2276 -0.0011
vn -0.9738 -0.2274 -0.0009
vn 0.2666 0.0569 -0.9621
vn 0.2664 0.0574 -0.9622
vn 0.2667 0.0568 -0.9621
vn 0.2666 0.0570 -0.9621
vn -0.9219 -0.3088 0.2340
vn -0.9202 -0.3473 0.1806
vn 0.9219 -0.3088 0.2340
vn 0.9202 -0.3473 0.1806
usemtl material_0
f 63/1/1 60/2/2 25/3/3
f 25/4/3 60/2/2 22/5/4
f 25/4/3 22/6/4 51/7/5
f 51/8/5 22/6/4 54/9/5
f 50/10/6 53/11/6 69/12/6
f 69/13/6 53/11/6 72/14/6
f 37/15/7 39/16/8 18/17/7
f 18/18/7 39/16/8 5/19/9
f 38/20/10 43/21/11 4/22/12
f 4/23/12 43/21/11 17/24/11
f 27/25/13 52/26/13 70/27/13
f 24/28/14 73/29/14 55/30/14
f 42/31/15 38/32/10 58/33/16
f 39/34/8 36/35/17 57/36/18
f 36/37/17 59/38/19 57/36/18
f 57/39/18 59/38/19 58/33/16
f 57/39/18 58/40/16 56/41/20
f 56/42/20 58/40/16 38/43/10
f 42/31/15 58/40/16 63/44/1
f 63/1/1 58/40/16 59/45/19
f 63/1/1 59/38/19 60/46/2
f 60/47/2 59/38/19 36/48/17
f 66/49/21 47/50/22 67/51/23
f 63/1/1 44/52/24 40/53/25
f 31/54/26 33/55/27 60/46/2
f 25/4/3 28/56/28 63/44/1
f 60/47/2 19/57/29 22/5/4
f 20/58/30 61/59/30 15/60/30
f 15/61/30 61/59/30 11/62/30
f 23/63/31 21/64/31 71/65/31
f 71/66/31 21/64/31 16/67/31
f 29/68/32 26/69/32 13/70/32
f 13/71/32 26/69/32 68/72/32
f 64/73/33 30/74/33 9/75/33
f 9/76/33 30/74/33 14/77/33
f 34/78/34 32/79/35 7/80/36
f 7/81/36 32/79/35 6/82/35
f 62/83/37 35/84/38 12/85/37
f 12/86/37 35/84/38 8/87/37
f 41/88/39 45/89/40 3/90/39
f 3/91/39 45/89/40 1/92/41
f 46/93/42 65/94/43 2/95/44
f 2/96/44 65/94/43 10/97/45
f 74/98/46 48/99/47 66/100/21
f 75/101/48 67/102/23 49/103/49
f 63/1/1 40/104/25 42/105/15
f 36/37/17 31/106/26 60/46/2
f 32/107/35 37/108/7 6/82/35
f 6/109/35 37/108/7 18/17/7
f 43/110/11 41/111/39 17/24/11
f 17/112/11 41/111/39 3/90/39
f 66/49/21 38/32/10 74/113/46
f 74/98/46 38/32/10 4/22/12
f 75/101/48 5/114/9 67/51/23
f 5/115/9 39/16/8 67/51/23
f 67/116/23 39/16/8 57/36/18
f 67/116/23 57/117/18 66/100/21
f 66/49/21 57/117/18 56/41/20
f 66/49/21 56/118/20 38/43/10
