# Blender v2.79 (sub 0) OBJ File: ''
# www.blender.org
mtllib TRUCK.mtl
v -15.549998 0.000004 -25.049997
v -15.549998 -0.000003 20.100004
v -15.549998 12.000000 -25.049995
v -15.549998 11.999993 20.100006
v 15.549998 0.000004 -25.049997
v 15.549998 -0.000003 20.100004
v 15.549998 12.000000 -25.049995
v 15.549998 11.999993 20.100006
vt 0.000000 0.000000
vt 1.000000 0.000000
vt 1.000000 1.000000
vt 0.000000 0.000000
vt 1.000000 1.000000
vt 0.000000 0.000000
vt 1.000000 0.000000
vt 1.000000 1.000000
vt 0.000000 0.000000
vt 1.000000 0.000000
vt 1.000000 1.000000
vt 0.000000 0.000000
vt 1.000000 0.000000
vt 1.000000 1.000000
vt 0.000000 0.000000
vt 1.000000 1.000000
vt 1.000000 1.000000
vt 1.000000 1.000000
vn 0.5774 0.5774 0.5774
vn 0.5774 0.5774 -0.5774
vn -0.5774 0.5774 0.5774
vn -0.5774 0.5774 -0.5774
vn 0.7071 0.0000 -0.7071
vn 0.7071 -0.0000 0.7071
vn -0.7071 -0.0000 0.7071
vn -0.7071 0.0000 -0.7071
usemtl material_0
s 1
f 8/1/1 7/2/2 4/3/3
f 4/4/3 7/2/2 3/5/4
f 5/6/5 8/7/1 6/8/6
f 6/9/6 8/7/1 4/3/3
f 6/9/6 4/10/3 2/11/7
f 2/12/7 4/10/3 3/5/4
f 2/12/7 3/13/4 1/14/8
f 1/15/8 3/13/4 7/16/2
f 1/15/8 7/2/2 5/17/5
f 5/6/5 7/2/2 8/18/1
