# Blender v2.79 (sub 0) OBJ File: ''
# www.blender.org
mtllib Water.mtl
v -3764.654297 -988.151611 5614.243652
v 7628.591797 -988.151611 5614.243652
v -3764.654297 -988.151367 -5779.004395
v 7628.591797 -988.151367 -5779.004395
v -349.426758 -2332.003418 15353.501953
v 12799.115234 -2332.003418 15353.501953
v -349.426758 -2332.002686 2204.958008
v 12799.115234 -2332.002686 2204.958008
vt 75.500000 -74.500000
vt -74.500000 75.500000
vt -74.500000 -74.500000
vt -105.545731 106.545731
vt 106.545731 -105.545731
vt 106.545731 106.545731
vt -105.545731 -105.545731
vt 75.500000 75.500000
vn 0.0000 1.0000 0.0000
usemtl None
s off
f 2/1/1 3/2/1 1/3/1
f 6/4/1 7/5/1 5/6/1
f 6/4/1 8/7/1 7/5/1
f 2/1/1 4/8/1 3/2/1
