mtllib TripleSpring.mtl
v 22.750004 0.000014 0.000034
v -22.750004 4.370537 0.000035
v -22.750004 0.000014 0.000034
v 22.750004 4.370537 0.000035
v 22.750004 0.00001 11.659969
v -22.750004 4.370533 11.659971
v 22.750004 4.370533 11.659971
v -22.750004 0.00001 11.659969
v -23.667997 9.570544 2.556325
v -22.5 9.521946 -0.965274
v -21.824997 10.679453 0.63564
v -24.400007 8.292694 1.163852
v -24.400007 2.501182 11.195034
v -21.824997 3.237115 13.526137
v -22.5 1.27193 13.324163
v 22.5 1.27193 13.324163
v 21.824997 3.237115 13.526137
v 23.667997 4.346023 11.605453
v 24.400007 8.292694 1.163852
v 21.824997 10.679453 0.63564
v 22.5 9.521946 -0.965274
v 23.667997 9.570544 2.556325
v -23.667997 4.346023 11.605453
v 24.400007 2.501182 11.195034
v -22.261494 10.295782 2.401558
v -20.406368 5.985781 11.474091
v -22.261494 4.574609 12.310909
v -9.275622 5.985781 11.474091
v -7.420498 4.574609 12.310909
v -9.275622 10.276659 4.042077
v -7.420498 10.295782 2.401558
v -20.406368 10.276659 4.042078
v 7.420498 4.574609 12.310909
v 5.565373 10.276659 4.042077
v 7.420498 10.295782 2.401558
v -5.565373 10.276659 4.042077
v -5.565373 5.985781 11.474091
v 5.565373 5.985781 11.474091
v 22.261494 4.574609 12.310909
v 20.406368 10.276659 4.042078
v 22.261494 10.295782 2.401558
v 9.275622 10.276659 4.042077
v 9.275622 5.985781 11.474091
v 20.406368 5.985781 11.474091
v -14.840996 8.764817 8.12389
v 0 8.764817 8.12389
v 14.840996 8.764817 8.12389
v 0.01697 0.242646 7.186375
v -3.875032 6.483562 7.649885
v 0.01697 5.082036 10.0774
v -3.875032 1.644169 4.758865
v 2.384415 3.937997 0.785844
v 3.885519 6.499701 7.62193
v 2.384415 8.777405 3.676857
v 3.885519 1.660308 4.730911
v -2.411872 8.767431 3.694134
v -2.411872 3.928022 0.803121
v 14.816971 0.242646 7.186375
v 10.924968 6.483562 7.649885
v 14.816971 5.082036 10.0774
v 10.924968 1.644169 4.758865
v 17.184414 3.937997 0.785844
v 18.68552 6.499701 7.62193
v 17.184414 8.777405 3.676857
v 18.68552 1.660308 4.730911
v 12.388128 8.767431 3.694134
v 12.388128 3.928022 0.803121
v -14.683032 0.242646 7.186375
v -18.575035 6.483562 7.649885
v -14.683032 5.082036 10.0774
v -18.575035 1.644169 4.758865
v -12.315588 3.937997 0.785844
v -10.814484 6.499701 7.62193
v -12.315588 8.777405 3.676857
v -10.814484 1.660308 4.730911
v -17.111876 8.767431 3.694134
v -17.111876 3.928022 0.803121
vt 4.015687 0
vt 0 0.501961
vt 0 0
vt 4.015687 0.501961
vt 2.196079 0
vt 0.815686 0.501961
vt 0.815686 0
vt 2.196079 0.501961
vt 0.584314 0.831373
vt 0.047059 0.831373
vt 0.52549 0.501961
vt 2.486275 0.501961
vt 2.964706 0.831373
vt 3.011765 0.501961
vt 2.427451 0.831373
vt 5.019608 0.501961
vt 0.078431 0.831373
vt 4.941177 0.831373
vt 1.505883 0
vt 0.501961 0.501961
vt 0.501961 0
vt 1.505883 0.501961
vt 0.996256 0.991603
vt 0.86975 0.118623
vt 0.996256 0.000022
vt 0.126526 0.118623
vt 0.00002 0.000022
vt 0.118618 0.880909
vt 0.00002 0.991603
vt 0.877658 0.880909
vt 0.498139 0.466516
vt 0.627451 0.25098
vt 0.505882 0.070588
vt 0.745098 0.070588
vt 0.745098 0.25098
vt 0.505882 0.25098
vt 0 0.247059
vt 0.25098 0.533333
vt 0 0.533333
vt 0.25098 0.247059
vn 0.0000 -0.0000 1.0000
vn 0.0000 0.0000 -1.0000
vn -1.0000 0.0000 0.0000
vn 1.0000 -0.0000 0.0000
vn 0.6984 -0.6962 -0.1663
vn 0.3998 -0.8095 0.4299
vn 0.2568 -0.9447 0.2039
vn 0.8416 -0.5376 0.0510
vn 0.8337 -0.2301 -0.5020
vn 0.2641 -0.2939 -0.9187
vn 0.4045 -0.0450 -0.9134
vn -0.3998 -0.0325 -0.9160
vn -0.2568 -0.2958 -0.9201
vn -0.6984 -0.4921 -0.5197
vn -0.8337 -0.5498 0.0517
vn -0.2641 -0.9425 0.2048
vn -0.4045 -0.8136 0.4177
vn -0.6988 -0.6974 -0.1593
vn 0.6988 -0.4866 -0.5243
vn -0.8416 -0.2247 -0.4911
vn 0.0000 -1.0000 -0.0000
vn 0.2875 -0.9257 -0.2459
vn 0.1674 -0.7227 -0.6705
vn 0.2875 -0.6758 -0.6787
vn -0.1674 -0.7227 -0.6705
vn 0.0000 -0.7285 -0.6851
vn -0.1674 -0.9421 -0.2906
vn 0.0000 -0.9575 -0.2884
vn 0.1674 -0.9421 -0.2906
vn -0.2875 -0.6758 -0.6787
vn -0.2875 -0.9257 -0.2459
vn 0.0000 -0.8660 -0.5000
vn 0.5844 0.4162 -0.6966
vn -0.9498 -0.1605 0.2687
vn -0.5911 0.4137 -0.6924
vn 0.9523 -0.1565 0.2619
vn 0.0042 -0.5128 0.8585
usemtl Mesh_1278.rip
f 1/1/1 2/2/1 3/3/1
f 2/2/1 1/1/1 4/4/1
f 5/3/2 6/4/2 7/2/2
f 6/4/2 5/3/2 8/1/2
f 5/5/3 4/6/3 1/7/3
f 4/6/3 5/5/3 7/8/3
f 3/5/4 6/6/4 8/7/4
f 6/6/4 3/5/4 2/8/4
usemtl Mesh_1277.rip_Tex_0133_0.dds
f 39/32/30 18/33/14 17/34/13
f 41/35/31 11/33/7 20/34/16
f 11/33/7 41/35/31 25/36/22
f 25/35/22 23/33/19 9/34/5
f 23/33/19 25/35/22 27/36/24
f 41/32/31 20/33/16 22/34/18
f 27/35/24 17/33/13 14/34/10
f 17/33/13 27/35/24 39/36/30
f 27/32/24 14/33/10 23/34/19
f 39/35/30 22/33/18 18/34/14
f 22/33/18 39/35/30 41/36/31
f 25/32/22 9/33/5 11/34/7
f 48/37/33 49/38/33 50/39/33
f 49/38/33 48/37/33 51/40/33
f 52/37/34 53/38/34 54/39/34
f 53/38/34 52/37/34 55/40/34
f 55/37/35 50/38/35 53/39/35
f 50/38/35 55/37/35 48/40/35
f 51/37/36 56/38/36 49/39/36
f 56/38/36 51/37/36 57/40/36
f 57/37/37 54/38/37 56/39/37
f 54/38/37 57/37/37 52/40/37
f 58/37/33 59/38/33 60/39/33
f 59/38/33 58/37/33 61/40/33
f 62/37/34 63/38/34 64/39/34
f 63/38/34 62/37/34 65/40/34
f 65/37/35 60/38/35 63/39/35
f 60/38/35 65/37/35 58/40/35
f 61/37/36 66/38/36 59/39/36
f 66/38/36 61/37/36 67/40/36
f 67/37/37 64/38/37 66/39/37
f 64/38/37 67/37/37 62/40/37
f 68/37/33 69/38/33 70/39/33
f 69/38/33 68/37/33 71/40/33
f 72/37/34 73/38/34 74/39/34
f 73/38/34 72/37/34 75/40/34
f 75/37/35 70/38/35 73/39/35
f 70/38/35 75/37/35 68/40/35
f 71/37/36 76/38/36 69/39/36
f 76/38/36 71/37/36 77/40/36
f 77/37/37 74/38/37 76/39/37
f 74/38/37 77/37/37 72/40/37
usemtl Mesh_1282.rip
f 9/9/5 10/2/6 11/10/7
f 9/9/5 12/11/8 10/2/6
f 13/12/9 14/13/10 15/14/11
f 16/2/12 17/10/13 18/9/14
f 19/12/15 20/13/16 21/14/17
f 19/12/15 22/15/18 20/13/16
f 16/16/12 14/17/10 17/18/13
f 14/17/10 16/16/12 15/2/11
f 10/16/6 20/17/16 11/18/7
f 20/17/16 10/16/6 21/2/17
f 12/11/8 9/9/5 13/12/9
f 9/9/5 23/15/19 13/12/9
f 13/12/9 23/15/19 14/13/10
f 22/15/18 19/12/15 18/9/14
f 19/12/15 24/11/20 18/9/14
f 18/9/14 24/11/20 16/2/12
usemtl Mesh_1279.rip
f 4/19/21 6/20/21 2/21/21
f 6/20/21 4/19/21 7/22/21
usemtl Mesh_1277.rip
f 25/23/22 26/24/23 27/25/24
f 26/24/23 28/26/25 27/25/24
f 27/25/24 28/26/25 29/27/26
f 28/26/25 30/28/27 29/27/26
f 29/27/26 30/28/27 31/29/28
f 30/28/27 32/30/29 31/29/28
f 31/29/28 32/30/29 25/23/22
f 32/30/29 26/24/23 25/23/22
f 33/27/26 34/28/27 35/29/28
f 34/28/27 36/30/29 35/29/28
f 35/29/28 36/30/29 31/23/28
f 36/30/29 37/24/23 31/23/28
f 31/23/28 37/24/23 29/25/26
f 37/24/23 38/26/25 29/25/26
f 29/25/26 38/26/25 33/27/26
f 38/26/25 34/28/27 33/27/26
f 39/27/30 40/28/27 41/29/31
f 40/28/27 42/30/29 41/29/31
f 41/29/31 42/30/29 35/23/28
f 42/30/29 43/24/23 35/23/28
f 35/23/28 43/24/23 33/25/26
f 43/24/23 44/26/25 33/25/26
f 33/25/26 44/26/25 39/27/30
f 44/26/25 40/28/27 39/27/30
f 26/24/23 32/30/29 45/31/32
f 32/30/29 30/28/27 45/31/32
f 45/31/32 30/28/27 28/26/25
f 38/26/25 37/24/23 46/31/32
f 37/24/23 36/30/29 46/31/32
f 46/31/32 36/30/29 34/28/27
f 43/24/23 42/30/29 47/31/32
f 42/30/29 40/28/27 47/31/32
f 47/31/32 40/28/27 44/26/25
f 43/24/23 47/31/32 44/26/25
f 26/24/23 45/31/32 28/26/25
f 34/28/27 38/26/25 46/31/32
