mtllib Collision.mtl
v -95.506577 194.999847 492.40387
v 95.506378 194.999847 492.403931
v -0.000095 97.499832 492.403931
v -549.999878 195 0.000007
v -533.415405 97.499969 85.504997
v -549.999878 0 -0.000057
v -516.830872 -0.000056 171.009979
v -516.830872 194.999939 171.01004
v -469.077606 97.499908 246.20192
v -421.324432 194.999908 321.393799
v -421.324432 -0.000104 321.393738
v -348.162231 97.499878 377.203247
v -275 -0.000142 433.012634
v -275 194.999847 433.012695
v -185.253296 97.499832 462.708282
v -95.506577 -0.00016 492.403809
v 95.506378 -0.00016 492.40387
v 274.999969 -99.999992 -165.000015
v 275 30.000002 -15.000009
v 275 -100 -15.000009
v 275.000031 30.000002 134.999985
v 275.000031 -100 134.999985
v 255.000031 30.000002 134.999985
v 134.999939 30.000002 -165.000122
v 134.999985 -100 -14.999972
v 134.999969 30.000002 -15.000003
v 135 -100 135.000107
v 135 30.000002 135.000092
v 134.999969 -99.999992 -165.000061
v 254.999969 30.000002 -165.000015
v 255 30.000002 -15.000005
v 274.999969 30.000002 -165.000015
v 255 40 14.999995
v 275 30.000004 14.999991
v 275 40 14.999991
v 275 30.000002 -45.000011
v 254.999985 40 -105.000008
v 275 30.000002 -105.000008
v 275 40 -105.000008
v 255.000031 40 134.999985
v 255.000015 40.000004 74.999992
v 275.000031 40 134.999985
v 275 40.000004 74.999992
v 275 30.000004 74.999992
v 255.000015 30.000004 74.999992
v 255 30.000004 14.999993
v 255 40.000004 -45.000004
v 275 40.000004 -45.000008
v 255 30.000002 -45.000008
v 254.999985 30.000002 -105.000008
v 254.999969 40.000004 -165.000015
v 274.999969 40.000004 -165.000015
v -275 -100.000046 134.999969
v -275 30.000002 -14.99999
v -275 -100 -15.000032
v -275 30.000051 -165
v -275 -99.999947 -165.000031
v -255 30.000051 -165
v -134.999969 29.999952 135.000122
v -134.999985 -100 -15.000048
v -134.999969 30.000002 -14.999975
v -134.999985 -99.999947 -165.000122
v -134.999969 30.000051 -165.000092
v -134.999985 -100.000046 135.000046
v -255 29.999952 135
v -255 30.000002 -14.99999
v -275 29.999952 135
v -255 40.000011 -44.999985
v -275 30.000013 -44.999989
v -275 40.000011 -44.999985
v -275 29.999992 15.00001
v -255 39.999973 75.000015
v -275 29.999973 75.000015
v -275 39.999973 75.000015
v -255 40.00005 -165
v -255 40.000031 -104.999985
v -275 40.00005 -165
v -275 40.000031 -104.999985
v -275 30.000032 -104.999985
v -255 30.000032 -104.999985
v -255 30.000013 -44.999989
v -255 39.999992 15.000012
v -275 39.999992 15.000012
v -255 29.999992 15.00001
v -255 29.999973 75.000015
v -255 39.999954 135
v -275 39.999954 135
v 50 30.000027 -135
v -50 30.000027 -135
v 50 -89.999977 -135.000031
v -50 -89.999977 -135.000031
v 50 -89.999954 -185.000031
v 50 30.000042 -185
v -50 30.000042 -185
v -50 -89.999954 -185.000031
v -100 -79.999924 -345
v -100 -79.999977 -185.000031
v -100 50.000084 -345
v 100 50.000031 -184.999985
v 92 50.000031 -192.999985
v 25 50.000031 -192.999985
v 25 30.000031 -193
v 92 30.000031 -193
v -92 50.000031 -192.999985
v -100 50.000031 -184.999985
v -25 50.000031 -184.999985
v -25 30.000031 -185
v -25 30.000031 -193
v 25 30.000031 -185
v 25 50.000031 -184.999985
v 100 -79.999977 -185.000031
v -92 30.000031 -193
v -25 50.000031 -192.999985
v 0 30.00008 -339
v 92 30.00008 -339
v 0 50.000076 -339
v 92 50.000076 -339
v 0 50.000084 -345
v 100 50.000084 -345
v 0 -79.999924 -345
v 100 -79.999924 -345
v -92 50.000076 -339
v -92 30.00008 -339
v 0 -79.999977 -185.000031
v -95.506447 195.000153 -492.403748
v -274.999908 195.000153 -433.012604
v -185.253174 97.500153 -462.70816
v -421.324341 195.000092 -321.393738
v -516.830811 195.000061 -171.010025
v -469.077576 97.500076 -246.201904
v -549.999878 0 -0.000057
v -533.415344 97.500031 -85.505043
v -549.999878 195 0.000007
v -516.830811 0.000056 -171.010086
v -421.324341 0.000104 -321.393799
v -348.162079 97.500137 -377.203186
v -274.999908 0.000142 -433.012665
v -95.506447 0.00016 -492.403809
v 549.999939 195 0.000064
v 516.830872 195.000061 -171.01001
v 533.415405 97.500031 -85.505005
v 421.324402 0.000104 -321.393768
v 516.830872 0.000056 -171.010071
v 469.077606 97.500076 -246.201874
v 421.324402 195.000092 -321.393707
v 274.999969 195.000153 -433.012604
v 348.16217 97.50013 -377.203156
v 549.999939 0 0
v 274.999969 0.000142 -433.012665
v 185.253235 97.500153 -462.70816
v 95.506508 195.000153 -492.403748
v 95.506508 0.00016 -492.403809
v 0.000031 97.500168 -492.403748
v -95.506447 0.00016 -492.403809
v -95.506447 195.000153 -492.403748
v 274.999878 194.999847 433.012787
v 421.324341 194.999908 321.393921
v 348.162079 97.499878 377.203369
v 95.506378 -0.00016 492.40387
v 95.506378 194.999847 492.403931
v 185.253128 97.499847 462.708374
v 274.999878 -0.000142 433.012726
v 421.324341 -0.000104 321.39386
v 469.077576 97.499924 246.202042
v 516.830811 194.999939 171.010239
v 516.830811 -0.000056 171.010178
v 533.415405 97.499969 85.505119
v 549.999939 0 0
v 549.999939 195 0.000064
vt 0 0
vt 1 0
vt 1 1
vn 0.0000 -0.0000 -1.0000
vn 0.9817 0.0000 -0.1904
vn 0.8441 0.0000 -0.5361
vn 0.8442 0.0000 -0.5361
vn 0.6065 0.0000 -0.7951
vn 0.3141 0.0000 -0.9494
vn 1.0000 0.0000 -0.0000
vn 0.0000 0.0000 1.0000
vn -1.0000 -0.0000 0.0000
vn 0.0000 1.0000 0.0000
vn 0.3141 0.0000 0.9494
vn 0.8441 -0.0000 0.5361
vn 0.9817 -0.0000 0.1904
vn 0.8442 -0.0000 0.5361
vn 0.6065 -0.0000 0.7951
vn -0.9817 0.0000 0.1904
vn -0.8441 -0.0000 0.5361
vn -0.6065 0.0000 0.7951
vn -0.8442 0.0000 0.5361
vn -0.3141 -0.0000 0.9494
vn -0.6065 0.0000 -0.7951
vn -0.3141 0.0000 -0.9494
vn -0.8441 0.0000 -0.5361
vn -0.8442 0.0000 -0.5361
vn -0.9817 0.0000 -0.1904
usemtl Shape.2679
f 1/1/1 2/2/1 3/3/1
f 4/1/2 5/2/2 6/3/2
f 6/1/2 5/2/2 7/3/2
f 5/1/2 8/2/2 7/3/2
f 7/1/3 8/2/3 9/3/3
f 8/1/4 10/2/4 9/3/4
f 9/1/4 10/2/4 11/3/4
f 10/1/5 12/2/5 11/3/5
f 11/1/5 12/2/5 13/3/5
f 12/1/5 14/2/5 13/3/5
f 13/1/6 14/2/6 15/3/6
f 14/1/6 1/2/6 15/3/6
f 15/1/6 1/2/6 16/3/6
f 1/1/1 3/2/1 16/3/1
f 16/1/1 3/2/1 17/3/1
f 3/1/1 2/2/1 17/3/1
f 9/1/4 11/2/4 7/3/4
f 15/1/6 16/2/6 13/3/6
f 4/1/2 8/2/2 5/3/2
f 10/1/5 14/2/5 12/3/5
f 18/1/7 19/2/7 20/3/7
f 19/1/7 21/2/7 20/3/7
f 20/1/7 21/2/7 22/3/7
f 21/1/8 23/2/8 22/3/8
f 24/1/9 25/2/9 26/3/9
f 25/1/9 27/2/9 26/3/9
f 26/1/9 27/2/9 28/3/9
f 25/1/9 24/2/9 29/3/9
f 29/1/1 24/2/1 30/3/1
f 24/1/10 26/2/10 30/3/10
f 30/1/10 26/2/10 31/3/10
f 26/1/10 28/2/10 31/3/10
f 31/1/10 28/2/10 23/3/10
f 28/1/8 27/2/8 23/3/8
f 23/1/8 27/2/8 22/3/8
f 29/1/1 30/2/1 18/3/1
f 30/1/1 32/2/1 18/3/1
f 18/1/7 32/2/7 19/3/7
f 33/1/8 34/2/8 35/3/8
f 34/1/7 36/2/7 35/3/7
f 37/1/8 38/2/8 39/3/8
f 38/1/7 32/2/7 39/3/7
f 21/1/8 40/2/8 23/3/8
f 23/1/9 40/2/9 41/3/9
f 40/1/10 42/2/10 41/3/10
f 41/1/10 42/2/10 43/3/10
f 42/1/7 44/2/7 43/3/7
f 43/1/1 44/2/1 45/3/1
f 44/1/10 34/2/10 45/3/10
f 45/1/10 34/2/10 46/3/10
f 34/1/8 33/2/8 46/3/8
f 46/1/9 33/2/9 47/3/9
f 33/1/10 35/2/10 47/3/10
f 47/1/10 35/2/10 48/3/10
f 35/1/7 36/2/7 48/3/7
f 48/1/1 36/2/1 49/3/1
f 36/1/10 38/2/10 49/3/10
f 49/1/10 38/2/10 50/3/10
f 38/1/8 37/2/8 50/3/8
f 50/1/9 37/2/9 51/3/9
f 37/1/10 39/2/10 51/3/10
f 51/1/10 39/2/10 52/3/10
f 39/1/7 32/2/7 52/3/7
f 52/1/1 32/2/1 30/3/1
f 40/1/8 21/2/8 42/3/8
f 21/1/7 44/2/7 42/3/7
f 52/1/1 30/2/1 51/3/1
f 30/1/9 50/2/9 51/3/9
f 43/1/1 45/2/1 41/3/1
f 45/1/9 23/2/9 41/3/9
f 48/1/1 49/2/1 47/3/1
f 49/1/9 46/2/9 47/3/9
f 53/1/9 54/2/9 55/3/9
f 54/1/9 56/2/9 55/3/9
f 55/1/9 56/2/9 57/3/9
f 56/1/1 58/2/1 57/3/1
f 59/1/7 60/2/7 61/3/7
f 60/1/7 62/2/7 61/3/7
f 61/1/7 62/2/7 63/3/7
f 60/1/7 59/2/7 64/3/7
f 64/1/8 59/2/8 65/3/8
f 59/1/10 61/2/10 65/3/10
f 65/1/10 61/2/10 66/3/10
f 61/1/10 63/2/10 66/3/10
f 66/1/10 63/2/10 58/3/10
f 63/1/1 62/2/1 58/3/1
f 58/1/1 62/2/1 57/3/1
f 64/1/8 65/2/8 53/3/8
f 65/1/8 67/2/8 53/3/8
f 53/1/9 67/2/9 54/3/9
f 68/1/1 69/2/1 70/3/1
f 69/1/9 71/2/9 70/3/9
f 72/1/1 73/2/1 74/3/1
f 73/1/9 67/2/9 74/3/9
f 56/1/1 75/2/1 58/3/1
f 58/1/7 75/2/7 76/3/7
f 75/1/10 77/2/10 76/3/10
f 76/1/10 77/2/10 78/3/10
f 77/1/9 79/2/9 78/3/9
f 78/1/8 79/2/8 80/3/8
f 79/1/10 69/2/10 80/3/10
f 80/1/10 69/2/10 81/3/10
f 69/1/1 68/2/1 81/3/1
f 81/1/7 68/2/7 82/3/7
f 68/1/10 70/2/10 82/3/10
f 82/1/10 70/2/10 83/3/10
f 70/1/9 71/2/9 83/3/9
f 83/1/8 71/2/8 84/3/8
f 71/1/10 73/2/10 84/3/10
f 84/1/10 73/2/10 85/3/10
f 73/1/1 72/2/1 85/3/1
f 85/1/7 72/2/7 86/3/7
f 72/1/10 74/2/10 86/3/10
f 86/1/10 74/2/10 87/3/10
f 74/1/9 67/2/9 87/3/9
f 87/1/8 67/2/8 65/3/8
f 75/1/1 56/2/1 77/3/1
f 56/1/9 79/2/9 77/3/9
f 87/1/8 65/2/8 86/3/8
f 65/1/7 85/2/7 86/3/7
f 78/1/8 80/2/8 76/3/8
f 80/1/7 58/2/7 76/3/7
f 83/1/8 84/2/8 82/3/8
f 84/1/7 81/2/7 82/3/7
f 88/1/8 89/2/8 90/3/8
f 89/1/8 91/2/8 90/3/8
f 90/1/7 92/2/7 88/3/7
f 92/1/7 93/2/7 88/3/7
f 88/1/10 93/2/10 89/3/10
f 93/1/10 94/2/10 89/3/10
f 89/1/9 94/2/9 91/3/9
f 94/1/9 95/2/9 91/3/9
f 96/1/9 97/2/9 98/3/9
f 99/1/10 100/2/10 101/3/10
f 101/1/1 100/2/1 102/3/1
f 100/1/1 103/2/1 102/3/1
f 104/1/10 105/2/10 106/3/10
f 105/1/8 107/2/8 106/3/8
f 108/1/10 109/2/10 102/3/10
f 102/1/9 109/2/9 101/3/9
f 109/1/9 110/2/9 101/3/9
f 101/1/10 110/2/10 99/3/10
f 110/1/8 109/2/8 99/3/8
f 99/1/8 109/2/8 111/3/8
f 108/1/1 112/2/1 113/3/1
f 114/1/8 115/2/8 116/3/8
f 115/1/8 117/2/8 116/3/8
f 116/1/10 117/2/10 118/3/10
f 117/1/10 119/2/10 118/3/10
f 118/1/1 119/2/1 120/3/1
f 119/1/1 121/2/1 120/3/1
f 114/1/8 116/2/8 122/3/8
f 122/1/10 116/2/10 98/3/10
f 116/1/10 118/2/10 98/3/10
f 98/1/1 118/2/1 96/3/1
f 118/1/1 120/2/1 96/3/1
f 114/1/8 122/2/8 123/3/8
f 123/1/7 122/2/7 104/3/7
f 122/1/10 98/2/10 104/3/10
f 104/1/10 98/2/10 105/3/10
f 98/1/9 97/2/9 105/3/9
f 105/1/8 97/2/8 107/3/8
f 97/1/8 124/2/8 107/3/8
f 111/1/8 109/2/8 124/3/8
f 124/1/8 109/2/8 107/3/8
f 109/1/10 108/2/10 107/3/10
f 107/1/7 108/2/7 106/3/7
f 108/1/7 113/2/7 106/3/7
f 106/1/10 113/2/10 104/3/10
f 113/1/1 112/2/1 104/3/1
f 104/1/7 112/2/7 123/3/7
f 112/1/10 108/2/10 123/3/10
f 123/1/10 108/2/10 114/3/10
f 108/1/10 102/2/10 114/3/10
f 114/1/10 102/2/10 115/3/10
f 102/1/10 103/2/10 115/3/10
f 115/1/9 103/2/9 117/3/9
f 103/1/9 100/2/9 117/3/9
f 117/1/10 100/2/10 119/3/10
f 100/1/10 99/2/10 119/3/10
f 119/1/7 99/2/7 121/3/7
f 99/1/7 111/2/7 121/3/7
f 125/1/11 126/2/11 127/3/11
f 128/1/12 129/2/12 130/3/12
f 131/1/13 132/2/13 133/3/13
f 133/1/13 132/2/13 129/3/13
f 132/1/13 134/2/13 129/3/13
f 129/1/12 134/2/12 130/3/12
f 134/1/12 135/2/12 130/3/12
f 130/1/14 135/2/14 128/3/14
f 135/1/15 136/2/15 128/3/15
f 128/1/15 136/2/15 126/3/15
f 136/1/15 137/2/15 126/3/15
f 126/1/11 137/2/11 127/3/11
f 137/1/11 138/2/11 127/3/11
f 127/1/11 138/2/11 125/3/11
f 136/1/15 135/2/15 137/3/15
f 132/1/13 131/2/13 134/3/13
f 139/1/16 140/2/16 141/3/16
f 142/1/17 143/2/17 144/3/17
f 145/1/18 146/2/18 147/3/18
f 139/1/16 141/2/16 148/3/16
f 148/1/16 141/2/16 143/3/16
f 141/1/16 140/2/16 143/3/16
f 143/1/17 140/2/17 144/3/17
f 140/1/17 145/2/17 144/3/17
f 144/1/19 145/2/19 142/3/19
f 145/1/18 147/2/18 142/3/18
f 142/1/18 147/2/18 149/3/18
f 147/1/18 146/2/18 149/3/18
f 149/1/20 146/2/20 150/3/20
f 146/1/20 151/2/20 150/3/20
f 150/1/20 151/2/20 152/3/20
f 151/1/8 153/2/8 152/3/8
f 152/1/8 153/2/8 154/3/8
f 153/1/8 155/2/8 154/3/8
f 152/1/20 149/2/20 150/3/20
f 151/1/8 155/2/8 153/3/8
f 156/1/21 157/2/21 158/3/21
f 159/1/22 160/2/22 161/3/22
f 160/1/22 156/2/22 161/3/22
f 161/1/22 156/2/22 162/3/22
f 156/1/21 158/2/21 162/3/21
f 162/1/21 158/2/21 163/3/21
f 158/1/21 157/2/21 163/3/21
f 163/1/23 157/2/23 164/3/23
f 157/1/24 165/2/24 164/3/24
f 164/1/23 165/2/23 166/3/23
f 165/1/25 167/2/25 166/3/25
f 166/1/25 167/2/25 168/3/25
f 167/1/25 169/2/25 168/3/25
f 161/1/22 162/2/22 159/3/22
f 166/1/23 163/2/23 164/3/23
f 165/1/25 169/2/25 167/3/25
