# Blender v2.79 (sub 0) OBJ File: ''
# www.blender.org
mtllib LightCylinder.mtl
v 0.000000 -1.000000 -1.000000
v 0.000000 1.000000 -1.000000
v 0.382683 -1.000000 -0.923880
v 0.382683 1.000000 -0.923880
v 0.707107 -1.000000 -0.707107
v 0.707107 1.000000 -0.707107
v 0.923880 -1.000000 -0.382683
v 0.923880 1.000000 -0.382683
v 1.000000 -1.000000 0.000000
v 1.000000 1.000000 0.000000
v 0.923880 -1.000000 0.382684
v 0.923880 1.000000 0.382684
v 0.707107 -1.000000 0.707107
v 0.707107 1.000000 0.707107
v 0.382683 -1.000000 0.923880
v 0.382683 1.000000 0.923880
v 0.000000 -1.000000 1.000000
v 0.000000 1.000000 1.000000
v -0.382683 -1.000000 0.923880
v -0.382683 1.000000 0.923880
v -0.707107 -1.000000 0.707107
v -0.707107 1.000000 0.707107
v -0.923880 -1.000000 0.382684
v -0.923880 1.000000 0.382684
v -1.000000 -1.000000 -0.000000
v -1.000000 1.000000 -0.000000
v -0.923879 -1.000000 -0.382684
v -0.923879 1.000000 -0.382684
v -0.707107 -1.000000 -0.707107
v -0.707107 1.000000 -0.707107
v -0.382683 -1.000000 -0.923880
v -0.382683 1.000000 -0.923880
vt 3.000000 1.000000
vt 2.812500 0.000000
vt 3.000000 0.000000
vt 2.812500 1.000000
vt 2.625000 0.000000
vt 2.625000 1.000000
vt 2.437500 0.000000
vt 2.437500 1.000000
vt 2.250000 0.000000
vt 2.250000 1.000000
vt 2.062500 0.000000
vt 2.062500 1.000000
vt 1.875000 0.000000
vt 1.875000 1.000000
vt 1.687500 0.000000
vt 1.687500 1.000000
vt 1.500000 0.000000
vt 1.500000 1.000000
vt 1.312500 0.000000
vt 1.312500 1.000000
vt 1.125000 0.000000
vt 1.125000 1.000000
vt 0.937500 0.000000
vt 0.937500 1.000000
vt 0.750000 0.000000
vt 0.750000 1.000000
vt 0.562500 0.000000
vt 0.562500 1.000000
vt 0.375000 0.000000
vt 0.339411 0.339411
vt -0.339411 0.339411
vt -0.339411 -0.339411
vt 0.375000 1.000000
vt 0.187500 0.000000
vt 0.187500 1.000000
vt 0.000000 0.000000
vt 1.443462 0.183688
vt 1.183688 -0.443462
vt 0.556538 -0.183688
vt 0.183688 0.443462
vt 0.000000 0.480000
vt -0.183688 0.443462
vt -0.443462 0.183688
vt -0.480000 0.000000
vt -0.443462 -0.183688
vt -0.183688 -0.443462
vt 0.000000 -0.480000
vt 0.183688 -0.443462
vt 0.339411 -0.339411
vt 0.443462 -0.183688
vt 0.480000 0.000000
vt 0.443462 0.183688
vt 0.000000 1.000000
vt 0.816312 0.443462
vt 1.000000 0.480000
vt 1.183688 0.443462
vt 1.339411 0.339411
vt 1.480000 0.000000
vt 1.443462 -0.183688
vt 1.339411 -0.339411
vt 1.000000 -0.480000
vt 0.816312 -0.443462
vt 0.660589 -0.339411
vt 0.520000 0.000000
vt 0.556538 0.183688
vt 0.660589 0.339411
vn 0.1951 0.0000 -0.9808
vn 0.5556 0.0000 -0.8315
vn 0.8315 0.0000 -0.5556
vn 0.9808 0.0000 -0.1951
vn 0.9808 0.0000 0.1951
vn 0.8315 0.0000 0.5556
vn 0.5556 0.0000 0.8315
vn 0.1951 0.0000 0.9808
vn -0.1951 0.0000 0.9808
vn -0.5556 0.0000 0.8315
vn -0.8315 0.0000 0.5556
vn -0.9808 0.0000 0.1951
vn -0.9808 0.0000 -0.1951
vn -0.8315 0.0000 -0.5556
vn 0.0000 1.0000 -0.0000
vn -0.5556 0.0000 -0.8315
vn -0.1951 0.0000 -0.9808
vn 0.0000 -1.0000 0.0000
usemtl None
s off
f 2/1/1 3/2/1 1/3/1
f 4/4/2 5/5/2 3/2/2
f 6/6/3 7/7/3 5/5/3
f 8/8/4 9/9/4 7/7/4
f 10/10/5 11/11/5 9/9/5
f 12/12/6 13/13/6 11/11/6
f 14/14/7 15/15/7 13/13/7
f 16/16/8 17/17/8 15/15/8
f 18/18/9 19/19/9 17/17/9
f 20/20/10 21/21/10 19/19/10
f 22/22/11 23/23/11 21/21/11
f 24/24/12 25/25/12 23/23/12
f 26/26/13 27/27/13 25/25/13
f 28/28/14 29/29/14 27/27/14
f 6/30/15 30/31/15 22/32/15
f 30/33/16 31/34/16 29/29/16
f 32/35/17 1/36/17 31/34/17
f 7/37/18 15/38/18 23/39/18
f 2/1/1 4/4/1 3/2/1
f 4/4/2 6/6/2 5/5/2
f 6/6/3 8/8/3 7/7/3
f 8/8/4 10/10/4 9/9/4
f 10/10/5 12/12/5 11/11/5
f 12/12/6 14/14/6 13/13/6
f 14/14/7 16/16/7 15/15/7
f 16/16/8 18/18/8 17/17/8
f 18/18/9 20/20/9 19/19/9
f 20/20/10 22/22/10 21/21/10
f 22/22/11 24/24/11 23/23/11
f 24/24/12 26/26/12 25/25/12
f 26/26/13 28/28/13 27/27/13
f 28/28/14 30/33/14 29/29/14
f 6/30/15 4/40/15 2/41/15
f 2/41/15 32/42/15 30/31/15
f 30/31/15 28/43/15 26/44/15
f 26/44/15 24/45/15 22/32/15
f 22/32/15 20/46/15 18/47/15
f 18/47/15 16/48/15 14/49/15
f 14/49/15 12/50/15 10/51/15
f 10/51/15 8/52/15 14/49/15
f 8/52/15 6/30/15 14/49/15
f 6/30/15 2/41/15 30/31/15
f 30/31/15 26/44/15 22/32/15
f 22/32/15 18/47/15 6/30/15
f 18/47/15 14/49/15 6/30/15
f 30/33/16 32/35/16 31/34/16
f 32/35/17 2/53/17 1/36/17
f 31/54/18 1/55/18 3/56/18
f 3/56/18 5/57/18 31/54/18
f 5/57/18 7/37/18 31/54/18
f 7/37/18 9/58/18 11/59/18
f 11/59/18 13/60/18 7/37/18
f 13/60/18 15/38/18 7/37/18
f 15/38/18 17/61/18 23/39/18
f 17/61/18 19/62/18 23/39/18
f 19/62/18 21/63/18 23/39/18
f 23/39/18 25/64/18 27/65/18
f 27/65/18 29/66/18 31/54/18
f 23/39/18 27/65/18 31/54/18
f 31/54/18 7/37/18 23/39/18
