mtllib ItemBoxShell.mtl
v 2.069732 13.191489 -3.584879
v -2.712177 10.934169 -4.697625
v -2.069732 13.191489 -3.584879
v -5.424353 10.934168 0.000003
v -4.139464 13.191488 0.000003
v -2.712176 10.934167 4.697629
v -2.069731 13.191487 3.584883
v 2.712177 10.934167 4.697628
v 2.069733 13.191487 3.584882
v 5.424353 10.934168 0.000002
v 4.139464 13.191488 0.000002
v 2.712176 10.934169 -4.697625
v -5.384272 7.383408 0.000002
v -2.692136 7.383409 -4.662914
v 2.692136 7.383409 -4.662914
v 5.384272 7.383408 0.000001
v 2.692137 7.383407 4.662915
v -2.692135 7.383407 4.662918
v 2.069733 2.615515 3.584881
v -2.069731 2.615515 3.584882
v -4.139464 2.615515 0.000001
v -2.069732 2.615515 -3.584881
v 2.069732 2.615515 -3.584881
v 4.139464 2.615515 0.000000
vt 0.559199 0.819976
vt 0.618399 0.683385
vt 0.618399 0.819976
vt 0.677598 0.683385
vt 0.677598 0.819976
vt 0.322402 0.683385
vt 0.381601 0.683385
vt 0.322402 0.819976
vt 0.381601 0.819976
vt 0.440801 0.683385
vt 0.440801 0.819976
vt 0.500000 0.683385
vt 0.500000 0.819976
vt 0.559199 0.683385
vt 0.677598 0.468529
vt 0.618399 0.468529
vt 0.559199 0.468529
vt 0.500000 0.468529
vt 0.440801 0.468529
vt 0.381601 0.468529
vt 0.322402 0.468529
vt 0.440801 0.180024
vt 0.381601 0.180024
vt 0.322402 0.180024
vt 0.677598 0.180024
vt 0.618399 0.180024
vt 0.559199 0.180024
vt 0.500000 0.180024
vn 0.4345 0.4947 -0.7526
vn -0.4863 0.2323 -0.8423
vn -0.4345 0.4947 -0.7526
vn -0.9726 0.2323 0.0000
vn -0.8691 0.4947 -0.0000
vn -0.4863 0.2323 0.8423
vn -0.4345 0.4947 0.7526
vn 0.4863 0.2323 0.8423
vn 0.4345 0.4947 0.7526
vn 0.9726 0.2323 0.0000
vn 0.8691 0.4947 0.0000
vn 0.4863 0.2323 -0.8423
vn -0.9918 -0.1281 0.0000
vn -0.4959 -0.1281 -0.8589
vn 0.4959 -0.1281 -0.8589
vn 0.9918 -0.1281 -0.0000
vn 0.4959 -0.1281 0.8589
vn -0.4959 -0.1281 0.8589
vn 0.4838 -0.2526 0.8379
vn -0.4838 -0.2526 0.8379
vn -0.9676 -0.2526 0.0000
vn -0.4838 -0.2526 -0.8379
vn 0.4838 -0.2526 -0.8379
vn 0.9676 -0.2526 -0.0000
usemtl Mesh_0263.rip
f 1/1/1 2/2/2 3/3/3
f 2/2/2 4/4/4 3/3/3
f 3/3/3 4/4/4 5/5/5
f 4/6/4 6/7/6 5/8/5
f 5/8/5 6/7/6 7/9/7
f 6/7/6 8/10/8 7/9/7
f 7/9/7 8/10/8 9/11/9
f 8/10/8 10/12/10 9/11/9
f 9/11/9 10/12/10 11/13/11
f 10/12/10 12/14/12 11/13/11
f 11/13/11 12/14/12 1/1/1
f 12/14/12 2/2/2 1/1/1
f 4/4/4 2/2/2 13/15/13
f 13/15/13 2/2/2 14/16/14
f 2/2/2 12/14/12 14/16/14
f 14/16/14 12/14/12 15/17/15
f 12/14/12 10/12/10 15/17/15
f 15/17/15 10/12/10 16/18/16
f 10/12/10 8/10/8 16/18/16
f 16/18/16 8/10/8 17/19/17
f 8/10/8 6/7/6 17/19/17
f 17/19/17 6/7/6 18/20/18
f 6/7/6 4/6/4 18/20/18
f 18/20/18 4/6/4 13/21/13
f 19/22/19 18/20/18 20/23/20
f 18/20/18 13/21/13 20/23/20
f 20/23/20 13/21/13 21/24/21
f 13/15/13 14/16/14 21/25/21
f 21/25/21 14/16/14 22/26/22
f 14/16/14 15/17/15 22/26/22
f 22/26/22 15/17/15 23/27/23
f 15/17/15 16/18/16 23/27/23
f 23/27/23 16/18/16 24/28/24
f 16/18/16 17/19/17 24/28/24
f 24/28/24 17/19/17 19/22/19
f 17/19/17 18/20/18 19/22/19
