# Blender v2.79 (sub 0) OBJ File: ''
# www.blender.org
mtllib Killplanes.mtl
v 8954.000000 1849.997314 2376.001465
v 2954.000000 1849.997314 2376.001465
v 8954.000000 1849.994385 6963.000977
v 2954.000000 1849.994385 6963.000977
v 8954.000000 3159.993164 8990.003906
v 2954.000000 3159.993164 8990.003906
v 8954.000000 3159.992188 10531.003906
v 2954.000000 3159.992188 10531.003906
v 8954.000000 1819.997314 2376.001465
v 8954.000000 1819.994385 6963.000977
v 2954.000000 1819.997314 2376.001465
v 2954.000000 1819.994385 6963.000977
v 8954.000000 3129.993164 8990.003906
v 2954.000000 3129.993164 8990.003906
v 8954.000000 3129.992188 10531.003906
v 2954.000000 3129.992188 10531.003906
v 5363.000000 1650.998535 2393.000977
v 5363.000000 1651.002441 -3606.999268
v 3556.000000 1651.331543 2393.000977
v 3556.000000 1651.335449 -3606.999268
v 701.000000 -96.001564 2393.000000
v 701.000000 -95.997650 -3607.000244
v -1506.000000 -96.001564 2393.000000
v -1506.000000 -95.997650 -3607.000244
v 4238.000000 -677.062561 -816.000488
v 4238.000000 -677.063293 295.999512
v 4118.000000 -677.062561 -816.000488
v 4118.000000 -677.063293 295.999512
v 6616.000000 -677.065063 3161.000000
v 6996.000000 -677.067261 6536.000000
v 6496.000000 -677.065063 3161.000000
v 6876.000000 -677.067261 6536.000000
v 6996.000000 -677.067261 6535.998047
v 7960.000000 -677.069458 9901.000000
v 6876.000000 -677.067261 6535.998047
v 7840.000000 -677.069458 9901.000000
v 4580.000000 -677.063110 164.999542
v -644.000000 -677.063599 916.999756
v 4580.000000 -677.063049 44.999535
v -644.000000 -677.063538 796.999756
v 4238.000000 -677.061584 -2129.000488
v 4238.000000 -677.062317 -1200.000488
v 4118.000000 -677.061584 -2129.000488
v 4118.000000 -677.062317 -1200.000488
v 4417.000000 -677.065491 3632.000000
v 5398.000000 -677.065491 3632.000000
v 4417.000000 -677.065491 3752.000000
v 5398.000000 -677.065491 3752.000000
v -364.000092 -677.061584 -2144.000488
v -363.999908 -677.063538 855.999756
v -484.000092 -677.061584 -2144.000488
v -483.999908 -677.063538 855.999756
v 4602.000000 -677.065247 3201.000000
v 4851.000000 -677.067505 6919.000000
v 4482.000000 -677.065247 3201.000000
v 4731.000000 -677.067505 6919.000000
v 6576.000000 -1701.021484 33302.000000
v 6576.000000 -1701.017578 27302.000000
v 576.000000 -1701.021484 33302.000000
v 576.000000 -1701.017578 27302.000000
v 4851.000000 -677.067505 6918.998047
v 5639.000000 -677.069458 9901.000000
v 4731.000000 -677.067505 6918.998047
v 5519.000000 -677.069458 9901.000000
v 5807.000000 -677.065491 3632.000000
v 6803.000000 -677.065491 3632.000000
v 5807.000000 -677.065491 3752.000000
v 6803.000000 -677.065491 3752.000000
v 5419.000000 -677.069214 9514.000000
v 6465.000000 -677.069214 9514.000000
v 5419.000000 -677.069397 9634.000000
v 6465.000000 -677.069397 9634.000000
v 4761.000000 -677.061646 -2093.000488
v 1761.000000 -677.061646 -2093.000488
v 4761.000000 -677.061584 -2213.000488
v 1761.000000 -677.061584 -2213.000488
v 6856.000000 -677.069214 9514.000000
v 7902.000000 -677.069214 9514.000000
v 6856.000000 -677.069397 9634.000000
v 7902.000000 -677.069397 9634.000000
v 1762.000000 -677.061646 -2093.000488
v -389.000000 -677.062317 -1140.000488
v 1762.000000 -677.061584 -2213.000488
v -389.000000 -677.062317 -1260.000488
v 4238.000000 4675.151855 -815.998047
v 4118.000000 4675.151855 -815.998047
v 4238.000000 4675.151855 296.002014
v 4118.000000 4675.151855 296.002014
v 6616.000000 4675.149902 3161.002441
v 6496.000000 4675.149902 3161.002441
v 6996.000000 4675.147949 6536.002930
v 6876.000000 4675.147949 6536.002930
v 6996.000000 4675.147949 6536.000977
v 6876.000000 4675.147949 6536.000977
v 7960.000000 4675.145996 9901.003906
v 7840.000000 4675.145996 9901.003906
v 4580.000000 4675.151855 165.002014
v 4580.000000 4675.151855 45.002014
v -644.000000 4675.151855 917.002441
v -644.000000 4675.151855 797.002441
v 4238.000000 4675.153809 -2128.998047
v 4118.000000 4675.153809 -2128.998047
v 4238.000000 4675.151855 -1199.998291
v 4118.000000 4675.151855 -1199.998291
v 4417.000000 4675.149902 3632.002441
v 4417.000000 4675.149902 3752.002441
v 5398.000000 4675.149902 3632.002441
v 5398.000000 4675.149902 3752.002441
v -364.000092 4675.153809 -2143.998047
v -484.000092 4675.153809 -2143.998047
v -363.999908 4675.151855 856.002441
v -483.999908 4675.151855 856.002441
v 4602.000000 4675.149902 3201.002441
v 4482.000000 4675.149902 3201.002441
v 4851.000000 4675.147949 6919.002930
v 4731.000000 4675.147949 6919.002930
v 4851.000000 4675.147949 6919.000977
v 4731.000000 4675.147949 6919.000977
v 5639.000000 4675.145996 9901.003906
v 5519.000000 4675.145996 9901.003906
v 5807.000000 4675.149902 3632.002441
v 5807.000000 4675.149902 3752.002441
v 6803.000000 4675.149902 3632.002441
v 6803.000000 4675.149902 3752.002441
v 5419.000000 4675.145996 9514.003906
v 5419.000000 4675.145996 9634.003906
v 6465.000000 4675.145996 9514.003906
v 6465.000000 4675.145996 9634.003906
v 4761.000000 4675.153809 -2092.998047
v 4761.000000 4675.153809 -2212.998047
v 1761.000000 4675.153809 -2092.998047
v 1761.000000 4675.153809 -2212.998047
v 6856.000000 4675.145996 9514.003906
v 6856.000000 4675.145996 9634.003906
v 7902.000000 4675.145996 9514.003906
v 7902.000000 4675.145996 9634.003906
v 1762.000000 4675.153809 -2092.998047
v 1762.000000 4675.153809 -2212.998047
v -389.000000 4675.151855 -1139.998291
v -389.000000 4675.151855 -1259.998291
v 5363.000000 1620.998535 2393.000977
v 3556.000000 1621.331543 2393.000977
v 5363.000000 1621.002441 -3606.999268
v 3556.000000 1621.335449 -3606.999268
v 701.000000 -126.001564 2393.000000
v 701.000000 -125.997650 -3607.000244
v -1506.000000 -126.001564 2393.000000
v -1506.000000 -125.997650 -3607.000244
v 6576.000000 -1731.021484 33302.000000
v 576.000000 -1731.021484 33302.000000
v 6576.000000 -1731.017578 27302.000000
v 576.000000 -1731.017578 27302.000000
vt 0.000000 0.000000
vt 1.000000 0.000000
vt 1.000000 1.000000
vt 0.000000 0.000000
vt 1.000000 0.000000
vt 0.000000 0.000000
vt 1.000000 1.000000
vt 0.000000 0.000000
vt 1.000000 0.000000
vt 0.000000 0.000000
vt 1.000000 1.000000
vt 0.000000 0.000000
vt 1.000000 0.000000
vt 0.000000 0.000000
vt 1.000000 0.000000
vt 1.000000 1.000000
vt 0.000000 0.000000
vt 1.000000 1.000000
vt 0.000000 0.000000
vt 1.000000 0.000000
vt 0.000000 0.000000
vt 1.000000 1.000000
vt 0.000000 0.000000
vt 1.000000 0.000000
vt 0.000000 0.000000
vt 1.000000 1.000000
vt 1.000000 0.000000
vt 1.000000 1.000000
vt 0.000000 0.000000
vt 1.000000 0.000000
vt 1.000000 0.000000
vt 1.000000 1.000000
vt 1.000000 0.000000
vt 1.000000 1.000000
vt 1.000000 0.000000
vt 1.000000 1.000000
vt 0.000000 0.000000
vt 1.000000 0.000000
vt 1.000000 0.000000
vt 1.000000 1.000000
vt 1.000000 0.000000
vt 1.000000 0.000000
vt 0.000000 0.000000
vt 1.000000 0.000000
vt 1.000000 1.000000
vt 0.000000 0.000000
vt 1.000000 0.000000
vt 0.000000 0.000000
vt 1.000000 1.000000
vt 0.000000 0.000000
vt 1.000000 0.000000
vt 0.000000 0.000000
vt 1.000000 1.000000
vt 0.000000 0.000000
vt 1.000000 0.000000
vt 0.000000 0.000000
vt 1.000000 0.000000
vt 1.000000 1.000000
vt 0.000000 0.000000
vt 1.000000 1.000000
vt 0.000000 0.000000
vt 1.000000 0.000000
vt 1.000000 1.000000
vt 0.000000 0.000000
vt 1.000000 1.000000
vt 0.000000 0.000000
vt 1.000000 0.000000
vt 1.000000 1.000000
vt 0.000000 0.000000
vt 1.000000 1.000000
vt 0.000000 0.000000
vt 1.000000 0.000000
vt 1.000000 1.000000
vt 0.000000 0.000000
vt 1.000000 1.000000
vt 0.000000 0.000000
vt 1.000000 0.000000
vt 1.000000 1.000000
vt 0.000000 0.000000
vt 1.000000 1.000000
vt 0.000000 0.000000
vt 1.000000 0.000000
vt 1.000000 1.000000
vt 0.000000 0.000000
vt 1.000000 1.000000
vt 0.000000 0.000000
vt 1.000000 0.000000
vt 1.000000 1.000000
vt 0.000000 0.000000
vt 1.000000 1.000000
vt 0.000000 0.000000
vt 1.000000 0.000000
vt 1.000000 1.000000
vt 0.000000 0.000000
vt 1.000000 1.000000
vt 0.000000 0.000000
vt 1.000000 0.000000
vt 1.000000 1.000000
vt 0.000000 0.000000
vt 1.000000 0.000000
vt 0.000000 0.000000
vt 1.000000 0.000000
vt 1.000000 1.000000
vt 0.000000 0.000000
vt 1.000000 1.000000
vt 0.000000 0.000000
vt 1.000000 0.000000
vt 1.000000 1.000000
vt 0.000000 0.000000
vt 1.000000 1.000000
vt 0.000000 0.000000
vt 1.000000 0.000000
vt 1.000000 1.000000
vt 0.000000 0.000000
vt 1.000000 1.000000
vt 0.000000 0.000000
vt 1.000000 0.000000
vt 1.000000 1.000000
vt 0.000000 0.000000
vt 1.000000 1.000000
vt 0.000000 0.000000
vt 1.000000 0.000000
vt 1.000000 1.000000
vt 0.000000 0.000000
vt 1.000000 1.000000
vt 0.000000 0.000000
vt 1.000000 0.000000
vt 1.000000 1.000000
vt 0.000000 0.000000
vt 1.000000 1.000000
vt 0.000000 0.000000
vt 1.000000 0.000000
vt 1.000000 1.000000
vt 0.000000 0.000000
vt 1.000000 0.000000
vt 0.000000 0.000000
vt 1.000000 0.000000
vt 1.000000 1.000000
vt 0.000000 0.000000
vt 1.000000 0.000000
vt 0.000000 0.000000
vt 1.000000 0.000000
vt 1.000000 1.000000
vt 0.000000 0.000000
vt 1.000000 0.000000
vt 0.000000 0.000000
vt 1.000000 0.000000
vt 1.000000 1.000000
vt 0.000000 0.000000
vt 1.000000 0.000000
vt 0.000000 0.000000
vt 1.000000 0.000000
vt 1.000000 1.000000
vt 0.000000 0.000000
vt 1.000000 0.000000
vt 0.000000 0.000000
vt 1.000000 0.000000
vt 1.000000 1.000000
vt 0.000000 0.000000
vt 1.000000 0.000000
vt 0.000000 0.000000
vt 1.000000 0.000000
vt 1.000000 1.000000
vt 0.000000 0.000000
vt 1.000000 0.000000
vt 0.000000 0.000000
vt 1.000000 0.000000
vt 1.000000 1.000000
vt 0.000000 0.000000
vt 1.000000 0.000000
vt 0.000000 0.000000
vt 1.000000 0.000000
vt 1.000000 1.000000
vt 0.000000 0.000000
vt 1.000000 0.000000
vt 0.000000 0.000000
vt 1.000000 0.000000
vt 1.000000 1.000000
vt 0.000000 0.000000
vt 1.000000 0.000000
vt 0.000000 0.000000
vt 1.000000 0.000000
vt 1.000000 1.000000
vt 0.000000 0.000000
vt 1.000000 0.000000
vt 0.000000 0.000000
vt 1.000000 0.000000
vt 1.000000 1.000000
vt 0.000000 0.000000
vt 1.000000 0.000000
vt 0.000000 0.000000
vt 1.000000 0.000000
vt 1.000000 1.000000
vt 0.000000 0.000000
vt 1.000000 0.000000
vt 0.000000 0.000000
vt 1.000000 0.000000
vt 1.000000 1.000000
vt 0.000000 0.000000
vt 1.000000 0.000000
vt 1.000000 0.000000
vt 1.000000 1.000000
vt 1.000000 0.000000
vt 1.000000 1.000000
vt 0.000000 0.000000
vt 0.000000 0.000000
vt 1.000000 1.000000
vt 0.000000 0.000000
vt 0.000000 0.000000
vt 0.000000 0.000000
vt 1.000000 0.000000
vt 1.000000 1.000000
vt 1.000000 0.000000
vt 1.000000 1.000000
vt 1.000000 0.000000
vt 1.000000 1.000000
vt 1.000000 0.000000
vt 1.000000 1.000000
vt 1.000000 0.000000
vt 1.000000 1.000000
vt 1.000000 0.000000
vt 1.000000 1.000000
vt 0.000000 0.000000
vt 0.000000 0.000000
vt 1.000000 1.000000
vt 0.000000 0.000000
vt 1.000000 0.000000
vt 1.000000 1.000000
vt 1.000000 0.000000
vt 1.000000 1.000000
vt 1.000000 0.000000
vt 1.000000 1.000000
vt 1.000000 0.000000
vt 1.000000 1.000000
vt 0.000000 0.000000
vt 0.000000 0.000000
vt 0.000000 0.000000
vt 0.000000 0.000000
vt 0.000000 0.000000
vt 0.000000 0.000000
vt 1.000000 0.000000
vt 1.000000 1.000000
vt 1.000000 0.000000
vt 1.000000 1.000000
vt 1.000000 0.000000
vt 1.000000 1.000000
vt 1.000000 0.000000
vt 1.000000 1.000000
vt 1.000000 0.000000
vt 1.000000 1.000000
vt 0.000000 0.000000
vt 0.000000 0.000000
vt 1.000000 0.000000
vt 1.000000 1.000000
vt 0.000000 0.000000
vt 0.000000 0.000000
vt 0.000000 0.000000
vt 0.000000 0.000000
vt 1.000000 0.000000
vt 1.000000 1.000000
vt 1.000000 0.000000
vt 1.000000 1.000000
vt 1.000000 0.000000
vt 1.000000 1.000000
vt 1.000000 0.000000
vt 1.000000 1.000000
vt 1.000000 0.000000
vt 1.000000 1.000000
vt 0.000000 0.000000
vt 0.000000 0.000000
vt 1.000000 0.000000
vt 1.000000 1.000000
vt 0.000000 0.000000
vt 0.000000 0.000000
vt 0.000000 0.000000
vt 0.000000 0.000000
vt 1.000000 0.000000
vt 1.000000 1.000000
vt 1.000000 0.000000
vt 1.000000 1.000000
vt 1.000000 0.000000
vt 1.000000 1.000000
vt 1.000000 0.000000
vt 1.000000 1.000000
vt 0.000000 0.000000
vt 1.000000 0.000000
vt 1.000000 1.000000
vt 0.000000 0.000000
vt 1.000000 1.000000
vt 0.000000 0.000000
vt 1.000000 0.000000
vt 0.000000 0.000000
vt 1.000000 1.000000
vt 0.000000 0.000000
vt 1.000000 0.000000
vt 0.000000 0.000000
vt 1.000000 1.000000
vt 0.000000 0.000000
vt 1.000000 0.000000
vt 1.000000 1.000000
vt 0.000000 0.000000
vt 1.000000 1.000000
vt 1.000000 0.000000
vt 1.000000 1.000000
vt 0.000000 0.000000
vt 0.000000 0.000000
vt 0.000000 0.000000
vt 1.000000 0.000000
vt 1.000000 1.000000
vt 0.000000 0.000000
vt 1.000000 0.000000
vt 1.000000 1.000000
vt 1.000000 0.000000
vt 1.000000 1.000000
vt 1.000000 0.000000
vt 1.000000 1.000000
vt 1.000000 0.000000
vt 1.000000 1.000000
vt 1.000000 1.000000
vt 1.000000 0.000000
vt 1.000000 1.000000
vt 1.000000 1.000000
vt 1.000000 1.000000
vt 1.000000 1.000000
vt 1.000000 1.000000
vt 1.000000 1.000000
vt 1.000000 1.000000
vt 1.000000 1.000000
vt 1.000000 0.000000
vt 1.000000 1.000000
vt 1.000000 1.000000
vt 1.000000 1.000000
vt 1.000000 1.000000
vt 1.000000 1.000000
vt 1.000000 1.000000
vt 1.000000 1.000000
vt 1.000000 1.000000
vt 1.000000 1.000000
vt 1.000000 1.000000
vt 1.000000 1.000000
vt 1.000000 1.000000
vt 1.000000 1.000000
vt 1.000000 1.000000
vt 1.000000 1.000000
vt 1.000000 1.000000
vt 1.000000 1.000000
vt 1.000000 1.000000
vt 1.000000 1.000000
vt 1.000000 1.000000
vt 1.000000 1.000000
vt 1.000000 1.000000
vt 1.000000 1.000000
vt 1.000000 1.000000
vt 1.000000 1.000000
vt 1.000000 1.000000
vt 1.000000 1.000000
vt 1.000000 1.000000
vt 1.000000 1.000000
vt 1.000000 1.000000
vt 1.000000 0.000000
vt 1.000000 0.000000
vt 1.000000 0.000000
vt 1.000000 0.000000
vt 1.000000 0.000000
vt 1.000000 0.000000
vt 1.000000 0.000000
vt 1.000000 1.000000
vt 1.000000 1.000000
vn 0.0000 1.0000 0.0000
vn 0.0000 0.9570 -0.2899
vn -0.0000 0.9581 -0.2866
vn -0.2303 0.9570 -0.1761
vn -0.2900 0.8038 -0.5195
vn 0.2866 0.8047 -0.5200
vn 0.0000 0.6912 -0.7226
vn 0.2659 0.8627 -0.4302
vn -0.0002 0.6904 -0.7235
vn -0.2151 0.7700 -0.6007
vn -0.2318 0.9728 0.0000
vn 0.2330 0.9725 -0.0002
vn 0.2256 0.9725 0.0578
vn 0.0000 -1.0000 -0.0000
vn -0.2303 -0.9570 -0.1761
vn -0.2899 -0.9570 -0.0000
vn 0.2866 -0.9581 -0.0000
vn 0.0000 -0.6465 0.7629
vn -0.2151 -0.8639 0.4553
vn 0.2659 -0.7466 0.6098
vn 0.0000 -0.6491 0.7607
vn -0.2317 -0.8170 0.5280
vn 0.2330 -0.8167 0.5279
vn 0.0000 -0.9728 0.2318
vn 0.2255 -0.9725 0.0581
vn -0.0001 -0.9725 0.2329
vn 1.0000 0.0000 0.0000
vn 0.9570 -0.2899 0.0000
vn 0.9570 0.0000 -0.2899
vn 0.0000 0.0000 1.0000
vn -0.9581 0.1530 0.2423
vn -0.9581 0.2865 0.0000
vn -0.9725 -0.1244 -0.1969
vn 0.9728 -0.0000 0.2318
vn -0.9581 -0.2866 -0.0019
vn -1.0000 0.0000 0.0000
vn 0.9570 0.1574 0.2435
vn 0.9728 -0.2318 0.0000
vn 0.9728 -0.1258 -0.1947
vn 0.0000 0.0000 -1.0000
vn -0.9725 0.0001 0.2329
vn -0.9725 0.2329 0.0021
vn -0.9725 -0.2329 0.0002
vn 0.9728 0.2318 0.0000
vn -0.9581 0.0000 -0.2866
vn 0.9570 0.2900 0.0000
vn 0.0002 1.0000 0.0000
vn -0.5220 0.8529 0.0000
vn -0.4051 0.0000 -0.9143
vn -0.9937 -0.0000 0.1119
vn -0.9668 -0.0000 0.2555
vn 0.4051 -0.0000 0.9143
vn 0.9937 0.0000 -0.1119
vn 0.9668 0.0000 -0.2555
vn -0.9613 -0.0000 0.2754
vn 0.9613 0.0000 -0.2754
vn -0.1425 0.0000 -0.9898
vn 0.1425 -0.0000 0.9898
vn -0.9978 -0.0000 0.0668
vn 0.9978 0.0000 -0.0668
vn -0.0002 -1.0000 -0.0000
vn 0.5220 -0.8529 -0.0000
usemtl None
s 1
f 1/1/1 2/2/1 3/3/2
f 2/4/1 4/5/3 3/3/4
f 3/6/5 4/5/6 5/7/7
f 4/8/8 6/9/9 5/7/10
f 5/10/11 6/9/12 7/11/1
f 6/12/13 8/13/1 7/11/1
f 9/14/14 10/15/15 11/16/14
f 11/17/14 10/15/16 12/18/17
f 10/19/18 13/20/19 12/18/20
f 12/21/21 13/20/22 14/22/23
f 13/23/24 15/24/14 14/22/25
f 14/25/26 15/24/14 16/26/14
f 1/1/27 3/27/28 10/28/29
f 7/29/30 8/13/30 16/26/30
f 4/8/31 12/30/32 14/22/33
f 5/10/34 7/31/27 15/32/27
f 4/8/35 2/2/36 11/16/36
f 3/6/37 5/33/38 13/34/39
f 2/4/40 1/35/40 9/36/40
f 8/37/36 6/9/41 14/22/42
f 1/1/27 10/15/29 9/36/27
f 7/29/30 16/38/30 15/32/30
f 4/8/31 14/39/33 6/40/43
f 5/10/34 15/24/27 13/34/44
f 4/8/35 11/41/36 12/18/45
f 3/6/37 13/20/39 10/28/46
f 2/4/40 9/42/40 11/16/40
f 8/37/36 14/39/42 16/26/36
f 17/43/47 18/44/47 19/45/47
f 18/46/47 20/47/47 19/45/47
f 19/48/48 20/47/48 21/49/48
f 20/50/48 22/51/48 21/49/48
f 21/52/1 22/51/1 23/53/1
f 22/54/1 24/55/1 23/53/1
f 25/56/14 26/57/14 27/58/14
f 27/59/14 26/57/14 28/60/14
f 29/61/14 30/62/14 31/63/14
f 31/64/14 30/62/14 32/65/14
f 33/66/14 34/67/14 35/68/14
f 35/69/14 34/67/14 36/70/14
f 37/71/14 38/72/14 39/73/14
f 39/74/14 38/72/14 40/75/14
f 41/76/14 42/77/14 43/78/14
f 43/79/14 42/77/14 44/80/14
f 45/81/14 46/82/14 47/83/14
f 47/84/14 46/82/14 48/85/14
f 49/86/14 50/87/14 51/88/14
f 51/89/14 50/87/14 52/90/14
f 53/91/14 54/92/14 55/93/14
f 55/94/14 54/92/14 56/95/14
f 57/96/1 58/97/1 59/98/1
f 58/99/1 60/100/1 59/98/1
f 61/101/14 62/102/14 63/103/14
f 63/104/14 62/102/14 64/105/14
f 65/106/14 66/107/14 67/108/14
f 67/109/14 66/107/14 68/110/14
f 69/111/14 70/112/14 71/113/14
f 71/114/14 70/112/14 72/115/14
f 73/116/14 74/117/14 75/118/14
f 75/119/14 74/117/14 76/120/14
f 77/121/14 78/122/14 79/123/14
f 79/124/14 78/122/14 80/125/14
f 81/126/14 82/127/14 83/128/14
f 83/129/14 82/127/14 84/130/14
f 85/131/1 86/132/1 87/133/1
f 86/134/1 88/135/1 87/133/1
f 89/136/1 90/137/1 91/138/1
f 90/139/1 92/140/1 91/138/1
f 93/141/1 94/142/1 95/143/1
f 94/144/1 96/145/1 95/143/1
f 97/146/1 98/147/1 99/148/1
f 98/149/1 100/150/1 99/148/1
f 101/151/1 102/152/1 103/153/1
f 102/154/1 104/155/1 103/153/1
f 105/156/1 106/157/1 107/158/1
f 106/159/1 108/160/1 107/158/1
f 109/161/1 110/162/1 111/163/1
f 110/164/1 112/165/1 111/163/1
f 113/166/1 114/167/1 115/168/1
f 114/169/1 116/170/1 115/168/1
f 117/171/1 118/172/1 119/173/1
f 118/174/1 120/175/1 119/173/1
f 121/176/1 122/177/1 123/178/1
f 122/179/1 124/180/1 123/178/1
f 125/181/1 126/182/1 127/183/1
f 126/184/1 128/185/1 127/183/1
f 129/186/1 130/187/1 131/188/1
f 130/189/1 132/190/1 131/188/1
f 133/191/1 134/192/1 135/193/1
f 134/194/1 136/195/1 135/193/1
f 137/196/1 138/197/1 139/198/1
f 138/199/1 140/200/1 139/198/1
f 77/121/40 135/201/40 78/202/40
f 25/56/27 87/203/27 26/204/27
f 82/205/36 140/200/36 84/130/36
f 30/206/30 92/140/30 32/65/30
f 83/129/49 140/200/49 138/207/49
f 62/208/30 120/175/30 64/105/30
f 32/209/50 90/137/50 31/63/50
f 64/210/51 118/172/51 63/103/51
f 83/129/27 137/211/27 81/212/27
f 31/64/40 89/213/40 29/214/40
f 81/126/52 139/215/52 82/216/52
f 63/104/40 117/217/40 61/218/40
f 29/61/53 91/219/53 30/220/53
f 61/101/54 119/221/54 62/222/54
f 34/223/30 96/145/30 36/70/30
f 66/224/27 124/180/27 68/110/27
f 35/69/55 96/145/55 94/225/55
f 68/226/30 122/177/30 67/108/30
f 35/69/40 93/227/40 33/228/40
f 67/109/36 121/229/36 65/230/36
f 33/66/56 95/231/56 34/232/56
f 65/106/40 123/233/40 66/234/40
f 38/235/36 100/150/36 40/75/36
f 70/236/27 128/185/27 72/115/27
f 40/237/57 98/147/57 39/73/57
f 72/238/30 126/182/30 71/113/30
f 50/239/30 112/165/30 52/90/30
f 52/240/36 110/162/36 51/88/36
f 39/74/27 97/241/27 37/242/27
f 71/114/36 125/243/36 69/244/36
f 37/71/58 99/245/58 38/246/58
f 69/111/40 127/247/40 70/248/40
f 51/89/40 109/249/40 49/250/40
f 42/251/30 104/155/30 44/80/30
f 74/252/36 132/190/36 76/120/36
f 49/86/27 111/253/27 50/254/27
f 44/255/36 102/152/36 43/78/36
f 76/256/40 130/187/40 75/118/40
f 54/257/30 116/170/30 56/95/30
f 56/258/59 114/167/59 55/93/59
f 43/79/40 101/259/40 41/260/40
f 75/119/27 129/261/27 73/262/27
f 41/76/27 103/263/27 42/264/27
f 73/116/30 131/265/30 74/266/30
f 55/94/40 113/267/40 53/268/40
f 46/269/27 108/160/27 48/85/27
f 78/270/27 136/195/27 80/125/27
f 53/91/60 115/271/60 54/272/60
f 48/273/30 106/157/30 47/83/30
f 26/274/30 88/135/30 28/60/30
f 80/275/30 134/192/30 79/123/30
f 28/276/36 86/132/36 27/58/36
f 47/84/36 105/277/36 45/278/36
f 79/124/36 133/279/36 77/280/36
f 45/81/40 107/281/40 46/282/40
f 27/59/40 85/283/40 25/284/40
f 141/285/61 142/286/61 143/287/61
f 143/288/61 142/286/61 144/289/61
f 142/290/62 145/291/62 144/289/62
f 144/292/62 145/291/62 146/293/62
f 145/294/14 147/295/14 146/293/14
f 146/296/14 147/295/14 148/297/14
f 149/298/14 150/299/14 151/300/14
f 151/301/14 150/299/14 152/302/14
f 18/46/27 17/303/27 141/304/27
f 24/305/40 22/51/40 146/293/40
f 59/306/36 60/100/36 152/302/36
f 60/307/40 58/97/40 151/300/40
f 17/43/30 19/308/30 142/309/30
f 23/310/36 24/55/36 148/297/36
f 22/54/40 20/47/40 144/289/40
f 58/99/27 57/311/27 149/312/27
f 21/52/30 23/313/30 147/314/30
f 57/96/30 59/315/30 150/316/30
f 18/46/40 143/317/40 144/289/40
f 21/52/30 145/291/30 142/309/30
f 77/121/40 133/279/40 135/193/40
f 25/56/27 85/283/27 87/133/27
f 82/205/36 139/215/36 140/318/36
f 30/206/30 91/219/30 92/319/30
f 83/129/49 84/320/49 140/318/49
f 62/208/30 119/221/30 120/321/30
f 32/209/50 92/140/50 90/322/50
f 64/210/51 120/175/51 118/323/51
f 83/129/27 138/197/27 137/324/27
f 31/64/40 90/137/40 89/325/40
f 81/126/52 137/211/52 139/198/52
f 63/104/40 118/172/40 117/326/40
f 29/61/53 89/213/53 91/138/53
f 61/101/54 117/217/54 119/173/54
f 34/223/30 95/231/30 96/327/30
f 66/224/27 123/233/27 124/328/27
f 35/69/55 36/329/55 96/327/55
f 68/226/30 124/180/30 122/330/30
f 35/69/40 94/142/40 93/331/40
f 67/109/36 122/177/36 121/332/36
f 33/66/56 93/227/56 95/143/56
f 65/106/40 121/229/40 123/178/40
f 38/235/36 99/245/36 100/333/36
f 70/236/27 127/247/27 128/334/27
f 40/237/57 100/150/57 98/335/57
f 72/238/30 128/185/30 126/336/30
f 50/239/30 111/253/30 112/337/30
f 52/240/36 112/165/36 110/338/36
f 39/74/27 98/147/27 97/339/27
f 71/114/36 126/182/36 125/340/36
f 37/71/58 97/241/58 99/148/58
f 69/111/40 125/243/40 127/183/40
f 51/89/40 110/162/40 109/341/40
f 42/251/30 103/263/30 104/342/30
f 74/252/36 131/265/36 132/343/36
f 49/86/27 109/249/27 111/163/27
f 44/255/36 104/155/36 102/344/36
f 76/256/40 132/190/40 130/345/40
f 54/257/30 115/271/30 116/346/30
f 56/258/59 116/170/59 114/347/59
f 43/79/40 102/152/40 101/348/40
f 75/119/27 130/187/27 129/349/27
f 41/76/27 101/259/27 103/153/27
f 73/116/30 129/261/30 131/188/30
f 55/94/40 114/167/40 113/350/40
f 46/269/27 107/281/27 108/351/27
f 78/270/27 135/201/27 136/352/27
f 53/91/60 113/267/60 115/168/60
f 48/273/30 108/160/30 106/353/30
f 26/274/30 87/203/30 88/354/30
f 80/275/30 136/195/30 134/355/30
f 28/276/36 88/135/36 86/356/36
f 47/84/36 106/157/36 105/357/36
f 79/124/36 134/192/36 133/358/36
f 45/81/40 105/277/40 107/158/40
f 27/59/40 86/132/40 85/359/40
f 18/46/27 141/360/27 143/287/27
f 24/305/40 146/361/40 148/297/40
f 59/306/36 152/362/36 150/316/36
f 60/307/40 151/363/40 152/302/40
f 17/43/30 142/286/30 141/304/30
f 23/310/36 148/364/36 147/314/36
f 22/54/40 144/365/40 146/293/40
f 58/99/27 149/366/27 151/300/27
f 21/52/30 147/295/30 145/367/30
f 57/96/30 150/299/30 149/312/30
f 18/46/40 144/365/40 20/368/40
f 21/52/30 142/286/30 19/45/30
