# Blender v2.79 (sub 0) OBJ File: ''
# www.blender.org
mtllib Killplanes.mtl
v 11352.549805 -331.644440 2019.072021
v 11352.549805 -331.642090 -12449.299805
v -2832.856934 -331.644440 2019.072021
v -2832.856934 -331.642090 -12449.299805
v 11352.549805 -361.644440 2019.072021
v 11352.549805 -361.642090 -12449.299805
v -2832.856934 -361.644440 2019.072021
v -2832.856934 -361.642090 -12449.299805
vt 0.000000 0.000000
vt 1.000000 0.000000
vt 1.000000 1.000000
vt 0.000000 0.000000
vt 1.000000 0.000000
vt 0.000000 0.000000
vt 1.000000 0.000000
vt 1.000000 1.000000
vt 0.000000 0.000000
vt 1.000000 1.000000
vt 1.000000 0.000000
vt 0.000000 1.000000
vt 0.000000 1.000000
vt 0.000000 0.000000
vt 1.000000 0.000000
vt 0.000000 1.000000
vt 0.000000 0.000000
vt 1.000000 0.000000
vt 0.000000 1.000000
vt 1.000000 1.000000
vt 1.000000 1.000000
vn 0.0000 1.0000 0.0000
vn 0.0000 -1.0000 -0.0000
vn 0.0000 0.0000 -1.0000
vn 0.0000 0.0000 1.0000
vn -1.0000 0.0000 0.0000
vn 1.0000 0.0000 0.0000
usemtl None
s 1
f 1/1/1 2/2/1 3/3/1
f 2/4/1 4/5/1 3/3/1
f 5/6/2 7/7/2 6/8/2
f 6/9/2 7/7/2 8/10/2
f 6/11/3 4/12/3 2/4/3
f 7/7/4 1/13/4 3/14/4
f 8/15/5 3/16/5 4/17/5
f 5/18/6 2/19/6 1/1/6
f 6/11/3 8/10/3 4/12/3
f 7/7/4 5/20/4 1/13/4
f 8/15/5 7/21/5 3/16/5
f 5/18/6 6/8/6 2/19/6
