# Blender v2.79 (sub 0) OBJ File: ''
# www.blender.org
mtllib Killplanes.mtl
v 15725.000000 -3638.999756 -1835.000610
v 15725.000000 -3638.998535 -9695.000977
v 4977.000000 -3638.999756 -1835.000610
v 4977.000000 -3638.998535 -9695.000977
v 7201.000000 -2305.000488 3169.999512
v 7201.000000 -2304.999023 -5905.000488
v -1555.000000 -2305.000488 3169.999512
v -1555.000000 -2304.999023 -5905.000488
v 15725.000000 -3668.999756 -1835.000610
v 15725.000000 -3668.998535 -9695.000977
v 4977.000000 -3668.999756 -1835.000610
v 4977.000000 -3668.998535 -9695.000977
v 7201.000000 -2335.000488 3169.999512
v 7201.000000 -2334.999023 -5905.000488
v -1555.000000 -2335.000488 3169.999512
v -1555.000000 -2334.999023 -5905.000488
vt 0.000000 0.000000
vt 1.000000 0.000000
vt 1.000000 1.000000
vt 0.000000 0.000000
vt 1.000000 0.000000
vt 0.000000 0.000000
vt 1.000000 0.000000
vt 1.000000 1.000000
vt 0.000000 0.000000
vt 1.000000 0.000000
vt 0.000000 0.000000
vt 1.000000 0.000000
vt 1.000000 1.000000
vt 0.000000 0.000000
vt 1.000000 1.000000
vt 0.000000 0.000000
vt 1.000000 0.000000
vt 1.000000 1.000000
vt 0.000000 0.000000
vt 1.000000 1.000000
vt 1.000000 0.000000
vt 0.000000 1.000000
vt 1.000000 0.000000
vt 0.000000 1.000000
vt 1.000000 0.000000
vt 0.000000 1.000000
vt 1.000000 0.000000
vt 0.000000 1.000000
vt 0.000000 1.000000
vt 0.000000 0.000000
vt 1.000000 0.000000
vt 0.000000 1.000000
vt 0.000000 0.000000
vt 0.000000 1.000000
vt 0.000000 0.000000
vt 1.000000 0.000000
vt 0.000000 1.000000
vt 0.000000 0.000000
vt 1.000000 1.000000
vt 1.000000 1.000000
vt 1.000000 1.000000
vt 1.000000 1.000000
vn 0.0000 1.0000 0.0000
vn 0.0000 -1.0000 -0.0000
vn 1.0000 0.0000 0.0000
vn 0.0000 0.0000 -1.0000
vn 0.0000 0.0000 1.0000
vn -1.0000 0.0000 0.0000
usemtl None
s 1
f 1/1/1 2/2/1 3/3/1
f 2/4/1 4/5/1 3/3/1
f 5/6/1 6/7/1 7/8/1
f 6/9/1 8/10/1 7/8/1
f 9/11/2 11/12/2 10/13/2
f 10/14/2 11/12/2 12/15/2
f 13/16/2 15/17/2 14/18/2
f 14/19/2 15/17/2 16/20/2
f 9/21/3 2/22/3 1/1/3
f 10/23/4 4/24/4 2/4/4
f 13/25/3 6/26/3 5/6/3
f 14/27/4 8/28/4 6/9/4
f 11/12/5 1/29/5 3/30/5
f 12/31/6 3/32/6 4/33/6
f 15/17/5 5/34/5 7/35/5
f 16/36/6 7/37/6 8/38/6
f 9/21/3 10/13/3 2/22/3
f 10/23/4 12/15/4 4/24/4
f 13/25/3 14/18/3 6/26/3
f 14/27/4 16/20/4 8/28/4
f 11/12/5 9/39/5 1/29/5
f 12/31/6 11/40/6 3/32/6
f 15/17/5 13/41/5 5/34/5
f 16/36/6 15/42/6 7/37/6
