# Blender v2.79 (sub 0) OBJ File: ''
# www.blender.org
mtllib VULCAN.mtl
v 45.000000 0.000007 -45.000000
v -45.000000 0.000007 -45.000000
v 45.000000 16.999992 45.000004
v -45.000000 16.999992 45.000004
v -45.000000 17.000008 -44.999996
v -45.000000 17.000008 -44.999996
v -45.000000 -0.000007 45.000000
v -45.000000 16.999992 45.000004
v 45.000000 -0.000007 45.000000
v 45.000000 16.999992 45.000004
v -45.000000 0.000007 -45.000000
v -45.000000 -0.000007 45.000000
v -45.000000 17.000008 -44.999996
v -45.000000 16.999992 45.000004
v -45.000000 17.000008 -44.999996
v 45.000000 0.000007 -45.000000
v 45.000000 17.000008 -44.999996
v 45.000000 -0.000007 45.000000
v 45.000000 17.000008 -44.999996
v 45.000000 16.999992 45.000004
v 0.000000 80.000000 0.000013
v 45.000000 17.000008 -44.999996
v 45.000000 16.999992 45.000004
v 0.000000 80.000000 0.000013
v 45.000000 17.000008 -44.999996
v 0.000000 80.000000 0.000013
v -45.000000 16.999992 45.000004
v 0.000000 80.000000 0.000013
vt 0.000000 0.000000
vt 1.000000 0.000000
vt 1.000000 1.000000
vt 0.000000 0.000000
vt 1.000000 0.000000
vt 1.000000 1.000000
vt 1.000000 0.000000
vt 1.000000 1.000000
vt 0.000000 0.000000
vt 1.000000 0.000000
vt 1.000000 1.000000
vt 1.000000 0.000000
vt 1.000000 1.000000
vt 0.000000 0.000000
vt 1.000000 0.000000
vt 1.000000 1.000000
vt 1.000000 0.000000
vt 1.000000 1.000000
vt 0.000000 0.000000
vt 1.000000 0.000000
vt 1.000000 1.000000
vt 0.000000 0.000000
vt 1.000000 0.000000
vt 1.000000 1.000000
vt 0.000000 0.000000
vt 1.000000 0.000000
vt 1.000000 1.000000
vt 0.000000 0.000000
vt 1.000000 0.000000
vt 1.000000 1.000000
vt 1.000000 0.000000
vt 1.000000 1.000000
vn -1.0000 0.0000 0.0000
vn 0.0000 0.0000 -1.0000
vn 1.0000 -0.0000 0.0000
vn 0.0000 0.5812 0.8137
vn 0.0000 0.5812 -0.8137
vn 0.8137 0.5812 0.0000
vn -0.8137 0.5812 0.0000
vn 0.0000 -0.0000 1.0000
usemtl material_0
s 1
f 12/1/1 13/2/1 11/3/1
f 2/4/2 17/5/2 16/6/2
f 2/4/2 15/7/2 17/8/2
f 1/9/3 20/10/3 18/11/3
f 1/9/3 19/12/3 20/13/3
f 4/14/4 3/15/4 21/16/4
f 12/1/1 14/17/1 13/18/1
f 6/19/5 26/20/5 25/21/5
f 23/22/6 22/23/6 24/24/6
f 27/25/7 28/26/7 5/27/7
f 9/28/8 8/29/8 7/30/8
f 9/28/8 10/31/8 8/32/8
