mtllib Collision.mtl
v -186 -101.999992 -76.000015
v -186 -169.999985 -66.000046
v -186 -169.999969 -146.000046
v -186 -169.999969 -146.000046
v -186 -169.999985 -66.000046
v -186 -86.999969 -146.000015
v -186 -101.999969 -136.000015
v -259 -101.999992 -76.000015
v -259 -51.999996 -76
v -259 -101.999969 -136.000015
v -259 -51.999969 -136.000015
v -186.000015 -51.999969 -136.000015
v -186.000015 -51.999996 -76
v -186.000015 -43.999996 -66
v -186 -87 -66.000015
v -186.000015 -43.999969 -146
v -269 -43.999969 -146
v -269 -86.999969 -146.000015
v -269 -43.999996 -66
v -269 -87 -66.000015
v 583 -150.000107 299.692352
v 583 -150.000061 141.769257
v 583 -240.000107 299.692352
v 583 -240.000061 141.769226
v 583 -150 -16.153833
v 583 -240 -16.153864
v 583 -149.999954 -174.076935
v 583 -239.999954 -174.076965
v 583 -149.999893 -332.000031
v 583 -239.999893 -332.000031
v 438.120361 -149.999893 -347.500031
v 438.120361 -239.999893 -347.500031
v 285.240723 -149.999893 -347.000031
v 285.240723 -239.999893 -347.000031
v 583 -330.000122 299.692291
v 583 -330.000061 141.769196
v 583 -330 -16.153889
v 583 -329.999969 -174.076996
v 583 -329.999878 -332.000092
v 438.120361 -329.999878 -347.500092
v 285.240723 -329.999878 -347.000092
v 583 29.999893 299.692383
v 583 29.99995 141.769302
v 583 -60.000103 299.692383
v 583 -60.000053 141.769272
v 583 29.999998 -16.153795
v 583 -60 -16.153826
v 583 30.000048 -174.076889
v 583 -59.99995 -174.07692
v 583 30.000103 -332
v 583 -59.999901 -332
v 438.120361 30.000107 -347.5
v 438.120361 -59.999893 -347.5
v 285.240723 30.000107 -347
v 285.240723 -59.999893 -347
v 583 -150.000107 299.692322
v 583 -150.000061 141.769241
v 583 -150 -16.153852
v 583 -149.999954 -174.07695
v 583 -149.999893 -332.000061
v 438.120361 -149.999893 -347.500061
v 285.240723 -149.999893 -347.000061
v 425.000031 -380 298.999939
v 271.000031 -380 298.999939
v 425.000031 -282.5 298.999908
v 271.000031 -282.5 298.999939
v 425.000031 -170 298.999908
v 276.000031 -170 298.999939
v 447.000031 -87.5 298.999939
v 293.000031 -87.5 298.999969
v 447.000031 9.999997 298.999908
v 293.000031 9.999997 298.999939
v 139.000046 -87.5 298.999969
v 139.000046 9.999997 298.999969
v -14.999955 -87.5 299
v -14.999955 9.999997 299
v -168.999954 -87.5 299.000031
v -168.999954 9.999997 299
v -168.999969 -87.5 264.000031
v -168.999969 -170.000015 264
v -168.999954 -170 299
v -14.999955 -170 299
v 139.000046 -170 298.999969
v 584.000061 9.999997 298.999908
v 584.000061 -87.5 298.999908
v 584.000061 -170 298.999908
v 584.000061 -282.5 298.999878
v 584.000061 -380 298.999908
v -269 -43.999966 -146
v -269 62.000034 -145.999969
v -186 -43.999966 -146
v -186 62.000034 -145.999969
v -186 62.000008 -65.999977
v -186 -43.999989 -66.000008
v -269 -43.999989 -66.000008
v -269 62.000008 -65.999977
v -274 -170.000076 267.999969
v -168.5 -110.000069 267.999969
v -274 -87.000069 268
v -168.5 -87.000069 268
v -113 -87.000084 264
v -168.5 -110.000046 203.999985
v -113 -110.000084 263.999969
v -113 -110.000046 203.999985
v -113 -87.000046 203.999985
v -168.5 -87.000046 203.999985
v -168.5 -87.000008 73.999985
v -274 -87.000008 73.999985
v -274 -170.000015 73.999954
v -168.5 -170.000015 73.999954
v -168.5 -170.000046 203.999954
v -168.5 -170.000076 267.999969
v 286 -159.999939 -273.500031
v 270 -159.999939 -273.500031
v 286 -169.999939 -273.500031
v 270 -169.999939 -273.500031
v 286 -169.999939 -326.000031
v 286 -159.999939 -326.000031
v 270 -159.999939 -326.000031
v 270 -169.999939 -326.000031
v 286 -160.000061 299.499969
v 270 -160.000061 299.499969
v 286 -170.000061 299.499969
v 270 -170.000061 299.499969
v 286 -170.000061 246.999969
v 286 -160.000061 246.999969
v 270 -160.000061 246.999969
v 270 -170.000061 246.999969
v -98 24.999929 278
v -110 -87.000069 278
v -98 24.999966 169
v -110 -87.000038 168.999969
v -98 25.000002 60.000004
v -110 -87 59.999969
v -125 25.00001 33.000004
v -125 -86.999992 44.999969
v -283 -86.999992 44.999969
v -283 25.00001 33.000004
v -298 -87.000069 278
v -125 -87.000076 293
v -283 -87.000076 293
v -283 24.99992 305
v -125 24.99992 305
v -125 143.999924 305.000031
v -98 143.999924 278.000031
v -98 143.999969 169.000046
v -98 143.999985 60.000038
v -125 144.000015 33.000038
v -283 144.000015 33.000038
v -298 -87.000038 168.999969
v -298 -87 59.999969
v -269 -86.999939 -286
v -269 -86.999977 -146.000015
v -186 -86.999939 -286
v -186 -86.999977 -146.000015
v -186 -169.999939 -286.000031
v -186 -169.999969 -146.000031
v -269 -86.999977 -66.000015
v -269 -87.000031 73.999985
v -186 -86.999977 -66.000015
v -186 -87.000031 73.999985
v -186 -169.999969 -66.000046
v -186 -170.000031 73.999954
v 249.015869 -170.000107 299.073212
v 286 -170.000107 297.999969
v 286 -170.000076 191.109955
v 276 -214.000076 191.110046
v 286 -170.000046 83.091728
v 276 -214.000046 83.091675
v 286 -170.000015 -24.926725
v 276 -214.000107 299.128387
v 75 -169.999893 -347.000031
v 109.803467 -169.999924 -297.783722
v 136 -169.999893 -347.000031
v 286 -169.999924 -240.963379
v 144.607178 -169.999954 -148.567413
v 286 -169.999969 -132.944931
v 276 -214 -24.926666
v 276 -213.999969 -132.945007
v 276 -213.999924 -240.963348
v 286 -169.999893 -347.000031
v 276 -213.999893 -337.000031
v 214.214096 -170.000061 149.864716
v 179.410629 -170.000015 0.648402
v -186.000031 -170.000107 297.999969
v -125 -170.000107 298.805634
v -186.000031 -170.000076 191.109924
v -125.000015 -170.000076 191.110046
v -186.000031 -170.000046 83.091743
v -125.000015 -170.000046 83.091682
v -186.000031 -170.000015 -24.926748
v -125.000015 -170.000015 -24.926653
v -186.000031 -169.999969 -132.944916
v -125.000015 -169.999969 -132.945007
v -186.000031 -169.999924 -240.963409
v -125.000015 -169.999924 -240.963348
v -186 -169.999893 -347.000031
v -125.000008 -169.999893 -346.981598
v 271 -380.000061 141.769196
v 271 -380 -16.153896
v 271 -290.000061 141.769226
v 271 -290 -16.153872
v 271 -379.999969 -174.076996
v 271 -289.999939 -174.076965
v 271 -200.000061 141.769257
v 271 -200 -16.153841
v 271 -199.999954 -174.076935
v 271 -200.000107 299.692352
v 271 -290.000122 299.692322
v 271 -380.000122 299.692291
v 271 -379.999878 -332.000092
v 271 -289.999908 -332.000061
v 271 -199.999893 -332.000031
v -269 -87.000023 45.499981
v -269 -86.999992 -66.000023
v -269 29.999977 45.500015
v -269 30.000011 -66.749977
v -269 -86.999962 -146.000015
v -269 -86.999916 -286
v -269 10.000039 -144.999985
v -269 10.000085 -286
v -186 -86.999916 -286
v -186 10.000085 -286
v -186 -79.999901 -347
v -186 10.000102 -347
v -25 -79.999901 -347
v -25 10.000102 -347
v 136 -79.999901 -347
v 136 10.000102 -347
v 285.481445 -79.999901 -347
v 285.481445 10.000102 -347
v 285.481445 -169.999893 -347.000061
v 136 -169.999893 -347.000061
v -25 -169.999893 -347.000061
v -186 -169.999893 -347.000061
v -186 -169.999924 -286.000061
v -0.328123 -169.999954 -148.567596
v 109.803467 -169.999908 -297.783844
v -0.328123 -169.999908 -297.783844
v -0.328123 -169.999878 -347.000031
v 75 -169.999878 -347.000031
v -125 -169.999878 -347.000031
v -125 -169.999908 -297.783844
v -125 -169.999954 -148.567596
v -0.328123 -170 0.648584
v -125 -170 0.648584
v -0.328123 -170.000061 149.864838
v -125 -170.000061 149.864838
v -0.328123 -170.000092 298.98761
v -125 -170.000092 298.805634
v 214.214111 -170.000061 149.864838
v 124.343994 -170.000092 299.071198
v 239.669678 -170.000076 258.999969
v 249.015869 -170.000092 299.073212
v 124.343994 -170.000061 149.864777
v 124.343994 -170 0.648523
v 179.410645 -170 0.648584
v 144.607178 -169.999954 -148.567535
v 270 -169.999969 -96.000038
v 273.527863 -162.39769 -96.000031
v 270 -169.999908 -273.500031
v 273.527863 -162.397629 -273.500031
v 282.472137 -162.39769 -96.000031
v 282.472137 -162.397629 -273.500031
v 286 -169.999969 -96.000038
v 286 -169.999908 -273.500031
v 286 -170.000031 81.499962
v 282.472137 -162.397751 81.499969
v 286 -170.000092 258.999969
v 282.472137 -162.397827 258.999969
v 273.527863 -162.397751 81.499969
v 273.527863 -162.397827 258.999969
v 270 -170.000031 81.499962
v 270 -170.000092 258.999969
vt 0 0
vt 1 0
vt 1 1
vn 1.0000 0.0000 0.0000
vn 0.0000 0.0000 1.0000
vn 0.0000 1.0000 0.0000
vn 0.0000 0.0000 -1.0000
vn 0.0000 -1.0000 -0.0000
vn -1.0000 0.0000 0.0000
vn -0.1064 0.0000 0.9943
vn 0.0033 0.0000 1.0000
vn 0.0719 -0.0000 0.9974
vn 0.9943 -0.1065 -0.0000
vn 0.7051 -0.0755 -0.7051
vn 0.0000 -0.1065 -0.9943
vn 0.0000 -0.1065 0.9943
vn 0.7071 -0.0000 0.7071
vn 0.7071 0.0000 -0.7071
vn 0.7051 -0.0755 0.7051
vn 0.9751 -0.2216 -0.0000
vn -0.9071 0.4209 0.0000
vn 0.9071 0.4209 0.0000
usemtl Shape.773
f 1/1/1 2/2/1 3/3/1
f 3/1/2 2/2/2 4/3/2
f 2/1/2 5/2/2 4/3/2
f 6/1/1 7/2/1 3/3/1
f 3/1/1 7/2/1 1/3/1
f 7/1/3 8/2/3 1/3/3
f 1/1/4 8/2/4 9/3/4
f 8/1/1 10/2/1 9/3/1
f 9/1/1 10/2/1 11/3/1
f 10/1/2 12/2/2 11/3/2
f 11/1/5 12/2/5 13/3/5
f 12/1/1 14/2/1 13/3/1
f 13/1/1 14/2/1 1/3/1
f 14/1/1 15/2/1 1/3/1
f 1/1/1 15/2/1 2/3/1
f 12/1/1 16/2/1 14/3/1
f 1/1/4 9/2/4 13/3/4
f 9/1/5 11/2/5 13/3/5
f 17/1/4 16/2/4 18/3/4
f 18/1/4 16/2/4 6/3/4
f 16/1/1 12/2/1 6/3/1
f 6/1/1 12/2/1 7/3/1
f 12/1/2 10/2/2 7/3/2
f 7/1/3 10/2/3 8/3/3
f 14/1/2 19/2/2 15/3/2
f 19/1/2 20/2/2 15/3/2
f 21/1/6 22/2/6 23/3/6
f 23/1/6 22/2/6 24/3/6
f 22/1/6 25/2/6 24/3/6
f 24/1/6 25/2/6 26/3/6
f 25/1/6 27/2/6 26/3/6
f 26/1/6 27/2/6 28/3/6
f 27/1/6 29/2/6 28/3/6
f 28/1/6 29/2/6 30/3/6
f 29/1/7 31/2/7 30/3/7
f 30/1/7 31/2/7 32/3/7
f 31/1/8 33/2/8 32/3/8
f 32/1/8 33/2/8 34/3/8
f 23/1/6 24/2/6 35/3/6
f 35/1/6 24/2/6 36/3/6
f 24/1/6 26/2/6 36/3/6
f 36/1/6 26/2/6 37/3/6
f 26/1/6 28/2/6 37/3/6
f 37/1/6 28/2/6 38/3/6
f 28/1/6 30/2/6 38/3/6
f 38/1/6 30/2/6 39/3/6
f 30/1/7 32/2/7 39/3/7
f 39/1/7 32/2/7 40/3/7
f 32/1/8 34/2/8 40/3/8
f 40/1/8 34/2/8 41/3/8
f 42/1/6 43/2/6 44/3/6
f 44/1/6 43/2/6 45/3/6
f 43/1/6 46/2/6 45/3/6
f 45/1/6 46/2/6 47/3/6
f 46/1/6 48/2/6 47/3/6
f 47/1/6 48/2/6 49/3/6
f 48/1/6 50/2/6 49/3/6
f 49/1/6 50/2/6 51/3/6
f 50/1/7 52/2/7 51/3/7
f 51/1/7 52/2/7 53/3/7
f 52/1/8 54/2/8 53/3/8
f 53/1/8 54/2/8 55/3/8
f 44/1/6 45/2/6 56/3/6
f 56/1/6 45/2/6 57/3/6
f 45/1/6 47/2/6 57/3/6
f 57/1/6 47/2/6 58/3/6
f 47/1/6 49/2/6 58/3/6
f 58/1/6 49/2/6 59/3/6
f 49/1/6 51/2/6 59/3/6
f 59/1/6 51/2/6 60/3/6
f 51/1/7 53/2/7 60/3/7
f 60/1/7 53/2/7 61/3/7
f 53/1/8 55/2/8 61/3/8
f 61/1/8 55/2/8 62/3/8
f 63/1/4 64/2/4 65/3/4
f 64/1/4 66/2/4 65/3/4
f 65/1/4 66/2/4 67/3/4
f 66/1/4 68/2/4 67/3/4
f 67/1/4 68/2/4 69/3/4
f 68/1/4 70/2/4 69/3/4
f 69/1/4 70/2/4 71/3/4
f 70/1/4 72/2/4 71/3/4
f 70/1/4 73/2/4 72/3/4
f 72/1/4 73/2/4 74/3/4
f 73/1/4 75/2/4 74/3/4
f 74/1/4 75/2/4 76/3/4
f 75/1/4 77/2/4 76/3/4
f 76/1/4 77/2/4 78/3/4
f 79/1/1 77/2/1 80/3/1
f 80/1/1 77/2/1 81/3/1
f 77/1/4 75/2/4 81/3/4
f 81/1/4 75/2/4 82/3/4
f 75/1/4 73/2/4 82/3/4
f 82/1/4 73/2/4 83/3/4
f 73/1/4 70/2/4 83/3/4
f 83/1/4 70/2/4 68/3/4
f 71/1/4 84/2/4 69/3/4
f 84/1/4 85/2/4 69/3/4
f 69/1/4 85/2/4 67/3/4
f 85/1/4 86/2/4 67/3/4
f 67/1/4 86/2/4 65/3/4
f 86/1/4 87/2/4 65/3/4
f 65/1/4 87/2/4 63/3/4
f 87/1/4 88/2/4 63/3/4
f 89/1/4 90/2/4 91/3/4
f 90/1/4 92/2/4 91/3/4
f 92/1/1 93/2/1 91/3/1
f 91/1/1 93/2/1 94/3/1
f 93/1/2 95/2/2 94/3/2
f 96/1/2 95/2/2 93/3/2
f 97/1/2 98/2/2 99/3/2
f 99/1/2 98/2/2 100/3/2
f 98/1/9 101/2/9 100/3/9
f 102/1/5 103/2/5 98/3/5
f 98/1/9 103/2/9 101/3/9
f 103/1/1 104/2/1 101/3/1
f 101/1/1 104/2/1 105/3/1
f 104/1/4 106/2/4 105/3/4
f 103/1/5 102/2/5 104/3/5
f 104/1/4 102/2/4 106/3/4
f 102/1/1 107/2/1 106/3/1
f 108/1/4 107/2/4 109/3/4
f 109/1/4 107/2/4 110/3/4
f 107/1/1 102/2/1 110/3/1
f 110/1/1 102/2/1 111/3/1
f 102/1/1 98/2/1 111/3/1
f 111/1/1 98/2/1 112/3/1
f 98/1/2 97/2/2 112/3/2
f 113/1/2 114/2/2 115/3/2
f 114/1/2 116/2/2 115/3/2
f 115/1/1 117/2/1 113/3/1
f 117/1/1 118/2/1 113/3/1
f 113/1/3 118/2/3 114/3/3
f 118/1/3 119/2/3 114/3/3
f 114/1/6 119/2/6 116/3/6
f 119/1/6 120/2/6 116/3/6
f 119/1/4 118/2/4 120/3/4
f 118/1/4 117/2/4 120/3/4
f 121/1/2 122/2/2 123/3/2
f 122/1/2 124/2/2 123/3/2
f 123/1/1 125/2/1 121/3/1
f 125/1/1 126/2/1 121/3/1
f 121/1/3 126/2/3 122/3/3
f 126/1/3 127/2/3 122/3/3
f 122/1/6 127/2/6 124/3/6
f 127/1/6 128/2/6 124/3/6
f 127/1/4 126/2/4 128/3/4
f 126/1/4 125/2/4 128/3/4
f 129/1/10 130/2/10 131/3/10
f 130/1/10 132/2/10 131/3/10
f 131/1/10 132/2/10 133/3/10
f 132/1/10 134/2/10 133/3/10
f 133/1/11 134/2/11 135/3/11
f 134/1/11 136/2/11 135/3/11
f 135/1/12 136/2/12 137/3/12
f 136/1/5 134/2/5 137/3/5
f 137/1/12 138/2/12 135/3/12
f 139/1/5 140/2/5 141/3/5
f 141/1/13 140/2/13 142/3/13
f 140/1/13 143/2/13 142/3/13
f 143/1/14 129/2/14 144/3/14
f 144/1/14 129/2/14 145/3/14
f 129/1/1 131/2/1 145/3/1
f 145/1/1 131/2/1 146/3/1
f 131/1/1 133/2/1 146/3/1
f 146/1/1 133/2/1 147/3/1
f 133/1/15 135/2/15 147/3/15
f 147/1/15 135/2/15 148/3/15
f 135/1/4 138/2/4 148/3/4
f 148/1/4 138/2/4 149/3/4
f 143/1/16 140/2/16 129/3/16
f 129/1/16 140/2/16 130/3/16
f 140/1/5 139/2/5 130/3/5
f 130/1/5 139/2/5 132/3/5
f 139/1/5 150/2/5 132/3/5
f 132/1/5 150/2/5 134/3/5
f 150/1/5 151/2/5 134/3/5
f 134/1/5 151/2/5 137/3/5
f 152/1/3 153/2/3 154/3/3
f 153/1/3 155/2/3 154/3/3
f 154/1/1 155/2/1 156/3/1
f 155/1/1 157/2/1 156/3/1
f 158/1/3 159/2/3 160/3/3
f 159/1/3 161/2/3 160/3/3
f 160/1/1 161/2/1 162/3/1
f 161/1/1 163/2/1 162/3/1
f 164/1/3 165/2/3 166/3/3
f 165/1/17 167/2/17 166/3/17
f 166/1/17 167/2/17 168/3/17
f 167/1/17 169/2/17 168/3/17
f 168/1/17 169/2/17 170/3/17
f 171/1/17 167/2/17 165/3/17
f 172/1/3 173/2/3 174/3/3
f 174/1/3 173/2/3 175/3/3
f 173/1/3 176/2/3 175/3/3
f 175/1/3 176/2/3 177/3/3
f 176/1/3 170/2/3 177/3/3
f 177/1/17 170/2/17 178/3/17
f 170/1/17 169/2/17 178/3/17
f 178/1/17 179/2/17 177/3/17
f 177/1/17 179/2/17 175/3/17
f 179/1/17 180/2/17 175/3/17
f 175/1/17 180/2/17 181/3/17
f 180/1/17 182/2/17 181/3/17
f 164/1/3 166/2/3 183/3/3
f 166/1/3 168/2/3 183/3/3
f 183/1/3 168/2/3 184/3/3
f 168/1/3 170/2/3 184/3/3
f 184/1/3 170/2/3 176/3/3
f 185/1/3 186/2/3 187/3/3
f 186/1/3 188/2/3 187/3/3
f 187/1/3 188/2/3 189/3/3
f 188/1/3 190/2/3 189/3/3
f 189/1/3 190/2/3 191/3/3
f 190/1/3 192/2/3 191/3/3
f 191/1/3 192/2/3 193/3/3
f 192/1/3 194/2/3 193/3/3
f 193/1/3 194/2/3 195/3/3
f 194/1/3 196/2/3 195/3/3
f 195/1/3 196/2/3 197/3/3
f 196/1/3 198/2/3 197/3/3
f 175/1/3 181/2/3 174/3/3
f 199/1/1 200/2/1 201/3/1
f 201/1/1 200/2/1 202/3/1
f 200/1/1 203/2/1 202/3/1
f 202/1/1 203/2/1 204/3/1
f 201/1/1 202/2/1 205/3/1
f 205/1/1 202/2/1 206/3/1
f 202/1/1 204/2/1 206/3/1
f 206/1/1 204/2/1 207/3/1
f 205/1/1 208/2/1 201/3/1
f 208/1/1 209/2/1 201/3/1
f 201/1/1 209/2/1 199/3/1
f 209/1/1 210/2/1 199/3/1
f 203/1/1 211/2/1 204/3/1
f 211/1/1 212/2/1 204/3/1
f 204/1/1 212/2/1 207/3/1
f 212/1/1 213/2/1 207/3/1
f 214/1/1 215/2/1 216/3/1
f 215/1/1 217/2/1 216/3/1
f 218/1/1 219/2/1 220/3/1
f 220/1/1 219/2/1 221/3/1
f 219/1/2 222/2/2 221/3/2
f 221/1/2 222/2/2 223/3/2
f 222/1/1 224/2/1 223/3/1
f 223/1/1 224/2/1 225/3/1
f 224/1/2 226/2/2 225/3/2
f 225/1/2 226/2/2 227/3/2
f 226/1/2 228/2/2 227/3/2
f 227/1/2 228/2/2 229/3/2
f 228/1/2 230/2/2 229/3/2
f 229/1/2 230/2/2 231/3/2
f 230/1/2 228/2/2 232/3/2
f 232/1/2 228/2/2 233/3/2
f 228/1/2 226/2/2 233/3/2
f 233/1/2 226/2/2 234/3/2
f 226/1/2 224/2/2 234/3/2
f 234/1/2 224/2/2 235/3/2
f 224/1/1 222/2/1 235/3/1
f 235/1/1 222/2/1 236/3/1
f 237/1/3 238/2/3 239/3/3
f 239/1/3 238/2/3 240/3/3
f 238/1/3 241/2/3 240/3/3
f 240/1/3 242/2/3 239/3/3
f 242/1/3 243/2/3 239/3/3
f 239/1/3 243/2/3 237/3/3
f 243/1/3 244/2/3 237/3/3
f 237/1/3 244/2/3 245/3/3
f 244/1/3 246/2/3 245/3/3
f 245/1/3 246/2/3 247/3/3
f 246/1/3 248/2/3 247/3/3
f 247/1/3 248/2/3 249/3/3
f 248/1/3 250/2/3 249/3/3
f 251/1/3 252/2/3 253/3/3
f 252/1/3 254/2/3 253/3/3
f 252/1/3 251/2/3 255/3/3
f 255/1/3 251/2/3 256/3/3
f 251/1/3 257/2/3 256/3/3
f 256/1/3 257/2/3 258/3/3
f 238/1/3 237/2/3 258/3/3
f 258/1/3 237/2/3 256/3/3
f 237/1/3 245/2/3 256/3/3
f 256/1/3 245/2/3 255/3/3
f 245/1/3 247/2/3 255/3/3
f 255/1/3 247/2/3 252/3/3
f 247/1/3 249/2/3 252/3/3
f 259/1/18 260/2/18 261/3/18
f 261/1/18 260/2/18 262/3/18
f 260/1/3 263/2/3 262/3/3
f 262/1/3 263/2/3 264/3/3
f 263/1/19 265/2/19 264/3/19
f 264/1/19 265/2/19 266/3/19
f 267/1/19 268/2/19 269/3/19
f 269/1/19 268/2/19 270/3/19
f 268/1/3 271/2/3 270/3/3
f 270/1/3 271/2/3 272/3/3
f 271/1/18 273/2/18 272/3/18
f 272/1/18 273/2/18 274/3/18
f 265/1/19 263/2/19 267/3/19
f 267/1/19 263/2/19 268/3/19
f 263/1/3 260/2/3 268/3/3
f 268/1/3 260/2/3 271/3/3
f 260/1/18 259/2/18 271/3/18
f 271/1/18 259/2/18 273/3/18
