# Blender v2.79 (sub 0) OBJ File: ''
# www.blender.org
mtllib Killplanes.mtl
v 785.031616 159.999771 1359.713989
v 1359.713989 159.999878 785.031128
v 0.000000 160.000000 0.000026
v 0.000240 159.999847 1570.062988
v -785.031677 159.999771 1359.713989
v -1359.713989 159.999878 785.030884
v 785.031616 160.000229 -1359.713989
v 1359.713989 160.000122 -785.031128
v 1570.062988 160.000107 0.000279
v -1570.062988 160.000107 -0.000464
v -1359.713989 160.000122 -785.031616
v -785.031128 160.000229 -1359.713989
v 0.000042 160.000259 -1570.062988
v 785.031616 129.999771 1359.713989
v 1359.713989 129.999878 785.031128
v 0.000000 130.000000 0.000026
v 0.000240 129.999847 1570.062988
v -785.031677 129.999771 1359.713989
v -1359.713989 129.999878 785.030884
v 785.031616 130.000229 -1359.713989
v 1359.713989 130.000122 -785.031128
v 1570.062988 130.000107 0.000279
v -1570.062988 130.000107 -0.000464
v -1359.713989 130.000122 -785.031616
v -785.031128 130.000229 -1359.713989
v 0.000042 130.000259 -1570.062988
vt 0.000000 0.000000
vt 1.000000 1.000000
vt 1.000000 0.000000
vt 1.000000 1.000000
vt 1.000000 0.000000
vt 0.000000 0.000000
vt 1.000000 0.000000
vt 0.000000 0.000000
vt 1.000000 1.000000
vt 0.000000 0.000000
vt 1.000000 0.000000
vt 0.000000 0.000000
vt 1.000000 0.000000
vt 0.000000 0.000000
vt 1.000000 0.000000
vt 0.000000 0.000000
vt 1.000000 0.000000
vt 1.000000 1.000000
vt 0.000000 0.000000
vt 1.000000 0.000000
vt 1.000000 1.000000
vt 0.000000 0.000000
vt 1.000000 1.000000
vt 1.000000 0.000000
vt 1.000000 1.000000
vt 1.000000 0.000000
vt 0.000000 0.000000
vt 1.000000 1.000000
vt 0.000000 0.000000
vt 1.000000 0.000000
vt 0.000000 0.000000
vt 1.000000 1.000000
vt 0.000000 0.000000
vt 1.000000 1.000000
vt 0.000000 0.000000
vt 1.000000 1.000000
vt 0.000000 0.000000
vt 1.000000 1.000000
vt 1.000000 0.000000
vt 0.000000 0.000000
vt 1.000000 1.000000
vt 1.000000 0.000000
vt 0.000000 1.000000
vt 0.000000 1.000000
vt 0.000000 0.000000
vt 0.000000 1.000000
vt 0.000000 0.000000
vt 0.000000 1.000000
vt 0.000000 1.000000
vt 0.000000 0.000000
vt 0.000000 1.000000
vt 1.000000 0.000000
vt 0.000000 1.000000
vt 1.000000 0.000000
vt 0.000000 1.000000
vt 0.000000 1.000000
vt 1.000000 0.000000
vt 0.000000 1.000000
vt 1.000000 0.000000
vt 0.000000 0.000000
vt 0.000000 1.000000
vt 1.000000 0.000000
vt 0.000000 1.000000
vt 0.000000 0.000000
vt 1.000000 1.000000
vt 1.000000 1.000000
vt 1.000000 1.000000
vt 1.000000 1.000000
vt 1.000000 1.000000
vn 0.0000 1.0000 0.0000
vn -0.0000 -1.0000 -0.0000
vn 0.2588 0.0000 -0.9659
vn 0.9659 -0.0000 0.2588
vn -0.2588 0.0000 0.9659
vn -0.7071 0.0000 0.7071
vn 0.9659 0.0000 -0.2588
vn 0.7071 0.0000 0.7071
vn -0.9659 0.0000 0.2588
vn -0.7071 0.0000 -0.7071
vn 0.7071 0.0000 -0.7071
vn -0.2588 0.0000 -0.9659
vn 0.2588 0.0000 0.9659
vn -0.9659 0.0000 -0.2588
usemtl None
s 1
f 1/1/1 2/2/1 3/3/1
f 1/1/1 3/4/1 4/5/1
f 4/6/1 3/4/1 5/7/1
f 3/8/1 6/9/1 5/7/1
f 7/10/1 3/4/1 8/11/1
f 8/12/1 3/4/1 9/13/1
f 3/8/1 2/2/1 9/13/1
f 6/14/1 3/4/1 10/15/1
f 10/16/1 3/4/1 11/17/1
f 3/8/1 12/18/1 11/17/1
f 12/19/1 3/4/1 13/20/1
f 3/8/1 7/21/1 13/20/1
f 14/22/2 16/23/2 15/24/2
f 14/22/2 17/25/2 16/26/2
f 17/27/2 18/28/2 16/26/2
f 16/29/2 18/28/2 19/30/2
f 20/31/2 21/32/2 16/26/2
f 21/33/2 22/34/2 16/26/2
f 16/29/2 22/34/2 15/24/2
f 19/35/2 23/36/2 16/26/2
f 23/37/2 24/38/2 16/26/2
f 16/29/2 24/38/2 25/39/2
f 25/40/2 26/41/2 16/26/2
f 16/29/2 26/41/2 20/42/2
f 20/43/3 13/20/3 7/10/3
f 15/44/4 9/13/4 2/45/4
f 18/46/5 4/5/5 5/47/5
f 19/48/6 5/7/6 6/14/6
f 22/49/7 8/11/7 9/50/7
f 14/51/8 2/52/8 1/1/8
f 23/53/9 6/54/9 10/16/9
f 25/55/10 11/17/10 12/19/10
f 21/56/11 7/57/11 8/12/11
f 26/58/12 12/59/12 13/60/12
f 17/61/13 1/62/13 4/6/13
f 24/63/14 10/15/14 11/64/14
f 20/43/3 26/41/3 13/20/3
f 15/44/4 22/34/4 9/13/4
f 18/46/5 17/25/5 4/5/5
f 19/48/6 18/28/6 5/7/6
f 22/49/7 21/32/7 8/11/7
f 14/51/8 15/65/8 2/52/8
f 23/53/9 19/66/9 6/54/9
f 25/55/10 24/38/10 11/17/10
f 21/56/11 20/67/11 7/57/11
f 26/58/12 25/68/12 12/59/12
f 17/61/13 14/69/13 1/62/13
f 24/63/14 23/36/14 10/15/14
