mtllib Collision.mtl
v 181.080414 149.999985 75.005974
v 75.005981 49.999962 181.080414
v 75.005981 149.999954 181.080429
v -75.005951 49.999962 181.080429
v -75.005951 149.999969 181.08046
v -181.080399 49.999989 75.005989
v -181.080399 149.999985 75.006012
v -181.080414 50.000019 -75.005936
v -181.080414 150.000015 -75.005913
v -75.005974 50.000038 -181.080383
v -75.005974 150.000046 -181.080353
v 75.005951 50.000038 -181.080399
v 75.005951 150.000031 -181.080383
v 181.080399 50.000011 -75.005974
v 181.080399 150.000015 -75.005951
v 181.080414 49.999981 75.005959
v 75.005974 -50.000038 181.080383
v 181.080414 -50.000019 75.005936
v 181.080399 -49.999989 -75.005989
v 75.005951 -49.999962 -181.080429
v -75.005981 -49.999962 -181.080414
v -181.080414 -49.999981 -75.005959
v -181.080399 -50.000011 75.005974
v -75.005951 -50.000038 181.080399
v 207.872894 50.000015 -86.103783
v 179.872864 50.000004 -32.103752
v 179.872864 150 -32.103729
v 179.872772 49.999992 32.103794
v 179.872772 150 32.103813
v 207.872879 149.999985 86.103767
v 207.872879 49.999977 86.103752
v 86.103783 49.999954 207.872894
v 86.103783 149.999969 207.87291
v 86.103745 50.000042 -207.872864
v 207.872894 -49.999985 -86.103806
v 179.872894 50.000004 -32.103775
v 179.872894 -49.999996 -32.103798
v 179.872787 -50.000011 32.103806
v 207.872879 -50.000023 86.103729
v 86.103783 -50.000042 207.872864
v 86.103745 -49.999958 -207.87291
v -86.103783 50.000046 -207.872864
v -86.103783 -49.999958 -207.872894
v -86.103783 150.000031 -207.872849
v 86.103745 150.000031 -207.872849
v 207.872894 150.000015 -86.10376
v 179.872787 49.999992 32.103825
v 86.103783 149.999969 207.87291
v 86.103783 49.999954 207.872894
v -86.103745 49.999958 207.872894
v -86.103745 -50.000042 207.872864
v 86.103783 -50.000042 207.872864
v -207.872879 -50.000015 86.103767
v -207.872879 -49.999977 -86.103752
v -179.872925 -50.000004 32.103783
v -86.103783 50.000046 -207.872864
v -207.872879 50.000023 -86.103737
v -86.103783 -49.999958 -207.872894
v -179.872879 -49.999989 -32.103786
v -179.872925 49.999996 32.103806
v -207.872879 49.999985 86.10379
v -86.103745 149.999969 207.872925
v -179.872879 50.000008 -32.103767
v -179.872864 50.000008 -32.103786
v -179.87291 150 32.103821
v -179.87291 49.999996 32.103798
v -207.872879 149.999985 86.103813
v -179.872864 150 -32.103767
v -207.872879 150.000015 -86.103714
v -86.103783 150.000031 -207.872849
v 0.000002 150 0.00003
v 86.103798 149.999969 207.87291
v -86.103745 149.999969 207.872925
v -0.000002 -50 -0.00001
v 179.872787 -50.000011 32.103798
v 179.87291 -49.999996 -32.103806
v -86.10379 150.000031 -207.872833
v 86.103745 150.000031 -207.872849
v -207.872879 -49.999977 -86.103752
v -179.872894 -49.999989 -32.103771
v -86.103798 -49.999958 -207.872894
v 86.103745 -49.999958 -207.87291
v 207.872894 -49.999985 -86.103813
v 207.872879 149.999985 86.103767
v 207.872894 150.000015 -86.103767
v 207.872879 -50.000023 86.103729
v 86.10379 -50.000042 207.872849
v -86.103745 -50.000042 207.872864
v -179.872925 -50.000004 32.103798
v -207.872879 -50.000015 86.103775
v -207.872879 150.000015 -86.103714
v -207.872879 149.999985 86.103821
vt 0 0
vt 1 0
vt 1 1
vn -0.7071 0.0000 -0.7071
vn -0.0000 0.0000 -1.0000
vn 0.7071 0.0000 -0.7071
vn 1.0000 -0.0000 -0.0000
vn 0.7071 -0.0000 0.7071
vn 0.0000 -0.0000 1.0000
vn -0.7071 -0.0000 0.7071
vn -1.0000 -0.0000 0.0000
vn -0.8878 -0.0000 -0.4603
vn -0.8878 0.0000 0.4603
vn 0.0000 -1.0000 -0.0000
vn 0.8878 0.0000 -0.4603
vn 0.8878 -0.0000 0.4603
vn 0.0000 1.0000 0.0000
usemtl Shape.2012
f 1/1/1 2/2/1 3/3/1
f 2/1/2 4/2/2 3/3/2
f 3/1/2 4/2/2 5/3/2
f 4/1/3 6/2/3 5/3/3
f 5/1/3 6/2/3 7/3/3
f 6/1/4 8/2/4 7/3/4
f 7/1/4 8/2/4 9/3/4
f 8/1/5 10/2/5 9/3/5
f 9/1/5 10/2/5 11/3/5
f 10/1/6 12/2/6 11/3/6
f 11/1/6 12/2/6 13/3/6
f 12/1/7 14/2/7 13/3/7
f 13/1/7 14/2/7 15/3/7
f 14/1/8 16/2/8 15/3/8
f 15/1/8 16/2/8 1/3/8
f 16/1/1 2/2/1 1/3/1
f 17/1/1 16/2/1 18/3/1
f 16/1/8 14/2/8 18/3/8
f 18/1/8 14/2/8 19/3/8
f 14/1/7 12/2/7 19/3/7
f 19/1/7 12/2/7 20/3/7
f 12/1/6 10/2/6 20/3/6
f 20/1/6 10/2/6 21/3/6
f 10/1/5 8/2/5 21/3/5
f 21/1/5 8/2/5 22/3/5
f 8/1/4 6/2/4 22/3/4
f 22/1/4 6/2/4 23/3/4
f 6/1/3 4/2/3 23/3/3
f 23/1/3 4/2/3 24/3/3
f 4/1/2 2/2/2 24/3/2
f 24/1/2 2/2/2 17/3/2
f 2/1/1 16/2/1 17/3/1
f 25/1/9 26/2/9 27/3/9
f 26/1/8 28/2/8 27/3/8
f 27/1/8 28/2/8 29/3/8
f 28/1/10 30/2/10 29/3/10
f 28/1/10 31/2/10 30/3/10
f 31/1/1 32/2/1 30/3/1
f 30/1/1 32/2/1 33/3/1
f 34/1/7 35/2/7 25/3/7
f 25/1/9 35/2/9 36/3/9
f 35/1/9 37/2/9 36/3/9
f 36/1/8 37/2/8 38/3/8
f 37/1/11 39/2/11 38/3/11
f 38/1/10 39/2/10 31/3/10
f 39/1/1 40/2/1 31/3/1
f 31/1/1 40/2/1 32/3/1
f 35/1/7 34/2/7 41/3/7
f 34/1/6 42/2/6 41/3/6
f 41/1/6 42/2/6 43/3/6
f 35/1/11 39/2/11 37/3/11
f 42/1/6 34/2/6 44/3/6
f 44/1/6 34/2/6 45/3/6
f 34/1/7 25/2/7 45/3/7
f 45/1/7 25/2/7 46/3/7
f 25/1/9 27/2/9 46/3/9
f 31/1/10 47/2/10 38/3/10
f 47/1/8 36/2/8 38/3/8
f 48/1/2 49/2/2 50/3/2
f 50/1/2 49/2/2 51/3/2
f 49/1/2 52/2/2 51/3/2
f 53/1/11 54/2/11 55/3/11
f 50/1/3 51/2/3 53/3/3
f 56/1/5 57/2/5 58/3/5
f 58/1/5 57/2/5 54/3/5
f 57/1/12 59/2/12 54/3/12
f 54/1/11 59/2/11 55/3/11
f 59/1/4 60/2/4 55/3/4
f 55/1/13 60/2/13 53/3/13
f 60/1/13 61/2/13 53/3/13
f 53/1/3 61/2/3 50/3/3
f 61/1/3 62/2/3 50/3/3
f 50/1/2 62/2/2 48/3/2
f 60/1/4 59/2/4 63/3/4
f 59/1/12 57/2/12 63/3/12
f 64/1/4 65/2/4 66/3/4
f 66/1/13 65/2/13 61/3/13
f 65/1/13 67/2/13 61/3/13
f 61/1/3 67/2/3 62/3/3
f 65/1/4 64/2/4 68/3/4
f 68/1/12 64/2/12 69/3/12
f 64/1/12 57/2/12 69/3/12
f 69/1/5 57/2/5 56/3/5
f 56/1/5 70/2/5 69/3/5
f 71/1/11 72/2/11 73/3/11
f 74/1/14 75/2/14 76/3/14
f 71/1/11 77/2/11 78/3/11
f 79/1/14 80/2/14 81/3/14
f 80/1/14 74/2/14 81/3/14
f 81/1/14 74/2/14 82/3/14
f 74/1/14 76/2/14 82/3/14
f 82/1/14 76/2/14 83/3/14
f 72/1/11 71/2/11 84/3/11
f 84/1/11 71/2/11 85/3/11
f 71/1/11 78/2/11 85/3/11
f 86/1/14 75/2/14 87/3/14
f 75/1/14 74/2/14 87/3/14
f 87/1/14 74/2/14 88/3/14
f 74/1/14 89/2/14 88/3/14
f 88/1/14 89/2/14 90/3/14
f 77/1/11 71/2/11 91/3/11
f 91/1/11 71/2/11 92/3/11
f 71/1/11 73/2/11 92/3/11
f 74/1/14 80/2/14 89/3/14
