mtllib Collision.mtl
v -161.001465 14.99999 56.000004
v -111.001457 14.999974 106
v -161.001465 14.999991 52.000004
v -111.001457 14.999975 102
v 38.998535 14.99995 105.999992
v 38.998535 14.999951 101.999992
v -111.001465 0.000008 -100
v -161.001465 0.000008 -50
v -111.001465 -0.000008 -0.000002
v -161.001465 0 0
v -111.001465 -0.000024 100
v -161.001465 -0.000008 50
v 38.998535 -0.000049 99.999992
v 38.998535 -0.000033 -0.000009
v 38.998535 -0.000017 -100.000008
v 38.998535 14.999985 -106.000008
v -111.001465 15.000009 -106
v 38.998535 14.999984 -102.000008
v -111.001465 15.000008 -102
v -161.001465 15.00001 -55.999996
v -161.001465 15.000009 -51.999996
v -160.999985 14.99996 52.000225
v -160.999985 -0.000012 50.000221
v -261 14.999966 52.00024
v -261 -0.000008 50.000237
v -161 0.000012 -49.999779
v -161 14.999988 -51.999775
v -261 0.000017 -49.999763
v -261 14.999992 -51.99976
v -670 -45.999969 -102.000015
v -670 108.000031 -101.999969
v -670 -46 -0.000016
v -670 108 0.000034
v -670 -46.000031 101.999985
v -670 107.999969 102.000031
v -670 -200.000031 101.999939
v -670 -200 -0.000067
v -670 -199.999969 -102.000061
v 306 -46 101.999992
v 306 108 101.999985
v 306 -46 -0.00001
v 306 108 -0.00001
v 306 -46 -102.000008
v 306 108 -102.000015
v 306 -200 -102.000008
v 306 -200 -0.00001
v 306 -200 101.999992
v -670 286 0.000056
v -670 285.999969 102.000053
v -670 197 0.000026
v -670 196.999969 102.000023
v -670 108 -0.000002
v -670 107.999969 102
v -670 108.000031 -102
v -670 197.000031 -101.999977
v -670 286.000061 -101.999947
v -361 0.000017 -49.999763
v -261.000641 0.000012 -50.005203
v -361 14.999992 -51.99976
v -261.000641 15.000013 -52.005199
v -361 14.999966 52.00024
v -261.00061 14.999987 51.994801
v -361 -0.000008 50.000237
v -261.00061 -0.000012 49.994797
v -561.001465 -0.000069 99.999962
v -411.001465 14.999955 101.999985
v -411.001465 -0.000044 99.999985
v -361.001465 -0.000022 49.999992
v -361.001465 14.999977 51.999996
v -561.001465 14.99993 101.999962
v -361.001465 0.000006 -50.000008
v -361.001465 15.000006 -52.000004
v -411.001465 0.000012 -100.000015
v -411.001465 15.000012 -102.000015
v -561.001465 -0.000013 -100.000038
v -561.001465 14.999988 -102.000038
v -30 108.000031 -101.999969
v -190 108.000031 -101.999969
v -30 19.000032 -102
v -190 19.000032 -102
v -30 -69.999969 -102.000023
v -190 -69.999969 -102.000023
v -190 107.999969 102.000031
v -30 107.999969 102.000031
v -190 18.999968 102
v -30 18.999968 102
v -190 -70.000031 101.999977
v -30 -70.000031 101.999977
v -190 286.000031 -101.999931
v -350 286.000031 -101.999931
v -190 197.000031 -101.999962
v -350 197.000031 -101.999962
v -190 108.000031 -101.999992
v -350 108.000031 -101.999992
v -350 285.999969 102.000069
v -190 285.999969 102.000069
v -350 196.999969 102.000038
v -190 196.999969 102.000038
v -350 107.999969 102.000008
v -190 107.999969 102.000008
v -350 286.000031 -101.999931
v -510 286.000031 -101.999931
v -350 197.000031 -101.999962
v -510 197.000031 -101.999962
v -350 108.000031 -101.999992
v -510 108.000031 -101.999992
v -510 285.999969 102.000069
v -350 285.999969 102.000069
v -510 196.999969 102.000038
v -350 196.999969 102.000038
v -510 107.999969 102.000008
v -350 107.999969 102.000008
v -510 108.000031 -101.999969
v -670 108.000031 -101.999969
v -510 19.000032 -102
v -670 19.000032 -102
v -510 -69.999969 -102.000023
v -670 -69.999969 -102.000023
v -670 107.999969 102.000031
v -510 107.999969 102.000031
v -670 18.999968 102
v -510 18.999968 102
v -670 -70.000031 101.999977
v -510 -70.000031 101.999977
v 130 286.000031 -101.999931
v -30 286.000031 -101.999931
v 130 197.000031 -101.999962
v -30 197.000031 -101.999962
v 130 108.000031 -101.999992
v -30 108.000031 -101.999992
v -30 285.999969 102.000069
v 130 285.999969 102.000069
v -30 196.999969 102.000038
v 130 196.999969 102.000038
v -30 107.999969 102.000008
v 130 107.999969 102.000008
v -30 286.000031 -101.999931
v -190 286.000031 -101.999931
v -30 197.000031 -101.999962
v -190 197.000031 -101.999962
v -30 108.000031 -101.999992
v -190 108.000031 -101.999992
v -190 285.999969 102.000069
v -30 285.999969 102.000069
v -190 196.999969 102.000038
v -30 196.999969 102.000038
v -190 107.999969 102.000008
v -30 107.999969 102.000008
v -510 286.000031 -101.999931
v -670 286.000031 -101.999931
v -510 197.000031 -101.999962
v -670 197.000031 -101.999962
v -510 108.000031 -101.999992
v -670 108.000031 -101.999992
v -670 285.999969 102.000069
v -510 285.999969 102.000069
v -670 196.999969 102.000038
v -510 196.999969 102.000038
v -670 107.999969 102.000008
v -510 107.999969 102.000008
v 306 286.000031 -101.999931
v 146 286.000031 -101.999931
v 306 197.000031 -101.999962
v 146 197.000031 -101.999962
v 306 108.000031 -101.999992
v 146 108.000031 -101.999992
v 146 285.999969 102.000069
v 306 285.999969 102.000069
v 146 196.999969 102.000038
v 306 196.999969 102.000038
v 146 107.999969 102.000008
v 306 107.999969 102.000008
v 306 108.000031 -101.999969
v 146 108.000031 -101.999969
v 306 19.000032 -102
v 146 19.000032 -102
v 306 -69.999969 -102.000023
v 146 -69.999969 -102.000023
v 146 107.999969 102.000031
v 306 107.999969 102.000031
v 146 18.999968 102
v 306 18.999968 102
v 146 -70.000031 101.999977
v 306 -70.000031 101.999977
v -190 108.000031 -101.999969
v -350 108.000031 -101.999969
v -190 19.000032 -102
v -350 19.000032 -102
v -190 -69.999969 -102.000023
v -350 -69.999969 -102.000023
v -350 107.999969 102.000031
v -190 107.999969 102.000031
v -350 18.999968 102
v -190 18.999968 102
v -350 -70.000031 101.999977
v -190 -70.000031 101.999977
v -350 108.000031 -101.999969
v -510 108.000031 -101.999969
v -350 19.000032 -102
v -510 19.000032 -102
v -350 -69.999969 -102.000023
v -510 -69.999969 -102.000023
v -510 107.999969 102.000031
v -350 107.999969 102.000031
v -510 18.999968 102
v -350 18.999968 102
v -510 -70.000031 101.999977
v -350 -70.000031 101.999977
v -30 108.000031 -101.999977
v -30 15.000031 -102.000008
v 50 108.000031 -101.999977
v 50 15.000031 -102.000008
v 114 108.000031 -101.999977
v 114 15.000031 -102.000008
v -30 14.999969 101.999992
v -30 107.999969 102.000023
v 50 14.999969 101.999992
v 50 107.999969 102.000023
v 114 14.999969 101.999992
v 114 107.999969 102.000023
v 38.998535 -0.000017 -100.000008
v -111.001465 15.000008 -102
v -111.001465 0.000008 -100
v -161.001465 0.000008 -50
v -161.001465 15.000009 -51.999996
v 38.998535 14.999984 -102.000008
v -161.001465 -0.000008 50
v -161.001465 14.999991 52.000004
v -111.001465 -0.000024 100
v -111.001457 14.999975 102
v 38.998535 -0.000049 99.999992
v 38.998535 14.999951 101.999992
v -261.000427 14.99999 55.994816
v -161.00061 14.999986 55.994801
v -261.000427 14.999991 51.994816
v -161.00061 14.999987 51.994801
v -161.000641 15.000014 -56.005199
v -261.000427 15.000019 -56.005184
v -161.000641 15.000013 -52.005199
v -261.000427 15.000018 -52.005184
v -261.000427 -0.000008 49.994812
v -161.00061 -0.000012 49.994797
v -261.000427 0.000017 -50.005188
v -161.000641 0.000012 -50.005203
v -361.000427 14.99999 55.994816
v -261.00061 14.999986 55.994801
v -361.000427 14.999991 51.994816
v -261.00061 14.999987 51.994801
v -261.000641 15.000014 -56.005199
v -361.000427 15.000019 -56.005184
v -261.000641 15.000013 -52.005199
v -361.000427 15.000018 -52.005184
v -361.000427 -0.000008 49.994812
v -261.00061 -0.000012 49.994797
v -361.000427 0.000017 -50.005188
v -261.000641 0.000012 -50.005203
v 113.999969 53.000065 -108
v 113.999977 71.000061 -82.999992
v 114.18911 153.750046 -103.945648
v 114.189125 153.750015 0.000027
v 114 71.000031 83.000008
v 114.189148 153.749985 103.945694
v 114.000008 52.999996 108
v 145.999969 53.000065 -108
v 145.999969 71.000061 -82.999992
v 146 71.000031 83.000008
v 146 52.999996 108
v 157.204559 153.749985 102.409103
v 100 0.000013 107.999992
v 102.795464 153.749985 102.409119
v 100.000015 0.000006 152.999985
v 102.795471 153.749969 144.334122
v 160.000015 0.000006 152.999985
v 157.204559 153.749969 144.334122
v 160 0.000013 107.999977
v 99.999969 0.000049 -108.000008
v 102.795425 153.750061 -144.334061
v 99.999962 0.000056 -153.000015
v 157.204514 153.750061 -144.334061
v 159.999969 0.000056 -153.000015
v 157.204529 153.750046 -102.409073
v 159.999969 0.000049 -108.000023
v 102.795433 153.750046 -102.409058
v 145.810883 153.749985 103.945694
v 145.810852 153.750015 0.000022
v 145.810837 153.750046 -103.945648
v -361.001465 15.000008 -56.000004
v -411.001465 15.000013 -106.000015
v -361.001465 15.000006 -52.000004
v -411.001465 15.000012 -102.000015
v -561.001465 14.999989 -106.000038
v -561.001465 14.999988 -102.000038
v -411.001465 -0.000044 99.999985
v -361.001465 -0.000022 49.999992
v -411.001465 -0.000016 -0.000017
v -361.001465 -0.000008 -0.000009
v -411.001465 0.000012 -100.000015
v -361.001465 0.000006 -50.000008
v -561.001465 -0.000013 -100.000038
v -561.001465 -0.000041 -0.000042
v -561.001465 -0.000069 99.999962
v -561.001465 14.999929 105.999962
v -411.001495 14.999954 105.999985
v -561.001465 14.99993 101.999962
v -411.001465 14.999955 101.999985
v -361.001465 14.999975 55.999996
v -361.001465 14.999977 51.999996
v 96.000023 -160.000076 112.999985
v 92.000031 -320.000092 178.999939
v 96.000031 -160.000107 165.999954
v 168.000031 -320.000092 178.999939
v 164.000031 -160.000107 165.999954
v 168.000015 -320.000092 117.999924
v 164.000031 -160.000076 112.999969
v 92.000015 -320.000092 117.999939
v 100.000031 -0.00011 108.000023
v 100.000038 -0.000117 153
v 160.000031 -0.000117 153
v 160.000031 -0.00011 108.000008
v 163.999985 -160.000046 -113.000031
v 167.999969 -320.000031 -179.000061
v 163.999969 -160.000015 -166.000046
v 91.999969 -320.000031 -179.000061
v 95.999977 -160.000015 -166.000046
v 91.999977 -320.000031 -118.000061
v 95.999985 -160.000046 -113.000015
v 167.999969 -320.000031 -118.000076
v 160 -0.000043 -107.999992
v 159.999985 -0.000036 -153
v 99.999985 -0.000036 -153
v 99.999992 -0.000043 -107.999977
v 172.000015 -480.000031 122.999886
v 172.000015 -480.000031 191.999908
v 88.000015 -480.000031 191.999908
v 88.000015 -480.000031 122.999901
v 87.999969 -479.999969 -123.000099
v 87.999954 -479.999969 -192.000122
v 171.999954 -479.999969 -192.000122
v 171.999969 -479.999969 -123.000114
v 150 -131 11.999975
v 150.576416 -172.5 -0.000036
v 150 -131 -12.000025
v 150.999985 -172.499985 -115.500031
v 149 -84.839722 -91.592934
v 149.999985 -69.999969 -113
v 150 -69.999969 -90
v 109.999985 -69.999969 -113
v 110.999992 -84.839722 -91.592934
v 110 -131 -12.000019
v 109.423584 -172.5 -0.000029
v 110.000008 -131 11.999981
v 109.000023 -172.500015 115.499969
v 111.000023 -84.839783 91.592918
v 110.000031 -70.000031 113
v 110.000023 -70.000031 90
v 150.000031 -70.000031 113
v 149.000015 -84.839783 91.592918
v 151.000015 -172.500015 115.499969
v 150.000031 -70.000031 90
v 109.999992 -69.999969 -90
v 108.000015 -275.000031 117.999947
v 108 -275 -0.000055
v 108.999985 -172.499985 -115.500031
v 152 -275 -0.000062
v 152.000015 -275.000031 117.999947
v 107.999977 -274.999969 -118.000053
v 151.999985 -274.999969 -118.000053
v 38.996872 -0.002643 99.999763
v 38.99691 14.997323 101.999748
v 48.996792 -0.002612 99.998291
v 48.996819 14.997348 101.998291
v 48.996819 14.997348 105.998291
v 38.99691 14.997324 105.999741
v 38.996883 -0.002651 105.999763
v 48.996784 -0.00265 -100.001701
v 48.996811 14.997314 -102.001709
v 38.996864 -0.002681 -100.000229
v 38.996902 14.997291 -102.000252
v 48.996811 14.997313 -106.001701
v 48.996727 -0.00268 -106.001671
v 38.996902 14.997289 -106.000244
v 38.996876 -0.002692 -106.000237
v 48.996769 -0.002675 105.998291
v 38.996857 -15.002635 105.999779
v 48.996716 -15.002708 105.998299
v 48.996681 -15.002689 -0.001684
v 48.996788 -0.002631 -0.001718
v 48.996643 -15.00267 -106.001633
v 38.996849 -15.002671 -106.000221
v 38.996868 -0.002662 -0.000254
v -560.99884 -0.002611 -99.999763
v -560.998901 14.997355 -101.999748
v -570.998779 -0.00258 -99.998291
v -570.998779 14.99738 -101.998291
v -570.998779 14.997382 -105.998291
v -560.998901 14.997358 -105.999741
v -560.99884 -0.002617 -105.999763
v -570.998718 -0.002682 100.001701
v -570.998779 14.997282 102.001709
v -560.998779 -0.002713 100.000229
v -560.99884 14.997258 102.000252
v -570.998718 14.997279 106.001701
v -570.998657 -0.002714 106.001671
v -560.99884 14.997254 106.000244
v -560.99884 -0.002726 106.000237
v -570.998718 -0.002641 -105.998291
v -560.99884 -15.002601 -105.999779
v -570.998657 -15.002674 -105.998291
v -570.998657 -15.002689 0.001682
v -570.998718 -0.002631 0.00172
v -570.998596 -15.002705 106.00164
v -560.998779 -15.002706 106.000221
v -560.99884 -0.002662 0.000254
vt 0 0
vt 1 0
vt 1 1
vn 0.0000 1.0000 0.0000
vn -0.0000 0.1322 -0.9912
vn 0.0000 0.1322 0.9912
vn 1.0000 0.0000 0.0000
vn -1.0000 0.0000 0.0000
vn 0.0001 0.1322 0.9912
vn -0.0001 0.1322 -0.9912
vn -0.7040 0.0939 -0.7040
vn -0.7040 0.0939 0.7040
vn 0.0000 -0.0000 1.0000
vn 0.0000 0.0000 -1.0000
vn 0.7040 0.0939 0.7040
vn 0.7040 0.0939 -0.7040
vn -1.0000 0.0019 -0.0014
vn -1.0000 0.0023 0.0000
vn -1.0000 0.0019 0.0014
vn 0.0000 -0.8115 0.5843
vn 0.0000 -1.0000 -0.0000
vn 0.0000 -0.8115 -0.5843
vn -0.0000 -0.0363 -0.9993
vn -0.9998 0.0182 0.0000
vn 0.0000 0.0563 0.9984
vn 0.9998 0.0182 -0.0000
vn 0.0000 0.0563 -0.9984
vn 0.0000 -0.0363 0.9993
vn 1.0000 0.0019 0.0014
vn 1.0000 0.0023 -0.0000
vn 1.0000 0.0019 -0.0014
vn -0.9997 0.0250 0.0000
vn 0.0000 0.0810 0.9967
vn 0.9997 0.0250 -0.0000
vn 0.0000 -0.0312 -0.9995
vn 0.0000 0.0810 -0.9967
vn 0.0000 -0.0312 0.9995
vn 0.9999 0.0139 0.0000
vn 0.9999 0.0149 0.0037
vn 0.9997 0.0227 0.0006
vn 0.9986 0.0085 0.0525
vn 0.9977 -0.0672 -0.0000
vn -0.4976 -0.0594 0.8654
vn 0.0000 0.8218 0.5697
vn 0.0000 0.8650 0.5017
vn -0.9999 0.0123 -0.0054
vn -0.9999 0.0139 0.0000
vn -0.9999 0.0149 -0.0037
vn -0.9997 0.0227 -0.0006
vn -0.9986 0.0085 -0.0525
vn -0.9977 -0.0672 0.0000
vn 0.4976 -0.0594 -0.8654
vn 0.0000 0.8218 -0.5697
vn 0.0000 0.8650 -0.5017
vn 0.9999 0.0123 0.0054
vn 0.9986 0.0085 -0.0525
vn -0.9977 0.0672 0.0000
vn -0.9999 0.0097 -0.0037
vn -0.9999 0.0139 0.0037
vn -0.9998 0.0218 0.0037
vn -0.9986 0.0085 0.0525
vn 0.9998 0.0218 -0.0037
vn 0.9999 0.0139 -0.0037
vn 1.0000 0.0098 -0.0000
vn -1.0000 0.0098 0.0000
vn 0.9999 0.0097 0.0037
vn 0.0001 0.0000 1.0000
vn -0.0001 -0.0000 -1.0000
usemtl Shape.2565
f 1/1/1 2/2/1 3/3/1
f 3/1/1 2/2/1 4/3/1
f 2/1/1 5/2/1 4/3/1
f 4/1/1 5/2/1 6/3/1
f 7/1/1 8/2/1 9/3/1
f 8/1/1 10/2/1 9/3/1
f 9/1/1 10/2/1 11/3/1
f 10/1/1 12/2/1 11/3/1
f 11/1/1 13/2/1 9/3/1
f 13/1/1 14/2/1 9/3/1
f 9/1/1 14/2/1 7/3/1
f 14/1/1 15/2/1 7/3/1
f 16/1/1 17/2/1 18/3/1
f 18/1/1 17/2/1 19/3/1
f 17/1/1 20/2/1 19/3/1
f 19/1/1 20/2/1 21/3/1
f 22/1/2 23/2/2 24/3/2
f 23/1/2 25/2/2 24/3/2
f 26/1/3 27/2/3 28/3/3
f 27/1/3 29/2/3 28/3/3
f 30/1/4 31/2/4 32/3/4
f 31/1/4 33/2/4 32/3/4
f 32/1/4 33/2/4 34/3/4
f 33/1/4 35/2/4 34/3/4
f 34/1/4 36/2/4 32/3/4
f 36/1/4 37/2/4 32/3/4
f 32/1/4 37/2/4 30/3/4
f 37/1/4 38/2/4 30/3/4
f 39/1/5 40/2/5 41/3/5
f 40/1/5 42/2/5 41/3/5
f 41/1/5 42/2/5 43/3/5
f 42/1/5 44/2/5 43/3/5
f 43/1/5 45/2/5 41/3/5
f 45/1/5 46/2/5 41/3/5
f 41/1/5 46/2/5 39/3/5
f 46/1/5 47/2/5 39/3/5
f 48/1/4 49/2/4 50/3/4
f 49/1/4 51/2/4 50/3/4
f 50/1/4 51/2/4 52/3/4
f 51/1/4 53/2/4 52/3/4
f 52/1/4 54/2/4 50/3/4
f 54/1/4 55/2/4 50/3/4
f 50/1/4 55/2/4 48/3/4
f 55/1/4 56/2/4 48/3/4
f 57/1/6 58/2/6 59/3/6
f 58/1/6 60/2/6 59/3/6
f 61/1/7 62/2/7 63/3/7
f 62/1/7 64/2/7 63/3/7
f 65/1/2 66/2/2 67/3/2
f 67/1/8 66/2/8 68/3/8
f 66/1/8 69/2/8 68/3/8
f 65/1/2 70/2/2 66/3/2
f 71/1/9 72/2/9 73/3/9
f 72/1/9 74/2/9 73/3/9
f 73/1/3 74/2/3 75/3/3
f 74/1/3 76/2/3 75/3/3
f 77/1/10 78/2/10 79/3/10
f 78/1/10 80/2/10 79/3/10
f 79/1/10 80/2/10 81/3/10
f 80/1/10 82/2/10 81/3/10
f 83/1/11 84/2/11 85/3/11
f 84/1/11 86/2/11 85/3/11
f 85/1/11 86/2/11 87/3/11
f 86/1/11 88/2/11 87/3/11
f 89/1/10 90/2/10 91/3/10
f 90/1/10 92/2/10 91/3/10
f 91/1/10 92/2/10 93/3/10
f 92/1/10 94/2/10 93/3/10
f 95/1/11 96/2/11 97/3/11
f 96/1/11 98/2/11 97/3/11
f 97/1/11 98/2/11 99/3/11
f 98/1/11 100/2/11 99/3/11
f 101/1/10 102/2/10 103/3/10
f 102/1/10 104/2/10 103/3/10
f 103/1/10 104/2/10 105/3/10
f 104/1/10 106/2/10 105/3/10
f 107/1/11 108/2/11 109/3/11
f 108/1/11 110/2/11 109/3/11
f 109/1/11 110/2/11 111/3/11
f 110/1/11 112/2/11 111/3/11
f 113/1/10 114/2/10 115/3/10
f 114/1/10 116/2/10 115/3/10
f 115/1/10 116/2/10 117/3/10
f 116/1/10 118/2/10 117/3/10
f 119/1/11 120/2/11 121/3/11
f 120/1/11 122/2/11 121/3/11
f 121/1/11 122/2/11 123/3/11
f 122/1/11 124/2/11 123/3/11
f 125/1/10 126/2/10 127/3/10
f 126/1/10 128/2/10 127/3/10
f 127/1/10 128/2/10 129/3/10
f 128/1/10 130/2/10 129/3/10
f 131/1/11 132/2/11 133/3/11
f 132/1/11 134/2/11 133/3/11
f 133/1/11 134/2/11 135/3/11
f 134/1/11 136/2/11 135/3/11
f 137/1/10 138/2/10 139/3/10
f 138/1/10 140/2/10 139/3/10
f 139/1/10 140/2/10 141/3/10
f 140/1/10 142/2/10 141/3/10
f 143/1/11 144/2/11 145/3/11
f 144/1/11 146/2/11 145/3/11
f 145/1/11 146/2/11 147/3/11
f 146/1/11 148/2/11 147/3/11
f 149/1/10 150/2/10 151/3/10
f 150/1/10 152/2/10 151/3/10
f 151/1/10 152/2/10 153/3/10
f 152/1/10 154/2/10 153/3/10
f 155/1/11 156/2/11 157/3/11
f 156/1/11 158/2/11 157/3/11
f 157/1/11 158/2/11 159/3/11
f 158/1/11 160/2/11 159/3/11
f 161/1/10 162/2/10 163/3/10
f 162/1/10 164/2/10 163/3/10
f 163/1/10 164/2/10 165/3/10
f 164/1/10 166/2/10 165/3/10
f 167/1/11 168/2/11 169/3/11
f 168/1/11 170/2/11 169/3/11
f 169/1/11 170/2/11 171/3/11
f 170/1/11 172/2/11 171/3/11
f 173/1/10 174/2/10 175/3/10
f 174/1/10 176/2/10 175/3/10
f 175/1/10 176/2/10 177/3/10
f 176/1/10 178/2/10 177/3/10
f 179/1/11 180/2/11 181/3/11
f 180/1/11 182/2/11 181/3/11
f 181/1/11 182/2/11 183/3/11
f 182/1/11 184/2/11 183/3/11
f 185/1/10 186/2/10 187/3/10
f 186/1/10 188/2/10 187/3/10
f 187/1/10 188/2/10 189/3/10
f 188/1/10 190/2/10 189/3/10
f 191/1/11 192/2/11 193/3/11
f 192/1/11 194/2/11 193/3/11
f 193/1/11 194/2/11 195/3/11
f 194/1/11 196/2/11 195/3/11
f 197/1/10 198/2/10 199/3/10
f 198/1/10 200/2/10 199/3/10
f 199/1/10 200/2/10 201/3/10
f 200/1/10 202/2/10 201/3/10
f 203/1/11 204/2/11 205/3/11
f 204/1/11 206/2/11 205/3/11
f 205/1/11 206/2/11 207/3/11
f 206/1/11 208/2/11 207/3/11
f 209/1/10 210/2/10 211/3/10
f 210/1/10 212/2/10 211/3/10
f 211/1/10 212/2/10 213/3/10
f 212/1/10 214/2/10 213/3/10
f 215/1/11 216/2/11 217/3/11
f 216/1/11 218/2/11 217/3/11
f 217/1/11 218/2/11 219/3/11
f 218/1/11 220/2/11 219/3/11
f 221/1/3 222/2/3 223/3/3
f 223/1/12 222/2/12 224/3/12
f 222/1/12 225/2/12 224/3/12
f 221/1/3 226/2/3 222/3/3
f 227/1/13 228/2/13 229/3/13
f 228/1/13 230/2/13 229/3/13
f 229/1/2 230/2/2 231/3/2
f 230/1/2 232/2/2 231/3/2
f 233/1/1 234/2/1 235/3/1
f 234/1/1 236/2/1 235/3/1
f 237/1/1 238/2/1 239/3/1
f 238/1/1 240/2/1 239/3/1
f 241/1/1 242/2/1 243/3/1
f 242/1/1 244/2/1 243/3/1
f 245/1/1 246/2/1 247/3/1
f 246/1/1 248/2/1 247/3/1
f 249/1/1 250/2/1 251/3/1
f 250/1/1 252/2/1 251/3/1
f 253/1/1 254/2/1 255/3/1
f 254/1/1 256/2/1 255/3/1
f 257/1/14 258/2/14 259/3/14
f 259/1/15 258/2/15 260/3/15
f 258/1/15 261/2/15 260/3/15
f 260/1/15 261/2/15 262/3/15
f 261/1/16 263/2/16 262/3/16
f 264/1/17 265/2/17 257/3/17
f 257/1/17 265/2/17 258/3/17
f 265/1/18 266/2/18 258/3/18
f 258/1/18 266/2/18 261/3/18
f 266/1/19 267/2/19 261/3/19
f 261/1/19 267/2/19 263/3/19
f 268/1/20 269/2/20 270/3/20
f 269/1/21 271/2/21 270/3/21
f 270/1/21 271/2/21 272/3/21
f 271/1/22 273/2/22 272/3/22
f 272/1/22 273/2/22 274/3/22
f 273/1/23 275/2/23 274/3/23
f 274/1/23 275/2/23 268/3/23
f 275/1/20 269/2/20 268/3/20
f 276/1/21 277/2/21 278/3/21
f 277/1/24 279/2/24 278/3/24
f 278/1/24 279/2/24 280/3/24
f 279/1/23 281/2/23 280/3/23
f 280/1/23 281/2/23 282/3/23
f 281/1/25 283/2/25 282/3/25
f 282/1/25 283/2/25 276/3/25
f 283/1/21 277/2/21 276/3/21
f 267/1/26 266/2/26 284/3/26
f 284/1/27 266/2/27 285/3/27
f 266/1/27 265/2/27 285/3/27
f 285/1/27 265/2/27 286/3/27
f 265/1/28 264/2/28 286/3/28
f 287/1/1 288/2/1 289/3/1
f 289/1/1 288/2/1 290/3/1
f 288/1/1 291/2/1 290/3/1
f 290/1/1 291/2/1 292/3/1
f 293/1/1 294/2/1 295/3/1
f 294/1/1 296/2/1 295/3/1
f 295/1/1 296/2/1 297/3/1
f 296/1/1 298/2/1 297/3/1
f 297/1/1 299/2/1 295/3/1
f 299/1/1 300/2/1 295/3/1
f 295/1/1 300/2/1 293/3/1
f 300/1/1 301/2/1 293/3/1
f 302/1/1 303/2/1 304/3/1
f 304/1/1 303/2/1 305/3/1
f 303/1/1 306/2/1 305/3/1
f 305/1/1 306/2/1 307/3/1
f 308/1/29 309/2/29 310/3/29
f 309/1/30 311/2/30 310/3/30
f 310/1/30 311/2/30 312/3/30
f 311/1/31 313/2/31 312/3/31
f 312/1/31 313/2/31 314/3/31
f 313/1/32 315/2/32 314/3/32
f 314/1/32 315/2/32 308/3/32
f 315/1/29 309/2/29 308/3/29
f 316/1/29 310/2/29 317/3/29
f 310/1/30 312/2/30 317/3/30
f 317/1/30 312/2/30 318/3/30
f 312/1/31 314/2/31 318/3/31
f 318/1/31 314/2/31 319/3/31
f 314/1/32 308/2/32 319/3/32
f 319/1/32 308/2/32 316/3/32
f 308/1/29 310/2/29 316/3/29
f 320/1/31 321/2/31 322/3/31
f 321/1/33 323/2/33 322/3/33
f 322/1/33 323/2/33 324/3/33
f 323/1/29 325/2/29 324/3/29
f 324/1/29 325/2/29 326/3/29
f 325/1/34 327/2/34 326/3/34
f 326/1/34 327/2/34 320/3/34
f 327/1/31 321/2/31 320/3/31
f 328/1/31 322/2/31 329/3/31
f 322/1/33 324/2/33 329/3/33
f 329/1/33 324/2/33 330/3/33
f 324/1/29 326/2/29 330/3/29
f 330/1/29 326/2/29 331/3/29
f 326/1/34 320/2/34 331/3/34
f 331/1/34 320/2/34 328/3/34
f 320/1/31 322/2/31 328/3/31
f 332/1/31 311/2/31 333/3/31
f 311/1/30 309/2/30 333/3/30
f 333/1/30 309/2/30 334/3/30
f 309/1/29 315/2/29 334/3/29
f 334/1/29 315/2/29 335/3/29
f 315/1/32 313/2/32 335/3/32
f 335/1/32 313/2/32 332/3/32
f 313/1/31 311/2/31 332/3/31
f 336/1/29 323/2/29 337/3/29
f 323/1/33 321/2/33 337/3/33
f 337/1/33 321/2/33 338/3/33
f 321/1/31 327/2/31 338/3/31
f 338/1/31 327/2/31 339/3/31
f 327/1/34 325/2/34 339/3/34
f 339/1/34 325/2/34 336/3/34
f 325/1/29 323/2/29 336/3/29
f 340/1/35 341/2/35 342/3/35
f 341/1/36 343/2/36 342/3/36
f 342/1/37 343/2/37 344/3/37
f 343/1/38 345/2/38 344/3/38
f 344/1/39 345/2/39 346/3/39
f 345/1/1 347/2/1 346/3/1
f 346/1/40 347/2/40 344/3/40
f 347/1/41 348/2/41 344/3/41
f 344/1/42 348/2/42 349/3/42
f 348/1/43 350/2/43 349/3/43
f 349/1/44 350/2/44 351/3/44
f 350/1/45 352/2/45 351/3/45
f 351/1/46 352/2/46 353/3/46
f 352/1/47 354/2/47 353/3/47
f 353/1/48 354/2/48 355/3/48
f 354/1/1 356/2/1 355/3/1
f 355/1/49 356/2/49 353/3/49
f 356/1/50 357/2/50 353/3/50
f 353/1/51 357/2/51 340/3/51
f 357/1/52 341/2/52 340/3/52
f 358/1/53 357/2/53 356/3/53
f 353/1/51 340/2/51 351/3/51
f 340/1/1 342/2/1 351/3/1
f 351/1/1 342/2/1 349/3/1
f 342/1/42 344/2/42 349/3/42
f 359/1/54 357/2/54 356/3/54
f 348/1/48 360/2/48 347/3/48
f 352/1/55 350/2/55 361/3/55
f 361/1/44 350/2/44 362/3/44
f 362/1/56 350/2/56 363/3/56
f 350/1/57 348/2/57 363/3/57
f 363/1/58 348/2/58 347/3/58
f 357/1/59 358/2/59 341/3/59
f 341/1/60 358/2/60 364/3/60
f 358/1/61 365/2/61 364/3/61
f 363/1/62 366/2/62 362/3/62
f 364/1/35 367/2/35 341/3/35
f 367/1/63 343/2/63 341/3/63
f 368/1/7 369/2/7 370/3/7
f 370/1/7 369/2/7 371/3/7
f 371/1/1 369/2/1 372/3/1
f 369/1/1 373/2/1 372/3/1
f 372/1/64 373/2/64 374/3/64
f 375/1/6 376/2/6 377/3/6
f 376/1/6 378/2/6 377/3/6
f 379/1/65 380/2/65 381/3/65
f 380/1/65 382/2/65 381/3/65
f 376/1/4 375/2/4 379/3/4
f 375/1/4 380/2/4 379/3/4
f 383/1/64 372/2/64 374/3/64
f 372/1/4 383/2/4 371/3/4
f 383/1/4 370/2/4 371/3/4
f 379/1/1 381/2/1 376/3/1
f 381/1/1 378/2/1 376/3/1
f 374/1/64 384/2/64 383/3/64
f 384/1/64 385/2/64 383/3/64
f 383/1/4 385/2/4 370/3/4
f 385/1/4 386/2/4 370/3/4
f 370/1/4 386/2/4 387/3/4
f 386/1/4 388/2/4 387/3/4
f 387/1/4 388/2/4 375/3/4
f 388/1/4 380/2/4 375/3/4
f 389/1/65 382/2/65 388/3/65
f 382/1/65 380/2/65 388/3/65
f 370/1/1 387/2/1 368/3/1
f 368/1/1 387/2/1 390/3/1
f 387/1/1 375/2/1 390/3/1
f 390/1/1 375/2/1 377/3/1
f 391/1/6 392/2/6 393/3/6
f 393/1/6 392/2/6 394/3/6
f 394/1/1 392/2/1 395/3/1
f 392/1/1 396/2/1 395/3/1
f 395/1/65 396/2/65 397/3/65
f 398/1/7 399/2/7 400/3/7
f 399/1/7 401/2/7 400/3/7
f 402/1/64 403/2/64 404/3/64
f 403/1/64 405/2/64 404/3/64
f 399/1/5 398/2/5 402/3/5
f 398/1/5 403/2/5 402/3/5
f 406/1/65 395/2/65 397/3/65
f 395/1/5 406/2/5 394/3/5
f 406/1/5 393/2/5 394/3/5
f 402/1/1 404/2/1 399/3/1
f 404/1/1 401/2/1 399/3/1
f 397/1/65 407/2/65 406/3/65
f 407/1/65 408/2/65 406/3/65
f 406/1/5 408/2/5 393/3/5
f 408/1/5 409/2/5 393/3/5
f 393/1/5 409/2/5 410/3/5
f 409/1/5 411/2/5 410/3/5
f 410/1/5 411/2/5 398/3/5
f 411/1/5 403/2/5 398/3/5
f 412/1/64 405/2/64 411/3/64
f 405/1/64 403/2/64 411/3/64
f 393/1/1 410/2/1 391/3/1
f 391/1/1 410/2/1 413/3/1
f 410/1/1 398/2/1 413/3/1
f 413/1/1 398/2/1 400/3/1
