mtllib Collision.mtl
v 0 -340.000061 149.999924
v 150 -340.000061 149.999924
v 0 -340 -0.00007
v 150 -340 -0.00007
v 0 -339.999939 -150.000076
v 150 -339.999939 -150.000076
v -150 -339.999939 -150.000076
v -150 -340 -0.00007
v -150 -340.000061 149.999924
v 100 -340.000031 129.999878
v 100 -340.000031 149.999878
v 100 -170.000015 129.999924
v 100 -170.000031 149.999924
v 100 -0.000029 129.999985
v 100 -0.000032 149.999985
v 100 169.999985 130.000046
v 100 169.999969 150.000046
v 130 -340.000031 99.999878
v 130 -170.000015 99.999931
v 130 -0.000016 99.999985
v 130 169.999985 100.000046
v 150 169.999985 100.000046
v 150 -0.000016 99.999985
v 150 -170.000015 99.999931
v 150 -340.000031 99.999878
v 129.999985 -339.999969 -100.000092
v 149.999985 -339.999969 -100.000092
v 130 -169.999985 -100.000053
v 150 -169.999985 -100.000053
v 130 0.000024 -100.000008
v 150 0.000024 -100.000008
v 130.000015 170.000015 -99.999962
v 150.000015 170.000015 -99.999962
v 99.999985 -339.999969 -130.000092
v 99.999992 -169.999985 -130.000046
v 100 0.000029 -130
v 100.000008 170.000015 -129.999954
v 100 170.000031 -149.999954
v 100 0.000032 -150
v 99.999985 -169.999969 -150.000046
v 99.999985 -339.999969 -150.000092
v -99.999985 -339.999969 -130.000015
v -99.999985 -339.999969 -150.000015
v -99.999985 -169.999985 -130.000015
v -99.999985 -169.999969 -150.000015
v -99.999985 0.000029 -130.000015
v -99.999985 0.000032 -150.000015
v -99.999985 170.000015 -130
v -99.999985 170.000031 -150
v -129.999985 -339.999969 -100.000008
v -129.999985 -169.999985 -100.000008
v -129.999985 0.000031 -100
v -129.999985 170.000031 -100
v -149.999985 170.000031 -100
v -149.999985 0.000031 -100
v -149.999985 -169.999985 -100
v -149.999985 -339.999969 -100
v -129.999924 -340.000031 99.999901
v -149.999924 -340.000031 99.999901
v -129.999954 -170.000015 99.999939
v -149.999954 -170.000015 99.999939
v -129.999985 -0.000016 99.999992
v -149.999985 -0.000016 99.999992
v -130.000015 169.999985 100.000046
v -150.000015 169.999985 100.000046
v -99.999931 -340.000031 129.999893
v -99.999954 -170.000015 129.999939
v -99.999985 -0.000021 130
v -100.000015 169.999985 130.000046
v -100.000015 169.999969 150.000046
v -99.999985 -0.000024 150
v -99.999962 -170.000031 149.999939
v -99.999939 -340.000031 149.999893
v 130 -20.00004 100
v 130 -0.000038 100
v 130 -20 -0.000005
v 130 0 0.000001
v 130 -19.99996 -100
v 130 0.000039 -100
v 150 -19.99996 -100
v 150 -20 -0.000005
v 150 -20.00004 100
v 150 -0.000038 100
v 150 0 0.000001
v 150 0.000039 -100
v 100 -19.999987 -130.000015
v 100 0.000015 -130.000015
v 0.000001 -19.999975 -130
v 0.000002 0.000026 -130
v -100 -19.999964 -129.999985
v -100 0.000037 -129.999985
v -100 -19.999958 -149.999985
v -0.000002 -19.999968 -150
v 100 -19.999979 -150.000015
v 100 0.00002 -150.000015
v -0.000001 0.000031 -150
v -100 0.000042 -149.999985
v -130.000015 -20.000006 -100
v -130.000015 -0.000006 -100
v -130 -20 -0.000004
v -130 0 -0.000005
v -129.999985 -19.999994 100
v -129.999985 0.000007 100
v -149.999985 -19.999994 100
v -150 -20 -0.000001
v -150.000015 -20.000006 -100
v -150.000015 -0.000006 -100
v -150 0 -0.000002
v -149.999985 0.000007 100
v -100 -20.000048 129.999985
v -100 -0.000048 129.999985
v 0.000003 -20.000025 130
v 0 -0.000026 130
v 100 -20.000004 130.000015
v 100 -0.000003 130.000015
v 100 -20.00001 150.000015
v 0 -20.000032 150
v -100 -20.000055 149.999985
v -100 -0.000053 149.999985
v -0.000003 -0.000031 150
v 100 -0.000008 150.000015
v -100 -190.000031 129.999939
v -100 -170.000031 129.999939
v 0.000003 -190.000015 129.999954
v 0 -170.000015 129.999954
v 100 -189.999985 129.999969
v 100 -169.999985 129.999969
v 100 -190.000015 149.999969
v 0 -190.000031 149.999954
v -100 -190.000061 149.999939
v -100 -170.000061 149.999939
v -0.000003 -170.000031 149.999954
v 100 -170.000015 149.999969
v -130.000015 -190.000015 -100.000038
v -130.000015 -170 -100.000038
v -130 -190 -0.00004
v -130 -170 -0.00004
v -129.999985 -190 99.999962
v -129.999985 -169.999985 99.999962
v -149.999985 -190 99.999962
v -150 -190 -0.000037
v -150.000015 -190.000015 -100.000038
v -150.000015 -170 -100.000038
v -150 -170 -0.000037
v -149.999985 -169.999985 99.999962
v 100 -190 -130.000061
v 100 -170 -130.000061
v 0.000001 -189.999985 -130.000046
v 0.000002 -169.999985 -130.000046
v -100 -189.999969 -130.000031
v -100 -169.999969 -130.000031
v -100 -189.999954 -150.000031
v -0.000002 -189.999969 -150.000046
v 100 -189.999985 -150.000061
v 100 -169.999985 -150.000061
v -0.000001 -169.999969 -150.000046
v -100 -169.999954 -150.000031
v 130 -190.000046 99.999962
v 130 -170.000031 99.999962
v 130 -190 -0.00004
v 130 -170 -0.000034
v 130 -189.999969 -100.000038
v 130 -169.999954 -100.000038
v 150 -189.999969 -100.000038
v 150 -190 -0.00004
v 150 -190.000046 99.999962
v 150 -170.000031 99.999962
v 150 -170 -0.000034
v 150 -169.999954 -100.000038
v -130.000015 149.999985 -99.999969
v -130.000015 170 -99.999962
v -130 150 0.00003
v -130 170 0.000031
v -129.999985 150 100.000031
v -129.999985 170.000015 100.000038
v -149.999985 150 100.000031
v -150 150 0.000033
v -150.000015 149.999985 -99.999969
v -100 149.999969 130.000015
v -100 169.999969 130.000015
v 0.000003 149.999985 130.000031
v 0 169.999985 130.000031
v 100 150.000015 130.000046
v 100 170.000015 130.000046
v 100 149.999985 150.000046
v 0 149.999969 150.000031
v -100 149.999939 150.000015
v 130 149.999954 100.000031
v 130 169.999969 100.000038
v 130 150 0.000029
v 130 170 0.000037
v 130 150.000031 -99.999969
v 130 170.000046 -99.999962
v 150 150.000031 -99.999969
v 150 150 0.000029
v 150 149.999954 100.000031
v 100 150 -129.999985
v 100 170 -129.999985
v 0.000001 150.000015 -129.999969
v 0.000002 170.000015 -129.999969
v -100 150.000031 -129.999954
v -100 170.000031 -129.999954
v -100 150.000046 -149.999954
v -0.000002 150.000031 -149.999969
v 100 150.000015 -149.999985
vt 0 0
vt 1 0
vt 1 1
vn 0.0000 1.0000 0.0000
vn -1.0000 0.0000 0.0000
vn -0.7071 0.0000 -0.7071
vn 0.0000 0.0000 -1.0000
vn 0.0000 -0.0000 1.0000
vn -0.7071 -0.0000 0.7071
vn 1.0000 0.0000 0.0000
vn 0.7071 0.0000 0.7071
vn 0.7071 0.0000 -0.7071
vn 0.0000 -1.0000 -0.0000
usemtl Shape.2200
f 1/1/1 2/2/1 3/3/1
f 2/1/1 4/2/1 3/3/1
f 3/1/1 4/2/1 5/3/1
f 4/1/1 6/2/1 5/3/1
f 5/1/1 7/2/1 3/3/1
f 7/1/1 8/2/1 3/3/1
f 3/1/1 8/2/1 1/3/1
f 8/1/1 9/2/1 1/3/1
f 10/1/2 11/2/2 12/3/2
f 11/1/2 13/2/2 12/3/2
f 12/1/2 13/2/2 14/3/2
f 13/1/2 15/2/2 14/3/2
f 14/1/2 15/2/2 16/3/2
f 15/1/2 17/2/2 16/3/2
f 18/1/3 10/2/3 19/3/3
f 10/1/3 12/2/3 19/3/3
f 19/1/3 12/2/3 20/3/3
f 12/1/3 14/2/3 20/3/3
f 20/1/3 14/2/3 21/3/3
f 14/1/3 16/2/3 21/3/3
f 21/1/4 22/2/4 20/3/4
f 22/1/4 23/2/4 20/3/4
f 20/1/4 23/2/4 19/3/4
f 23/1/4 24/2/4 19/3/4
f 19/1/4 24/2/4 18/3/4
f 24/1/4 25/2/4 18/3/4
f 26/1/5 27/2/5 28/3/5
f 27/1/5 29/2/5 28/3/5
f 28/1/5 29/2/5 30/3/5
f 29/1/5 31/2/5 30/3/5
f 30/1/5 31/2/5 32/3/5
f 31/1/5 33/2/5 32/3/5
f 34/1/6 26/2/6 35/3/6
f 26/1/6 28/2/6 35/3/6
f 35/1/6 28/2/6 36/3/6
f 28/1/6 30/2/6 36/3/6
f 36/1/6 30/2/6 37/3/6
f 30/1/6 32/2/6 37/3/6
f 37/1/2 38/2/2 36/3/2
f 38/1/2 39/2/2 36/3/2
f 36/1/2 39/2/2 35/3/2
f 39/1/2 40/2/2 35/3/2
f 35/1/2 40/2/2 34/3/2
f 40/1/2 41/2/2 34/3/2
f 42/1/7 43/2/7 44/3/7
f 43/1/7 45/2/7 44/3/7
f 44/1/7 45/2/7 46/3/7
f 45/1/7 47/2/7 46/3/7
f 46/1/7 47/2/7 48/3/7
f 47/1/7 49/2/7 48/3/7
f 50/1/8 42/2/8 51/3/8
f 42/1/8 44/2/8 51/3/8
f 51/1/8 44/2/8 52/3/8
f 44/1/8 46/2/8 52/3/8
f 52/1/8 46/2/8 53/3/8
f 46/1/8 48/2/8 53/3/8
f 53/1/5 54/2/5 52/3/5
f 54/1/5 55/2/5 52/3/5
f 52/1/5 55/2/5 51/3/5
f 55/1/5 56/2/5 51/3/5
f 51/1/5 56/2/5 50/3/5
f 56/1/5 57/2/5 50/3/5
f 58/1/4 59/2/4 60/3/4
f 59/1/4 61/2/4 60/3/4
f 60/1/4 61/2/4 62/3/4
f 61/1/4 63/2/4 62/3/4
f 62/1/4 63/2/4 64/3/4
f 63/1/4 65/2/4 64/3/4
f 66/1/9 58/2/9 67/3/9
f 58/1/9 60/2/9 67/3/9
f 67/1/9 60/2/9 68/3/9
f 60/1/9 62/2/9 68/3/9
f 68/1/9 62/2/9 69/3/9
f 62/1/9 64/2/9 69/3/9
f 69/1/7 70/2/7 68/3/7
f 70/1/7 71/2/7 68/3/7
f 68/1/7 71/2/7 67/3/7
f 71/1/7 72/2/7 67/3/7
f 67/1/7 72/2/7 66/3/7
f 72/1/7 73/2/7 66/3/7
f 74/1/2 75/2/2 76/3/2
f 75/1/2 77/2/2 76/3/2
f 76/1/2 77/2/2 78/3/2
f 77/1/2 79/2/2 78/3/2
f 78/1/10 80/2/10 76/3/10
f 80/1/10 81/2/10 76/3/10
f 76/1/10 81/2/10 74/3/10
f 81/1/10 82/2/10 74/3/10
f 75/1/1 83/2/1 77/3/1
f 83/1/1 84/2/1 77/3/1
f 77/1/1 84/2/1 79/3/1
f 84/1/1 85/2/1 79/3/1
f 86/1/5 87/2/5 88/3/5
f 87/1/5 89/2/5 88/3/5
f 88/1/5 89/2/5 90/3/5
f 89/1/5 91/2/5 90/3/5
f 90/1/10 92/2/10 88/3/10
f 92/1/10 93/2/10 88/3/10
f 88/1/10 93/2/10 86/3/10
f 93/1/10 94/2/10 86/3/10
f 87/1/1 95/2/1 89/3/1
f 95/1/1 96/2/1 89/3/1
f 89/1/1 96/2/1 91/3/1
f 96/1/1 97/2/1 91/3/1
f 98/1/7 99/2/7 100/3/7
f 99/1/7 101/2/7 100/3/7
f 100/1/7 101/2/7 102/3/7
f 101/1/7 103/2/7 102/3/7
f 102/1/10 104/2/10 100/3/10
f 104/1/10 105/2/10 100/3/10
f 100/1/10 105/2/10 98/3/10
f 105/1/10 106/2/10 98/3/10
f 99/1/1 107/2/1 101/3/1
f 107/1/1 108/2/1 101/3/1
f 101/1/1 108/2/1 103/3/1
f 108/1/1 109/2/1 103/3/1
f 110/1/4 111/2/4 112/3/4
f 111/1/4 113/2/4 112/3/4
f 112/1/4 113/2/4 114/3/4
f 113/1/4 115/2/4 114/3/4
f 114/1/10 116/2/10 112/3/10
f 116/1/10 117/2/10 112/3/10
f 112/1/10 117/2/10 110/3/10
f 117/1/10 118/2/10 110/3/10
f 111/1/1 119/2/1 113/3/1
f 119/1/1 120/2/1 113/3/1
f 113/1/1 120/2/1 115/3/1
f 120/1/1 121/2/1 115/3/1
f 122/1/4 123/2/4 124/3/4
f 123/1/4 125/2/4 124/3/4
f 124/1/4 125/2/4 126/3/4
f 125/1/4 127/2/4 126/3/4
f 126/1/10 128/2/10 124/3/10
f 128/1/10 129/2/10 124/3/10
f 124/1/10 129/2/10 122/3/10
f 129/1/10 130/2/10 122/3/10
f 123/1/1 131/2/1 125/3/1
f 131/1/1 132/2/1 125/3/1
f 125/1/1 132/2/1 127/3/1
f 132/1/1 133/2/1 127/3/1
f 134/1/7 135/2/7 136/3/7
f 135/1/7 137/2/7 136/3/7
f 136/1/7 137/2/7 138/3/7
f 137/1/7 139/2/7 138/3/7
f 138/1/10 140/2/10 136/3/10
f 140/1/10 141/2/10 136/3/10
f 136/1/10 141/2/10 134/3/10
f 141/1/10 142/2/10 134/3/10
f 135/1/1 143/2/1 137/3/1
f 143/1/1 144/2/1 137/3/1
f 137/1/1 144/2/1 139/3/1
f 144/1/1 145/2/1 139/3/1
f 146/1/5 147/2/5 148/3/5
f 147/1/5 149/2/5 148/3/5
f 148/1/5 149/2/5 150/3/5
f 149/1/5 151/2/5 150/3/5
f 150/1/10 152/2/10 148/3/10
f 152/1/10 153/2/10 148/3/10
f 148/1/10 153/2/10 146/3/10
f 153/1/10 154/2/10 146/3/10
f 147/1/1 155/2/1 149/3/1
f 155/1/1 156/2/1 149/3/1
f 149/1/1 156/2/1 151/3/1
f 156/1/1 157/2/1 151/3/1
f 158/1/2 159/2/2 160/3/2
f 159/1/2 161/2/2 160/3/2
f 160/1/2 161/2/2 162/3/2
f 161/1/2 163/2/2 162/3/2
f 162/1/10 164/2/10 160/3/10
f 164/1/10 165/2/10 160/3/10
f 160/1/10 165/2/10 158/3/10
f 165/1/10 166/2/10 158/3/10
f 159/1/1 167/2/1 161/3/1
f 167/1/1 168/2/1 161/3/1
f 161/1/1 168/2/1 163/3/1
f 168/1/1 169/2/1 163/3/1
f 170/1/7 171/2/7 172/3/7
f 171/1/7 173/2/7 172/3/7
f 172/1/7 173/2/7 174/3/7
f 173/1/7 175/2/7 174/3/7
f 174/1/10 176/2/10 172/3/10
f 176/1/10 177/2/10 172/3/10
f 172/1/10 177/2/10 170/3/10
f 177/1/10 178/2/10 170/3/10
f 179/1/4 180/2/4 181/3/4
f 180/1/4 182/2/4 181/3/4
f 181/1/4 182/2/4 183/3/4
f 182/1/4 184/2/4 183/3/4
f 183/1/10 185/2/10 181/3/10
f 185/1/10 186/2/10 181/3/10
f 181/1/10 186/2/10 179/3/10
f 186/1/10 187/2/10 179/3/10
f 188/1/2 189/2/2 190/3/2
f 189/1/2 191/2/2 190/3/2
f 190/1/2 191/2/2 192/3/2
f 191/1/2 193/2/2 192/3/2
f 192/1/10 194/2/10 190/3/10
f 194/1/10 195/2/10 190/3/10
f 190/1/10 195/2/10 188/3/10
f 195/1/10 196/2/10 188/3/10
f 197/1/5 198/2/5 199/3/5
f 198/1/5 200/2/5 199/3/5
f 199/1/5 200/2/5 201/3/5
f 200/1/5 202/2/5 201/3/5
f 201/1/10 203/2/10 199/3/10
f 203/1/10 204/2/10 199/3/10
f 199/1/10 204/2/10 197/3/10
f 204/1/10 205/2/10 197/3/10
