# Blender v2.79 (sub 0) OBJ File: ''
# www.blender.org
mtllib Killplanes.mtl
v 11984.000000 -15209.802734 18767.708984
v 11992.000000 -15063.833008 18211.878906
v -2995.000000 -15209.802734 18767.708984
v -2995.000000 -15063.833008 18211.878906
v 11992.000000 -13259.943359 16085.648438
v -2995.000000 -13259.943359 16085.648438
v 4370.000000 -8380.001953 9928.999023
v 5892.500000 -9821.001953 9928.998047
v 4370.000000 -8380.000000 -698.001343
v 5892.500000 -9821.000000 -698.001587
v 6977.000000 -10500.000977 5960.998047
v 11999.000000 -10500.000977 5960.998047
v 11999.000000 -10500.000000 -698.001709
v 5892.500000 -9821.000977 5466.998535
v 6551.000000 -9823.000977 5503.998535
v 5892.500000 -9821.000000 -698.001587
v 6551.000000 -9823.000000 -698.001587
v 6977.000000 -10500.000000 -698.001709
v 3020.000000 -15035.001953 11555.997070
v 8500.000000 -15035.001953 11555.997070
v 3020.000000 -15035.000977 5069.997559
v 8500.000000 -15035.000977 5069.997559
v 6767.000000 -4250.000977 4999.999512
v 6767.000000 -4250.000488 2674.999268
v 5890.000000 -4250.000977 4999.999512
v 5890.000000 -4250.000488 2674.999268
v 6410.000000 -13972.860352 2014.997681
v 5660.000000 -9690.001953 2014.998413
v 6410.000000 -14526.372070 9929.998047
v 5660.000000 -9690.003906 9927.998047
v -2995.000000 -14784.051758 12121.238281
v -2995.000000 -15178.662109 12874.997070
v 11992.000000 -15178.662109 12874.997070
v -2995.000000 -15181.881836 14109.357422
v 11992.000000 -15181.881836 14109.357422
v -2995.000000 -13259.943359 16085.648438
v 11992.000000 -13259.943359 16085.648438
v 11992.000000 -14784.051758 12121.238281
v 11992.000000 -14233.082031 9760.040039
v -2995.000000 -14233.082031 9760.040039
v 11992.000000 -14468.541992 9100.597656
v -2995.000000 -14468.541992 9100.597656
v 11992.000000 -14256.000977 6171.156738
v -2995.000000 -14256.000977 6171.156738
v 15.000000 -968.142151 -4015.000244
v 15.000000 -968.142700 -849.736755
v 8000.000000 -968.142700 -849.736755
v 15.000000 -1737.076172 467.508636
v 8000.000000 -1737.076172 467.508636
v 15.000000 -3492.509521 3114.767578
v 8000.000000 -3492.509521 3114.767578
v 8000.000000 -968.142151 -4015.000244
v 7337.000000 -27096.001953 12403.995117
v 7337.000000 -27096.001953 6119.995605
v -2994.000000 -27096.001953 12403.995117
v -2994.000000 -27096.001953 6119.995605
v 3000.000000 -16705.003906 20999.998047
v 11984.000000 -16705.003906 20999.998047
v 3000.000000 -16705.003906 18974.998047
v 11984.000000 -16705.003906 18974.998047
v 3000.000000 -15209.802734 18767.708984
v 11984.000000 -15209.802734 18767.708984
v 6251.000000 -4250.000977 6445.999512
v 6251.000000 -4250.000977 6316.999512
v 2286.000000 -4250.000977 5768.999512
v 2286.000000 -4250.000977 5639.999512
v 10969.000000 -10888.201172 4371.527832
v 5649.000000 -10888.201172 4371.527832
v 10969.000000 -14258.621094 7304.285645
v 5649.000000 -14258.621094 7304.285645
v -2999.000000 -21300.201172 11408.996094
v -2999.000000 -21300.111328 13724.196289
v 5985.000000 -21300.201172 11408.996094
v 5985.000000 -21300.111328 13724.196289
v -2999.000000 -20172.261719 15797.777344
v 5985.000000 -20172.261719 15797.777344
v -2999.000000 -20174.751953 16691.066406
v 5985.000000 -20174.751953 16691.066406
v -2999.000000 -19203.253906 18205.005859
v 5985.000000 -19203.253906 18205.005859
v -2999.000000 -18000.673828 19609.896484
v 5985.000000 -18000.673828 19609.896484
v 5985.000000 -18000.673828 21999.996094
v -2999.000000 -18000.673828 21999.996094
v 2320.000000 -988.499329 -4015.000244
v 1710.000000 -147.999344 -4015.000000
v 2320.000000 -988.500488 2999.999756
v 1710.000000 -148.000488 3000.000000
v -500.000000 -149.999344 -4015.000000
v -500.000000 -150.000488 3000.000000
v 6446.000000 -16701.683594 20341.998047
v 4833.000000 -16700.683594 20341.998047
v 6446.000000 -16701.683594 24559.998047
v 4833.000000 -16700.683594 24559.998047
v 4030.000000 -17201.183594 20341.998047
v 4030.000000 -17201.183594 24559.998047
v 2674.000000 -18028.183594 24559.996094
v 2674.000000 -18028.183594 20341.996094
v 11990.000000 -10500.000977 5960.998047
v 7253.000000 -10500.000977 5960.998047
v 11990.000000 -15000.000977 8039.997559
v 7253.000000 -15000.000977 8039.997559
v 9007.000000 -17000.003906 24499.998047
v 9007.000000 -17000.003906 20499.998047
v 5025.000000 -17000.003906 24499.998047
v 5025.000000 -17000.003906 20499.998047
v 3500.000000 -18350.003906 24499.996094
v 3500.000000 -18350.003906 20499.996094
v 15.000000 -18350.003906 24499.996094
v 15.000000 -18350.003906 20499.996094
v -3005.020996 -5700.000000 -688.717712
v -3005.020996 -5700.001465 9912.282227
v 4370.000000 -8380.000000 -706.001343
v 4370.000000 -8380.001953 9927.999023
vt 0.000000 0.000000
vt 1.000000 0.000000
vt 1.000000 1.000000
vt 0.000000 0.000000
vt 1.000000 1.000000
vt 0.000000 0.000000
vt 1.000000 0.000000
vt 0.000000 0.000000
vt 1.000000 1.000000
vt 0.000000 0.000000
vt 1.000000 0.000000
vt 1.000000 1.000000
vt 0.000000 0.000000
vt 1.000000 0.000000
vt 0.000000 0.000000
vt 1.000000 0.000000
vt 1.000000 1.000000
vt 0.000000 0.000000
vt 1.000000 0.000000
vt 1.000000 1.000000
vt 0.000000 0.000000
vt 1.000000 1.000000
vt 0.000000 0.000000
vt 1.000000 0.000000
vt 0.000000 0.000000
vt 1.000000 1.000000
vt 1.000000 0.000000
vt 0.000000 0.000000
vt 1.000000 0.000000
vt 1.000000 1.000000
vt 0.000000 0.000000
vt 1.000000 0.000000
vt 0.000000 0.000000
vt 1.000000 0.000000
vt 1.000000 1.000000
vt 0.000000 0.000000
vt 1.000000 0.000000
vt 0.000000 0.000000
vt 1.000000 0.000000
vt 1.000000 1.000000
vt 0.000000 0.000000
vt 1.000000 0.000000
vt 0.000000 0.000000
vt 1.000000 0.000000
vt 1.000000 1.000000
vt 0.000000 0.000000
vt 1.000000 0.000000
vt 0.000000 0.000000
vt 1.000000 1.000000
vt 0.000000 0.000000
vt 1.000000 0.000000
vt 0.000000 0.000000
vt 1.000000 1.000000
vt 1.000000 0.000000
vt 1.000000 1.000000
vt 0.000000 0.000000
vt 1.000000 0.000000
vt 1.000000 1.000000
vt 0.000000 0.000000
vt 1.000000 0.000000
vt 0.000000 0.000000
vt 1.000000 1.000000
vt 0.000000 0.000000
vt 1.000000 0.000000
vt 0.000000 0.000000
vt 1.000000 1.000000
vt 0.000000 0.000000
vt 1.000000 0.000000
vt 1.000000 1.000000
vt 0.000000 0.000000
vt 1.000000 0.000000
vt 0.000000 0.000000
vt 1.000000 1.000000
vt 0.000000 0.000000
vt 1.000000 0.000000
vt 0.000000 0.000000
vt 1.000000 1.000000
vt 1.000000 0.000000
vt 1.000000 1.000000
vt 0.000000 0.000000
vt 1.000000 0.000000
vt 1.000000 1.000000
vt 0.000000 0.000000
vt 1.000000 0.000000
vt 0.000000 0.000000
vt 1.000000 0.000000
vt 1.000000 1.000000
vt 0.000000 0.000000
vt 1.000000 0.000000
vt 0.000000 0.000000
vt 1.000000 1.000000
vt 0.000000 0.000000
vt 1.000000 0.000000
vt 0.000000 0.000000
vt 1.000000 0.000000
vt 1.000000 1.000000
vt 0.000000 0.000000
vt 1.000000 0.000000
vt 0.000000 0.000000
vt 1.000000 0.000000
vt 1.000000 1.000000
vt 0.000000 0.000000
vt 1.000000 0.000000
vt 0.000000 0.000000
vt 1.000000 0.000000
vt 1.000000 1.000000
vt 0.000000 0.000000
vt 1.000000 1.000000
vt 0.000000 0.000000
vt 1.000000 0.000000
vt 0.000000 0.000000
vt 1.000000 1.000000
vt 0.000000 0.000000
vt 1.000000 0.000000
vt 0.000000 0.000000
vt 1.000000 1.000000
vt 0.000000 0.000000
vt 1.000000 0.000000
vt 0.000000 0.000000
vt 1.000000 1.000000
vt 0.000000 0.000000
vt 1.000000 0.000000
vt 0.000000 0.000000
vt 1.000000 1.000000
vt 0.000000 0.000000
vt 1.000000 0.000000
vt 1.000000 0.000000
vt 1.000000 1.000000
vt 0.000000 0.000000
vt 1.000000 0.000000
vt 1.000000 1.000000
vt 0.000000 0.000000
vt 1.000000 1.000000
vt 0.000000 0.000000
vt 1.000000 0.000000
vt 0.000000 0.000000
vt 1.000000 1.000000
vt 0.000000 0.000000
vt 1.000000 0.000000
vt 1.000000 1.000000
vt 0.000000 0.000000
vt 1.000000 1.000000
vt 0.000000 0.000000
vt 1.000000 0.000000
vt 0.000000 0.000000
vt 1.000000 1.000000
vt 0.000000 0.000000
vt 1.000000 0.000000
vt 1.000000 0.000000
vt 1.000000 1.000000
vt 0.000000 0.000000
vt 1.000000 0.000000
vt 1.000000 1.000000
vt 0.000000 0.000000
vt 1.000000 0.000000
vt 0.000000 0.000000
vt 1.000000 0.000000
vt 1.000000 1.000000
vt 0.000000 0.000000
vt 1.000000 0.000000
vt 0.000000 0.000000
vt 1.000000 1.000000
vt 0.000000 0.000000
vt 1.000000 0.000000
vt 0.000000 0.000000
vt 1.000000 1.000000
vt 0.000000 0.000000
vt 1.000000 0.000000
vt 0.000000 0.000000
vt 1.000000 0.000000
vt 1.000000 1.000000
vt 0.000000 0.000000
vt 1.000000 0.000000
vn 0.0000 0.9672 0.2540
vn 0.0000 0.7625 0.6469
vn 0.6874 0.7263 0.0000
vn 0.0000 1.0000 0.0000
vn 0.0030 1.0000 0.0000
vn 0.8464 0.5326 0.0000
vn 0.9849 0.1725 0.0121
vn 0.9882 0.1532 0.0000
vn 0.0000 0.8859 0.4638
vn 0.0000 1.0000 0.0026
vn 0.0000 0.7169 -0.6972
vn 0.0000 0.9738 0.2272
vn 0.0000 0.9418 -0.3363
vn 0.0000 0.9974 0.0724
vn 0.0000 0.8636 0.5041
vn 0.0000 0.8334 0.5526
vn 0.0000 0.1373 0.9905
vn 0.0000 0.6564 0.7544
vn 0.0000 0.8785 -0.4778
vn 0.0000 1.0000 0.0028
vn 0.0000 0.8416 -0.5401
vn 0.0000 0.7597 -0.6503
vn 0.8093 0.5874 0.0000
vn -0.0009 1.0000 0.0000
vn 0.0006 1.0000 0.0000
vn -0.5290 0.8487 0.0000
vn -0.5207 0.8537 0.0000
vn 0.0000 0.4194 0.9078
vn -0.6628 0.7488 0.0000
vn 0.3415 0.9399 0.0000
usemtl None
s 1
f 1/1/1 2/2/1 3/3/1
f 3/4/1 2/2/1 4/5/1
f 2/6/2 5/7/2 4/5/2
f 4/8/2 5/7/2 6/9/2
f 7/10/3 8/11/3 9/12/3
f 8/13/3 10/14/3 9/12/3
f 11/15/4 12/16/4 13/17/4
f 14/18/5 15/19/5 16/20/5
f 16/21/5 15/19/5 17/22/5
f 15/23/6 11/24/6 17/22/6
f 17/25/6 11/24/6 18/26/6
f 11/15/4 13/27/4 18/26/4
f 19/28/4 20/29/4 21/30/4
f 20/31/4 22/32/4 21/30/4
f 23/33/4 24/34/4 25/35/4
f 24/36/4 26/37/4 25/35/4
f 27/38/7 28/39/7 29/40/7
f 28/41/8 30/42/8 29/40/8
f 31/43/9 32/44/9 33/45/9
f 32/46/10 34/47/10 33/45/10
f 33/48/10 34/47/10 35/49/10
f 34/50/11 36/51/11 35/49/11
f 35/52/11 36/51/11 37/53/11
f 33/48/9 38/54/9 31/55/9
f 38/56/12 39/57/12 31/55/12
f 31/43/12 39/57/12 40/58/12
f 39/59/13 41/60/13 40/58/13
f 40/61/13 41/60/13 42/62/13
f 41/63/14 43/64/14 42/62/14
f 42/65/14 43/64/14 44/66/14
f 45/67/4 46/68/4 47/69/4
f 46/70/15 48/71/15 47/69/15
f 47/72/15 48/71/15 49/73/15
f 48/74/16 50/75/16 49/73/16
f 49/76/16 50/75/16 51/77/16
f 47/72/4 52/78/4 45/79/4
f 53/80/4 54/81/4 55/82/4
f 54/83/4 56/84/4 55/82/4
f 57/85/4 58/86/4 59/87/4
f 58/88/4 60/89/4 59/87/4
f 59/90/17 60/89/17 61/91/17
f 60/92/17 62/93/17 61/91/17
f 63/94/4 64/95/4 65/96/4
f 64/97/4 66/98/4 65/96/4
f 67/99/18 68/100/18 69/101/18
f 68/102/18 70/103/18 69/101/18
f 71/104/4 72/105/4 73/106/4
f 73/107/4 72/105/4 74/108/4
f 72/109/19 75/110/19 74/108/19
f 74/111/19 75/110/19 76/112/19
f 75/113/20 77/114/20 76/112/20
f 76/115/20 77/114/20 78/116/20
f 77/117/21 79/118/21 78/116/21
f 78/119/21 79/118/21 80/120/21
f 79/121/22 81/122/22 80/120/22
f 80/123/22 81/122/22 82/124/22
f 81/125/4 83/126/4 82/124/4
f 81/125/4 84/127/4 83/128/4
f 85/129/23 86/130/23 87/131/23
f 87/132/23 86/130/23 88/133/23
f 86/134/24 89/135/24 88/133/24
f 88/136/24 89/135/24 90/137/24
f 91/138/25 92/139/25 93/140/25
f 93/141/25 92/139/25 94/142/25
f 92/143/26 95/144/26 94/142/26
f 94/145/26 95/144/26 96/146/26
f 95/147/27 97/148/27 96/146/27
f 95/147/27 98/149/27 97/150/27
f 99/151/28 100/152/28 101/153/28
f 100/154/28 102/155/28 101/153/28
f 103/156/4 104/157/4 105/158/4
f 104/159/4 106/160/4 105/158/4
f 105/161/29 106/160/29 107/162/29
f 106/163/29 108/164/29 107/162/29
f 107/165/4 108/164/4 109/166/4
f 108/167/4 110/168/4 109/166/4
f 111/169/30 112/170/30 113/171/30
f 112/172/30 114/173/30 113/171/30
