# Blender v2.79 (sub 0) OBJ File: ''
# www.blender.org
mtllib Shard.mtl
v -1.497499 0.122341 -1.497499
v 0.000000 -1.865347 -1.093699
v -1.093699 -1.865347 -0.000000
v 0.000000 -3.857109 -0.000001
v -1.497499 0.122341 1.497499
v 0.000000 1.134215 -2.094018
v -0.973680 2.330897 -0.973680
v 0.000000 2.630154 -1.470124
v 0.000000 3.904739 0.000001
v -2.094018 1.134215 0.000000
v -1.470123 2.630154 0.000000
v 1.093699 -1.865347 -0.000000
v 1.497499 0.122341 -1.497499
v -0.973680 2.330897 0.973680
v 0.000000 -1.865347 1.093699
v 0.000000 1.134215 2.094018
v 0.000000 2.630154 1.470124
v 1.497499 0.122341 1.497499
v 0.973680 2.330897 0.973680
v 2.094018 1.134215 0.000000
v 1.470123 2.630154 0.000000
v 0.973680 2.330897 -0.973680
vt 0.443443 0.002002
vt 0.443443 0.248999
vt 0.224224 0.248999
vt 0.887888 0.248999
vt 0.887888 0.002002
vt 0.668669 0.248999
vt 0.221221 0.998999
vt 0.002002 0.998999
vt 0.221221 0.752002
vt 0.443443 0.498999
vt 0.224224 0.498999
vt 0.443443 0.252002
vt 0.887888 0.998999
vt 0.887888 0.877002
vt 0.668669 0.998999
vt 0.221221 0.252002
vt 0.002002 0.498999
vt 0.221221 0.498999
vt 0.887888 0.627002
vt 0.887888 0.873999
vt 0.779780 0.873999
vt 0.665666 0.498999
vt 0.446446 0.498999
vt 0.665666 0.252002
vt 0.665666 0.998999
vt 0.665666 0.877002
vt 0.446446 0.998999
vt 0.443443 0.502002
vt 0.224224 0.748999
vt 0.443443 0.748999
vt 0.887888 0.623999
vt 0.887888 0.502002
vt 0.668669 0.623999
vt 0.221221 0.248999
vt 0.002002 0.248999
vt 0.221221 0.002002
vt 0.221221 0.748999
vt 0.002002 0.748999
vt 0.221221 0.502002
vt 0.665666 0.248999
vt 0.446446 0.248999
vt 0.665666 0.002002
vt 0.443443 0.752002
vt 0.224224 0.998999
vt 0.443443 0.998999
vt 0.446446 0.873999
vt 0.665666 0.873999
vt 0.665666 0.752002
vt 0.667668 0.247998
vt 0.886887 0.001001
vt 0.667668 0.001001
vt 0.776777 0.627002
vt 0.776777 0.873999
vt 0.668669 0.873999
vt 0.665666 0.748999
vt 0.446446 0.748999
vt 0.665666 0.502002
vt 0.998999 0.248999
vt 0.890891 0.248999
vt 0.998999 0.002002
vt 0.887888 0.252002
vt 0.668669 0.498999
vt 0.887888 0.498999
vt 0.223223 0.001001
vt 0.442442 0.001001
vt 0.223223 0.247998
vt 0.001001 0.747998
vt 0.220220 0.501001
vt 0.001001 0.501001
vt 0.445445 0.497998
vt 0.664665 0.251001
vt 0.445445 0.251001
vt 0.001001 0.997998
vt 0.220220 0.751001
vt 0.001001 0.751001
vt 0.445445 0.872998
vt 0.445445 0.751001
vt 0.664665 0.751001
vt 0.997998 0.001001
vt 0.889890 0.001001
vt 0.889890 0.247998
vt 0.667668 0.497998
vt 0.886887 0.251001
vt 0.667668 0.251001
vt 0.442442 0.751001
vt 0.223223 0.997998
vt 0.223223 0.751001
vt 0.001001 0.247998
vt 0.220220 0.001001
vt 0.001001 0.001001
vt 0.667668 0.622998
vt 0.667668 0.501001
vt 0.886887 0.501001
vt 0.445445 0.747998
vt 0.664665 0.501001
vt 0.445445 0.501001
vt 0.223223 0.501001
vt 0.442442 0.501001
vt 0.223223 0.747998
vt 0.775776 0.626001
vt 0.667668 0.626001
vt 0.667668 0.872998
vt 0.445445 0.247998
vt 0.445445 0.001001
vt 0.664665 0.001001
vt 0.664665 0.876001
vt 0.445445 0.997998
vt 0.445445 0.876001
vt 0.223223 0.497998
vt 0.442442 0.251001
vt 0.223223 0.251001
vt 0.886887 0.626001
vt 0.778779 0.626001
vt 0.778779 0.872998
vt 0.001001 0.251001
vt 0.220220 0.251001
vt 0.001001 0.497998
vt 0.667668 0.997998
vt 0.667668 0.876001
vt 0.886887 0.876001
vn -0.6979 -0.1610 -0.6979
vn -0.1153 -0.4837 -0.8676
vn -0.8676 -0.4837 -0.1153
vn -0.0189 -0.9996 -0.0189
vn -0.7053 -0.0721 0.7053
vn 0.0000 0.1370 -0.9906
vn -0.6269 0.4626 -0.6269
vn 0.0000 0.5812 -0.8137
vn 0.0060 1.0000 0.0060
vn -0.9888 0.1434 0.0412
vn -0.8137 0.5812 0.0000
vn 0.8948 -0.4464 -0.0000
vn 0.6993 -0.1483 -0.6993
vn -0.6478 0.4008 0.6478
vn 0.0000 -0.4464 0.8948
vn -0.0412 0.1434 0.9888
vn 0.0099 0.5891 0.8080
vn 0.6993 -0.1483 0.6993
vn 0.6107 0.5041 0.6107
vn 0.9906 0.1370 0.0000
vn 0.8080 0.5891 0.0099
vn 0.6269 0.4626 -0.6269
usemtl emerald
s 1
f 1/1/1 2/2/2 3/3/3
f 2/4/2 4/5/4 3/6/3
f 3/7/3 4/8/4 5/9/5
f 6/10/6 1/11/1 7/12/7
f 8/13/8 7/14/7 9/15/9
f 3/16/3 10/17/10 1/18/1
f 10/19/10 11/20/11 7/21/7
f 12/22/12 4/23/4 13/24/13
f 11/25/11 14/26/14 9/27/9
f 15/28/15 16/29/16 5/30/5
f 17/31/17 14/32/14 16/33/16
f 14/34/14 10/35/10 16/36/16
f 15/37/15 4/38/4 18/39/18
f 16/40/16 18/41/18 19/42/19
f 12/43/12 20/44/20 18/45/18
f 20/46/20 21/47/21 19/48/19
f 21/49/21 17/50/17 19/51/19
f 6/52/6 8/53/8 22/54/22
f 20/55/20 13/56/13 22/57/22
f 21/58/21 22/59/22 9/60/9
f 2/61/2 6/62/6 13/63/13
f 1/64/1 6/65/6 2/66/2
f 18/67/18 4/68/4 12/69/12
f 5/70/5 4/71/4 15/72/15
f 13/73/13 4/74/4 2/75/2
f 19/76/19 17/77/17 16/78/16
f 7/79/7 11/80/11 9/81/9
f 16/82/16 10/83/10 5/84/5
f 10/85/10 3/86/3 5/87/5
f 19/88/19 18/89/18 20/90/20
f 22/91/22 21/92/21 20/93/20
f 22/94/22 13/95/13 6/96/6
f 18/97/18 16/98/16 15/99/15
f 7/100/7 8/101/8 6/102/6
f 21/103/21 9/104/9 17/105/17
f 9/106/9 14/107/14 17/108/17
f 7/109/7 1/110/1 10/111/10
f 14/112/14 11/113/11 10/114/10
f 13/115/13 20/116/20 12/117/12
f 22/118/22 8/119/8 9/120/9
