# Blender v2.79 (sub 0) OBJ File: ''
# www.blender.org
mtllib Killplanes.mtl
v 1793.004272 -903.840820 -876.515137
v 1793.004272 -903.840759 -1180.485107
v 1793.004272 -873.840820 -876.515137
v 1793.004272 -873.840759 -1180.485107
v 3743.104248 -1012.798828 75.568405
v 3743.104248 -1012.798706 -840.568787
v 2056.254883 -721.864258 -876.515137
v 2056.254883 -721.864197 -1180.485107
v 4178.969727 -1495.282593 -530.515259
v 4442.220215 -1343.306030 -530.515259
v 4178.969727 -1495.282593 -834.485229
v 4442.220215 -1343.306030 -834.485229
v 2625.864014 -1042.798706 -840.568787
v 2625.864014 -1042.798828 75.568413
v 3743.104248 -1042.798706 -840.568787
v 3743.104248 -1042.798828 75.568413
v 2056.254883 -751.864197 -1180.485107
v 1793.004272 -903.840759 -1180.485107
v 2056.254883 -721.864197 -1180.485107
v 1793.004272 -873.840759 -1180.485107
v 2625.864014 -1012.798706 -840.568787
v 2625.864014 -1012.798828 75.568405
v 3743.104248 -1012.798706 -840.568787
v 3743.104248 -1012.798828 75.568405
v 1793.004272 -873.840759 -1180.485107
v 1793.004272 -873.840820 -876.515137
v 2056.254883 -721.864197 -1180.485107
v 2056.254883 -721.864258 -876.515137
v 4442.220215 -1373.306030 -834.485229
v 4178.969727 -1525.282593 -834.485229
v 4442.220215 -1343.306030 -834.485229
v 4178.969727 -1495.282593 -834.485229
v 2625.864014 -1012.798828 75.568405
v 3743.104248 -1012.798828 75.568405
v 2625.864014 -1042.798828 75.568413
v 3743.104248 -1042.798828 75.568413
v 2625.864014 -1012.798706 -840.568787
v 3743.104248 -1012.798706 -840.568787
v 2625.864014 -1042.798706 -840.568787
v 3743.104248 -1042.798706 -840.568787
v 2625.864014 -1012.798706 -840.568787
v 2625.864014 -1012.798828 75.568405
v 2625.864014 -1042.798706 -840.568787
v 2625.864014 -1042.798828 75.568413
v 3743.104248 -1042.798706 -840.568787
v 3743.104248 -1042.798828 75.568413
v 2056.254883 -751.864197 -1180.485107
v 2056.254883 -751.864258 -876.515137
v 4442.220215 -1343.306030 -530.515259
v 4442.220215 -1343.306030 -834.485229
v 4178.969727 -1495.282593 -530.515259
v 4178.969727 -1495.282593 -834.485229
v 2056.254883 -721.864258 -876.515137
v 1793.004272 -903.840820 -876.515137
v 2056.254883 -751.864258 -876.515137
v 1793.004272 -873.840820 -876.515137
v 1793.004272 -903.840759 -1180.485107
v 1793.004272 -903.840820 -876.515137
v 2056.254883 -751.864197 -1180.485107
v 2056.254883 -751.864258 -876.515137
v 4178.969727 -1525.282593 -530.515259
v 4442.220215 -1373.306030 -530.515259
v 4442.220215 -1373.306030 -834.485229
v 4178.969727 -1525.282593 -834.485229
v 4178.969727 -1495.282593 -530.515259
v 4178.969727 -1525.282593 -834.485229
v 4178.969727 -1525.282593 -530.515259
v 4442.220215 -1343.306030 -530.515259
v 4442.220215 -1373.306030 -530.515259
v 4178.969727 -1525.282593 -530.515259
v 4442.220215 -1373.306030 -834.485229
v 4442.220215 -1373.306030 -530.515259
vt 0.000000 0.000000
vt 1.000000 0.000000
vt 0.000000 0.000000
vt 1.000000 1.000000
vt 0.000000 1.000000
vt 0.000000 1.000000
vt 0.000000 1.000000
vt 0.000000 0.000000
vt 0.000000 1.000000
vt 1.000000 0.000000
vt 0.000000 1.000000
vt 0.000000 0.000000
vt 1.000000 0.000000
vt 1.000000 1.000000
vt 1.000000 0.000000
vt 0.000000 1.000000
vt 1.000000 0.000000
vt 0.000000 0.000000
vt 1.000000 0.000000
vt 1.000000 1.000000
vt 0.000000 0.000000
vt 1.000000 1.000000
vt 1.000000 1.000000
vt 1.000000 1.000000
vt 1.000000 1.000000
vt 0.000000 1.000000
vt 1.000000 1.000000
vt 0.000000 1.000000
vt 1.000000 0.000000
vt 0.000000 0.000000
vt 1.000000 0.000000
vt 1.000000 1.000000
vt 1.000000 0.000000
vt 0.000000 1.000000
vt 0.000000 0.000000
vt 0.000000 1.000000
vt 0.000000 0.000000
vt 1.000000 0.000000
vt 0.000000 0.000000
vt 1.000000 0.000000
vt 0.000000 1.000000
vt 0.000000 0.000000
vt 0.000000 1.000000
vt 1.000000 1.000000
vt 1.000000 1.000000
vt 0.000000 0.000000
vt 1.000000 0.000000
vt 1.000000 1.000000
vt 0.000000 0.000000
vt 1.000000 0.000000
vt 0.000000 0.000000
vt 1.000000 0.000000
vt 0.000000 1.000000
vt 0.000000 0.000000
vt 0.000000 1.000000
vt 1.000000 0.000000
vt 0.000000 0.000000
vt 1.000000 0.000000
vt 1.000000 1.000000
vt 1.000000 0.000000
vt 1.000000 1.000000
vt 0.000000 1.000000
vt 0.000000 1.000000
vt 0.000000 1.000000
vt 0.000000 0.000000
vt 0.000000 1.000000
vt 1.000000 0.000000
vt 1.000000 1.000000
vt 1.000000 1.000000
vt 1.000000 1.000000
vt 1.000000 1.000000
vt 0.000000 0.000000
vn 0.0000 0.0000 -1.0000
vn 0.0000 0.0000 1.0000
vn 1.0000 0.0000 0.0000
vn -0.5000 0.8660 0.0000
vn -1.0000 0.0000 0.0000
vn 0.5000 -0.8660 0.0000
vn 0.0000 -1.0000 -0.0000
vn 0.0000 1.0000 0.0000
usemtl material_0
f 29/1/1 32/2/1 31/3/1
f 9/4/2 69/5/2 68/6/2
f 72/7/3 12/8/3 10/9/3
f 52/10/4 49/11/4 50/12/4
f 66/13/5 65/14/5 11/15/5
f 62/16/6 64/17/6 63/18/6
f 29/1/1 30/19/1 32/2/1
f 9/4/2 70/20/2 69/5/2
f 72/7/3 71/21/3 12/8/3
f 52/10/4 51/22/4 49/11/4
f 66/13/5 67/23/5 65/14/5
f 62/16/6 61/24/6 64/17/6
f 35/25/2 34/26/2 33/27/2
f 16/28/7 13/29/7 15/30/7
f 43/31/5 42/32/5 41/33/5
f 46/34/3 6/35/3 5/36/3
f 40/37/1 37/38/1 38/39/1
f 21/40/8 24/41/8 23/42/8
f 35/25/2 36/43/2 34/26/2
f 16/28/7 14/44/7 13/29/7
f 43/31/5 44/45/5 42/32/5
f 46/34/3 45/46/3 6/35/3
f 40/37/1 39/47/1 37/38/1
f 21/40/8 22/48/8 24/41/8
f 17/49/1 20/50/1 19/51/1
f 25/52/4 28/53/4 27/54/4
f 60/55/6 2/56/6 59/57/6
f 57/58/5 56/59/5 4/60/5
f 3/61/2 55/62/2 53/63/2
f 48/64/3 8/65/3 7/66/3
f 17/49/1 18/67/1 20/50/1
f 25/52/4 26/68/4 28/53/4
f 60/55/6 1/69/6 2/56/6
f 57/58/5 58/70/5 56/59/5
f 3/61/2 54/71/2 55/62/2
f 48/64/3 47/72/3 8/65/3
